<svg width="175" height="172" viewBox="0 0 175 172" fill="none" xmlns="http://www.w3.org/2000/svg">
<path d="M36.192 51.12V27.2C29.2 28.856 18.712 31.432 15.032 31.432C10.432 31.432 7.12 28.12 7.12 23.52C7.12 18.92 10.616 16.896 14.664 16.344C28.832 14.136 42.816 10.456 56.432 5.488C60.848 3.832 62.872 2.54399 66.184 2.54399C69.864 2.54399 74.096 5.11999 74.096 10.272C74.096 15.24 71.52 17.08 51.096 23.52V51.12H68.76C73.544 51.12 75.568 53.88 75.568 57.928C75.568 61.976 73.544 64.736 68.76 64.736H51.096V77.616C52.016 75.592 54.776 73.752 57.168 73.752C59.744 73.752 61.4 74.672 63.608 76.88C64.712 78.168 79.064 94.728 79.064 101.168C79.064 104.48 75.936 108.712 70.968 108.712C67.656 108.712 65.816 106.32 63.976 103.56C61.768 99.88 57.904 94.176 55.696 91.416C52.2 86.816 51.464 86.448 51.096 84.976V164.28C51.096 169.616 48.152 171.824 43.552 171.824C39.136 171.824 36.192 169.616 36.192 164.28V95.28C30.304 105.952 22.024 118.464 14.664 126.744C13.376 128.032 11.168 130.24 7.856 130.24C3.624 130.24 0.128 126.744 0.128 122.512C0.128 119.2 2.152 117.36 4.544 114.784C20 97.856 32.512 74.12 35.456 64.736H9.88C5.096 64.736 3.072 61.976 3.072 57.928C3.072 53.88 5.096 51.12 9.88 51.12H36.192ZM99.856 39.712C99.856 46.52 94.704 73.568 91.76 81.664C90.104 86.08 86.976 87.736 84.032 87.736C79.248 87.736 76.304 84.792 76.304 81.112C76.304 80.376 81.088 59.216 81.824 55.168C82.744 49.648 83.48 44.864 83.848 41.92C84.4 37.136 85.32 31.616 91.76 31.616C96.544 31.616 99.856 34.376 99.856 39.712ZM130.4 8.24799V25.176C130.216 40.632 129.664 51.672 129.112 68.6C129.112 71.36 137.944 115.336 163.704 146.064C173.088 157.288 174.376 156.92 174.376 161.336C174.376 165.752 170.144 169.616 165.728 169.616C163.52 169.616 161.128 168.696 156.896 163.728C140.52 144.776 130.952 124.72 122.304 98.592C117.704 115.52 105.56 146.248 78.88 167.96C76.304 169.984 74.832 170.168 73.176 170.168C68.944 170.168 65.264 166.488 65.264 161.704C65.264 159.128 66.92 157.656 69.128 155.632C113.84 115.52 114.576 68.232 114.576 24.992V8.24799C114.576 2.72799 117.704 0.335997 122.488 0.335997C127.272 0.335997 130.4 2.72799 130.4 8.24799ZM174.376 39.344C174.376 43.76 161.496 70.992 154.32 82.032C151.376 86.632 148.8 86.632 146.776 86.632C142.544 86.632 139.048 83.136 139.048 79.272C139.048 76.328 140.704 73.384 142.912 70.072C149.904 58.664 154.504 47.256 158 38.24C159.84 33.64 162.232 31.616 165.544 31.616C170.328 31.616 174.376 34.928 174.376 39.344Z" fill="black"/>
</svg>
