<svg width="177" height="28" viewBox="0 0 177 28" fill="none" xmlns="http://www.w3.org/2000/svg">
<path d="M132.129 12.8982V1.98047H168.639C170.2 10.4686 167.06 16.1786 165.294 17.9726C166.409 22.0323 173.563 23.3545 177 23.5085V27.8138C167.19 27.8138 160.278 24.9436 158.048 23.5085C148.294 27.5062 139.933 27.8138 132.129 27.8138V23.5085C146.844 23.6313 149.408 16.4862 148.851 12.8982H132.129Z" fill="black"/>
<path d="M50.2852 27.5508V1.25586H67.2858V8.63686C68.1219 13.25 80.6636 14.6339 84.5653 14.7877V20.3235C75.0892 20.3235 69.3297 19.4522 67.2858 18.3243V27.5508H50.2852Z" fill="black"/>
<path d="M0 11.9958V2.76953L45.9857 2.92331C46.8218 7.07512 46.8218 12.24 45.1496 14.3023C41.3594 18.9768 31.679 19.428 27.3127 19.0692C26.4208 23.3749 23.7825 26.5013 22.5748 27.5266H11.9841C13.9908 20.3918 12.2628 15.3275 11.148 13.6872H26.7553C27.2012 14.1793 27.3127 15.3275 27.3127 15.84C31.7719 15.471 32.3293 13.2259 31.7719 11.9958H0Z" fill="black"/>
<path d="M94.1875 6.04655V0H120.107V6.04655H94.1875Z" fill="black"/>
<path d="M88.3281 16.9071V8.60352H128.182C128.182 16.2742 129.672 20.0439 123.444 24.288C118.707 27.5171 104.213 27.6711 93.0663 27.6711V24.288C107.559 23.9189 110.903 19.9827 110.903 16.9071H88.3281Z" fill="black"/>
</svg>
