<svg width="306" height="95" viewBox="0 0 306 95" fill="none" xmlns="http://www.w3.org/2000/svg">
<path d="M17 25.959V17.459H2.82227V14.6035H14.1777V8.95898H2.82227V6.10352H14.1777V0.458984H17V6.10352H25.5V8.95898H17V14.6035H28.3555V17.459H19.8223V25.959H17ZM56.6777 11.7812V3.28125H59.5V11.7812H56.6777ZM56.6777 17.459H53.8223V11.7812H56.6777V17.459ZM53.8223 20.2812H51V17.459H53.8223V20.2812ZM51 23.1367H45.3223V20.2812H51V23.1367ZM45.3223 25.959H39.6445V23.1367H45.3223V25.959ZM93.5 25.959H73.6445V23.1035H90.6777V6.10352H73.6445V3.28125H93.5V25.959ZM116.178 0.458984V3.28125H127.5V14.6035H124.678V6.10352H116.178V8.95898H113.322V0.458984H116.178ZM113.322 11.7812H110.5V8.95898H113.322V11.7812ZM116.178 11.7812V8.95898H119V11.7812H116.178ZM110.5 14.6035H107.645V11.7812H110.5V14.6035ZM119 14.6035V11.7812H121.822V14.6035H119ZM124.678 20.2812H121.822V14.6035H124.678V20.2812ZM121.822 23.1367H116.178V20.2812H121.822V23.1367ZM116.178 25.959H107.645V23.1367H116.178V25.959ZM147.322 0.458984V6.10352H164.355V8.95898H155.822V20.2812H153V8.95898H144.5V0.458984H147.322ZM144.5 14.6035H141.645V8.95898H144.5V14.6035ZM153 23.1367H150.178V20.2812H153V23.1367ZM150.178 25.959H144.5V23.1367H150.178V25.959ZM192.678 11.7812V3.28125H195.5V11.7812H192.678ZM192.678 17.459H189.822V11.7812H192.678V17.459ZM189.822 20.2812H187V17.459H189.822V20.2812ZM187 23.1367H181.322V20.2812H187V23.1367ZM181.322 25.959H175.645V23.1367H181.322V25.959ZM229.5 25.959H209.645V23.1035H226.678V6.10352H209.645V3.28125H229.5V25.959ZM2.108 94.89L0.85 94.38L13.872 63.27L15.13 63.78L2.108 94.89ZM21.4227 85.098L21.0747 86.055C20.8717 86.461 20.7267 86.577 20.1467 86.577C19.5667 86.577 19.1897 86.403 19.1897 86.142C19.1897 85.997 19.2187 85.852 19.3057 85.649C19.9147 84.228 20.3497 82.894 20.6977 81.502C20.9007 80.69 21.0457 79.994 21.1037 79.356C21.8287 79.675 22.2347 79.936 22.9307 80.371H29.3107V77.007H22.4667C21.6257 77.007 21.1327 77.036 20.3497 77.21L20.0597 76.079C21.0457 76.224 21.5967 76.282 22.4667 76.282H38.0107C38.8227 75.441 38.9387 75.354 39.1127 75.354C39.2287 75.354 39.4027 75.412 40.2147 76.079C40.6497 76.398 40.7077 76.572 40.7077 76.746C40.7077 76.949 40.6207 77.065 39.9537 77.529V78.515C39.9537 80.632 40.0407 81.386 40.0407 81.56C40.0407 82.14 39.6927 82.314 38.9677 82.314C38.4457 82.314 38.2427 82.169 38.2427 81.676V81.096H31.0217L31.0507 84.373H39.4317C40.1567 83.532 40.2727 83.474 40.4177 83.474C40.5627 83.474 40.7077 83.532 41.5777 84.286C42.0707 84.721 42.1867 84.866 42.1867 85.011C42.1867 85.127 42.0707 85.301 41.4327 85.62C41.1427 87.534 40.8527 88.81 40.5627 89.651C40.2727 90.521 39.9537 91.043 39.4897 91.391C38.9967 91.768 38.2717 91.942 37.7497 91.942C37.5177 91.942 37.4597 91.913 37.4307 91.536C37.3147 90.898 36.9377 90.492 34.5307 89.941C34.3567 89.912 34.3857 89.506 34.5597 89.535C36.5317 89.767 37.2857 89.854 37.9237 89.854C38.4457 89.854 38.6487 89.738 38.9677 88.781C39.1997 88.114 39.5187 86.751 39.7217 85.098H31.0507V87.534C31.0507 91.159 31.1667 93.044 31.1667 93.595C31.1667 94.175 30.7607 94.407 29.9777 94.407C29.4267 94.407 29.2527 94.233 29.2527 93.74C29.2527 93.247 29.3397 89.274 29.4267 86.49C26.3237 89.941 22.3507 92.203 17.8557 93.595C17.6817 93.653 17.4787 93.247 17.6527 93.189C21.6837 91.391 25.6567 88.549 28.2377 85.098H21.4227ZM21.6837 84.373H29.3107V81.096H22.5827C22.3507 82.14 22.0607 83.242 21.6837 84.373ZM31.0217 80.371H38.2427V77.007H31.0217V80.371ZM22.2347 71.004H27.2517C28.2377 69.844 28.4117 69.728 28.5857 69.728C28.7307 69.728 28.9627 69.873 30.0647 70.743C30.5577 71.149 30.6447 71.294 30.6447 71.439C30.6447 71.642 30.5577 71.729 30.2677 71.729H24.6417C26.0047 72.541 26.7587 73.44 26.7587 74.339C26.7587 75.035 26.2657 75.383 25.7147 75.383C25.2797 75.383 25.0767 75.122 24.9607 74.339C24.8157 73.208 24.4967 72.454 23.8587 71.729H21.7707C20.6397 73.44 19.2767 74.861 17.4787 76.108C17.3337 76.224 17.0437 75.934 17.1597 75.818C18.7257 74.165 20.1177 71.99 20.9297 70.134C21.3357 69.206 21.6257 68.394 21.7707 67.669C24.0037 68.336 24.2937 68.51 24.2937 68.8C24.2937 69.061 24.0327 69.235 23.1627 69.351C22.8727 69.931 22.5537 70.482 22.2347 71.004ZM33.0807 71.004H39.6057C40.5917 69.757 40.8237 69.612 40.9687 69.612C41.1137 69.612 41.3457 69.757 42.5347 70.685C43.1147 71.149 43.2017 71.294 43.2017 71.439C43.2017 71.642 43.0857 71.729 42.7957 71.729H35.4587C36.8217 72.512 37.6337 73.382 37.6337 74.136C37.6337 74.977 37.1987 75.325 36.7057 75.325C36.2127 75.325 35.9517 75.151 35.8357 74.455C35.6617 73.15 35.3137 72.396 34.7047 71.729H32.6167C31.7467 73.034 30.6737 74.194 29.2527 75.296C29.1077 75.412 28.8467 75.18 28.9627 75.035C30.1807 73.469 31.1957 71.845 31.8337 70.25C32.1817 69.38 32.4137 68.51 32.5297 67.727C34.5307 68.307 35.0237 68.539 35.0237 68.858C35.0237 69.119 34.8207 69.264 33.9217 69.409C33.6607 69.96 33.3997 70.482 33.0807 71.004ZM46.8557 81.357L46.5657 80.255C47.5227 80.429 48.3057 80.458 49.2917 80.458H67.6777C69.2147 78.718 69.4467 78.544 69.5917 78.544C69.7657 78.544 69.9687 78.718 71.5637 79.994C72.3467 80.632 72.4047 80.777 72.4047 80.922C72.4047 81.096 72.3177 81.183 72.0277 81.183H49.3207C48.3057 81.183 47.6677 81.241 46.8557 81.357ZM87.9487 73.788H93.8357C93.8067 72.976 93.7777 72.135 93.7487 71.207C93.7197 69.438 93.6907 69.003 93.5747 68.191C96.0397 68.481 96.3297 68.568 96.3297 68.945C96.3297 69.148 96.1847 69.322 95.4597 69.641C95.4597 71.178 95.4887 72.541 95.5467 73.788H98.8237C99.7517 72.657 99.8967 72.57 100.071 72.57C100.245 72.57 100.361 72.657 101.405 73.498C101.869 73.904 101.956 74.078 101.956 74.252C101.956 74.426 101.84 74.513 101.55 74.513H95.5757C95.7207 77.819 96.0107 80.226 96.4457 82.488C96.9097 84.808 97.8957 87.447 98.9977 89.158C99.5487 90.028 99.8097 90.289 100.013 90.289C100.216 90.289 100.651 89.448 101.608 86.983C101.666 86.838 101.927 86.925 101.898 87.07C101.55 89.332 101.376 90.811 101.376 91.014C101.376 91.304 101.492 91.565 101.666 91.826C101.811 92.058 101.927 92.319 101.927 92.58C101.927 93.16 101.608 93.537 101.057 93.537C100.477 93.537 99.5487 92.899 98.6787 91.797C97.1707 89.912 95.6337 86.867 94.8507 83.068C94.2997 80.255 94.0097 77.877 93.8647 74.513H87.9487C87.3107 74.513 86.8467 74.542 86.0637 74.687L85.8027 73.556C86.6727 73.759 87.1657 73.788 87.9487 73.788ZM88.6447 88.607V80.458H87.3107C86.7307 80.458 86.3247 80.487 85.5707 80.632L85.2807 79.559C86.1217 79.704 86.5567 79.733 87.3107 79.733H90.9647C91.8347 78.631 91.9797 78.573 92.1247 78.573C92.2987 78.573 92.4727 78.631 93.4877 79.501C93.8937 79.849 93.9807 80.023 93.9807 80.197C93.9807 80.371 93.8647 80.458 93.5747 80.458H90.3557V88.114C91.8637 87.65 93.3427 87.099 94.5317 86.606C94.7057 86.548 94.8507 86.867 94.7057 86.954C92.2407 88.578 89.6887 89.738 86.5567 90.898C86.4697 91.71 86.3247 91.884 86.0637 91.913C85.8027 91.913 85.5707 91.507 84.8747 89.361C85.4547 89.303 85.9767 89.216 86.7017 89.071C87.3107 88.955 87.9777 88.781 88.6447 88.607ZM82.0327 92.203H78.2917V93.247C78.2917 93.74 77.9727 93.943 77.3057 93.943C76.8127 93.943 76.5807 93.827 76.5807 93.363C76.5807 92.928 76.6677 91.797 76.6677 88.578C76.6677 86.461 76.6677 85.62 76.5227 84.344C77.3057 84.663 77.7987 84.895 78.5237 85.33H81.8877C82.5837 84.518 82.6997 84.46 82.8737 84.46C82.9897 84.46 83.1637 84.518 83.8887 85.127C84.3237 85.504 84.4107 85.649 84.4107 85.794C84.4107 85.997 84.2657 86.142 83.6567 86.548V88.23C83.6567 91.217 83.7437 92.522 83.7437 92.841C83.7437 93.392 83.3957 93.595 82.7577 93.595C82.2357 93.595 82.0327 93.45 82.0327 93.015V92.203ZM82.0327 91.478V86.055H78.2917V91.478H82.0327ZM96.8517 69.467C96.7357 69.38 96.8807 69.177 97.0257 69.206C98.6787 69.525 100.042 70.511 100.042 71.497C100.042 72.048 99.6647 72.483 99.2007 72.483C98.9107 72.483 98.6207 72.251 98.4467 71.758C98.1857 71.062 97.8377 70.337 96.8517 69.467ZM76.6967 70.888L76.4067 69.786C77.2187 69.96 77.6827 69.989 78.4077 69.989H81.5687C82.5257 68.8 82.6997 68.713 82.8447 68.713C83.0187 68.713 83.1927 68.8 84.2947 69.728C84.7587 70.134 84.8457 70.279 84.8457 70.424C84.8457 70.598 84.7297 70.714 84.4687 70.714H78.4077C77.8277 70.714 77.4507 70.743 76.6967 70.888ZM75.4497 74.745L75.1597 73.614C76.0007 73.788 76.4357 73.846 77.2187 73.846H82.0327C82.9897 72.628 83.1347 72.541 83.3087 72.541C83.4537 72.541 83.6277 72.628 84.7587 73.556C85.2227 73.962 85.3097 74.107 85.3097 74.281C85.3097 74.455 85.1937 74.571 84.9037 74.571H77.2187C76.6097 74.571 76.1747 74.6 75.4497 74.745ZM76.6677 78.602L76.3777 77.529C77.1317 77.674 77.5957 77.703 78.2917 77.703H81.8007C82.6997 76.601 82.8447 76.514 83.0187 76.514C83.1637 76.514 83.3667 76.601 84.4107 77.471C84.8457 77.819 84.9037 78.022 84.9037 78.167C84.9037 78.341 84.8167 78.428 84.5267 78.428H78.2917C77.7697 78.428 77.3637 78.486 76.6677 78.602ZM76.6677 82.372L76.3487 81.27C77.1317 81.415 77.5667 81.473 78.2917 81.473H81.6847C82.5837 80.371 82.7577 80.284 82.9027 80.284C83.0477 80.284 83.2507 80.371 84.2657 81.212C84.7297 81.589 84.7877 81.763 84.7877 81.937C84.7877 82.111 84.7007 82.198 84.4397 82.198H78.2627C77.7407 82.198 77.3927 82.227 76.6677 82.372ZM122.836 69.612C120.951 72.86 118.776 75.035 115.064 77.036C114.919 77.123 114.687 76.862 114.832 76.746C117.007 75.093 119.095 72.686 120.458 70.424C121.009 69.525 121.357 68.626 121.56 67.785C123.851 68.539 124.083 68.684 124.083 68.945C124.083 69.148 123.938 69.264 123.358 69.409C124.547 71.207 125.765 72.309 127.186 73.15C128.578 73.991 130.057 74.542 131.391 74.861C131.536 74.89 131.478 75.122 131.333 75.151C130.811 75.267 130.521 75.557 130.26 76.253C130.173 76.485 130.115 76.63 129.941 76.63C129.825 76.63 129.622 76.572 129.245 76.34C128.143 75.702 127.157 75.006 126.171 74.136C125.04 73.121 124.054 71.874 122.836 69.612ZM122.691 85.794L122.517 86.403C121.531 90.057 118.544 92.696 113.991 94.117C113.817 94.175 113.672 93.827 113.846 93.769C115.963 92.754 117.5 91.652 118.718 90.231C119.994 88.839 120.719 87.302 121.125 85.504H118.022V86.026C118.022 86.548 117.703 86.751 117.065 86.751C116.514 86.751 116.34 86.606 116.34 86.171C116.34 85.823 116.427 84.953 116.427 82.227C116.427 80.632 116.398 79.965 116.282 78.747C117.036 79.037 117.558 79.298 118.225 79.733H121.618C121.618 78.66 121.647 77.616 121.647 76.543H119.675C119.124 76.543 118.631 76.572 117.993 76.746L117.703 75.644C118.428 75.789 118.921 75.818 119.617 75.818H124.518C125.33 74.803 125.446 74.658 125.62 74.658C125.765 74.658 125.91 74.745 126.925 75.586C127.331 75.934 127.418 76.108 127.418 76.282C127.418 76.456 127.302 76.543 127.041 76.543H123.271C123.271 77.616 123.271 78.66 123.242 79.733H126.867C127.65 78.892 127.737 78.805 127.911 78.805C128.056 78.805 128.23 78.863 128.984 79.559C129.361 79.907 129.419 80.052 129.419 80.226C129.419 80.4 129.361 80.516 128.752 80.922V82.14C128.752 84.75 128.868 85.649 128.868 85.968C128.868 86.519 128.491 86.693 127.795 86.693C127.273 86.693 127.128 86.548 127.128 86.084V85.504H123.213C124.141 87.505 125.156 88.723 126.635 89.825C128.056 90.898 129.593 91.507 131.13 91.913C131.304 91.971 131.275 92.174 131.101 92.232C130.492 92.406 130.231 92.638 129.912 93.508C129.825 93.769 129.709 93.827 129.535 93.827C129.39 93.827 129.216 93.769 129.042 93.653C127.737 92.87 126.461 91.855 125.417 90.666C124.373 89.506 123.416 88.027 122.691 85.794ZM122.894 84.779H127.128V80.458H123.242C123.213 81.908 123.155 83.358 122.894 84.779ZM118.022 84.779H121.27C121.328 84.46 121.386 84.141 121.415 83.793C121.531 82.836 121.589 81.821 121.618 80.458H118.022V84.779ZM107.263 83.213V83.503C107.263 83.996 106.944 84.17 106.306 84.17C105.813 84.17 105.61 84.054 105.61 83.619C105.61 83.068 105.726 81.154 105.726 75.122C105.726 71.323 105.726 70.192 105.581 68.713C106.306 69.003 106.799 69.264 107.495 69.67H113.034C113.875 68.597 114.02 68.51 114.165 68.51C114.339 68.51 114.484 68.626 115.586 69.554C115.934 69.844 115.992 69.989 115.992 70.134C115.992 70.308 115.876 70.395 115.586 70.395H111.468V73.933H112.599C113.353 73.034 113.498 72.947 113.643 72.947C113.788 72.947 113.962 73.034 114.89 73.817C115.18 74.049 115.267 74.252 115.267 74.397C115.267 74.571 115.151 74.658 114.89 74.658H111.468V78.08H112.657C113.382 77.21 113.527 77.094 113.672 77.094C113.817 77.094 114.02 77.21 114.919 77.964C115.209 78.196 115.296 78.399 115.296 78.544C115.296 78.718 115.18 78.805 114.919 78.805H111.468V82.488H113.063C113.73 81.734 113.846 81.647 113.991 81.647C114.136 81.647 114.339 81.734 115.064 82.401C115.47 82.749 115.499 82.923 115.499 83.068C115.499 83.213 115.383 83.358 114.861 83.648C114.629 87.157 114.223 89.506 113.701 91.188C113.382 92.203 113.005 92.899 112.454 93.363C111.932 93.827 111.41 93.972 110.888 93.972C110.54 93.972 110.453 93.972 110.395 93.624C110.25 92.928 109.902 92.551 108.046 92.029C107.872 91.971 107.901 91.623 108.075 91.652C109.757 91.884 110.337 91.942 110.975 91.942C111.584 91.942 111.903 91.449 112.251 90.347C112.657 89.013 113.063 86.751 113.266 83.213H107.263ZM107.263 73.933H109.931V70.395H107.263V73.933ZM107.263 74.658V78.08H109.931V74.658H107.263ZM107.263 78.805V82.488H109.931V78.805H107.263ZM110.076 84.692C109.96 84.576 110.134 84.431 110.279 84.489C111.526 84.953 112.454 85.736 112.454 86.519C112.454 87.099 112.222 87.418 111.874 87.418C111.584 87.418 111.497 87.244 111.352 86.751C111.062 85.881 110.714 85.359 110.076 84.692ZM105.61 85.707C105.61 85.533 105.958 85.533 105.987 85.707C106.103 86.345 106.132 86.925 106.132 87.476C106.132 89.622 105.378 91.043 104.479 91.043C103.986 91.043 103.638 90.666 103.638 90.144C103.638 89.825 103.783 89.564 104.102 89.245C105.03 88.433 105.523 87.331 105.61 85.707ZM107.002 85.649C106.973 85.504 107.147 85.388 107.263 85.504C108.191 86.461 108.626 87.795 108.626 88.752C108.626 89.622 108.336 90.028 107.785 90.028C107.437 90.028 107.263 89.767 107.263 89.448C107.263 89.158 107.321 88.578 107.321 87.766C107.321 87.157 107.263 86.461 107.002 85.649ZM108.597 85.301C108.539 85.185 108.742 85.04 108.858 85.127C110.076 86.055 110.743 87.099 110.743 87.911C110.743 88.636 110.424 88.984 110.018 88.984C109.699 88.984 109.554 88.781 109.496 88.172C109.38 87.099 109.206 86.316 108.597 85.301ZM150.299 73.643C150.299 73.179 149.951 72.889 148.907 72.396C148.588 72.251 148.443 72.164 148.443 71.961C148.443 71.729 148.965 71.497 149.342 71.497C150.067 71.497 150.966 71.932 151.604 72.338C152.271 72.802 153.083 73.527 153.083 74.136C153.083 74.484 152.88 74.745 152.561 74.89C152.3 75.006 151.952 75.354 151.836 75.586C150.27 78.892 148.849 81.212 147.022 83.619C144.644 86.751 141.367 89.622 137.887 91.478C137.568 91.652 137.423 91.71 137.278 91.71C137.104 91.71 136.93 91.536 136.93 91.391C136.93 91.217 137.046 91.043 137.365 90.811C140.758 88.433 143.658 85.562 145.833 82.488C147.486 80.168 148.907 77.587 149.98 74.919C150.154 74.455 150.299 74.049 150.299 73.643ZM176.254 78.051C173.18 81.328 169.584 84.431 166.8 86.084C166.51 86.258 166.336 86.316 166.133 86.316C165.901 86.316 165.756 86.113 165.756 85.939C165.756 85.823 165.872 85.62 166.191 85.388C168.627 83.648 171.527 80.951 173.934 78.312C175.732 76.34 177.675 73.875 178.719 72.28C178.98 71.903 179.038 71.555 179.038 71.294C179.038 71.033 178.748 70.772 177.965 70.337C177.733 70.192 177.53 70.105 177.53 69.931C177.53 69.699 177.849 69.525 178.429 69.525C178.98 69.525 179.879 69.96 180.575 70.453C181.416 71.033 181.677 71.439 181.677 71.787C181.677 72.164 181.532 72.396 181.039 72.628C180.894 72.686 180.633 72.947 180.227 73.411C179.038 74.832 178.313 75.673 177.182 76.978C178.313 78.225 178.429 78.66 178.429 79.037C178.429 79.24 178.4 79.385 178.313 79.559C178.226 79.762 178.168 79.994 178.168 80.255C178.139 81.792 178.139 83.097 178.139 85.04C178.139 87.65 178.226 89.68 178.226 91.275C178.226 92.087 178.023 92.609 177.501 92.609C176.979 92.609 176.689 92.232 176.486 91.768C176.225 91.188 176.08 90.608 176.08 90.144C176.08 89.883 176.138 89.709 176.225 89.535C176.37 89.187 176.428 88.781 176.457 88.085C176.515 85.446 176.544 83.242 176.544 79.617C176.544 78.747 176.486 78.312 176.254 78.051ZM213.084 68.307C213.171 68.307 213.345 68.336 213.548 68.394C214.215 68.568 215.056 68.974 215.607 69.351C216.274 69.815 216.912 70.54 216.912 71.207C216.912 71.7 216.564 71.99 216.245 71.99C215.897 71.99 215.694 71.874 215.288 71.207C214.824 70.395 213.867 69.467 212.91 68.887C212.823 68.829 212.794 68.684 212.794 68.597C212.794 68.452 212.91 68.307 213.084 68.307ZM210.648 70.105C210.735 70.105 210.851 70.105 210.938 70.134C211.837 70.453 212.562 70.859 213.084 71.294C213.693 71.787 214.331 72.541 214.331 73.179C214.331 73.701 214.041 74.02 213.606 74.02C213.2 74.02 213.026 73.788 212.649 73.063C212.301 72.396 211.373 71.352 210.503 70.714C210.387 70.627 210.329 70.511 210.329 70.424C210.329 70.25 210.474 70.105 210.648 70.105ZM205.486 81.908C208.125 82.981 210.909 84.547 212.736 86.403C213.403 87.099 214.099 88.056 214.099 88.694C214.099 89.448 213.664 89.767 213.258 89.767C212.765 89.767 212.446 89.564 212.04 88.984C210.126 86.345 207.806 84.025 204.819 82.604C201.658 85.997 197.975 88.578 193.857 90.318C193.538 90.463 193.277 90.55 193.074 90.55C192.9 90.55 192.726 90.434 192.726 90.26C192.726 90.086 192.755 89.999 192.958 89.883C196.293 88.056 199.86 85.591 202.615 82.662C204.674 80.487 206.327 78.312 207.864 75.557C207.98 75.354 208.009 75.296 208.009 75.238C208.009 75.18 207.922 75.18 207.864 75.18C206.878 75.18 203.195 75.673 199.889 76.282C199.425 76.369 199.135 76.456 198.903 76.601C198.642 76.746 198.497 76.804 198.178 76.804C197.656 76.804 197.047 76.485 196.177 75.586C195.713 75.122 195.452 74.455 195.452 74.049C195.452 73.759 195.597 73.614 195.713 73.614C195.858 73.614 195.974 73.73 196.09 73.846C196.728 74.484 197.54 74.948 198.265 74.948C198.584 74.948 199.802 74.832 200.469 74.774C202.673 74.542 205.196 74.281 207.11 74.078C207.574 74.02 208.009 73.817 208.241 73.585C208.415 73.411 208.618 73.266 208.792 73.266C209.169 73.266 209.546 73.469 210.213 73.933C210.735 74.31 211.025 74.6 211.025 75.035C211.025 75.325 210.735 75.499 210.3 75.673C209.836 75.847 209.691 75.963 209.401 76.456C208.473 77.993 206.907 80.168 205.486 81.908ZM224.22 71.004H222.335C221.697 71.004 221.291 71.062 220.537 71.178L220.247 70.105C221.117 70.25 221.581 70.279 222.364 70.279H227.381C228.396 69.032 228.541 68.945 228.686 68.945C228.86 68.945 229.005 69.032 230.165 69.96C230.687 70.395 230.774 70.569 230.774 70.743C230.774 70.917 230.687 71.004 230.397 71.004H225.931C225.612 73.44 225.09 75.847 224.104 78.109C224.22 78.167 224.307 78.225 224.423 78.283H227.642C228.396 77.529 228.483 77.442 228.657 77.442C228.802 77.442 228.918 77.529 229.643 78.138C230.049 78.486 230.136 78.66 230.136 78.805C230.136 78.979 230.049 79.095 229.411 79.501V82.691C229.411 87.563 229.527 89.651 229.527 90.26C229.527 90.782 229.208 91.014 228.541 91.014C228.019 91.014 227.787 90.869 227.787 90.405V89.419H224.278V92.029C224.278 92.58 223.93 92.783 223.234 92.783C222.654 92.783 222.509 92.667 222.509 92.145C222.509 91.275 222.654 88.317 222.654 83.851C222.654 82.778 222.683 81.734 222.712 80.777C221.929 81.966 221.001 83.068 219.957 84.054C219.841 84.17 219.522 83.909 219.638 83.764C222.132 80.458 223.64 76.253 224.22 71.004ZM227.787 88.694V79.008H224.278V88.694H227.787ZM242.345 70.482V79.298H243.476C244.578 77.935 244.752 77.819 244.926 77.819C245.1 77.819 245.332 77.935 246.492 78.95C247.014 79.414 247.101 79.559 247.101 79.762C247.101 79.936 246.985 80.023 246.695 80.023H242.345V82.981C242.345 89.013 242.461 92.232 242.461 93.218C242.461 93.798 242.084 94.088 241.272 94.088C240.692 94.088 240.489 93.856 240.489 93.334C240.489 92.812 240.634 90.985 240.634 85.446V80.023H235.994C235.849 83.706 235.472 86.229 234.515 88.288C233.413 90.753 231.731 92.551 229.063 94.175C228.918 94.262 228.657 94.001 228.773 93.885C230.948 91.942 232.253 90.173 233.094 87.795C233.79 85.823 234.109 83.416 234.225 80.023H232.949C232.137 80.023 231.644 80.052 230.803 80.168L230.513 79.095C231.47 79.269 232.05 79.298 232.92 79.298H234.254C234.283 78.341 234.283 77.297 234.283 76.195V70.482H233.616C232.862 70.482 232.34 70.511 231.499 70.627L231.238 69.554C232.195 69.699 232.746 69.757 233.645 69.757H243.041C244.143 68.452 244.288 68.365 244.462 68.365C244.636 68.365 244.781 68.423 245.941 69.409C246.492 69.873 246.579 70.047 246.579 70.221C246.579 70.395 246.463 70.482 246.173 70.482H242.345ZM240.634 79.298V70.482H236.052V76.253C236.052 77.355 236.052 78.37 236.023 79.298H240.634ZM253.365 71.671H261.166V69.96C261.166 69.467 261.108 68.887 260.992 68.046C263.602 68.307 263.979 68.51 263.979 68.829C263.979 69.032 263.834 69.206 262.964 69.583V71.671H271.2C272.128 70.627 272.244 70.54 272.418 70.54C272.592 70.54 272.795 70.656 273.955 71.7C274.477 72.193 274.564 72.338 274.564 72.512C274.564 72.86 274.303 73.005 273.433 73.005C273.056 73.005 272.795 73.15 272.505 73.411C271.983 73.875 271.316 74.513 270.504 75.064C270.359 75.18 270.127 75.035 270.214 74.89C270.649 74.049 270.968 73.266 271.287 72.396H265.574V76.137C265.574 77.239 265.748 77.529 268.706 77.529C270.62 77.529 271.519 77.442 271.925 77.152C272.389 76.833 272.65 76.34 273.143 74.832C273.201 74.658 273.491 74.716 273.491 74.89C273.462 75.412 273.433 76.108 273.433 76.456C273.433 76.862 273.52 76.978 273.926 77.065C274.216 77.152 274.361 77.413 274.361 77.732C274.361 78.254 273.723 78.602 272.853 78.805C272.07 78.95 270.823 79.037 268.155 79.037C264.559 79.037 263.863 78.37 263.863 76.514C263.863 76.137 263.921 75.76 263.921 74.716V72.396H260.296C259.716 77.297 257.048 79.646 250.871 80.574C250.697 80.603 250.581 80.197 250.755 80.139C256.062 78.573 257.947 76.485 258.469 72.396H253.365C253.249 74.571 252.292 76.021 250.987 76.021C250.378 76.021 249.914 75.528 249.914 74.977C249.914 74.426 250.146 74.136 250.726 73.846C252.031 73.208 252.785 72.048 252.872 70.453C252.872 70.279 253.22 70.279 253.249 70.453C253.307 70.888 253.365 71.294 253.365 71.671ZM265.864 83.822L260.789 83.88C260.47 85.736 259.861 87.331 258.904 88.723C257.106 91.304 254.032 93.015 249.711 94.03C249.537 94.059 249.392 93.653 249.566 93.595C252.756 92.464 255.076 90.927 256.642 88.984C257.802 87.621 258.556 85.997 258.933 83.909L253.945 83.967C252.93 83.967 252.495 84.025 251.799 84.17L251.509 83.039C252.437 83.184 252.93 83.213 254.061 83.213L259.02 83.155C259.136 82.343 259.165 81.821 259.165 81.096C259.165 80.371 259.107 79.646 259.02 79.066C261.543 79.356 262.036 79.472 262.036 79.907C262.036 80.197 261.804 80.371 261.021 80.69C261.021 81.56 260.963 82.372 260.876 83.155L265.603 83.097C266.328 82.227 266.531 82.111 266.705 82.111C266.908 82.111 267.14 82.227 268.039 83.039C268.329 83.3 268.387 83.474 268.387 83.619C268.387 83.822 268.3 83.967 267.575 84.373C267.517 85.417 267.459 89.854 267.459 90.579C267.459 91.391 267.662 91.594 269.721 91.594C271.606 91.594 272.244 91.536 272.679 91.072C272.94 90.782 273.462 89.709 274.013 87.737C274.071 87.563 274.361 87.621 274.361 87.795C274.303 88.665 274.187 89.999 274.187 90.55C274.187 90.927 274.303 91.043 274.564 91.159C274.883 91.304 274.999 91.478 274.999 91.826C274.999 92.319 274.506 92.696 273.694 92.899C272.94 93.102 271.664 93.218 269.721 93.218C266.067 93.218 265.69 92.609 265.69 91.014C265.69 90.492 265.835 85.388 265.864 83.822ZM300.345 78.283V85.852C300.345 89.651 300.461 92.145 300.461 92.899C300.461 93.508 300.113 93.798 299.301 93.798C298.692 93.798 298.46 93.566 298.46 93.073C298.46 92.551 298.576 90.724 298.576 86.751V78.283H294.4C294.284 82.053 293.849 84.518 293.095 86.635C292.08 89.39 290.398 91.536 287.15 93.914C287.005 94.001 286.715 93.711 286.831 93.595C289.441 91.014 290.775 88.897 291.587 86.2C292.312 83.793 292.631 80.951 292.631 76.108C292.631 73.643 292.631 72.947 292.457 71.381C293.269 71.7 293.849 72.019 294.574 72.454C296.517 71.787 298.692 70.598 300.055 69.67C300.78 69.177 301.273 68.771 301.679 68.278C303.535 69.757 303.767 70.018 303.767 70.279C303.767 70.511 303.332 70.656 302.317 70.395C299.968 71.613 297.503 72.483 294.429 73.121V75.731C294.429 76.369 294.429 76.978 294.4 77.558H301.476C302.607 76.195 302.752 76.108 302.897 76.108C303.071 76.108 303.245 76.195 304.492 77.21C305.072 77.674 305.159 77.819 305.159 77.993C305.159 78.167 305.043 78.283 304.753 78.283H300.345ZM287.933 82.227H282.133C282.017 84.46 281.727 86.142 281.321 87.65C280.654 89.999 279.668 91.739 277.87 93.885C277.754 94.001 277.464 93.798 277.551 93.653C278.798 91.507 279.378 89.738 279.9 87.244C280.335 85.156 280.509 82.836 280.509 78.283C280.509 75.47 280.48 74.745 280.335 73.498C281.147 73.846 281.669 74.136 282.481 74.6H287.701C288.513 73.759 288.629 73.672 288.774 73.672C288.919 73.672 289.093 73.73 289.876 74.455C290.311 74.861 290.369 74.977 290.369 75.122C290.369 75.296 290.253 75.47 289.615 75.876V77.993C289.615 81.357 289.702 82.662 289.702 83.097C289.702 83.648 289.354 83.88 288.687 83.88C288.136 83.88 287.933 83.706 287.933 83.242V82.227ZM287.933 81.502V75.325H282.249V78.109C282.249 79.385 282.22 80.487 282.191 81.502H287.933ZM279.146 70.859L278.856 69.757C279.755 69.902 280.248 69.931 281.089 69.931H288.513C289.615 68.655 289.76 68.568 289.934 68.568C290.079 68.568 290.253 68.655 291.471 69.612C292.051 70.047 292.109 70.221 292.109 70.395C292.109 70.54 292.022 70.656 291.732 70.656H281.089C280.393 70.656 279.929 70.685 279.146 70.859Z" fill="#222222"/>
</svg>
