<svg width="163" height="15" viewBox="0 0 163 15" fill="none" xmlns="http://www.w3.org/2000/svg">
<path d="M74.8945 14.6827L74.3086 14.4439L80.352 0L80.9377 0.238924L74.8945 14.6827ZM92.5389 8.44742C91.7988 8.40631 91.1975 8.38576 90.7351 8.38576C90.0361 8.38576 89.3784 8.40631 88.7618 8.44742L88.1143 10.2125C87.8727 10.8547 87.752 11.3403 87.752 11.6692C87.752 11.9364 87.8444 12.1213 88.0295 12.2241C88.2144 12.3218 88.5639 12.3885 89.0778 12.4245C89.1703 12.4347 89.2165 12.5015 89.2165 12.6248C89.2165 12.7636 89.1703 12.833 89.0778 12.833C87.9318 12.8021 87.2997 12.7868 87.1815 12.7868C86.6111 12.7868 86.0793 12.8021 85.5859 12.833C85.4934 12.833 85.4471 12.7636 85.4471 12.6248C85.4471 12.5015 85.4934 12.4347 85.5859 12.4245C86.0073 12.3679 86.3079 12.242 86.4878 12.0468C86.7242 11.7899 87.035 11.1579 87.4205 10.1508L89.2859 5.21027C89.9077 3.54545 90.306 2.42529 90.4807 1.84979L91.3825 1.40277C91.4545 1.40277 91.5008 1.44643 91.5213 1.5338C91.8451 2.61798 92.2562 3.86917 92.7547 5.28734L94.5276 10.2741C94.8565 11.199 95.1134 11.7899 95.2984 12.0468C95.4422 12.2576 95.82 12.3834 96.4315 12.4245C96.5497 12.4347 96.6088 12.5015 96.6088 12.6248C96.6088 12.7636 96.5522 12.833 96.4392 12.833C95.2625 12.8021 94.5764 12.7868 94.3811 12.7868C94.2116 12.7868 93.5383 12.8021 92.3615 12.833C92.269 12.833 92.2227 12.7636 92.2227 12.6248C92.2227 12.5015 92.269 12.4347 92.3615 12.4245C92.9062 12.3834 93.2557 12.3089 93.4098 12.201C93.5229 12.1188 93.5794 11.9723 93.5794 11.7617C93.5794 11.5664 93.4587 11.1194 93.2171 10.4205L92.5389 8.44742ZM90.6888 3.09071C90.6117 3.32193 90.4858 3.66877 90.311 4.13123C90.1209 4.64505 89.9771 5.03557 89.8795 5.30276L88.9852 7.81541C89.3604 7.83596 89.9437 7.84623 90.7351 7.84623C91.4597 7.84623 91.9915 7.83596 92.3306 7.81541L91.4288 5.30276C91.1975 4.61936 90.9509 3.88201 90.6888 3.09071ZM98.2199 10.5593V3.64565C98.2199 2.98795 98.1788 2.55632 98.0964 2.35079C98.0142 2.14012 97.8498 2.03478 97.6031 2.03478L97.0481 2.06561C96.9659 2.06561 96.9248 2.00394 96.9248 1.88063C96.9248 1.7573 96.9839 1.6828 97.1021 1.65711C97.7034 1.5338 98.4176 1.32312 99.245 1.0251C99.3478 1.0251 99.3992 1.06876 99.3992 1.15613C99.3581 2.12727 99.3376 3.37846 99.3376 4.90968V10.5593C99.3376 11.5048 99.3787 12.0468 99.4609 12.1856C99.5482 12.3242 99.8489 12.4194 100.363 12.4708C100.46 12.4862 100.509 12.5504 100.509 12.6635C100.509 12.7764 100.463 12.833 100.37 12.833C99.7384 12.8125 99.2373 12.8021 98.8674 12.8021C98.4459 12.8021 97.8987 12.8125 97.2254 12.833C97.1432 12.833 97.1021 12.7764 97.1021 12.6635C97.1021 12.5504 97.1432 12.4862 97.2254 12.4708C97.7086 12.4347 97.9885 12.3398 98.0657 12.1856C98.1684 11.9955 98.2199 11.4533 98.2199 10.5593ZM102.452 6.55138L101.473 6.56679C101.37 6.56679 101.319 6.49742 101.319 6.35869C101.319 6.22509 101.37 6.14801 101.473 6.12747C101.945 6.01956 102.321 5.80888 102.598 5.49544C102.865 5.19229 103.076 4.83261 103.23 4.4164C103.261 4.32391 103.338 4.27766 103.461 4.27766C103.6 4.27766 103.67 4.33161 103.67 4.43952C103.639 5.21026 103.623 5.71383 103.623 5.95019C104.214 5.95019 104.931 5.93991 105.774 5.91936C105.836 5.91936 105.866 5.95019 105.866 6.01186L105.72 6.45888C105.694 6.53083 105.643 6.56679 105.566 6.56679C105.186 6.53596 104.528 6.52054 103.592 6.52054L103.562 10.3898C103.562 11.1553 103.667 11.682 103.878 11.9698C104.083 12.242 104.361 12.3783 104.71 12.3783C105.09 12.3783 105.422 12.2344 105.705 11.9466C105.735 11.9157 105.766 11.9004 105.797 11.9004C105.854 11.9004 105.91 11.9338 105.967 12.0006C106.013 12.0571 106.036 12.1086 106.036 12.1547C106.036 12.1856 106.021 12.2163 105.99 12.2472C105.481 12.8073 104.929 13.0874 104.333 13.0874C103.68 13.0874 103.189 12.9075 102.86 12.5478C102.547 12.1882 102.39 11.6255 102.39 10.8599L102.421 8.71718L102.452 6.55138ZM108.487 8.71718C108.456 8.96382 108.441 9.17704 108.441 9.35694C108.441 10.2921 108.716 11.0576 109.266 11.6538C109.718 12.1367 110.227 12.3783 110.792 12.3783C111.702 12.3783 112.419 12.0083 112.943 11.2684C112.968 11.2273 113.004 11.2068 113.051 11.2068C113.112 11.2068 113.174 11.2349 113.236 11.2915C113.292 11.3326 113.32 11.3737 113.32 11.4148C113.32 11.4713 113.29 11.5381 113.228 11.6151C112.575 12.5967 111.691 13.0874 110.576 13.0874C109.512 13.0874 108.659 12.7148 108.017 11.9698C107.447 11.3018 107.161 10.459 107.161 9.44171C107.161 8.29585 107.526 7.3581 108.256 6.62845C108.883 5.99644 109.644 5.68043 110.538 5.68043C111.375 5.68043 112.066 5.98102 112.611 6.58221C113.074 7.09604 113.331 7.72805 113.382 8.47826C113.382 8.55533 113.356 8.61956 113.305 8.67094C113.254 8.72232 113.2 8.74802 113.143 8.74802C112.079 8.71718 111.044 8.70176 110.037 8.70176C109.333 8.70176 108.816 8.70691 108.487 8.71718ZM108.58 8.16224C108.888 8.17252 109.32 8.17766 109.875 8.17766C110.589 8.17766 111.27 8.1571 111.917 8.11601C112.02 8.11601 112.072 8.04663 112.072 7.9079C112.02 7.34268 111.84 6.89565 111.532 6.56679C111.255 6.27904 110.923 6.13517 110.538 6.13517C110.065 6.13517 109.649 6.333 109.289 6.72864C108.96 7.08319 108.724 7.56105 108.58 8.16224ZM117.09 7.36837C117.778 6.25335 118.446 5.69584 119.094 5.69584C119.361 5.69584 119.577 5.74465 119.741 5.84229C119.88 5.92964 119.95 6.02983 119.95 6.14288C119.95 6.39465 119.849 6.63359 119.649 6.85967C119.484 7.04465 119.328 7.13715 119.179 7.13715C119.071 7.13715 118.922 7.09091 118.732 6.99842C118.541 6.90078 118.405 6.85197 118.323 6.85197C118.097 6.85197 117.837 7.04723 117.545 7.43774C117.241 7.83853 117.09 8.28043 117.09 8.76343V10.5901C117.09 11.5304 117.126 12.0673 117.198 12.201C117.285 12.3551 117.598 12.4502 118.138 12.4862C118.22 12.5015 118.261 12.5606 118.261 12.6635C118.261 12.7764 118.22 12.833 118.138 12.833C117.506 12.8125 116.984 12.8021 116.573 12.8021C116.131 12.8021 115.594 12.8125 114.962 12.833C114.87 12.833 114.824 12.7764 114.824 12.6635C114.824 12.5606 114.87 12.5015 114.962 12.4862C115.276 12.4605 115.486 12.4271 115.594 12.386C115.677 12.35 115.746 12.2883 115.802 12.201C115.905 12.0519 115.957 11.515 115.957 10.5901V8.38576C115.957 7.73319 115.91 7.30671 115.818 7.10631C115.705 6.88536 115.561 6.7749 115.386 6.7749L114.824 6.80573C114.726 6.80573 114.677 6.74149 114.677 6.61303C114.677 6.50514 114.741 6.43062 114.87 6.38952C115.605 6.24051 116.293 6.02726 116.936 5.7498C117.059 5.7498 117.121 5.79604 117.121 5.88853C117.1 6.49999 117.09 6.99327 117.09 7.36837ZM123.164 7.15256C123.786 6.18142 124.587 5.69584 125.569 5.69584C126.263 5.69584 126.818 5.90909 127.234 6.33557C127.619 6.73121 127.812 7.23991 127.812 7.86165L127.789 9.59589V10.5901C127.789 11.5253 127.833 12.0623 127.92 12.201C128.002 12.3397 128.282 12.4347 128.76 12.4862C128.853 12.5015 128.899 12.5606 128.899 12.6635C128.899 12.7764 128.853 12.833 128.76 12.833C128.149 12.8125 127.653 12.8021 127.272 12.8021C126.872 12.8021 126.345 12.8125 125.692 12.833C125.6 12.833 125.553 12.7764 125.553 12.6635C125.553 12.5606 125.6 12.5015 125.692 12.4862C126.124 12.4605 126.394 12.3655 126.502 12.201C126.594 12.0623 126.64 11.5253 126.64 10.5901V8.17766C126.64 7.80769 126.581 7.5071 126.463 7.27588C126.196 6.73636 125.744 6.4666 125.106 6.4666C124.479 6.4666 123.948 6.76205 123.511 7.35295C123.279 7.66639 123.164 8.07232 123.164 8.57075V10.5901C123.164 11.5459 123.2 12.0828 123.272 12.201C123.333 12.2935 123.421 12.3577 123.534 12.3936C123.647 12.4245 123.858 12.4553 124.166 12.4862C124.248 12.5015 124.289 12.5606 124.289 12.6635C124.289 12.7764 124.248 12.833 124.166 12.833C123.534 12.8125 123.038 12.8021 122.678 12.8021C122.257 12.8021 121.73 12.8125 121.098 12.833C121.016 12.833 120.975 12.7764 120.975 12.6635C120.975 12.5606 121.016 12.5015 121.098 12.4862C121.53 12.4502 121.799 12.3551 121.907 12.201C122 12.0571 122.046 11.5202 122.046 10.5901V8.38576C122.046 7.72805 122.005 7.30157 121.923 7.10631C121.82 6.88536 121.671 6.7749 121.476 6.7749L120.928 6.80573C120.831 6.80573 120.782 6.72608 120.782 6.56679C120.782 6.4743 120.851 6.41522 120.99 6.38952C121.643 6.25078 122.321 6.03755 123.025 5.7498C123.138 5.7498 123.195 5.79604 123.195 5.88853C123.174 6.45375 123.164 6.87509 123.164 7.15256ZM134.31 12.2163C133.935 12.5504 133.57 12.7816 133.215 12.9101C132.887 13.0283 132.501 13.0874 132.059 13.0874C131.484 13.0874 131.024 12.9204 130.679 12.5863C130.387 12.2987 130.24 11.9338 130.24 11.4919C130.24 10.9062 130.42 10.4436 130.78 10.1045C131.042 9.84246 131.666 9.56241 132.653 9.2644C133.249 9.08458 133.665 8.90731 133.902 8.7326C134.133 8.55276 134.248 8.35236 134.248 8.13141V7.72292C134.248 6.64387 133.912 6.10435 133.239 6.10435C132.797 6.10435 132.44 6.23023 132.167 6.482C131.977 6.67213 131.882 6.93162 131.882 7.26046C131.882 7.46086 131.777 7.62786 131.566 7.76146C131.376 7.87964 131.145 7.93872 130.872 7.93872C130.59 7.93872 130.448 7.79742 130.448 7.51482C130.448 7.03695 130.769 6.60019 131.412 6.20454C131.982 5.85513 132.607 5.68043 133.285 5.68043C134.117 5.68043 134.69 5.85513 135.004 6.20454C135.276 6.50769 135.41 7.00612 135.405 7.6998L135.374 11.1142C135.358 12.0083 135.556 12.4553 135.967 12.4553C136.111 12.4553 136.24 12.4142 136.353 12.332C136.414 12.2961 136.461 12.2781 136.492 12.2781C136.538 12.2781 136.579 12.3063 136.615 12.3629C136.651 12.4142 136.669 12.4656 136.669 12.5169C136.669 12.553 136.649 12.5837 136.608 12.6095C136.238 12.8767 135.847 13.0102 135.436 13.0102C134.875 13.0102 134.5 12.7457 134.31 12.2163ZM134.248 8.97924C134.094 9.17963 133.611 9.42878 132.799 9.72693C132.306 9.91186 131.959 10.1328 131.759 10.3898C131.579 10.621 131.489 10.9138 131.489 11.2684C131.489 11.6434 131.617 11.9492 131.874 12.1856C132.095 12.386 132.35 12.4862 132.637 12.4862C133.136 12.4862 133.539 12.3398 133.848 12.0468C134.105 11.8002 134.233 11.5048 134.233 11.1605L134.248 8.97924ZM139.105 11.2068C139.383 11.2068 139.611 11.3069 139.791 11.5074C139.956 11.6871 140.037 11.9081 140.037 12.1702C140.037 12.4425 139.935 12.6685 139.73 12.8484C139.549 13.0078 139.34 13.0874 139.105 13.0874C138.816 13.0874 138.581 12.9872 138.396 12.7868C138.237 12.612 138.156 12.4066 138.156 12.1702C138.156 11.867 138.26 11.6255 138.465 11.4456C138.64 11.2864 138.853 11.2068 139.105 11.2068ZM142.08 12.4245C142.728 12.3731 143.11 12.2472 143.229 12.0468C143.321 11.8978 143.378 11.6949 143.399 11.438C143.425 11.1707 143.437 10.6826 143.437 9.9735V4.43952C143.437 3.61738 143.425 3.09584 143.399 2.87489C143.378 2.70533 143.327 2.56145 143.244 2.44328C143.121 2.25315 142.705 2.12727 141.996 2.06561C141.913 2.05533 141.872 1.99367 141.872 1.88063C141.872 1.71106 141.913 1.62627 141.996 1.62627C143.034 1.67767 143.72 1.70336 144.053 1.70336C144.423 1.70336 145.097 1.67767 146.073 1.62627C146.18 1.62627 146.235 1.71106 146.235 1.88063C146.235 1.99367 146.18 2.05533 146.073 2.06561C145.425 2.13241 145.043 2.2583 144.924 2.44328C144.785 2.65909 144.716 3.32451 144.716 4.43952V10.5747C144.716 11.3712 144.78 11.8618 144.909 12.0468C144.986 12.1599 145.109 12.242 145.279 12.2935C145.454 12.3448 145.746 12.3885 146.157 12.4245C146.261 12.4347 146.312 12.5015 146.312 12.6248C146.312 12.7636 146.261 12.833 146.157 12.833C145.326 12.7919 144.623 12.7714 144.053 12.7714C143.483 12.7714 142.823 12.7919 142.072 12.833C141.99 12.833 141.949 12.7636 141.949 12.6248C141.949 12.5067 141.993 12.4399 142.08 12.4245ZM149.881 7.15256C150.503 6.18142 151.304 5.69584 152.285 5.69584C152.98 5.69584 153.535 5.90909 153.951 6.33557C154.336 6.73121 154.53 7.23991 154.53 7.86165L154.506 9.59589V10.5901C154.506 11.5253 154.55 12.0623 154.637 12.201C154.719 12.3397 154.999 12.4347 155.477 12.4862C155.569 12.5015 155.616 12.5606 155.616 12.6635C155.616 12.7764 155.569 12.833 155.477 12.833C154.866 12.8125 154.369 12.8021 153.989 12.8021C153.589 12.8021 153.061 12.8125 152.409 12.833C152.317 12.833 152.27 12.7764 152.27 12.6635C152.27 12.5606 152.317 12.5015 152.409 12.4862C152.841 12.4605 153.11 12.3655 153.219 12.201C153.312 12.0623 153.358 11.5253 153.358 10.5901V8.17766C153.358 7.80769 153.298 7.5071 153.18 7.27588C152.913 6.73636 152.461 6.4666 151.823 6.4666C151.197 6.4666 150.665 6.76205 150.228 7.35295C149.996 7.66639 149.881 8.07232 149.881 8.57075V10.5901C149.881 11.5459 149.917 12.0828 149.988 12.201C150.051 12.2935 150.138 12.3577 150.251 12.3936C150.364 12.4245 150.575 12.4553 150.882 12.4862C150.965 12.5015 151.006 12.5606 151.006 12.6635C151.006 12.7764 150.965 12.833 150.882 12.833C150.251 12.8125 149.755 12.8021 149.395 12.8021C148.974 12.8021 148.448 12.8125 147.815 12.833C147.733 12.833 147.692 12.7764 147.692 12.6635C147.692 12.5606 147.733 12.5015 147.815 12.4862C148.246 12.4502 148.517 12.3551 148.625 12.201C148.717 12.0571 148.763 11.5202 148.763 10.5901V8.38576C148.763 7.72805 148.723 7.30157 148.64 7.10631C148.537 6.88536 148.388 6.7749 148.193 6.7749L147.646 6.80573C147.548 6.80573 147.499 6.72608 147.499 6.56679C147.499 6.4743 147.569 6.41522 147.707 6.38952C148.359 6.25078 149.038 6.03755 149.742 5.7498C149.855 5.7498 149.912 5.79604 149.912 5.88853C149.892 6.45375 149.881 6.87509 149.881 7.15256ZM160.288 5.68043C160.925 5.68043 161.518 5.79604 162.068 6.02726C162.458 6.19683 162.653 6.41777 162.653 6.69011C162.653 7.01382 162.592 7.26046 162.469 7.43003C162.377 7.56877 162.261 7.63813 162.122 7.63813C161.941 7.63813 161.695 7.40691 161.382 6.94446L161.281 6.80573C160.994 6.37924 160.641 6.166 160.225 6.166C159.609 6.166 159.119 6.482 158.753 7.11403C158.419 7.68951 158.252 8.43715 158.252 9.35694C158.252 10.2921 158.514 11.0526 159.038 11.6383C159.46 12.111 159.941 12.3474 160.479 12.3474C161.024 12.3474 161.463 12.2524 161.798 12.0623C162.07 11.9029 162.34 11.6434 162.607 11.2838C162.649 11.2324 162.684 11.2068 162.715 11.2068C162.788 11.2068 162.854 11.2324 162.916 11.2838C162.973 11.3249 163 11.3686 163 11.4148C163 11.4302 162.99 11.4611 162.97 11.5074C162.317 12.5606 161.413 13.0874 160.256 13.0874C159.238 13.0874 158.411 12.7122 157.774 11.962C157.209 11.289 156.926 10.4488 156.926 9.44171C156.926 8.27015 157.296 7.32213 158.037 6.59763C158.663 5.98616 159.414 5.68043 160.288 5.68043Z" fill="black"/>
<path d="M50.7773 7.27007V3.07227H64.8131C65.4132 6.33592 64.2061 8.53139 63.5274 9.22116C63.9559 10.7821 66.706 11.2905 68.0274 11.3497V13.0051C64.256 13.0051 61.5989 11.9015 60.7416 11.3497C56.9917 12.8868 53.7774 13.0051 50.7773 13.0051V11.3497C56.4346 11.3969 57.4203 8.64964 57.2059 7.27007H50.7773Z" fill="black"/>
<path d="M19.3516 12.9072V2.79688H25.8872V5.63484C26.2087 7.40855 31.0302 7.94067 32.5301 7.99979V10.1283C28.8872 10.1283 26.673 9.79329 25.8872 9.35962V12.9072H19.3516Z" fill="black"/>
<path d="M0 6.9283V3.38086L17.6786 3.43999C18.0001 5.03634 18.0001 7.02221 17.3572 7.81516C15.9001 9.61249 12.1786 9.78598 10.5 9.648C10.1572 11.3035 9.14287 12.5056 8.67858 12.8998H4.60715C5.37857 10.1565 4.71429 8.20932 4.28572 7.57867H10.2857C10.4571 7.76786 10.5 8.20932 10.5 8.4064C12.2143 8.2645 12.4286 7.4013 12.2143 6.9283H0Z" fill="black"/>
<path d="M36.1953 4.63932V2.31445H46.1596V4.63932H36.1953Z" fill="black"/>
<path d="M33.9766 8.82356V5.63086H49.298C49.298 8.58021 49.8705 10.0296 47.4766 11.6615C45.6552 12.9031 40.0833 12.9622 35.7981 12.9622V11.6615C41.3695 11.5196 42.6552 10.0061 42.6552 8.82356H33.9766Z" fill="black"/>
</svg>
