<svg width="296" height="88" viewBox="0 0 296 88" fill="none" xmlns="http://www.w3.org/2000/svg">
<g clip-path="url(#clip0_201_233)">
<path d="M20.3879 20.24H18.4679C18.2439 20.688 17.8919 21.424 17.5399 21.968H21.1879C20.8359 21.296 20.5799 20.688 20.3879 20.24ZM19.3319 18.192H21.7639C22.1799 17.648 22.6599 16.816 22.9479 16.208C23.2359 15.632 23.5559 15.376 24.0999 15.376C24.7719 15.376 25.3479 15.856 25.3479 16.496C25.3479 17.008 24.6439 18.032 24.5159 18.192H27.4599C28.1639 18.192 28.4839 18.608 28.4839 19.216C28.4839 19.824 28.1639 20.24 27.4599 20.24H22.8839C23.0439 20.592 23.4279 21.392 23.7799 21.968H28.1319C28.8679 21.968 29.1879 22.384 29.1879 23.056C29.1879 23.696 28.8679 24.112 28.1319 24.112H25.1559C26.2439 25.552 27.8119 26.768 28.3239 27.152C28.7399 27.472 28.9959 27.728 28.9959 28.144C28.9959 28.88 28.5159 29.456 27.7799 29.456C26.7239 29.456 24.5799 27.248 22.4679 24.112H16.2279C15.7799 24.656 15.3319 25.296 14.9159 25.744H21.4759C23.0439 25.744 23.5559 26.256 23.5559 27.824V29.328C23.5559 30.896 23.0439 31.408 21.4759 31.408H16.0359C15.3959 31.408 15.3959 31.568 15.3959 32.976C15.3959 33.456 15.6519 33.552 16.2599 33.552H19.2039C20.5479 33.552 21.7319 33.552 22.9479 33.456C23.6519 33.424 24.0039 33.04 24.2919 31.984C24.4839 31.184 24.7399 30.736 25.5079 30.736C26.1159 30.736 26.7559 31.12 26.7559 31.888C26.7559 32.432 26.2439 34.384 24.8679 35.216C24.1319 35.696 23.6839 35.76 17.5079 35.76C14.4359 35.76 13.0919 35.76 13.0919 33.776V31.344C13.0919 29.936 13.6359 29.392 15.0759 29.392H20.6119C21.1879 29.392 21.1879 29.296 21.1879 28.368C21.1879 27.856 21.1239 27.792 20.6119 27.792H14.4999C14.1159 27.792 13.6999 27.632 13.6679 27.12C13.0919 27.76 11.2679 29.584 10.4359 29.584C9.82788 29.584 9.31588 29.072 9.31588 28.4C9.31588 27.984 9.57188 27.632 10.0839 27.216C10.8839 26.608 12.3239 25.488 13.4119 24.112H9.95588C9.21988 24.112 8.89988 23.696 8.89988 23.056C8.89988 22.384 9.21988 21.968 9.95588 21.968H14.9159C15.3319 21.392 15.6199 20.816 15.9079 20.24H10.7559C10.0199 20.24 9.73188 19.824 9.73188 19.216C9.73188 18.608 10.0199 18.192 10.7559 18.192H13.2519C12.5799 17.104 12.4199 16.816 12.4199 16.464C12.4199 15.792 13.0279 15.408 13.7319 15.408C14.1799 15.408 14.4039 15.6 14.6279 16.016C15.0119 16.688 15.3639 17.456 15.7159 18.192H16.7079C16.8999 17.776 17.1879 16.976 17.4759 16.08C17.6679 15.376 18.0199 15.024 18.5639 15.024C19.4599 15.024 19.9399 15.504 19.9399 16.112C19.9399 16.784 19.3639 18.096 19.3319 18.192ZM28.8679 14.512H9.41188C8.61188 14.512 8.35588 14.736 8.35588 15.568V35.952C8.35588 36.752 8.61188 37.008 9.41188 37.008H28.8679C29.6679 37.008 29.9239 36.752 29.9239 35.952V15.568C29.9239 14.736 29.6679 14.512 28.8679 14.512ZM5.69988 36.624V14.896C5.69988 12.944 6.59588 12.016 8.54788 12.016H29.7319C31.6839 12.016 32.5799 12.944 32.5799 14.896V36.624C32.5799 38.608 31.6839 39.504 29.7319 39.504H8.54788C6.59588 39.504 5.69988 38.608 5.69988 36.624ZM44.8039 14.384H50.0839C51.6839 14.384 52.6439 15.152 52.6439 16.368C52.6439 17.04 51.7799 21.936 50.3079 25.84C49.2519 28.4 48.1639 30.608 46.2119 33.232C43.6199 36.656 39.5879 39.952 38.3399 39.952C37.6039 39.952 36.8679 39.28 36.8679 38.576C36.8679 37.808 37.2519 37.488 38.2119 36.88C41.6359 34.672 44.0999 31.824 45.8279 28.784C44.4839 27.248 43.3639 26.096 42.3399 25.168C41.6039 24.496 41.4119 24.176 41.4119 23.696C41.4119 22.928 42.1159 22.384 42.7559 22.384C43.3959 22.384 43.7479 22.736 44.0039 22.96C45.2519 24.08 46.3719 25.328 47.1719 26.192C48.8679 22.16 49.7319 17.776 49.7319 17.264C49.7319 16.912 49.5719 16.816 49.2839 16.816H43.9399C42.7879 19.728 41.2199 22.448 39.2679 24.912C38.6599 25.648 38.2119 26.128 37.5079 26.128C36.7399 26.128 36.1639 25.488 36.1639 24.72C36.1639 24.272 36.3879 23.856 37.1559 22.96C39.7159 19.888 41.3479 16.176 42.4359 12.336C42.7559 11.152 43.4599 11.024 43.9079 11.024C44.7079 11.024 45.3159 11.472 45.3159 12.272C45.3159 12.976 45.0279 13.744 44.8039 14.384ZM59.0119 12.304V24.976C60.4839 26.608 62.7559 28.624 64.6439 29.84C66.0519 30.768 66.2119 30.992 66.2119 31.664C66.2119 32.464 65.7319 33.072 64.8999 33.072C64.1959 33.072 63.5879 32.688 62.4999 31.888C61.5079 31.12 60.2599 30.096 59.0119 28.848V39.408C59.0119 40.368 58.4679 40.784 57.6359 40.784C56.8039 40.784 56.2599 40.368 56.2599 39.408V26C55.4279 24.976 52.5479 21.232 52.5479 19.6C52.5479 18.8 53.2519 18.416 53.7959 18.416C54.3399 18.416 54.7239 18.608 55.0439 19.152C55.3639 19.792 55.8119 20.72 56.2599 21.488V12.304C56.2599 11.344 56.8039 10.928 57.6359 10.928C58.4679 10.928 59.0119 11.344 59.0119 12.304ZM77.4684 40.72L76.2844 40.24L88.5404 10.96L89.7244 11.44L77.4684 40.72ZM120.716 32.784L120.94 33.008C123.5 35.408 126.412 36.848 129.164 37.552C129.356 37.616 129.292 37.872 129.1 37.936C128.396 38.128 128.076 38.384 127.724 39.312C127.596 39.632 127.468 39.696 127.244 39.696C127.084 39.696 126.604 39.536 125.836 39.12C123.564 37.84 121.388 35.984 119.596 34C117.004 36.592 113.676 38.576 109.548 39.952C109.356 40.016 109.164 39.6 109.324 39.504C113.036 37.68 116.108 35.376 118.476 32.592C117.58 31.408 116.908 30.064 116.332 28.72C115.5 26.704 114.956 24.592 114.476 22.48H113.004C112.812 26.16 112.396 28.816 111.724 31.216C110.796 34.352 109.516 37.008 106.892 39.856C106.764 39.984 106.412 39.728 106.508 39.568C108.46 36.592 109.484 33.936 110.156 30.864C110.796 27.76 111.116 24.176 111.116 18.48C111.116 15.6 111.116 14.864 110.924 13.104C111.884 13.488 112.524 13.808 113.42 14.384H124.812C126.092 12.816 126.252 12.72 126.444 12.72C126.636 12.72 126.828 12.784 128.236 13.904C128.908 14.48 129.036 14.672 129.036 14.864C129.036 15.056 128.876 15.184 128.588 15.184H113.1V17.968C113.1 19.312 113.068 20.528 113.036 21.68H123.532C124.332 20.752 124.556 20.592 124.716 20.592C124.876 20.592 125.036 20.656 126.092 21.616C126.508 22 126.604 22.224 126.604 22.384C126.604 22.64 126.38 22.8 125.58 23.152C124.556 26.96 122.956 30.16 120.716 32.784ZM123.596 22.48H115.212C115.66 24.144 116.172 25.776 116.908 27.344C117.58 28.816 118.38 30.16 119.404 31.408C121.356 28.784 122.764 25.808 123.596 22.48ZM105.612 22.448V39.312C105.612 39.952 105.26 40.272 104.428 40.272C103.82 40.272 103.532 40.048 103.532 39.472C103.532 38.864 103.596 36.752 103.724 28.08C103.724 26.224 103.756 24.368 103.756 22.512C102.636 24.08 101.388 25.488 99.9481 26.8C99.8201 26.928 99.4681 26.64 99.5961 26.48C102.188 23.28 104.268 19.12 105.42 15.184C105.836 13.776 106.156 12.464 106.284 11.28C108.716 11.952 109.388 12.272 109.388 12.688C109.388 12.976 108.972 13.168 108.172 13.296C107.212 16.24 106.124 18.736 104.78 20.944C106.284 21.2 106.54 21.36 106.54 21.68C106.54 21.936 106.444 22.096 105.612 22.448ZM138.796 24.56V25.488C139.564 25.712 140.332 26 141.1 26.352C141.708 25.584 142.348 24.56 142.86 23.664C143.244 22.992 143.5 22.416 143.628 22C145.228 22.832 145.868 23.312 145.868 23.632C145.868 23.888 145.644 24.016 144.748 23.984C143.692 25.04 142.892 25.808 141.708 26.672C143.148 27.504 143.948 28.464 143.948 29.296C143.948 30 143.564 30.448 143.052 30.448C142.7 30.448 142.412 30.224 142.028 29.552C141.228 28.176 140.268 26.96 138.796 26V32.208C138.796 36.08 138.86 38.768 138.86 39.504C138.86 40.144 138.444 40.464 137.676 40.464C137.004 40.464 136.78 40.208 136.78 39.664C136.78 39.184 136.908 36.496 136.972 30.256C137.004 28.976 137.004 27.664 137.004 26.384C135.532 27.728 133.836 28.88 131.916 29.968C131.756 30.064 131.468 29.712 131.628 29.584C135.756 26.256 138.892 22.352 140.844 18.096H134.828C133.836 18.096 133.228 18.128 132.524 18.32L132.204 17.072C133.004 17.232 133.74 17.296 134.828 17.296H136.94V14.192C136.94 13.168 136.908 12.4 136.748 11.344C139.532 11.664 139.916 11.888 139.916 12.208C139.916 12.464 139.756 12.688 138.796 13.072V17.296H140.748C141.58 16.368 141.708 16.304 141.9 16.304C142.028 16.304 142.22 16.4 143.244 17.392C143.692 17.84 143.756 18.032 143.756 18.224C143.756 18.544 143.436 18.704 142.636 18.864C141.516 21.04 140.268 22.928 138.796 24.56ZM157.42 15.696H151.244C151.18 21.36 150.7 25.744 149.644 29.296C148.172 34.096 145.58 37.456 141.292 40.24C141.132 40.336 140.812 39.952 140.972 39.824C144.62 36.528 146.764 33.104 147.948 28.368C148.78 25.008 149.164 20.912 149.164 15.696H146.828C145.772 15.696 145.1 15.76 144.3 15.92L143.98 14.672C144.94 14.864 145.74 14.896 146.796 14.896H157.132C158.06 13.872 158.188 13.808 158.348 13.808C158.508 13.808 158.7 13.872 159.82 14.864C160.3 15.312 160.332 15.472 160.332 15.632C160.332 15.824 160.204 15.984 159.468 16.464C159.404 23.856 159.212 28.432 158.7 32.208C158.22 35.664 157.676 37.584 156.876 38.64C156.3 39.376 155.148 39.856 154.188 39.856C153.836 39.856 153.74 39.824 153.676 39.408C153.516 38.512 153.036 37.968 150.348 37.232C150.156 37.168 150.188 36.752 150.38 36.784C152.78 37.104 153.772 37.2 154.636 37.2C155.564 37.2 156.076 36.048 156.524 33.104C157.004 30.032 157.42 23.856 157.42 15.696ZM181.516 20.016C183.564 20.112 185.548 20.528 187.468 21.968C189.452 23.44 190.38 25.36 190.38 27.568C190.38 33.84 183.404 36.784 177.836 37.584C177.516 37.616 177.196 37.52 177.196 37.2C177.196 36.944 177.292 36.784 177.676 36.688C182.156 35.568 188.3 32.848 188.3 27.472C188.3 25.104 187.468 23.824 186.284 22.896C184.716 21.648 183.052 21.04 180.876 21.04C179.276 23.952 177.644 26.704 175.628 29.392C175.82 29.648 176.364 30.16 176.652 30.384C177.132 30.768 177.516 31.12 177.516 31.472C177.516 32.112 177.26 32.4 176.684 32.4C176.396 32.4 176.012 32.272 175.756 32.048C175.276 31.632 174.956 31.344 174.54 30.864C173.9 31.664 173.164 32.528 172.46 33.232C171.5 34.16 170.54 34.512 169.644 34.512C168.012 34.512 166.988 33.2 166.988 30.96C166.988 28.624 168.652 25.52 171.308 23.472C171.244 23.056 171.18 22.672 171.116 22.256C170.924 21.04 170.764 20.24 170.412 19.536C170.092 18.896 169.42 18.256 168.46 17.776C168.3 17.68 168.14 17.552 168.14 17.36C168.14 17.232 168.332 17.008 168.524 17.008C168.62 17.008 168.716 17.008 168.844 17.04C170.06 17.392 171.116 17.936 171.628 18.544C172.14 19.184 172.332 19.92 172.46 21.072C172.524 21.552 172.556 22.064 172.62 22.576C174.764 21.2 177.164 20.368 179.724 20.08C179.948 19.568 180.14 19.088 180.364 18.544C180.652 17.808 180.78 17.168 180.78 16.784C180.78 15.952 179.948 15.536 178.988 15.504C178.796 15.504 178.572 15.44 178.572 15.28C178.572 15.12 178.668 14.992 178.892 14.8C179.148 14.64 179.404 14.512 179.692 14.512C180.46 14.512 181.452 14.864 182.092 15.216C182.668 15.568 183.244 15.92 183.244 16.624C183.244 17.008 183.052 17.232 182.956 17.392C182.764 17.68 182.604 17.936 182.348 18.416C182.028 19.024 181.836 19.408 181.516 20.016ZM172.812 23.728C173.164 25.424 173.708 26.8 174.732 28.368C176.524 26.064 177.9 23.696 179.276 21.136C177.132 21.456 174.86 22.288 172.812 23.728ZM171.628 24.624C169.58 26.416 168.492 28.976 168.492 30.352C168.492 31.728 168.972 32.592 169.9 32.592C170.476 32.592 171.212 32.304 171.756 31.856C172.492 31.28 173.164 30.512 173.772 29.744C172.812 28.24 172.108 26.576 171.628 24.624ZM210.38 17.776C210.828 18.48 211.02 19.344 211.02 20.144C211.02 21.072 210.732 22.256 210.412 23.28C209.452 26.032 207.628 29.456 205.804 31.76C204.78 33.008 203.692 33.904 202.636 33.904C201.644 33.904 200.716 33.2 200.076 32.24C199.372 31.12 198.956 29.712 198.956 28.016C198.956 24.88 200.3 22.096 202.444 20.08C204.524 18.128 207.628 16.624 211.724 16.624C218.156 16.624 222.668 20.816 222.668 26.608C222.668 33.328 215.66 36.688 209.1 37.04C208.748 37.072 208.556 36.88 208.556 36.688C208.556 36.432 208.652 36.272 209.1 36.176C214.444 35.248 220.556 32.304 220.556 26.064C220.556 21.2 217.004 18.032 212.108 17.776C211.596 17.744 210.924 17.744 210.38 17.776ZM209.388 17.904C206.316 18.416 204.428 19.664 202.988 21.136C201.324 22.832 200.396 25.04 200.396 27.472C200.396 28.848 200.684 29.776 201.164 30.704C201.516 31.344 202.124 31.792 202.668 31.792C203.244 31.792 203.916 31.248 204.908 29.936C206.796 27.44 208.364 24.464 209.324 21.552C209.676 20.528 209.772 19.92 209.772 19.248C209.772 18.608 209.612 18.128 209.388 17.904ZM234.508 24.336V24.88C234.508 25.552 234.156 25.744 233.324 25.744C232.684 25.744 232.492 25.584 232.492 25.04C232.492 24.336 232.588 22.832 232.588 17.904C232.588 14.832 232.588 13.648 232.46 12.112C233.388 12.496 233.964 12.816 234.796 13.328H250.636C251.532 12.368 251.66 12.272 251.82 12.272C251.98 12.272 252.204 12.368 253.1 13.104C253.58 13.488 253.644 13.648 253.644 13.808C253.644 14.064 253.58 14.224 252.812 14.736V17.68C252.812 22.384 252.94 24.24 252.94 24.784C252.94 25.488 252.588 25.744 251.724 25.744C251.116 25.744 250.86 25.552 250.86 24.976V24.336H244.748C246.508 26.48 248.268 27.792 250.252 28.72C252.012 29.584 254.572 30.32 257.612 30.672C257.804 30.704 257.772 31.024 257.58 31.056C256.844 31.184 256.492 31.44 256.14 32.336C256.012 32.72 255.916 32.816 255.692 32.816C255.372 32.816 254.988 32.72 254.508 32.56C252.972 32.08 251.148 31.184 249.58 30.16C249.228 29.936 248.908 29.712 248.556 29.456C248.588 29.52 248.588 29.552 248.588 29.616C248.588 29.808 248.46 30 247.628 30.32V33.072C247.628 37.232 247.756 39.056 247.756 39.536C247.756 40.176 247.436 40.496 246.508 40.496C245.804 40.496 245.612 40.24 245.612 39.664C245.612 39.248 245.708 37.68 245.708 33.84C245.708 30.96 245.708 30.128 245.548 28.784C247.18 29.008 247.948 29.136 248.3 29.264C246.572 27.92 245.132 26.192 243.948 24.336H241.452C241.1 24.912 240.716 25.456 240.3 26C239.468 27.056 238.476 27.984 237.42 28.816C239.916 29.072 240.332 29.232 240.332 29.616C240.332 29.84 240.204 30 239.372 30.352C239.34 30.672 239.34 30.96 239.308 31.28C239.052 33.968 238.284 35.824 236.94 37.296C235.5 38.896 233.228 40.016 230.156 40.688C229.964 40.72 229.804 40.336 229.996 40.272C232.876 39.12 234.828 37.616 235.98 35.728C236.876 34.224 237.324 32.4 237.324 30.416C237.324 29.904 237.292 29.488 237.196 28.976C234.86 30.736 231.884 32.144 228.428 32.944C228.236 32.976 228.076 32.496 228.268 32.432C233.1 30.832 237.164 27.728 239.18 24.336H234.508ZM234.508 23.536H241.612V19.152H234.508V23.536ZM250.86 23.536V19.152H243.5V23.536H250.86ZM234.508 18.352H241.612V14.128H234.508V18.352ZM243.5 14.128V18.352H250.86V14.128H243.5ZM273.708 23.856V24.336C273.708 24.912 273.356 25.136 272.588 25.136C272.012 25.136 271.788 25.008 271.788 24.496C271.788 23.984 271.916 22.416 271.916 17.968C271.916 14.832 271.916 13.968 271.756 12.176C272.588 12.56 273.164 12.816 273.932 13.264H284.716C285.484 12.4 285.612 12.304 285.804 12.304C285.964 12.304 286.124 12.4 286.956 13.104C287.436 13.488 287.532 13.68 287.532 13.84C287.532 14.032 287.404 14.192 286.7 14.64V17.456C286.7 21.936 286.828 23.632 286.828 24.144C286.828 24.784 286.444 24.976 285.644 24.976C285.1 24.976 284.908 24.816 284.908 24.304V23.856H273.708ZM273.708 18.096H278.348V14.064H273.708V18.096ZM273.708 18.896V23.056H278.348V18.896H273.708ZM284.908 23.056V18.896H280.108V23.056H284.908ZM284.908 18.096V14.064H280.108V18.096H284.908ZM272.428 37.2V28.016H272.076C271.404 28.016 270.892 28.08 270.124 28.208L269.868 27.024C270.668 27.152 271.244 27.216 272.044 27.216H285.74C286.892 25.808 287.084 25.68 287.244 25.68C287.404 25.68 287.628 25.808 288.972 26.864C289.548 27.312 289.612 27.504 289.612 27.696C289.612 27.92 289.516 28.016 289.196 28.016H278.476C279.084 29.808 279.916 31.536 281.132 33.008C282.22 32.112 283.116 31.248 283.852 30.352C284.3 29.776 284.684 29.232 284.94 28.72C286.86 30.032 287.148 30.352 287.148 30.704C287.148 30.992 286.732 31.088 285.836 30.96C284.524 31.92 283.244 32.688 281.548 33.488C281.964 33.904 282.38 34.32 282.86 34.704C284.524 36.144 286.892 37.232 289.676 37.936C289.836 37.968 289.74 38.224 289.58 38.256C288.908 38.416 288.62 38.64 288.332 39.6C288.236 39.92 288.044 40.016 287.852 40.016C287.66 40.016 287.308 39.888 286.7 39.6C284.748 38.704 282.956 37.36 281.452 35.728C279.948 34.064 278.604 31.632 277.676 28.016H274.284V36.88C276.076 36.528 277.836 36.08 279.98 35.472C280.172 35.408 280.3 35.856 280.108 35.92C276.62 37.584 274.444 38.32 270.7 39.344C270.508 40.208 270.348 40.432 270.06 40.432C269.836 40.432 269.644 40.336 268.876 37.52C269.484 37.52 269.964 37.52 270.668 37.424C271.276 37.36 271.852 37.264 272.428 37.2ZM263.82 13.968V30.288C263.82 36.208 263.884 38.608 263.884 39.44C263.884 40.08 263.532 40.368 262.7 40.368C262.06 40.368 261.868 40.144 261.868 39.632C261.868 38.288 261.964 29.52 261.964 23.568C261.964 15.184 261.964 13.584 261.804 12.048C262.7 12.432 263.276 12.688 264.14 13.168H268.044C268.812 12.304 268.94 12.208 269.1 12.208C269.26 12.208 269.452 12.304 270.284 13.2C270.7 13.648 270.764 13.84 270.764 14C270.764 14.192 270.604 14.32 269.932 14.512C268.748 17.392 267.532 19.728 266.092 22C268.46 24.208 269.612 26.576 269.612 29.136C269.612 30.608 269.324 31.632 268.844 32.24C268.3 32.912 267.628 33.296 266.764 33.296C266.476 33.296 266.412 33.264 266.348 32.88C266.22 32.144 265.932 31.792 264.396 31.408C264.204 31.376 264.236 31.056 264.428 31.056C265.58 31.152 266.092 31.152 266.604 31.152C266.924 31.152 267.148 31.024 267.404 30.768C267.692 30.448 267.852 29.52 267.852 28.496C267.852 26.224 267.148 24.08 265.356 22.096C266.54 19.376 267.34 17.04 268.012 13.968H263.82Z" fill="#222222"/>
<path d="M25.0059 63.5254V65.0371H27.9941V72.5254H22V74.0371H27.9941V72.5254H29.5059V75.5312H20.5059V72.5254H14.4941V65.0371H17.5V63.5254H14.4941V65.0371H13V62.0312H20.5059V60.5371H14.4941V59.0254H27.9941V60.5371H22V62.0312H29.5059V65.0371H27.9941V63.5254H25.0059ZM18.9941 65.0371H20.5059V63.5254H18.9941V65.0371ZM23.4941 63.5254H22V65.0371H23.4941V63.5254ZM16.0059 68.0254H20.5059V66.5312H16.0059V68.0254ZM22 68.0254H26.5V66.5312H22V68.0254ZM16.0059 71.0312H20.5059V69.5371H16.0059V71.0312ZM22 71.0312H26.5V69.5371H22V71.0312ZM34.0059 59.0254H44.5V62.0312H43.0059V60.5371H34.0059V59.0254ZM41.4941 62.0312H43.0059V63.5254H41.4941V62.0312ZM40 63.5254H41.4941V65.0371H40V63.5254ZM40 65.0371V66.5312H47.5059V68.0254H40V75.5312H35.5V74.0371H38.5059V68.0254H31V66.5312H38.5059V65.0371H40ZM53.5 60.5371H62.5V62.0312H53.5V60.5371ZM51.9883 66.5312V65.0371H64.0117V69.5371H62.5V66.5312H51.9883ZM62.5 71.0312H61.0059V69.5371H62.5V71.0312ZM61.0059 72.543H58V71.0312H61.0059V72.543ZM58 74.0371H54.9941V72.543H58V74.0371ZM79.0059 63.5254V60.5371H80.5V63.5254H79.0059ZM79.0059 65.0371H77.4941V63.5254H79.0059V65.0371ZM72.9941 66.5312H76V65.0371H77.4941V74.0371H76V68.0254H72.9941V66.5312ZM72.9941 69.5371H69.9883V68.0254H72.9941V69.5371ZM101.506 60.5371V62.0312H94V63.5254H98.5V65.0371H94V66.5312H101.506V68.0254H90.9941V69.5371H98.5V72.5254H97.0059V71.0312H90.9941V72.5254H89.5V71.0312H88.0059V69.5371H89.5V68.0254H85V66.5312H92.5059V65.0371H88.0059V63.5254H92.5059V62.0312H85V60.5371H92.5059V57.5312H94V60.5371H101.506ZM88.0059 72.5254H85V71.0312H88.0059V72.5254ZM97.0059 74.0371H90.9941V72.5254H97.0059V74.0371ZM90.9941 75.5312H86.4941V74.0371H90.9941V75.5312ZM101.506 74.0371V75.5312H97.0059V74.0371H101.506ZM108.994 65.0371H107.5V69.5371H106.006V59.0254H107.5V63.5254H108.994V65.0371ZM110.506 72.5254H108.994V71.0312H110.506V63.5254H108.994V62.0312H110.506V59.0254H119.506V75.5312H110.506V72.5254ZM113.494 60.5371H112V66.5312H113.494V60.5371ZM117.994 60.5371H115.006V66.5312H117.994V60.5371ZM104.494 62.0312V66.5312H103V62.0312H104.494ZM113.494 68.0254H112V74.0371H113.494V68.0254ZM117.994 68.0254H115.006V74.0371H117.994V68.0254ZM104.494 72.5254V69.5371H106.006V72.5254H104.494ZM107.5 69.5371H108.994V71.0312H107.5V69.5371ZM103 75.5312V72.5254H104.494V75.5312H103ZM126.994 63.5254V62.0312H133.006V63.5254H130V68.0254H128.506V63.5254H126.994ZM125.5 63.5254H126.994V65.0371H125.5V63.5254ZM133.006 65.0371V63.5254H134.5V65.0371H133.006ZM123.988 65.0371H125.5V66.5312H123.988V65.0371ZM134.5 71.0312V65.0371H136.012V71.0312H134.5ZM122.494 71.0312V66.5312H123.988V71.0312H122.494ZM128.506 71.0312H126.994V68.0254H128.506V71.0312ZM126.994 72.543H123.988V71.0312H126.994V72.543ZM134.5 72.543H133.006V71.0312H134.5V72.543ZM133.006 74.0371H130V72.543H133.006V74.0371ZM155.506 59.0254V62.0312H153.994V60.5371H152.5V65.0371H151.006V60.5371H149.494V63.5254H148V60.5371H144.994V63.5254H143.5V59.0254H155.506ZM139 62.0312V60.5371H140.494V62.0312H139ZM142.006 63.5254H140.494V62.0312H142.006V63.5254ZM148 65.0371H146.506V63.5254H148V65.0371ZM139 66.5312V65.0371H140.494V66.5312H139ZM146.506 66.5312H143.5V65.0371H146.506V66.5312ZM155.506 65.0371V66.5312H152.5V65.0371H155.506ZM142.006 68.0254H140.494V66.5312H142.006V68.0254ZM149.494 66.5312H151.006V68.0254H155.506V69.5371H151.006V75.5312H149.494V71.0312H148V69.5371H143.5V68.0254H149.494V66.5312ZM142.006 72.5254H140.494V69.5371H142.006V72.5254ZM148 72.5254H146.506V71.0312H148V72.5254ZM152.5 72.5254V71.0312H153.994V72.5254H152.5ZM140.494 75.5312H139V72.5254H140.494V75.5312ZM146.506 74.0371H143.5V72.5254H146.506V74.0371ZM155.506 74.0371H153.994V72.5254H155.506V74.0371ZM158.494 71.0312V59.0254H173.506V69.5371H171.994V75.5312H162.994V69.5371H161.5V63.5254H160.006V71.0312H158.494ZM160.006 62.0312H171.994V60.5371H160.006V62.0312ZM162.994 63.5254V65.0371H167.494V63.5254H162.994ZM169.006 65.0371H171.994V63.5254H169.006V65.0371ZM167.494 68.0254V66.5312H162.994V68.0254H167.494ZM169.006 68.0254H171.994V66.5312H169.006V68.0254ZM164.506 71.0312H170.5V69.5371H164.506V71.0312ZM158.494 74.0371H157V71.0312H158.494V74.0371ZM164.506 74.0371H170.5V72.5254H164.506V74.0371ZM187.006 66.5312V62.0312H188.5V66.5312H187.006ZM187.006 69.5371H185.494V66.5312H187.006V69.5371ZM185.494 71.0312H184V69.5371H185.494V71.0312ZM184 72.543H180.994V71.0312H184V72.543ZM180.994 74.0371H177.988V72.543H180.994V74.0371ZM205.006 63.5254V60.5371H206.5V63.5254H205.006ZM205.006 65.0371H203.494V63.5254H205.006V65.0371ZM198.994 66.5312H202V65.0371H203.494V74.0371H202V68.0254H198.994V66.5312ZM198.994 69.5371H195.988V68.0254H198.994V69.5371ZM218.506 60.5371V59.043H220V60.5371H218.506ZM223.006 60.5371V59.043H224.5V60.5371H223.006ZM221.494 62.0312H223.006V66.5312H221.494V63.5254H213.988V62.0312H220V60.5371H221.494V62.0312ZM224.5 62.0312V60.5371H226.012V62.0312H224.5ZM220 69.5371V66.5312H221.494V69.5371H220ZM220 71.0312H218.506V69.5371H220V71.0312ZM221.494 71.0312V69.5371H223.006V71.0312H221.494ZM218.506 72.543H215.5V71.0312H218.506V72.543ZM224.5 74.0371H223.006V71.0312H224.5V74.0371ZM215.5 74.0371H212.494V72.543H215.5V74.0371ZM245.506 60.5371V63.5254H243.994V62.0312H238V63.5254H242.5V65.0371H238V66.5312H242.5V68.0254H238V69.5371H245.506V71.0312H239.494V72.5254H238V71.0312H236.506V72.5254H234.994V71.0312H229V69.5371H236.506V68.0254H232.006V66.5312H236.506V65.0371H232.006V63.5254H236.506V62.0312H230.494V63.5254H229V60.5371H236.506V57.5312H238V60.5371H245.506ZM234.994 74.0371H232.006V72.5254H234.994V74.0371ZM242.5 72.5254V74.0371H239.494V72.5254H242.5ZM232.006 75.5312H229V74.0371H232.006V75.5312ZM245.506 74.0371V75.5312H242.5V74.0371H245.506ZM263.506 60.5371V63.5254H259.006V65.0371H263.506V71.0312H259.006V72.5254H257.494V71.0312H254.506V65.0371H257.494V63.5254H251.5V65.0371H252.994V66.5312H251.5V68.0254H252.994V74.0371H251.5V69.5371H247V59.0254H252.994V60.5371H251.5V62.0312H254.506V60.5371H256V62.0312H261.994V60.5371H263.506ZM256 59.0254H261.994V60.5371H256V59.0254ZM248.494 62.0312H250.006V60.5371H248.494V62.0312ZM248.494 65.0371H250.006V63.5254H248.494V65.0371ZM248.494 68.0254H250.006V66.5312H248.494V68.0254ZM256 69.5371H257.494V66.5312H256V69.5371ZM261.994 69.5371V66.5312H259.006V69.5371H261.994ZM247 71.0312H250.006V72.5254H247V71.0312ZM257.494 74.0371H256V72.5254H257.494V74.0371ZM260.5 72.5254V74.0371H259.006V72.5254H260.5ZM251.5 75.5312H248.494V74.0371H251.5V75.5312ZM256 75.5312H252.994V74.0371H256V75.5312ZM263.506 74.0371V75.5312H260.5V74.0371H263.506ZM266.494 62.0312V65.0371H265V60.5371H272.506V57.5312H274V60.5371H281.506V65.0371H279.994V62.0312H266.494ZM278.5 65.0371H277.006V66.5312H275.494V65.0371H272.506V66.5312H270.994V65.0371H268.006V63.5254H278.5V65.0371ZM281.506 75.5312H265V74.0371H272.506V72.5254H268.006V71.0312H272.506V69.5371H266.494V68.0254H269.5V66.5312H270.994V68.0254H277.006V66.5312H278.5V68.0254H279.994V69.5371H274V71.0312H278.5V72.5254H274V74.0371H281.506V75.5312Z" fill="black"/>
</g>
<defs>
<clipPath id="clip0_201_233">
<rect width="296" height="88" fill="white"/>
</clipPath>
</defs>
</svg>
