<svg width="174" height="168" viewBox="0 0 174 168" fill="none" xmlns="http://www.w3.org/2000/svg">
<path d="M51.304 113.128V123.8H122.696V113.128C122.696 109.08 122.144 108.528 118.096 108.528H55.904C51.856 108.528 51.304 109.08 51.304 113.128ZM19.104 15.056H75.408C77.984 2.176 78.352 0.703992 84.24 0.703992C88.472 0.703992 91.968 1.992 91.968 6.59199C91.968 9.90399 91.6 11.192 90.864 15.056H156.368C161.152 15.056 163.176 17.816 163.176 21.864C163.176 25.912 161.152 28.672 156.368 28.672H87.368C86.448 31.432 85.344 35.112 83.688 39.344H149.008C153.792 39.344 155.816 42.104 155.816 45.968C155.816 50.016 153.792 52.776 149.008 52.776H112.208C113.68 55.536 116.624 61.792 119.568 65.656H164.464C169.064 65.656 171.088 68.416 171.088 72.464C171.088 76.328 169.064 79.088 164.464 79.088H129.872C137.048 87.552 150.848 97.488 164.648 103.56C169.8 105.952 173.112 107.792 173.112 112.392C173.112 117.544 169.984 120.856 165.936 120.856C164.096 120.856 161.888 120.304 158.76 118.832C154.16 116.44 146.064 111.84 137.968 105.768V154.712C138.152 162.808 133.368 167.408 125.456 167.408H49.28C41.184 167.408 36.584 162.624 36.584 154.712V106.32C30.512 110.92 13.952 122.328 7.88 122.328C3.648 122.328 0.52 119.2 0.52 114.784C0.52 111.104 1.992 109.448 6.224 107.056C24.256 96.936 34.56 91.048 45.048 79.088H11.008C6.408 79.088 4.384 76.328 4.384 72.464C4.384 68.416 6.408 65.656 11.008 65.656H55.352C58.112 61.792 60.504 57.008 62.528 52.776H26.832C22.048 52.776 20.024 50.016 20.024 45.968C20.024 42.104 22.048 39.344 26.832 39.344H68.416C70.256 34.744 71.544 31.432 72.28 28.672H19.104C14.32 28.672 12.296 25.912 12.296 21.864C12.296 17.816 14.32 15.056 19.104 15.056ZM122.696 136.864H51.304V148.272C51.304 152.32 51.856 152.872 55.904 152.872H118.096C122.144 152.872 122.696 152.32 122.696 148.272V136.864ZM71.912 65.656H102.64C98.96 59.768 97.672 56.456 95.648 52.776H78.352C76.512 56.64 74.672 61.424 71.912 65.656ZM50.016 94.912H124.536C119.2 89.76 115.336 84.792 110.92 79.088H63.632C59.216 84.792 54.064 91.048 50.016 94.912Z" fill="black"/>
</svg>
