<svg width="168" height="172" viewBox="0 0 168 172" fill="none" xmlns="http://www.w3.org/2000/svg">
<path d="M113.152 30.408H60.528C59.792 31.328 58.32 32.432 57.216 33.536C65.496 45.128 77.088 54.328 87.024 60.4C104.688 48.44 117.2 33.72 117.2 31.512C117.2 30.408 116.28 30.408 113.152 30.408ZM74.512 16.056H123.64C132.288 16.056 136.52 21.024 136.52 26.176C136.52 38.504 112.968 59.112 99.352 68.864C109.656 75.12 132.84 84.32 154.92 89.656C160.992 91.312 167.064 92.048 167.064 98.672C167.064 103.64 163.2 106.768 159.52 106.768C153.264 106.768 112.232 94.624 85.92 78.248C59.608 95.544 15.08 108.608 7.536 108.608C3.856 108.608 0.544 105.112 0.544 100.512C0.544 93.888 5.696 93.152 15.448 90.944C34.952 86.528 59.976 76.96 72.672 69.416C54.64 55.616 46.728 43.84 45.808 42.368C38.264 48.44 23.728 56.72 20.6 58.376C19.68 58.928 17.104 60.216 14.16 60.216C8.64 60.216 6.616 55.984 6.616 52.12C6.616 47.704 9.928 46.048 14.344 43.84C34.216 33.352 51.88 18.816 63.84 4.832C66.784 1.336 68.624 0.231989 71.752 0.231989C76.168 0.231989 79.848 3.54399 79.848 7.408C79.848 10.352 77.456 13.296 74.512 16.056ZM63.104 98.304C69.728 98.304 91.992 105.112 108.368 111.368C113.52 113.392 117.568 115.416 117.568 120.936C117.568 125.168 114.44 128.664 110.024 128.664C106.896 128.664 87.576 120.752 83.344 119.28C78.008 117.44 70.28 115.784 62.184 113.576C58.32 112.288 55.008 110.816 55.008 106.032C55.008 101.064 58.872 98.304 63.104 98.304ZM39.552 134C43.6 134 84.08 140.624 122.904 153.688C126.032 154.792 133.208 157.184 133.208 163.072C133.208 167.856 130.632 171.536 125.112 171.536C122.904 171.536 117.016 169.144 113.336 168.04C77.088 156.08 51.88 151.848 42.312 150.56C34.4 149.456 30.536 147.984 30.536 142.096C30.536 136.944 33.664 134 39.552 134Z" fill="black"/>
</svg>
