<svg width="325" height="258" viewBox="0 0 325 258" fill="none" xmlns="http://www.w3.org/2000/svg">
<path d="M82.432 54.48H78.592C78.144 55.376 77.44 56.848 76.736 57.936H84.032C83.328 56.592 82.816 55.376 82.432 54.48ZM80.32 50.384H85.184C86.016 49.296 86.976 47.632 87.552 46.416C88.128 45.264 88.768 44.752 89.856 44.752C91.2 44.752 92.352 45.712 92.352 46.992C92.352 48.016 90.944 50.064 90.688 50.384H96.576C97.984 50.384 98.624 51.216 98.624 52.432C98.624 53.648 97.984 54.48 96.576 54.48H87.424C87.744 55.184 88.512 56.784 89.216 57.936H97.92C99.392 57.936 100.032 58.768 100.032 60.112C100.032 61.392 99.392 62.224 97.92 62.224H91.968C94.144 65.104 97.28 67.536 98.304 68.304C99.136 68.944 99.648 69.456 99.648 70.288C99.648 71.76 98.688 72.912 97.216 72.912C95.104 72.912 90.816 68.496 86.592 62.224H74.112C73.216 63.312 72.32 64.592 71.488 65.488H84.608C87.744 65.488 88.768 66.512 88.768 69.648V72.656C88.768 75.792 87.744 76.816 84.608 76.816H73.728C72.448 76.816 72.448 77.136 72.448 79.952C72.448 80.912 72.96 81.104 74.176 81.104H80.064C82.752 81.104 85.12 81.104 87.552 80.912C88.96 80.848 89.664 80.08 90.24 77.968C90.624 76.368 91.136 75.472 92.672 75.472C93.888 75.472 95.168 76.24 95.168 77.776C95.168 78.864 94.144 82.768 91.392 84.432C89.92 85.392 89.024 85.52 76.672 85.52C70.528 85.52 67.84 85.52 67.84 81.552V76.688C67.84 73.872 68.928 72.784 71.808 72.784H82.88C84.032 72.784 84.032 72.592 84.032 70.736C84.032 69.712 83.904 69.584 82.88 69.584H70.656C69.888 69.584 69.056 69.264 68.992 68.24C67.84 69.52 64.192 73.168 62.528 73.168C61.312 73.168 60.288 72.144 60.288 70.8C60.288 69.968 60.8 69.264 61.824 68.432C63.424 67.216 66.304 64.976 68.48 62.224H61.568C60.096 62.224 59.456 61.392 59.456 60.112C59.456 58.768 60.096 57.936 61.568 57.936H71.488C72.32 56.784 72.896 55.632 73.472 54.48H63.168C61.696 54.48 61.12 53.648 61.12 52.432C61.12 51.216 61.696 50.384 63.168 50.384H68.16C66.816 48.208 66.496 47.632 66.496 46.928C66.496 45.584 67.712 44.816 69.12 44.816C70.016 44.816 70.464 45.2 70.912 46.032C71.68 47.376 72.384 48.912 73.088 50.384H75.072C75.456 49.552 76.032 47.952 76.608 46.16C76.992 44.752 77.696 44.048 78.784 44.048C80.576 44.048 81.536 45.008 81.536 46.224C81.536 47.568 80.384 50.192 80.32 50.384ZM99.392 43.024H60.48C58.88 43.024 58.368 43.472 58.368 45.136V85.904C58.368 87.504 58.88 88.016 60.48 88.016H99.392C100.992 88.016 101.504 87.504 101.504 85.904V45.136C101.504 43.472 100.992 43.024 99.392 43.024ZM53.056 87.248V43.792C53.056 39.888 54.848 38.032 58.752 38.032H101.12C105.024 38.032 106.816 39.888 106.816 43.792V87.248C106.816 91.216 105.024 93.008 101.12 93.008H58.752C54.848 93.008 53.056 91.216 53.056 87.248ZM131.264 42.768H141.824C145.024 42.768 146.944 44.304 146.944 46.736C146.944 48.08 145.216 57.872 142.272 65.68C140.16 70.8 137.984 75.216 134.08 80.464C128.896 87.312 120.832 93.904 118.336 93.904C116.864 93.904 115.392 92.56 115.392 91.152C115.392 89.616 116.16 88.976 118.08 87.76C124.928 83.344 129.856 77.648 133.312 71.568C130.624 68.496 128.384 66.192 126.336 64.336C124.864 62.992 124.48 62.352 124.48 61.392C124.48 59.856 125.888 58.768 127.168 58.768C128.448 58.768 129.152 59.472 129.664 59.92C132.16 62.16 134.4 64.656 136 66.384C139.392 58.32 141.12 49.552 141.12 48.528C141.12 47.824 140.8 47.632 140.224 47.632H129.536C127.232 53.456 124.096 58.896 120.192 63.824C118.976 65.296 118.08 66.256 116.672 66.256C115.136 66.256 113.984 64.976 113.984 63.44C113.984 62.544 114.432 61.712 115.968 59.92C121.088 53.776 124.352 46.352 126.528 38.672C127.168 36.304 128.576 36.048 129.472 36.048C131.072 36.048 132.288 36.944 132.288 38.544C132.288 39.952 131.712 41.488 131.264 42.768ZM159.68 38.608V63.952C162.624 67.216 167.168 71.248 170.944 73.68C173.76 75.536 174.08 75.984 174.08 77.328C174.08 78.928 173.12 80.144 171.456 80.144C170.048 80.144 168.832 79.376 166.656 77.776C164.672 76.24 162.176 74.192 159.68 71.696V92.816C159.68 94.736 158.592 95.568 156.928 95.568C155.264 95.568 154.176 94.736 154.176 92.816V66C152.512 63.952 146.752 56.464 146.752 53.2C146.752 51.6 148.16 50.832 149.248 50.832C150.336 50.832 151.104 51.216 151.744 52.304C152.384 53.584 153.28 55.44 154.176 56.976V38.608C154.176 36.688 155.264 35.856 156.928 35.856C158.592 35.856 159.68 36.688 159.68 38.608ZM50.046 144.805L48.825 144.31L61.464 114.115L62.685 114.61L50.046 144.805ZM94.6452 136.621L94.8762 136.852C97.5162 139.327 100.519 140.812 103.357 141.538C103.555 141.604 103.489 141.868 103.291 141.934C102.565 142.132 102.235 142.396 101.872 143.353C101.74 143.683 101.608 143.749 101.377 143.749C101.212 143.749 100.717 143.584 99.9252 143.155C97.5822 141.835 95.3382 139.921 93.4902 137.875C90.8172 140.548 87.3852 142.594 83.1282 144.013C82.9302 144.079 82.7322 143.65 82.8972 143.551C86.7252 141.67 89.8932 139.294 92.3352 136.423C91.4112 135.202 90.7182 133.816 90.1242 132.43C89.2662 130.351 88.7052 128.173 88.2102 125.995H86.6922C86.4942 129.79 86.0652 132.529 85.3722 135.004C84.4152 138.238 83.0952 140.977 80.3892 143.914C80.2572 144.046 79.8942 143.782 79.9932 143.617C82.0062 140.548 83.0622 137.809 83.7552 134.641C84.4152 131.44 84.7452 127.744 84.7452 121.87C84.7452 118.9 84.7452 118.141 84.5472 116.326C85.5372 116.722 86.1972 117.052 87.1212 117.646H98.8692C100.189 116.029 100.354 115.93 100.552 115.93C100.75 115.93 100.948 115.996 102.4 117.151C103.093 117.745 103.225 117.943 103.225 118.141C103.225 118.339 103.06 118.471 102.763 118.471H86.7912V121.342C86.7912 122.728 86.7582 123.982 86.7252 125.17H97.5492C98.3742 124.213 98.6052 124.048 98.7702 124.048C98.9352 124.048 99.1002 124.114 100.189 125.104C100.618 125.5 100.717 125.731 100.717 125.896C100.717 126.16 100.486 126.325 99.6612 126.688C98.6052 130.615 96.9552 133.915 94.6452 136.621ZM97.6152 125.995H88.9692C89.4312 127.711 89.9592 129.394 90.7182 131.011C91.4112 132.529 92.2362 133.915 93.2922 135.202C95.3052 132.496 96.7572 129.427 97.6152 125.995ZM79.0692 125.962V143.353C79.0692 144.013 78.7062 144.343 77.8482 144.343C77.2212 144.343 76.9242 144.112 76.9242 143.518C76.9242 142.891 76.9902 140.713 77.1222 131.77C77.1222 129.856 77.1552 127.942 77.1552 126.028C76.0002 127.645 74.7132 129.097 73.2282 130.45C73.0962 130.582 72.7332 130.285 72.8652 130.12C75.5382 126.82 77.6832 122.53 78.8712 118.471C79.3002 117.019 79.6302 115.666 79.7622 114.445C82.2702 115.138 82.9632 115.468 82.9632 115.897C82.9632 116.194 82.5342 116.392 81.7092 116.524C80.7192 119.56 79.5972 122.134 78.2112 124.411C79.7622 124.675 80.0262 124.84 80.0262 125.17C80.0262 125.434 79.9272 125.599 79.0692 125.962ZM113.29 128.14V129.097C114.082 129.328 114.874 129.625 115.666 129.988C116.293 129.196 116.953 128.14 117.481 127.216C117.877 126.523 118.141 125.929 118.273 125.5C119.923 126.358 120.583 126.853 120.583 127.183C120.583 127.447 120.352 127.579 119.428 127.546C118.339 128.635 117.514 129.427 116.293 130.318C117.778 131.176 118.603 132.166 118.603 133.024C118.603 133.75 118.207 134.212 117.679 134.212C117.316 134.212 117.019 133.981 116.623 133.288C115.798 131.869 114.808 130.615 113.29 129.625V136.027C113.29 140.02 113.356 142.792 113.356 143.551C113.356 144.211 112.927 144.541 112.135 144.541C111.442 144.541 111.211 144.277 111.211 143.716C111.211 143.221 111.343 140.449 111.409 134.014C111.442 132.694 111.442 131.341 111.442 130.021C109.924 131.407 108.175 132.595 106.195 133.717C106.03 133.816 105.733 133.453 105.898 133.321C110.155 129.889 113.389 125.863 115.402 121.474H109.198C108.175 121.474 107.548 121.507 106.822 121.705L106.492 120.418C107.317 120.583 108.076 120.649 109.198 120.649H111.376V117.448C111.376 116.392 111.343 115.6 111.178 114.511C114.049 114.841 114.445 115.072 114.445 115.402C114.445 115.666 114.28 115.897 113.29 116.293V120.649H115.303C116.161 119.692 116.293 119.626 116.491 119.626C116.623 119.626 116.821 119.725 117.877 120.748C118.339 121.21 118.405 121.408 118.405 121.606C118.405 121.936 118.075 122.101 117.25 122.266C116.095 124.51 114.808 126.457 113.29 128.14ZM132.496 118.999H126.127C126.061 124.84 125.566 129.361 124.477 133.024C122.959 137.974 120.286 141.439 115.864 144.31C115.699 144.409 115.369 144.013 115.534 143.881C119.296 140.482 121.507 136.951 122.728 132.067C123.586 128.602 123.982 124.378 123.982 118.999H121.573C120.484 118.999 119.791 119.065 118.966 119.23L118.636 117.943C119.626 118.141 120.451 118.174 121.54 118.174H132.199C133.156 117.118 133.288 117.052 133.453 117.052C133.618 117.052 133.816 117.118 134.971 118.141C135.466 118.603 135.499 118.768 135.499 118.933C135.499 119.131 135.367 119.296 134.608 119.791C134.542 127.414 134.344 132.133 133.816 136.027C133.321 139.591 132.76 141.571 131.935 142.66C131.341 143.419 130.153 143.914 129.163 143.914C128.8 143.914 128.701 143.881 128.635 143.452C128.47 142.528 127.975 141.967 125.203 141.208C125.005 141.142 125.038 140.713 125.236 140.746C127.711 141.076 128.734 141.175 129.625 141.175C130.582 141.175 131.11 139.987 131.572 136.951C132.067 133.783 132.496 127.414 132.496 118.999ZM157.345 123.454C159.457 123.553 161.503 123.982 163.483 125.467C165.529 126.985 166.486 128.965 166.486 131.242C166.486 137.71 159.292 140.746 153.55 141.571C153.22 141.604 152.89 141.505 152.89 141.175C152.89 140.911 152.989 140.746 153.385 140.647C158.005 139.492 164.341 136.687 164.341 131.143C164.341 128.701 163.483 127.381 162.262 126.424C160.645 125.137 158.929 124.51 156.685 124.51C155.035 127.513 153.352 130.351 151.273 133.123C151.471 133.387 152.032 133.915 152.329 134.146C152.824 134.542 153.22 134.905 153.22 135.268C153.22 135.928 152.956 136.225 152.362 136.225C152.065 136.225 151.669 136.093 151.405 135.862C150.91 135.433 150.58 135.136 150.151 134.641C149.491 135.466 148.732 136.357 148.006 137.083C147.016 138.04 146.026 138.403 145.102 138.403C143.419 138.403 142.363 137.05 142.363 134.74C142.363 132.331 144.079 129.13 146.818 127.018C146.752 126.589 146.686 126.193 146.62 125.764C146.422 124.51 146.257 123.685 145.894 122.959C145.564 122.299 144.871 121.639 143.881 121.144C143.716 121.045 143.551 120.913 143.551 120.715C143.551 120.583 143.749 120.352 143.947 120.352C144.046 120.352 144.145 120.352 144.277 120.385C145.531 120.748 146.62 121.309 147.148 121.936C147.676 122.596 147.874 123.355 148.006 124.543C148.072 125.038 148.105 125.566 148.171 126.094C150.382 124.675 152.857 123.817 155.497 123.52C155.728 122.992 155.926 122.497 156.157 121.936C156.454 121.177 156.586 120.517 156.586 120.121C156.586 119.263 155.728 118.834 154.738 118.801C154.54 118.801 154.309 118.735 154.309 118.57C154.309 118.405 154.408 118.273 154.639 118.075C154.903 117.91 155.167 117.778 155.464 117.778C156.256 117.778 157.279 118.141 157.939 118.504C158.533 118.867 159.127 119.23 159.127 119.956C159.127 120.352 158.929 120.583 158.83 120.748C158.632 121.045 158.467 121.309 158.203 121.804C157.873 122.431 157.675 122.827 157.345 123.454ZM148.369 127.282C148.732 129.031 149.293 130.45 150.349 132.067C152.197 129.691 153.616 127.249 155.035 124.609C152.824 124.939 150.481 125.797 148.369 127.282ZM147.148 128.206C145.036 130.054 143.914 132.694 143.914 134.113C143.914 135.532 144.409 136.423 145.366 136.423C145.96 136.423 146.719 136.126 147.28 135.664C148.039 135.07 148.732 134.278 149.359 133.486C148.369 131.935 147.643 130.219 147.148 128.206ZM187.111 121.144C187.573 121.87 187.771 122.761 187.771 123.586C187.771 124.543 187.474 125.764 187.144 126.82C186.154 129.658 184.273 133.189 182.392 135.565C181.336 136.852 180.214 137.776 179.125 137.776C178.102 137.776 177.145 137.05 176.485 136.06C175.759 134.905 175.33 133.453 175.33 131.704C175.33 128.47 176.716 125.599 178.927 123.52C181.072 121.507 184.273 119.956 188.497 119.956C195.13 119.956 199.783 124.279 199.783 130.252C199.783 137.182 192.556 140.647 185.791 141.01C185.428 141.043 185.23 140.845 185.23 140.647C185.23 140.383 185.329 140.218 185.791 140.119C191.302 139.162 197.605 136.126 197.605 129.691C197.605 124.675 193.942 121.408 188.893 121.144C188.365 121.111 187.672 121.111 187.111 121.144ZM186.088 121.276C182.92 121.804 180.973 123.091 179.488 124.609C177.772 126.358 176.815 128.635 176.815 131.143C176.815 132.562 177.112 133.519 177.607 134.476C177.97 135.136 178.597 135.598 179.158 135.598C179.752 135.598 180.445 135.037 181.468 133.684C183.415 131.11 185.032 128.041 186.022 125.038C186.385 123.982 186.484 123.355 186.484 122.662C186.484 122.002 186.319 121.507 186.088 121.276ZM211.993 127.909V128.47C211.993 129.163 211.63 129.361 210.772 129.361C210.112 129.361 209.914 129.196 209.914 128.635C209.914 127.909 210.013 126.358 210.013 121.276C210.013 118.108 210.013 116.887 209.881 115.303C210.838 115.699 211.432 116.029 212.29 116.557H228.625C229.549 115.567 229.681 115.468 229.846 115.468C230.011 115.468 230.242 115.567 231.166 116.326C231.661 116.722 231.727 116.887 231.727 117.052C231.727 117.316 231.661 117.481 230.869 118.009V121.045C230.869 125.896 231.001 127.81 231.001 128.371C231.001 129.097 230.638 129.361 229.747 129.361C229.12 129.361 228.856 129.163 228.856 128.569V127.909H222.553C224.368 130.12 226.183 131.473 228.229 132.43C230.044 133.321 232.684 134.08 235.819 134.443C236.017 134.476 235.984 134.806 235.786 134.839C235.027 134.971 234.664 135.235 234.301 136.159C234.169 136.555 234.07 136.654 233.839 136.654C233.509 136.654 233.113 136.555 232.618 136.39C231.034 135.895 229.153 134.971 227.536 133.915C227.173 133.684 226.843 133.453 226.48 133.189C226.513 133.255 226.513 133.288 226.513 133.354C226.513 133.552 226.381 133.75 225.523 134.08V136.918C225.523 141.208 225.655 143.089 225.655 143.584C225.655 144.244 225.325 144.574 224.368 144.574C223.642 144.574 223.444 144.31 223.444 143.716C223.444 143.287 223.543 141.67 223.543 137.71C223.543 134.74 223.543 133.882 223.378 132.496C225.061 132.727 225.853 132.859 226.216 132.991C224.434 131.605 222.949 129.823 221.728 127.909H219.154C218.791 128.503 218.395 129.064 217.966 129.625C217.108 130.714 216.085 131.671 214.996 132.529C217.57 132.793 217.999 132.958 217.999 133.354C217.999 133.585 217.867 133.75 217.009 134.113C216.976 134.443 216.976 134.74 216.943 135.07C216.679 137.842 215.887 139.756 214.501 141.274C213.016 142.924 210.673 144.079 207.505 144.772C207.307 144.805 207.142 144.409 207.34 144.343C210.31 143.155 212.323 141.604 213.511 139.657C214.435 138.106 214.897 136.225 214.897 134.179C214.897 133.651 214.864 133.222 214.765 132.694C212.356 134.509 209.287 135.961 205.723 136.786C205.525 136.819 205.36 136.324 205.558 136.258C210.541 134.608 214.732 131.407 216.811 127.909H211.993ZM211.993 127.084H219.319V122.563H211.993V127.084ZM228.856 127.084V122.563H221.266V127.084H228.856ZM211.993 121.738H219.319V117.382H211.993V121.738ZM221.266 117.382V121.738H228.856V117.382H221.266ZM252.418 127.414V127.909C252.418 128.503 252.055 128.734 251.263 128.734C250.669 128.734 250.438 128.602 250.438 128.074C250.438 127.546 250.57 125.929 250.57 121.342C250.57 118.108 250.57 117.217 250.405 115.369C251.263 115.765 251.857 116.029 252.649 116.491H263.77C264.562 115.6 264.694 115.501 264.892 115.501C265.057 115.501 265.222 115.6 266.08 116.326C266.575 116.722 266.674 116.92 266.674 117.085C266.674 117.283 266.542 117.448 265.816 117.91V120.814C265.816 125.434 265.948 127.183 265.948 127.711C265.948 128.371 265.552 128.569 264.727 128.569C264.166 128.569 263.968 128.404 263.968 127.876V127.414H252.418ZM252.418 121.474H257.203V117.316H252.418V121.474ZM252.418 122.299V126.589H257.203V122.299H252.418ZM263.968 126.589V122.299H259.018V126.589H263.968ZM263.968 121.474V117.316H259.018V121.474H263.968ZM251.098 141.175V131.704H250.735C250.042 131.704 249.514 131.77 248.722 131.902L248.458 130.681C249.283 130.813 249.877 130.879 250.702 130.879H264.826C266.014 129.427 266.212 129.295 266.377 129.295C266.542 129.295 266.773 129.427 268.159 130.516C268.753 130.978 268.819 131.176 268.819 131.374C268.819 131.605 268.72 131.704 268.39 131.704H257.335C257.962 133.552 258.82 135.334 260.074 136.852C261.196 135.928 262.12 135.037 262.879 134.113C263.341 133.519 263.737 132.958 264.001 132.43C265.981 133.783 266.278 134.113 266.278 134.476C266.278 134.773 265.849 134.872 264.925 134.74C263.572 135.73 262.252 136.522 260.503 137.347C260.932 137.776 261.361 138.205 261.856 138.601C263.572 140.086 266.014 141.208 268.885 141.934C269.05 141.967 268.951 142.231 268.786 142.264C268.093 142.429 267.796 142.66 267.499 143.65C267.4 143.98 267.202 144.079 267.004 144.079C266.806 144.079 266.443 143.947 265.816 143.65C263.803 142.726 261.955 141.34 260.404 139.657C258.853 137.941 257.467 135.433 256.51 131.704H253.012V140.845C254.86 140.482 256.675 140.02 258.886 139.393C259.084 139.327 259.216 139.789 259.018 139.855C255.421 141.571 253.177 142.33 249.316 143.386C249.118 144.277 248.953 144.508 248.656 144.508C248.425 144.508 248.227 144.409 247.435 141.505C248.062 141.505 248.557 141.505 249.283 141.406C249.91 141.34 250.504 141.241 251.098 141.175ZM242.221 117.217V134.047C242.221 140.152 242.287 142.627 242.287 143.485C242.287 144.145 241.924 144.442 241.066 144.442C240.406 144.442 240.208 144.211 240.208 143.683C240.208 142.297 240.307 133.255 240.307 127.117C240.307 118.471 240.307 116.821 240.142 115.237C241.066 115.633 241.66 115.897 242.551 116.392H246.577C247.369 115.501 247.501 115.402 247.666 115.402C247.831 115.402 248.029 115.501 248.887 116.425C249.316 116.887 249.382 117.085 249.382 117.25C249.382 117.448 249.217 117.58 248.524 117.778C247.303 120.748 246.049 123.157 244.564 125.5C247.006 127.777 248.194 130.219 248.194 132.859C248.194 134.377 247.897 135.433 247.402 136.06C246.841 136.753 246.148 137.149 245.257 137.149C244.96 137.149 244.894 137.116 244.828 136.72C244.696 135.961 244.399 135.598 242.815 135.202C242.617 135.169 242.65 134.839 242.848 134.839C244.036 134.938 244.564 134.938 245.092 134.938C245.422 134.938 245.653 134.806 245.917 134.542C246.214 134.212 246.379 133.255 246.379 132.199C246.379 129.856 245.653 127.645 243.805 125.599C245.026 122.794 245.851 120.385 246.544 117.217H242.221Z" fill="#222222"/>
<path d="M19.0059 206.025H20.5V209.031H19.0059V206.025ZM32.5059 206.025V207.537H23.5059V210.525H30.9941V216.537H29.5V212.037H23.5059V216.537H21.9941V206.025H32.5059ZM16 212.037H17.4941V209.031H19.0059V222.531H17.4941V213.531H16V212.037ZM25 215.025V213.531H26.4941V215.025H25ZM26.4941 216.537V215.025H28.0059V216.537H26.4941ZM21.9941 219.525H20.5V216.537H21.9941V219.525ZM29.5 219.525H28.0059V216.537H29.5V219.525ZM28.0059 221.037H25V219.525H28.0059V221.037ZM30.9941 219.525V221.037H29.5V219.525H30.9941ZM25 222.531H21.9941V221.037H25V222.531ZM32.5059 221.037V222.531H30.9941V221.037H32.5059ZM37.0059 209.031H39.9941V213.531H38.5V210.525H34V209.031H35.4941V206.025H37.0059V209.031ZM39.9941 207.537V206.025H50.5059V219.525H48.9941V207.537H44.4941V215.025H43V207.537H39.9941ZM38.5 215.025H37.0059V213.531H38.5V215.025ZM34 216.537H35.4941V215.025H37.0059V216.537H38.5V218.031H37.0059V222.531H35.4941V218.031H34V216.537ZM43 218.031H41.5059V215.025H43V218.031ZM41.5059 221.037H39.9941V218.031H41.5059V221.037ZM48.9941 221.037H47.5V219.525H48.9941V221.037ZM47.5 222.531H44.4941V221.037H47.5V222.531ZM62.4941 207.537V210.525H64.0059V212.037H62.4941V213.531H61V212.037H57.9941V216.537H56.5V213.531H54.9883V212.037H56.5V209.031H57.9941V210.525H61V207.537H62.4941ZM64.0059 213.531V212.037H65.5V213.531H64.0059ZM53.4941 218.031V213.531H54.9883V218.031H53.4941ZM61 216.537H59.5059V213.531H61V216.537ZM65.5 218.031V213.531H67.0117V218.031H65.5ZM59.5059 218.031H57.9941V216.537H59.5059V218.031ZM57.9941 219.543H54.9883V218.031H57.9941V219.543ZM65.5 219.543H64.0059V218.031H65.5V219.543ZM64.0059 221.037H61V219.543H64.0059V221.037ZM75.9941 210.525V209.031H82.0059V210.525H79V215.025H77.5059V210.525H75.9941ZM74.5 210.525H75.9941V212.037H74.5V210.525ZM82.0059 212.037V210.525H83.5V212.037H82.0059ZM72.9883 212.037H74.5V213.531H72.9883V212.037ZM83.5 218.031V212.037H85.0117V218.031H83.5ZM71.4941 218.031V213.531H72.9883V218.031H71.4941ZM77.5059 218.031H75.9941V215.025H77.5059V218.031ZM75.9941 219.543H72.9883V218.031H75.9941V219.543ZM83.5 219.543H82.0059V218.031H83.5V219.543ZM82.0059 221.037H79V219.543H82.0059V221.037ZM93.9941 212.037V209.031H88V207.537H95.5059V204.531H97V207.537H104.506V209.031H95.5059V212.037H102.994V222.531H100.006V221.037H101.5V219.525H93.9941V222.531H92.5V215.025H91.0059V213.531H92.5V212.037H93.9941ZM101.5 213.531H93.9941V215.025H101.5V213.531ZM91.0059 215.025V216.537H88V215.025H91.0059ZM101.5 216.537H93.9941V218.031H101.5V216.537ZM118.006 212.037H119.5V210.525H120.994V212.037H122.506V213.531H118.006V215.025H122.506V216.537H119.5V219.525H118.006V216.537H115V218.031H116.494V219.525H113.506V216.537H111.994V215.025H116.494V213.531H111.994V210.525H113.506V212.037H116.494V204.531H118.006V209.031H119.5V210.525H118.006V212.037ZM110.5 206.025V209.031H111.994V210.525H110.5V222.531H109.006V216.537H107.494V213.531H109.006V210.525H106V209.031H109.006V206.025H110.5ZM113.506 206.025H115V207.537H113.506V206.025ZM120.994 206.025H122.506V207.537H120.994V206.025ZM111.994 207.537H113.506V209.031H111.994V207.537ZM119.5 209.031V207.537H120.994V209.031H119.5ZM115 209.031V210.525H113.506V209.031H115ZM122.506 209.031V210.525H120.994V209.031H122.506ZM107.494 219.525H106V216.537H107.494V219.525ZM120.994 218.031H122.506V219.525H120.994V218.031ZM113.506 222.531H111.994V219.525H113.506V222.531ZM120.994 219.525V221.037H119.5V219.525H120.994ZM119.5 222.531H116.494V221.037H119.5V222.531ZM122.506 221.037V222.531H120.994V221.037H122.506ZM133 204.531V207.537H140.506V209.031H136.006V210.525H134.494V209.031H129.994V210.525H128.5V209.031H124V207.537H131.506V204.531H133ZM128.5 212.037H127.006V210.525H128.5V212.037ZM137.5 210.525V212.037H136.006V210.525H137.5ZM127.006 213.531H125.494V212.037H127.006V213.531ZM138.994 212.037V213.531H137.5V212.037H138.994ZM128.5 215.025V213.531H129.994V215.025H128.5ZM134.494 213.531H136.006V215.025H134.494V213.531ZM129.994 216.537V215.025H131.506V216.537H129.994ZM133 215.025H134.494V216.537H133V215.025ZM131.506 218.031V216.537H133V218.031H131.506ZM131.506 219.525H129.994V218.031H131.506V219.525ZM133 219.525V218.031H134.494V219.525H133ZM129.994 221.037H127.006V219.525H129.994V221.037ZM134.494 221.037V219.525H137.5V221.037H134.494ZM127.006 222.531H124V221.037H127.006V222.531ZM140.506 222.531H137.5V221.037H140.506V222.531ZM158.506 207.537V209.031H156.994V212.037H155.5V209.031H152.494V210.525H151V209.031H146.5V207.537H152.494V204.531H154.006V207.537H158.506ZM142 207.537H143.494V209.031H142V207.537ZM145.006 209.031V210.525H143.494V209.031H145.006ZM149.506 210.525H151V212.037H155.5V213.531H147.994V212.037H149.506V210.525ZM142 212.037H143.494V213.531H142V212.037ZM158.506 212.037V215.025H156.994V212.037H158.506ZM145.006 213.531V215.025H143.494V213.531H145.006ZM151 219.525H149.506V215.025H151V219.525ZM154.006 222.531H152.494V215.025H154.006V222.531ZM158.506 222.531H155.5V215.025H156.994V221.037H158.506V222.531ZM146.5 219.525H145.006V218.031H146.5V219.525ZM145.006 221.037H143.494V219.525H145.006V221.037ZM149.506 222.531H147.994V219.525H149.506V222.531ZM143.494 222.531H142V221.037H143.494V222.531ZM172.006 210.525V212.037H174.994V219.525H169V221.037H174.994V219.525H176.506V222.531H167.506V219.525H161.494V212.037H164.5V210.525H161.494V212.037H160V209.031H167.506V207.537H161.494V206.025H174.994V207.537H169V209.031H176.506V212.037H174.994V210.525H172.006ZM165.994 212.037H167.506V210.525H165.994V212.037ZM170.494 210.525H169V212.037H170.494V210.525ZM163.006 215.025H167.506V213.531H163.006V215.025ZM169 215.025H173.5V213.531H169V215.025ZM163.006 218.031H167.506V216.537H163.006V218.031ZM169 218.031H173.5V216.537H169V218.031ZM181.006 216.537V206.025H182.5V216.537H181.006ZM183.994 206.025H190.006V209.031H188.494V207.537H183.994V206.025ZM192.994 206.025H194.506V207.537H192.994V206.025ZM191.5 209.031V207.537H192.994V209.031H191.5ZM178 209.031H179.494V213.531H178V209.031ZM183.994 210.525V209.031H185.506V210.525H183.994ZM187 209.031H188.494V210.525H187V209.031ZM191.5 209.031V210.525H190.006V209.031H191.5ZM194.506 209.031V210.525H192.994V209.031H194.506ZM187 212.037H191.5V210.525H192.994V212.037H194.506V213.531H185.506V210.525H187V212.037ZM185.506 215.025H183.994V213.531H185.506V215.025ZM187 221.037V219.525H185.506V215.025H194.506V219.525H192.994V221.037H194.506V222.531H183.994V221.037H187ZM181.006 219.525H179.494V216.537H181.006V219.525ZM183.994 216.537V219.525H182.5V216.537H183.994ZM192.994 216.537H187V218.031H192.994V216.537ZM179.494 222.531H178V219.525H179.494V222.531ZM188.494 221.037H191.5V219.525H188.494V221.037ZM201.994 210.525V209.031H208.006V210.525H205V215.025H203.506V210.525H201.994ZM200.5 210.525H201.994V212.037H200.5V210.525ZM208.006 212.037V210.525H209.5V212.037H208.006ZM198.988 212.037H200.5V213.531H198.988V212.037ZM209.5 218.031V212.037H211.012V218.031H209.5ZM197.494 218.031V213.531H198.988V218.031H197.494ZM203.506 218.031H201.994V215.025H203.506V218.031ZM201.994 219.543H198.988V218.031H201.994V219.543ZM209.5 219.543H208.006V218.031H209.5V219.543ZM208.006 221.037H205V219.543H208.006V221.037ZM224.494 204.531V206.025H223V204.531H224.494ZM228.994 207.537V222.531H217.006V207.537H221.506V206.025H223V207.537H228.994ZM227.5 209.031H218.5V212.037H227.5V209.031ZM227.5 213.531H218.5V216.537H227.5V213.531ZM227.5 218.031H218.5V221.037H227.5V218.031ZM246.994 204.531V207.537H248.506V209.031H246.994V218.031H244.006V216.537H245.5V209.031H239.506V210.525H233.494V212.037H239.506V213.531H236.5V218.031H235.006V213.531H232V206.025H239.506V207.537H245.5V204.531H246.994ZM233.494 209.031H237.994V207.537H233.494V209.031ZM241 212.037V210.525H242.494V212.037H241ZM244.006 212.037V213.531H242.494V212.037H244.006ZM232 215.025H233.494V218.031H232V215.025ZM237.994 216.537V215.025H239.506V216.537H237.994ZM241 216.537V218.031H239.506V216.537H241ZM237.994 218.031V221.037H236.5V218.031H237.994ZM235.006 221.037H233.494V219.525H235.006V221.037ZM245.5 221.037V219.525H246.994V221.037H245.5ZM233.494 222.531H232V221.037H233.494V222.531ZM244.006 221.037V222.531H237.994V221.037H244.006ZM248.506 222.531H246.994V221.037H248.506V222.531ZM251.494 210.525V209.014L265.012 209.031V210.525H260.494V212.037H259V210.525H251.494ZM259 213.531H257.506V212.037H259V213.531ZM262.006 213.531V212.037H263.5V213.531H262.006ZM257.506 218.031H255.994V213.531H257.506V218.031ZM260.494 213.531V215.025H259V213.531H260.494ZM265.012 215.025H263.5V213.531H265.012V215.025ZM262.006 215.025V216.537H260.494V215.025H262.006ZM259 218.031V219.543H257.506V218.031H259ZM262.006 219.543V221.037H259V219.543H262.006ZM274.012 210.525V212.037H280.006V213.531H278.494V215.025H277V213.531H273.994V218.031H275.506V219.543H270.988V218.031H272.5V215.025H270.988V213.531H272.5V210.525H269.494V209.031H272.5V207.537H274.012V209.031H281.5V210.525H274.012ZM280.006 215.025V213.531H281.5V215.025H280.006ZM269.494 218.031V215.025H270.988V218.031H269.494ZM277 218.031H275.506V215.025H277V218.031ZM281.5 218.031V215.025H283.012V218.031H281.5ZM281.5 219.543H280.006V218.031H281.5V219.543ZM280.006 221.037H277V219.543H280.006V221.037ZM298.006 209.031H296.494V210.525H295V209.031H290.5V207.537H298.006V209.031ZM295 210.525V212.037H296.494V213.531H291.994V212.037H293.506V210.525H295ZM291.994 215.025H288.988V213.531H291.994V215.025ZM296.494 215.025V213.531H298.006V215.025H296.494ZM298.006 218.031V215.025H299.5V218.031H298.006ZM291.994 216.537H295V218.031H291.994V216.537ZM290.5 219.543V218.031H291.994V219.543H290.5ZM291.994 219.543H295V218.031H298.006V219.543H296.494V221.037H291.994V219.543Z" fill="black"/>
</svg>
