<svg width="343" height="88" viewBox="0 0 343 88" fill="none" xmlns="http://www.w3.org/2000/svg">
<g clip-path="url(#clip0_201_224)">
<path d="M44.3879 20.24H42.4679C42.2439 20.688 41.8919 21.424 41.5399 21.968H45.1879C44.8359 21.296 44.5799 20.688 44.3879 20.24ZM43.3319 18.192H45.7639C46.1799 17.648 46.6599 16.816 46.9479 16.208C47.2359 15.632 47.5559 15.376 48.0999 15.376C48.7719 15.376 49.3479 15.856 49.3479 16.496C49.3479 17.008 48.6439 18.032 48.5159 18.192H51.4599C52.1639 18.192 52.4839 18.608 52.4839 19.216C52.4839 19.824 52.1639 20.24 51.4599 20.24H46.8839C47.0439 20.592 47.4279 21.392 47.7799 21.968H52.1319C52.8679 21.968 53.1879 22.384 53.1879 23.056C53.1879 23.696 52.8679 24.112 52.1319 24.112H49.1559C50.2439 25.552 51.8119 26.768 52.3239 27.152C52.7399 27.472 52.9959 27.728 52.9959 28.144C52.9959 28.88 52.5159 29.456 51.7799 29.456C50.7239 29.456 48.5799 27.248 46.4679 24.112H40.2279C39.7799 24.656 39.3319 25.296 38.9159 25.744H45.4759C47.0439 25.744 47.5559 26.256 47.5559 27.824V29.328C47.5559 30.896 47.0439 31.408 45.4759 31.408H40.0359C39.3959 31.408 39.3959 31.568 39.3959 32.976C39.3959 33.456 39.6519 33.552 40.2599 33.552H43.2039C44.5479 33.552 45.7319 33.552 46.9479 33.456C47.6519 33.424 48.0039 33.04 48.2919 31.984C48.4839 31.184 48.7399 30.736 49.5079 30.736C50.1159 30.736 50.7559 31.12 50.7559 31.888C50.7559 32.432 50.2439 34.384 48.8679 35.216C48.1319 35.696 47.6839 35.76 41.5079 35.76C38.4359 35.76 37.0919 35.76 37.0919 33.776V31.344C37.0919 29.936 37.6359 29.392 39.0759 29.392H44.6119C45.1879 29.392 45.1879 29.296 45.1879 28.368C45.1879 27.856 45.1239 27.792 44.6119 27.792H38.4999C38.1159 27.792 37.6999 27.632 37.6679 27.12C37.0919 27.76 35.2679 29.584 34.4359 29.584C33.8279 29.584 33.3159 29.072 33.3159 28.4C33.3159 27.984 33.5719 27.632 34.0839 27.216C34.8839 26.608 36.3239 25.488 37.4119 24.112H33.9559C33.2199 24.112 32.8999 23.696 32.8999 23.056C32.8999 22.384 33.2199 21.968 33.9559 21.968H38.9159C39.3319 21.392 39.6199 20.816 39.9079 20.24H34.7559C34.0199 20.24 33.7319 19.824 33.7319 19.216C33.7319 18.608 34.0199 18.192 34.7559 18.192H37.2519C36.5799 17.104 36.4199 16.816 36.4199 16.464C36.4199 15.792 37.0279 15.408 37.7319 15.408C38.1799 15.408 38.4039 15.6 38.6279 16.016C39.0119 16.688 39.3639 17.456 39.7159 18.192H40.7079C40.8999 17.776 41.1879 16.976 41.4759 16.08C41.6679 15.376 42.0199 15.024 42.5639 15.024C43.4599 15.024 43.9399 15.504 43.9399 16.112C43.9399 16.784 43.3639 18.096 43.3319 18.192ZM52.8679 14.512H33.4119C32.6119 14.512 32.3559 14.736 32.3559 15.568V35.952C32.3559 36.752 32.6119 37.008 33.4119 37.008H52.8679C53.6679 37.008 53.9239 36.752 53.9239 35.952V15.568C53.9239 14.736 53.6679 14.512 52.8679 14.512ZM29.6999 36.624V14.896C29.6999 12.944 30.5959 12.016 32.5479 12.016H53.7319C55.6839 12.016 56.5799 12.944 56.5799 14.896V36.624C56.5799 38.608 55.6839 39.504 53.7319 39.504H32.5479C30.5959 39.504 29.6999 38.608 29.6999 36.624ZM68.8039 14.384H74.0839C75.6839 14.384 76.6439 15.152 76.6439 16.368C76.6439 17.04 75.7799 21.936 74.3079 25.84C73.2519 28.4 72.1639 30.608 70.2119 33.232C67.6199 36.656 63.5879 39.952 62.3399 39.952C61.6039 39.952 60.8679 39.28 60.8679 38.576C60.8679 37.808 61.2519 37.488 62.2119 36.88C65.6359 34.672 68.0999 31.824 69.8279 28.784C68.4839 27.248 67.3639 26.096 66.3399 25.168C65.6039 24.496 65.4119 24.176 65.4119 23.696C65.4119 22.928 66.1159 22.384 66.7559 22.384C67.3959 22.384 67.7479 22.736 68.0039 22.96C69.2519 24.08 70.3719 25.328 71.1719 26.192C72.8679 22.16 73.7319 17.776 73.7319 17.264C73.7319 16.912 73.5719 16.816 73.2839 16.816H67.9399C66.7879 19.728 65.2199 22.448 63.2679 24.912C62.6599 25.648 62.2119 26.128 61.5079 26.128C60.7399 26.128 60.1639 25.488 60.1639 24.72C60.1639 24.272 60.3879 23.856 61.1559 22.96C63.7159 19.888 65.3479 16.176 66.4359 12.336C66.7559 11.152 67.4599 11.024 67.9079 11.024C68.7079 11.024 69.3159 11.472 69.3159 12.272C69.3159 12.976 69.0279 13.744 68.8039 14.384ZM83.0119 12.304V24.976C84.4839 26.608 86.7559 28.624 88.6439 29.84C90.0519 30.768 90.2119 30.992 90.2119 31.664C90.2119 32.464 89.7319 33.072 88.8999 33.072C88.1959 33.072 87.5879 32.688 86.4999 31.888C85.5079 31.12 84.2599 30.096 83.0119 28.848V39.408C83.0119 40.368 82.4679 40.784 81.6359 40.784C80.8039 40.784 80.2599 40.368 80.2599 39.408V26C79.4279 24.976 76.5479 21.232 76.5479 19.6C76.5479 18.8 77.2519 18.416 77.7959 18.416C78.3399 18.416 78.7239 18.608 79.0439 19.152C79.3639 19.792 79.8119 20.72 80.2599 21.488V12.304C80.2599 11.344 80.8039 10.928 81.6359 10.928C82.4679 10.928 83.0119 11.344 83.0119 12.304ZM101.468 40.72L100.284 40.24L112.54 10.96L113.724 11.44L101.468 40.72ZM144.716 32.784L144.94 33.008C147.5 35.408 150.412 36.848 153.164 37.552C153.356 37.616 153.292 37.872 153.1 37.936C152.396 38.128 152.076 38.384 151.724 39.312C151.596 39.632 151.468 39.696 151.244 39.696C151.084 39.696 150.604 39.536 149.836 39.12C147.564 37.84 145.388 35.984 143.596 34C141.004 36.592 137.676 38.576 133.548 39.952C133.356 40.016 133.164 39.6 133.324 39.504C137.036 37.68 140.108 35.376 142.476 32.592C141.58 31.408 140.908 30.064 140.332 28.72C139.5 26.704 138.956 24.592 138.476 22.48H137.004C136.812 26.16 136.396 28.816 135.724 31.216C134.796 34.352 133.516 37.008 130.892 39.856C130.764 39.984 130.412 39.728 130.508 39.568C132.46 36.592 133.484 33.936 134.156 30.864C134.796 27.76 135.116 24.176 135.116 18.48C135.116 15.6 135.116 14.864 134.924 13.104C135.884 13.488 136.524 13.808 137.42 14.384H148.812C150.092 12.816 150.252 12.72 150.444 12.72C150.636 12.72 150.828 12.784 152.236 13.904C152.908 14.48 153.036 14.672 153.036 14.864C153.036 15.056 152.876 15.184 152.588 15.184H137.1V17.968C137.1 19.312 137.068 20.528 137.036 21.68H147.532C148.332 20.752 148.556 20.592 148.716 20.592C148.876 20.592 149.036 20.656 150.092 21.616C150.508 22 150.604 22.224 150.604 22.384C150.604 22.64 150.38 22.8 149.58 23.152C148.556 26.96 146.956 30.16 144.716 32.784ZM147.596 22.48H139.212C139.66 24.144 140.172 25.776 140.908 27.344C141.58 28.816 142.38 30.16 143.404 31.408C145.356 28.784 146.764 25.808 147.596 22.48ZM129.612 22.448V39.312C129.612 39.952 129.26 40.272 128.428 40.272C127.82 40.272 127.532 40.048 127.532 39.472C127.532 38.864 127.596 36.752 127.724 28.08C127.724 26.224 127.756 24.368 127.756 22.512C126.636 24.08 125.388 25.488 123.948 26.8C123.82 26.928 123.468 26.64 123.596 26.48C126.188 23.28 128.268 19.12 129.42 15.184C129.836 13.776 130.156 12.464 130.284 11.28C132.716 11.952 133.388 12.272 133.388 12.688C133.388 12.976 132.972 13.168 132.172 13.296C131.212 16.24 130.124 18.736 128.78 20.944C130.284 21.2 130.54 21.36 130.54 21.68C130.54 21.936 130.444 22.096 129.612 22.448ZM162.796 24.56V25.488C163.564 25.712 164.332 26 165.1 26.352C165.708 25.584 166.348 24.56 166.86 23.664C167.244 22.992 167.5 22.416 167.628 22C169.228 22.832 169.868 23.312 169.868 23.632C169.868 23.888 169.644 24.016 168.748 23.984C167.692 25.04 166.892 25.808 165.708 26.672C167.148 27.504 167.948 28.464 167.948 29.296C167.948 30 167.564 30.448 167.052 30.448C166.7 30.448 166.412 30.224 166.028 29.552C165.228 28.176 164.268 26.96 162.796 26V32.208C162.796 36.08 162.86 38.768 162.86 39.504C162.86 40.144 162.444 40.464 161.676 40.464C161.004 40.464 160.78 40.208 160.78 39.664C160.78 39.184 160.908 36.496 160.972 30.256C161.004 28.976 161.004 27.664 161.004 26.384C159.532 27.728 157.836 28.88 155.916 29.968C155.756 30.064 155.468 29.712 155.628 29.584C159.756 26.256 162.892 22.352 164.844 18.096H158.828C157.836 18.096 157.228 18.128 156.524 18.32L156.204 17.072C157.004 17.232 157.74 17.296 158.828 17.296H160.94V14.192C160.94 13.168 160.908 12.4 160.748 11.344C163.532 11.664 163.916 11.888 163.916 12.208C163.916 12.464 163.756 12.688 162.796 13.072V17.296H164.748C165.58 16.368 165.708 16.304 165.9 16.304C166.028 16.304 166.22 16.4 167.244 17.392C167.692 17.84 167.756 18.032 167.756 18.224C167.756 18.544 167.436 18.704 166.636 18.864C165.516 21.04 164.268 22.928 162.796 24.56ZM181.42 15.696H175.244C175.18 21.36 174.7 25.744 173.644 29.296C172.172 34.096 169.58 37.456 165.292 40.24C165.132 40.336 164.812 39.952 164.972 39.824C168.62 36.528 170.764 33.104 171.948 28.368C172.78 25.008 173.164 20.912 173.164 15.696H170.828C169.772 15.696 169.1 15.76 168.3 15.92L167.98 14.672C168.94 14.864 169.74 14.896 170.796 14.896H181.132C182.06 13.872 182.188 13.808 182.348 13.808C182.508 13.808 182.7 13.872 183.82 14.864C184.3 15.312 184.332 15.472 184.332 15.632C184.332 15.824 184.204 15.984 183.468 16.464C183.404 23.856 183.212 28.432 182.7 32.208C182.22 35.664 181.676 37.584 180.876 38.64C180.3 39.376 179.148 39.856 178.188 39.856C177.836 39.856 177.74 39.824 177.676 39.408C177.516 38.512 177.036 37.968 174.348 37.232C174.156 37.168 174.188 36.752 174.38 36.784C176.78 37.104 177.772 37.2 178.636 37.2C179.564 37.2 180.076 36.048 180.524 33.104C181.004 30.032 181.42 23.856 181.42 15.696ZM205.516 20.016C207.564 20.112 209.548 20.528 211.468 21.968C213.452 23.44 214.38 25.36 214.38 27.568C214.38 33.84 207.404 36.784 201.836 37.584C201.516 37.616 201.196 37.52 201.196 37.2C201.196 36.944 201.292 36.784 201.676 36.688C206.156 35.568 212.3 32.848 212.3 27.472C212.3 25.104 211.468 23.824 210.284 22.896C208.716 21.648 207.052 21.04 204.876 21.04C203.276 23.952 201.644 26.704 199.628 29.392C199.82 29.648 200.364 30.16 200.652 30.384C201.132 30.768 201.516 31.12 201.516 31.472C201.516 32.112 201.26 32.4 200.684 32.4C200.396 32.4 200.012 32.272 199.756 32.048C199.276 31.632 198.956 31.344 198.54 30.864C197.9 31.664 197.164 32.528 196.46 33.232C195.5 34.16 194.54 34.512 193.644 34.512C192.012 34.512 190.988 33.2 190.988 30.96C190.988 28.624 192.652 25.52 195.308 23.472C195.244 23.056 195.18 22.672 195.116 22.256C194.924 21.04 194.764 20.24 194.412 19.536C194.092 18.896 193.42 18.256 192.46 17.776C192.3 17.68 192.14 17.552 192.14 17.36C192.14 17.232 192.332 17.008 192.524 17.008C192.62 17.008 192.716 17.008 192.844 17.04C194.06 17.392 195.116 17.936 195.628 18.544C196.14 19.184 196.332 19.92 196.46 21.072C196.524 21.552 196.556 22.064 196.62 22.576C198.764 21.2 201.164 20.368 203.724 20.08C203.948 19.568 204.14 19.088 204.364 18.544C204.652 17.808 204.78 17.168 204.78 16.784C204.78 15.952 203.948 15.536 202.988 15.504C202.796 15.504 202.572 15.44 202.572 15.28C202.572 15.12 202.668 14.992 202.892 14.8C203.148 14.64 203.404 14.512 203.692 14.512C204.46 14.512 205.452 14.864 206.092 15.216C206.668 15.568 207.244 15.92 207.244 16.624C207.244 17.008 207.052 17.232 206.956 17.392C206.764 17.68 206.604 17.936 206.348 18.416C206.028 19.024 205.836 19.408 205.516 20.016ZM196.812 23.728C197.164 25.424 197.708 26.8 198.732 28.368C200.524 26.064 201.9 23.696 203.276 21.136C201.132 21.456 198.86 22.288 196.812 23.728ZM195.628 24.624C193.58 26.416 192.492 28.976 192.492 30.352C192.492 31.728 192.972 32.592 193.9 32.592C194.476 32.592 195.212 32.304 195.756 31.856C196.492 31.28 197.164 30.512 197.772 29.744C196.812 28.24 196.108 26.576 195.628 24.624ZM234.38 17.776C234.828 18.48 235.02 19.344 235.02 20.144C235.02 21.072 234.732 22.256 234.412 23.28C233.452 26.032 231.628 29.456 229.804 31.76C228.78 33.008 227.692 33.904 226.636 33.904C225.644 33.904 224.716 33.2 224.076 32.24C223.372 31.12 222.956 29.712 222.956 28.016C222.956 24.88 224.3 22.096 226.444 20.08C228.524 18.128 231.628 16.624 235.724 16.624C242.156 16.624 246.668 20.816 246.668 26.608C246.668 33.328 239.66 36.688 233.1 37.04C232.748 37.072 232.556 36.88 232.556 36.688C232.556 36.432 232.652 36.272 233.1 36.176C238.444 35.248 244.556 32.304 244.556 26.064C244.556 21.2 241.004 18.032 236.108 17.776C235.596 17.744 234.924 17.744 234.38 17.776ZM233.388 17.904C230.316 18.416 228.428 19.664 226.988 21.136C225.324 22.832 224.396 25.04 224.396 27.472C224.396 28.848 224.684 29.776 225.164 30.704C225.516 31.344 226.124 31.792 226.668 31.792C227.244 31.792 227.916 31.248 228.908 29.936C230.796 27.44 232.364 24.464 233.324 21.552C233.676 20.528 233.772 19.92 233.772 19.248C233.772 18.608 233.612 18.128 233.388 17.904ZM258.508 24.336V24.88C258.508 25.552 258.156 25.744 257.324 25.744C256.684 25.744 256.492 25.584 256.492 25.04C256.492 24.336 256.588 22.832 256.588 17.904C256.588 14.832 256.588 13.648 256.46 12.112C257.388 12.496 257.964 12.816 258.796 13.328H274.636C275.532 12.368 275.66 12.272 275.82 12.272C275.98 12.272 276.204 12.368 277.1 13.104C277.58 13.488 277.644 13.648 277.644 13.808C277.644 14.064 277.58 14.224 276.812 14.736V17.68C276.812 22.384 276.94 24.24 276.94 24.784C276.94 25.488 276.588 25.744 275.724 25.744C275.116 25.744 274.86 25.552 274.86 24.976V24.336H268.748C270.508 26.48 272.268 27.792 274.252 28.72C276.012 29.584 278.572 30.32 281.612 30.672C281.804 30.704 281.772 31.024 281.58 31.056C280.844 31.184 280.492 31.44 280.14 32.336C280.012 32.72 279.916 32.816 279.692 32.816C279.372 32.816 278.988 32.72 278.508 32.56C276.972 32.08 275.148 31.184 273.58 30.16C273.228 29.936 272.908 29.712 272.556 29.456C272.588 29.52 272.588 29.552 272.588 29.616C272.588 29.808 272.46 30 271.628 30.32V33.072C271.628 37.232 271.756 39.056 271.756 39.536C271.756 40.176 271.436 40.496 270.508 40.496C269.804 40.496 269.612 40.24 269.612 39.664C269.612 39.248 269.708 37.68 269.708 33.84C269.708 30.96 269.708 30.128 269.548 28.784C271.18 29.008 271.948 29.136 272.3 29.264C270.572 27.92 269.132 26.192 267.948 24.336H265.452C265.1 24.912 264.716 25.456 264.3 26C263.468 27.056 262.476 27.984 261.42 28.816C263.916 29.072 264.332 29.232 264.332 29.616C264.332 29.84 264.204 30 263.372 30.352C263.34 30.672 263.34 30.96 263.308 31.28C263.052 33.968 262.284 35.824 260.94 37.296C259.5 38.896 257.228 40.016 254.156 40.688C253.964 40.72 253.804 40.336 253.996 40.272C256.876 39.12 258.828 37.616 259.98 35.728C260.876 34.224 261.324 32.4 261.324 30.416C261.324 29.904 261.292 29.488 261.196 28.976C258.86 30.736 255.884 32.144 252.428 32.944C252.236 32.976 252.076 32.496 252.268 32.432C257.1 30.832 261.164 27.728 263.18 24.336H258.508ZM258.508 23.536H265.612V19.152H258.508V23.536ZM274.86 23.536V19.152H267.5V23.536H274.86ZM258.508 18.352H265.612V14.128H258.508V18.352ZM267.5 14.128V18.352H274.86V14.128H267.5ZM297.708 23.856V24.336C297.708 24.912 297.356 25.136 296.588 25.136C296.012 25.136 295.788 25.008 295.788 24.496C295.788 23.984 295.916 22.416 295.916 17.968C295.916 14.832 295.916 13.968 295.756 12.176C296.588 12.56 297.164 12.816 297.932 13.264H308.716C309.484 12.4 309.612 12.304 309.804 12.304C309.964 12.304 310.124 12.4 310.956 13.104C311.436 13.488 311.532 13.68 311.532 13.84C311.532 14.032 311.404 14.192 310.7 14.64V17.456C310.7 21.936 310.828 23.632 310.828 24.144C310.828 24.784 310.444 24.976 309.644 24.976C309.1 24.976 308.908 24.816 308.908 24.304V23.856H297.708ZM297.708 18.096H302.348V14.064H297.708V18.096ZM297.708 18.896V23.056H302.348V18.896H297.708ZM308.908 23.056V18.896H304.108V23.056H308.908ZM308.908 18.096V14.064H304.108V18.096H308.908ZM296.428 37.2V28.016H296.076C295.404 28.016 294.892 28.08 294.124 28.208L293.868 27.024C294.668 27.152 295.244 27.216 296.044 27.216H309.74C310.892 25.808 311.084 25.68 311.244 25.68C311.404 25.68 311.628 25.808 312.972 26.864C313.548 27.312 313.612 27.504 313.612 27.696C313.612 27.92 313.516 28.016 313.196 28.016H302.476C303.084 29.808 303.916 31.536 305.132 33.008C306.22 32.112 307.116 31.248 307.852 30.352C308.3 29.776 308.684 29.232 308.94 28.72C310.86 30.032 311.148 30.352 311.148 30.704C311.148 30.992 310.732 31.088 309.836 30.96C308.524 31.92 307.244 32.688 305.548 33.488C305.964 33.904 306.38 34.32 306.86 34.704C308.524 36.144 310.892 37.232 313.676 37.936C313.836 37.968 313.74 38.224 313.58 38.256C312.908 38.416 312.62 38.64 312.332 39.6C312.236 39.92 312.044 40.016 311.852 40.016C311.66 40.016 311.308 39.888 310.7 39.6C308.748 38.704 306.956 37.36 305.452 35.728C303.948 34.064 302.604 31.632 301.676 28.016H298.284V36.88C300.076 36.528 301.836 36.08 303.98 35.472C304.172 35.408 304.3 35.856 304.108 35.92C300.62 37.584 298.444 38.32 294.7 39.344C294.508 40.208 294.348 40.432 294.06 40.432C293.836 40.432 293.644 40.336 292.876 37.52C293.484 37.52 293.964 37.52 294.668 37.424C295.276 37.36 295.852 37.264 296.428 37.2ZM287.82 13.968V30.288C287.82 36.208 287.884 38.608 287.884 39.44C287.884 40.08 287.532 40.368 286.7 40.368C286.06 40.368 285.868 40.144 285.868 39.632C285.868 38.288 285.964 29.52 285.964 23.568C285.964 15.184 285.964 13.584 285.804 12.048C286.7 12.432 287.276 12.688 288.14 13.168H292.044C292.812 12.304 292.94 12.208 293.1 12.208C293.26 12.208 293.452 12.304 294.284 13.2C294.7 13.648 294.764 13.84 294.764 14C294.764 14.192 294.604 14.32 293.932 14.512C292.748 17.392 291.532 19.728 290.092 22C292.46 24.208 293.612 26.576 293.612 29.136C293.612 30.608 293.324 31.632 292.844 32.24C292.3 32.912 291.628 33.296 290.764 33.296C290.476 33.296 290.412 33.264 290.348 32.88C290.22 32.144 289.932 31.792 288.396 31.408C288.204 31.376 288.236 31.056 288.428 31.056C289.58 31.152 290.092 31.152 290.604 31.152C290.924 31.152 291.148 31.024 291.404 30.768C291.692 30.448 291.852 29.52 291.852 28.496C291.852 26.224 291.148 24.08 289.356 22.096C290.54 19.376 291.34 17.04 292.012 13.968H287.82Z" fill="#222222"/>
<path d="M49.0059 63.5254V65.0371H51.9941V72.5254H46V74.0371H51.9941V72.5254H53.5059V75.5312H44.5059V72.5254H38.4941V65.0371H41.5V63.5254H38.4941V65.0371H37V62.0312H44.5059V60.5371H38.4941V59.0254H51.9941V60.5371H46V62.0312H53.5059V65.0371H51.9941V63.5254H49.0059ZM42.9941 65.0371H44.5059V63.5254H42.9941V65.0371ZM47.4941 63.5254H46V65.0371H47.4941V63.5254ZM40.0059 68.0254H44.5059V66.5312H40.0059V68.0254ZM46 68.0254H50.5V66.5312H46V68.0254ZM40.0059 71.0312H44.5059V69.5371H40.0059V71.0312ZM46 71.0312H50.5V69.5371H46V71.0312ZM58.0059 59.0254H68.5V62.0312H67.0059V60.5371H58.0059V59.0254ZM65.4941 62.0312H67.0059V63.5254H65.4941V62.0312ZM64 63.5254H65.4941V65.0371H64V63.5254ZM64 65.0371V66.5312H71.5059V68.0254H64V75.5312H59.5V74.0371H62.5059V68.0254H55V66.5312H62.5059V65.0371H64ZM77.5 60.5371H86.5V62.0312H77.5V60.5371ZM75.9883 66.5312V65.0371H88.0117V69.5371H86.5V66.5312H75.9883ZM86.5 71.0312H85.0059V69.5371H86.5V71.0312ZM85.0059 72.543H82V71.0312H85.0059V72.543ZM82 74.0371H78.9941V72.543H82V74.0371ZM103.006 63.5254V60.5371H104.5V63.5254H103.006ZM103.006 65.0371H101.494V63.5254H103.006V65.0371ZM96.9941 66.5312H100V65.0371H101.494V74.0371H100V68.0254H96.9941V66.5312ZM96.9941 69.5371H93.9883V68.0254H96.9941V69.5371ZM125.506 60.5371V62.0312H118V63.5254H122.5V65.0371H118V66.5312H125.506V68.0254H114.994V69.5371H122.5V72.5254H121.006V71.0312H114.994V72.5254H113.5V71.0312H112.006V69.5371H113.5V68.0254H109V66.5312H116.506V65.0371H112.006V63.5254H116.506V62.0312H109V60.5371H116.506V57.5312H118V60.5371H125.506ZM112.006 72.5254H109V71.0312H112.006V72.5254ZM121.006 74.0371H114.994V72.5254H121.006V74.0371ZM114.994 75.5312H110.494V74.0371H114.994V75.5312ZM125.506 74.0371V75.5312H121.006V74.0371H125.506ZM132.994 65.0371H131.5V69.5371H130.006V59.0254H131.5V63.5254H132.994V65.0371ZM134.506 72.5254H132.994V71.0312H134.506V63.5254H132.994V62.0312H134.506V59.0254H143.506V75.5312H134.506V72.5254ZM137.494 60.5371H136V66.5312H137.494V60.5371ZM141.994 60.5371H139.006V66.5312H141.994V60.5371ZM128.494 62.0312V66.5312H127V62.0312H128.494ZM137.494 68.0254H136V74.0371H137.494V68.0254ZM141.994 68.0254H139.006V74.0371H141.994V68.0254ZM128.494 72.5254V69.5371H130.006V72.5254H128.494ZM131.5 69.5371H132.994V71.0312H131.5V69.5371ZM127 75.5312V72.5254H128.494V75.5312H127ZM150.994 63.5254V62.0312H157.006V63.5254H154V68.0254H152.506V63.5254H150.994ZM149.5 63.5254H150.994V65.0371H149.5V63.5254ZM157.006 65.0371V63.5254H158.5V65.0371H157.006ZM147.988 65.0371H149.5V66.5312H147.988V65.0371ZM158.5 71.0312V65.0371H160.012V71.0312H158.5ZM146.494 71.0312V66.5312H147.988V71.0312H146.494ZM152.506 71.0312H150.994V68.0254H152.506V71.0312ZM150.994 72.543H147.988V71.0312H150.994V72.543ZM158.5 72.543H157.006V71.0312H158.5V72.543ZM157.006 74.0371H154V72.543H157.006V74.0371ZM179.506 59.0254V62.0312H177.994V60.5371H176.5V65.0371H175.006V60.5371H173.494V63.5254H172V60.5371H168.994V63.5254H167.5V59.0254H179.506ZM163 62.0312V60.5371H164.494V62.0312H163ZM166.006 63.5254H164.494V62.0312H166.006V63.5254ZM172 65.0371H170.506V63.5254H172V65.0371ZM163 66.5312V65.0371H164.494V66.5312H163ZM170.506 66.5312H167.5V65.0371H170.506V66.5312ZM179.506 65.0371V66.5312H176.5V65.0371H179.506ZM166.006 68.0254H164.494V66.5312H166.006V68.0254ZM173.494 66.5312H175.006V68.0254H179.506V69.5371H175.006V75.5312H173.494V71.0312H172V69.5371H167.5V68.0254H173.494V66.5312ZM166.006 72.5254H164.494V69.5371H166.006V72.5254ZM172 72.5254H170.506V71.0312H172V72.5254ZM176.5 72.5254V71.0312H177.994V72.5254H176.5ZM164.494 75.5312H163V72.5254H164.494V75.5312ZM170.506 74.0371H167.5V72.5254H170.506V74.0371ZM179.506 74.0371H177.994V72.5254H179.506V74.0371ZM182.494 71.0312V59.0254H197.506V69.5371H195.994V75.5312H186.994V69.5371H185.5V63.5254H184.006V71.0312H182.494ZM184.006 62.0312H195.994V60.5371H184.006V62.0312ZM186.994 63.5254V65.0371H191.494V63.5254H186.994ZM193.006 65.0371H195.994V63.5254H193.006V65.0371ZM191.494 68.0254V66.5312H186.994V68.0254H191.494ZM193.006 68.0254H195.994V66.5312H193.006V68.0254ZM188.506 71.0312H194.5V69.5371H188.506V71.0312ZM182.494 74.0371H181V71.0312H182.494V74.0371ZM188.506 74.0371H194.5V72.5254H188.506V74.0371ZM211.006 66.5312V62.0312H212.5V66.5312H211.006ZM211.006 69.5371H209.494V66.5312H211.006V69.5371ZM209.494 71.0312H208V69.5371H209.494V71.0312ZM208 72.543H204.994V71.0312H208V72.543ZM204.994 74.0371H201.988V72.543H204.994V74.0371ZM229.006 63.5254V60.5371H230.5V63.5254H229.006ZM229.006 65.0371H227.494V63.5254H229.006V65.0371ZM222.994 66.5312H226V65.0371H227.494V74.0371H226V68.0254H222.994V66.5312ZM222.994 69.5371H219.988V68.0254H222.994V69.5371ZM242.506 60.5371V59.043H244V60.5371H242.506ZM247.006 60.5371V59.043H248.5V60.5371H247.006ZM245.494 62.0312H247.006V66.5312H245.494V63.5254H237.988V62.0312H244V60.5371H245.494V62.0312ZM248.5 62.0312V60.5371H250.012V62.0312H248.5ZM244 69.5371V66.5312H245.494V69.5371H244ZM244 71.0312H242.506V69.5371H244V71.0312ZM245.494 71.0312V69.5371H247.006V71.0312H245.494ZM242.506 72.543H239.5V71.0312H242.506V72.543ZM248.5 74.0371H247.006V71.0312H248.5V74.0371ZM239.5 74.0371H236.494V72.543H239.5V74.0371ZM269.506 60.5371V63.5254H267.994V62.0312H262V63.5254H266.5V65.0371H262V66.5312H266.5V68.0254H262V69.5371H269.506V71.0312H263.494V72.5254H262V71.0312H260.506V72.5254H258.994V71.0312H253V69.5371H260.506V68.0254H256.006V66.5312H260.506V65.0371H256.006V63.5254H260.506V62.0312H254.494V63.5254H253V60.5371H260.506V57.5312H262V60.5371H269.506ZM258.994 74.0371H256.006V72.5254H258.994V74.0371ZM266.5 72.5254V74.0371H263.494V72.5254H266.5ZM256.006 75.5312H253V74.0371H256.006V75.5312ZM269.506 74.0371V75.5312H266.5V74.0371H269.506ZM287.506 60.5371V63.5254H283.006V65.0371H287.506V71.0312H283.006V72.5254H281.494V71.0312H278.506V65.0371H281.494V63.5254H275.5V65.0371H276.994V66.5312H275.5V68.0254H276.994V74.0371H275.5V69.5371H271V59.0254H276.994V60.5371H275.5V62.0312H278.506V60.5371H280V62.0312H285.994V60.5371H287.506ZM280 59.0254H285.994V60.5371H280V59.0254ZM272.494 62.0312H274.006V60.5371H272.494V62.0312ZM272.494 65.0371H274.006V63.5254H272.494V65.0371ZM272.494 68.0254H274.006V66.5312H272.494V68.0254ZM280 69.5371H281.494V66.5312H280V69.5371ZM285.994 69.5371V66.5312H283.006V69.5371H285.994ZM271 71.0312H274.006V72.5254H271V71.0312ZM281.494 74.0371H280V72.5254H281.494V74.0371ZM284.5 72.5254V74.0371H283.006V72.5254H284.5ZM275.5 75.5312H272.494V74.0371H275.5V75.5312ZM280 75.5312H276.994V74.0371H280V75.5312ZM287.506 74.0371V75.5312H284.5V74.0371H287.506ZM290.494 62.0312V65.0371H289V60.5371H296.506V57.5312H298V60.5371H305.506V65.0371H303.994V62.0312H290.494ZM302.5 65.0371H301.006V66.5312H299.494V65.0371H296.506V66.5312H294.994V65.0371H292.006V63.5254H302.5V65.0371ZM305.506 75.5312H289V74.0371H296.506V72.5254H292.006V71.0312H296.506V69.5371H290.494V68.0254H293.5V66.5312H294.994V68.0254H301.006V66.5312H302.5V68.0254H303.994V69.5371H298V71.0312H302.5V72.5254H298V74.0371H305.506V75.5312Z" fill="black"/>
</g>
<defs>
<clipPath id="clip0_201_224">
<rect width="343" height="88" fill="white"/>
</clipPath>
</defs>
</svg>
