<svg width="407" height="128" viewBox="0 0 407 128" fill="none" xmlns="http://www.w3.org/2000/svg">
<path d="M9.35831 115.22V112.119H10.9087V115.22H9.35831ZM9.35831 116.789H7.78924V115.22H9.35831V116.789ZM3.11943 118.34H6.23887V116.789H7.78924V126.129H6.23887V119.89H3.11943V118.34ZM3.11943 121.459H0V119.89H3.11943V121.459ZM18.6792 113.67H21.7987V115.22H18.6792V113.67ZM24.9181 115.22V116.789H21.7987V115.22H24.9181ZM29.5879 118.34V115.22H31.157V118.34H29.5879ZM29.5879 121.459H28.0375V118.34H29.5879V121.459ZM28.0375 123.009H26.4685V121.459H28.0375V123.009ZM26.4685 124.578H23.3677V123.009H26.4685V124.578ZM23.3677 126.129H20.2483V124.578H23.3677V126.129ZM42.047 112.119V113.67H48.2672V119.89H46.7168V115.22H42.047V116.789H40.4779V112.119H42.047ZM40.4779 118.34H38.9276V116.789H40.4779V118.34ZM42.047 118.34V116.789H43.5974V118.34H42.047ZM38.9276 119.89H37.3585V118.34H38.9276V119.89ZM43.5974 119.89V118.34H45.1477V119.89H43.5974ZM46.7168 123.009H45.1477V119.89H46.7168V123.009ZM45.1477 124.578H42.047V123.009H45.1477V124.578ZM42.047 126.129H37.3585V124.578H42.047V126.129ZM56.0377 118.34V116.789H57.6068V118.34H56.0377ZM57.6068 119.89V118.34H68.5155V119.89H57.6068ZM85.6257 116.789H84.0753V118.34H82.5062V116.789H74.717V115.22H79.4055V112.119H80.9559V115.22H85.6257V116.789ZM80.9559 119.89V118.34H82.5062V119.89H80.9559ZM79.4055 121.459H77.8364V119.89H80.9559V126.129H79.4055V121.459ZM82.5062 121.459V119.89H84.0753V121.459H82.5062ZM77.8364 123.009H73.1666V121.459H77.8364V123.009ZM84.0753 123.009V121.459H85.6257V123.009H84.0753ZM85.6257 124.578V123.009H87.1947V124.578H85.6257ZM94.9653 116.789H96.5157V121.459H94.9653V116.789ZM98.0847 116.789H99.6351V121.459H98.0847V116.789ZM102.755 123.009V116.789H104.305V123.009H102.755ZM102.755 124.578H101.185V123.009H102.755V124.578ZM101.185 126.129H96.5157V124.578H101.185V126.129ZM115.195 112.119V116.789H116.764V118.34H115.195V126.129H113.645V112.119H115.195ZM116.764 119.89V118.34H119.865V119.89H116.764ZM119.865 121.459V119.89H122.984V121.459H119.865ZM133.874 115.22V113.67H140.113V115.22H136.994V119.89H135.443V115.22H133.874ZM132.324 115.22H133.874V116.789H132.324V115.22ZM140.113 116.789V115.22H141.663V116.789H140.113ZM130.755 116.789H132.324V118.34H130.755V116.789ZM141.663 123.009V116.789H143.232V123.009H141.663ZM129.204 123.009V118.34H130.755V123.009H129.204ZM135.443 123.009H133.874V119.89H135.443V123.009ZM133.874 124.578H130.755V123.009H133.874V124.578ZM141.663 124.578H140.113V123.009H141.663V124.578ZM140.113 126.129H136.994V124.578H140.113V126.129ZM163.462 110.55V113.67H161.893V112.119H160.343V116.789H158.792V112.119H157.223V115.22H155.673V112.119H152.553V115.22H151.003V110.55H163.462ZM146.333 113.67V112.119H147.884V113.67H146.333ZM149.453 115.22H147.884V113.67H149.453V115.22ZM155.673 116.789H154.122V115.22H155.673V116.789ZM146.333 118.34V116.789H147.884V118.34H146.333ZM154.122 118.34H151.003V116.789H154.122V118.34ZM163.462 116.789V118.34H160.343V116.789H163.462ZM149.453 119.89H147.884V118.34H149.453V119.89ZM157.223 118.34H158.792V119.89H163.462V121.459H158.792V127.679H157.223V123.009H155.673V121.459H151.003V119.89H157.223V118.34ZM149.453 124.56H147.884V121.459H149.453V124.56ZM155.673 124.56H154.122V123.009H155.673V124.56ZM160.343 124.56V123.009H161.893V124.56H160.343ZM147.884 127.679H146.333V124.56H147.884V127.679ZM154.122 126.129H151.003V124.56H154.122V126.129ZM163.462 126.129H161.893V124.56H163.462V126.129ZM166.563 123.009V110.55H182.141V121.459H180.572V127.679H171.233V121.459H169.682V115.22H168.132V123.009H166.563ZM168.132 113.67H180.572V112.119H168.132V113.67ZM171.233 115.22V116.789H175.902V115.22H171.233ZM177.472 116.789H180.572V115.22H177.472V116.789ZM175.902 119.89V118.34H171.233V119.89H175.902ZM177.472 119.89H180.572V118.34H177.472V119.89ZM172.802 123.009H179.022V121.459H172.802V123.009ZM166.563 126.129H165.012V123.009H166.563V126.129ZM172.802 126.129H179.022V124.56H172.802V126.129ZM185.242 115.22V113.652L199.27 113.67V115.22H194.582V116.789H193.031V115.22H185.242ZM193.031 118.34H191.481V116.789H193.031V118.34ZM196.151 118.34V116.789H197.701V118.34H196.151ZM191.481 123.009H189.912V118.34H191.481V123.009ZM194.582 118.34V119.89H193.031V118.34H194.582ZM199.27 119.89H197.701V118.34H199.27V119.89ZM196.151 119.89V121.459H194.582V119.89H196.151ZM193.031 123.009V124.578H191.481V123.009H193.031ZM196.151 124.578V126.129H193.031V124.578H196.151ZM205.472 124.578V123.009H207.041V124.578H205.472ZM207.041 126.129V124.578H208.591V126.129H207.041ZM233.509 118.34V113.67H235.06V118.34H233.509ZM233.509 121.459H231.94V118.34H233.509V121.459ZM231.94 123.009H230.39V121.459H231.94V123.009ZM230.39 124.578H227.27V123.009H230.39V124.578ZM227.27 126.129H224.151V124.578H227.27V126.129ZM252.189 115.22V112.119H253.739V115.22H252.189ZM252.189 116.789H250.619V115.22H252.189V116.789ZM245.95 118.34H249.069V116.789H250.619V126.129H249.069V119.89H245.95V118.34ZM245.95 121.459H242.83V119.89H245.95V121.459ZM266.198 112.119V110.569H267.748V112.119H266.198ZM270.868 112.119V110.569H272.418V112.119H270.868ZM269.299 113.67H270.868V118.34H269.299V115.22H261.509V113.67H267.748V112.119H269.299V113.67ZM272.418 113.67V112.119H273.987V113.67H272.418ZM267.748 121.459V118.34H269.299V121.459H267.748ZM267.748 123.009H266.198V121.459H267.748V123.009ZM269.299 123.009V121.459H270.868V123.009H269.299ZM266.198 124.578H263.079V123.009H266.198V124.578ZM272.418 126.129H270.868V123.009H272.418V126.129ZM263.079 126.129H259.959V124.578H263.079V126.129ZM284.877 115.22V116.789H286.428V118.34H283.308V115.22H280.189V113.67H284.877V112.119H286.428V113.67H291.097V115.22H284.877ZM289.547 116.789H292.666V118.34H289.547V116.789ZM283.308 119.89H281.758V118.34H283.308V119.89ZM289.547 118.34V123.009H287.978V119.89H286.428V118.34H289.547ZM281.758 121.459H280.189V119.89H281.758V121.459ZM286.428 121.459H284.877V119.89H286.428V121.459ZM284.877 124.578H283.308V121.459H284.877V124.578ZM291.097 124.578V126.129H284.877V124.578H291.097ZM312.896 112.119V113.67H308.226V115.22H306.657V113.67H303.556V115.22H301.987V113.67H295.767V112.119H303.556V109H305.107V112.119H312.896ZM301.987 115.22V116.789H308.226V115.22H309.777V116.789H311.327V118.34H309.777V127.679H306.657V126.129H308.226V124.56H300.437V127.679H298.887V118.34H295.767V116.789H300.437V115.22H301.987ZM300.437 119.89H308.226V118.34H300.437V119.89ZM312.896 118.34V119.89H311.327V118.34H312.896ZM300.437 123.009H308.226V121.459H300.437V123.009ZM330.025 113.67V115.22H325.336V116.789H323.786V115.22H315.997V113.652L330.025 113.67ZM322.236 118.34V116.789H323.786V118.34H322.236ZM322.236 123.009H320.667V118.34H322.236V123.009ZM322.236 123.009H323.786V124.578H322.236V123.009ZM323.786 124.578H326.906V126.129H323.786V124.578ZM345.585 113.67H344.016V115.22H342.465V113.67H337.796V112.119H345.585V113.67ZM342.465 115.22V116.789H344.016V118.34H339.346V116.789H340.915V115.22H342.465ZM339.346 119.89H336.226V118.34H339.346V119.89ZM344.016 119.89V118.34H345.585V119.89H344.016ZM345.585 123.009V119.89H347.135V123.009H345.585ZM339.346 121.459H342.465V123.009H339.346V121.459ZM337.796 124.578V123.009H339.346V124.578H337.796ZM339.346 124.578H342.465V123.009H345.585V124.578H344.016V126.129H339.346V124.578ZM368.934 112.119V115.22H367.365V113.67H361.145V115.22H365.814V116.789H361.145V118.34H365.814V119.89H361.145V121.459H368.934V123.009H362.695V124.56H361.145V123.009H359.594V124.56H358.025V123.009H351.805V121.459H359.594V119.89H354.924V118.34H359.594V116.789H354.924V115.22H359.594V113.67H353.355V115.22H351.805V112.119H359.594V109H361.145V112.119H368.934ZM358.025 126.129H354.924V124.56H358.025V126.129ZM365.814 124.56V126.129H362.695V124.56H365.814ZM354.924 127.679H351.805V126.129H354.924V127.679ZM368.934 126.129V127.679H365.814V126.129H368.934ZM387.613 112.119V115.22H382.943V116.789H387.613V123.009H382.943V124.56H381.374V123.009H378.273V116.789H381.374V115.22H375.154V116.789H376.704V118.34H375.154V119.89H376.704V126.129H375.154V121.459H370.484V110.55H376.704V112.119H375.154V113.67H378.273V112.119H379.824V113.67H386.044V112.119H387.613ZM379.824 110.55H386.044V112.119H379.824V110.55ZM372.035 113.67H373.604V112.119H372.035V113.67ZM372.035 116.789H373.604V115.22H372.035V116.789ZM372.035 119.89H373.604V118.34H372.035V119.89ZM379.824 121.459H381.374V118.34H379.824V121.459ZM386.044 121.459V118.34H382.943V121.459H386.044ZM370.484 123.009H373.604V124.56H370.484V123.009ZM381.374 126.129H379.824V124.56H381.374V126.129ZM384.494 124.56V126.129H382.943V124.56H384.494ZM375.154 127.679H372.035V126.129H375.154V127.679ZM379.824 127.679H376.704V126.129H379.824V127.679ZM387.613 126.129V127.679H384.494V126.129H387.613ZM393.833 116.789H392.283V124.56H395.384V126.129H389.163V124.56H390.714V116.789H389.163V115.22H390.714V110.55H392.283V115.22H393.833V116.789ZM406.292 116.789V118.34H398.503V119.89H406.292V126.129H404.723V121.459H403.173V123.009H401.623V121.459H398.503V123.009H396.953V121.459H393.833V119.89H396.953V118.34H395.384V110.55H404.723V116.789H406.292ZM403.173 112.119H396.953V113.67H403.173V112.119ZM396.953 115.22V116.789H403.173V115.22H396.953ZM396.953 124.56H395.384V123.009H396.953V124.56ZM401.623 124.56H400.053V123.009H401.623V124.56ZM400.053 126.129H398.503V124.56H400.053V126.129ZM398.503 127.679H396.953V126.129H398.503V127.679ZM404.723 127.679H401.623V126.129H404.723V127.679Z" fill="black"/>
<path d="M73 38.4199V27.9199H55.4863V24.3926H69.5137V17.4199H55.4863V13.8926H69.5137V6.91992H73V13.8926H83.5V17.4199H73V24.3926H87.0273V27.9199H76.4863V38.4199H73ZM122.014 20.9062V10.4062H125.5V20.9062H122.014ZM122.014 27.9199H118.486V20.9062H122.014V27.9199ZM118.486 31.4062H115V27.9199H118.486V31.4062ZM115 34.9336H107.986V31.4062H115V34.9336ZM107.986 38.4199H100.973V34.9336H107.986V38.4199ZM167.5 38.4199H142.973V34.8926H164.014V13.8926H142.973V10.4062H167.5V38.4199ZM195.514 6.91992V10.4062H209.5V24.3926H206.014V13.8926H195.514V17.4199H191.986V6.91992H195.514ZM191.986 20.9062H188.5V17.4199H191.986V20.9062ZM195.514 20.9062V17.4199H199V20.9062H195.514ZM188.5 24.3926H184.973V20.9062H188.5V24.3926ZM199 24.3926V20.9062H202.486V24.3926H199ZM206.014 31.4062H202.486V24.3926H206.014V31.4062ZM202.486 34.9336H195.514V31.4062H202.486V34.9336ZM195.514 38.4199H184.973V34.9336H195.514V38.4199ZM233.986 6.91992V13.8926H255.027V17.4199H244.486V31.4062H241V17.4199H230.5V6.91992H233.986ZM230.5 24.3926H226.973V17.4199H230.5V24.3926ZM241 34.9336H237.514V31.4062H241V34.9336ZM237.514 38.4199H230.5V34.9336H237.514V38.4199ZM290.014 20.9062V10.4062H293.5V20.9062H290.014ZM290.014 27.9199H286.486V20.9062H290.014V27.9199ZM286.486 31.4062H283V27.9199H286.486V31.4062ZM283 34.9336H275.986V31.4062H283V34.9336ZM275.986 38.4199H268.973V34.9336H275.986V38.4199ZM335.5 38.4199H310.973V34.8926H332.014V13.8926H310.973V10.4062H335.5V38.4199Z" fill="black"/>
<path d="M18.288 92.3745L17 91.8523L30.3327 60L31.6208 60.5222L18.288 92.3745ZM48.0687 81.1305L47.6509 82.2792C47.4073 82.7666 47.2332 82.9058 46.537 82.9058C45.8407 82.9058 45.3882 82.697 45.3882 82.3837C45.3882 82.2096 45.423 82.0356 45.5274 81.7919C46.2585 80.0861 46.7807 78.4848 47.1984 76.8139C47.4421 75.8391 47.6161 75.0037 47.6857 74.2378C48.556 74.6207 49.0434 74.934 49.8789 75.4562H57.5374V71.4181H49.3219C48.3124 71.4181 47.7206 71.4529 46.7807 71.6618L46.4326 70.3041C47.6161 70.4782 48.2775 70.5478 49.3219 70.5478H67.9808C68.9555 69.5383 69.0947 69.4339 69.3036 69.4339C69.4428 69.4339 69.6517 69.5035 70.6264 70.3041C71.1486 70.6871 71.2182 70.8959 71.2182 71.1048C71.2182 71.3485 71.1138 71.4877 70.3131 72.0447V73.2283C70.3131 75.7695 70.4175 76.6746 70.4175 76.8835C70.4175 77.5797 69.9998 77.7886 69.1295 77.7886C68.5029 77.7886 68.2592 77.6145 68.2592 77.0227V76.3265H59.5912L59.626 80.2602H69.6865C70.5568 79.2507 70.696 79.181 70.8701 79.181C71.0441 79.181 71.2182 79.2507 72.2625 80.1557C72.8543 80.6779 72.9936 80.852 72.9936 81.026C72.9936 81.1653 72.8544 81.3741 72.0885 81.7571C71.7404 84.0546 71.3923 85.5863 71.0442 86.5958C70.696 87.6402 70.3131 88.2668 69.7561 88.6845C69.1643 89.1371 68.2941 89.3459 67.6675 89.3459C67.389 89.3459 67.3193 89.3111 67.2845 88.8586C67.1453 88.0927 66.6927 87.6054 63.8034 86.944C63.5945 86.9091 63.6293 86.4218 63.8382 86.4566C66.2054 86.7351 67.1105 86.8395 67.8763 86.8395C68.5029 86.8395 68.7466 86.7003 69.1295 85.5515C69.408 84.7508 69.791 83.1147 70.0346 81.1305H59.626V84.0546C59.626 88.406 59.7653 90.6688 59.7653 91.3302C59.7653 92.0264 59.2779 92.3049 58.338 92.3049C57.6766 92.3049 57.4677 92.096 57.4677 91.5042C57.4677 90.9124 57.5722 86.1433 57.6766 82.8014C53.9518 86.944 49.1826 89.6592 43.7869 91.3302C43.578 91.3998 43.3343 90.9124 43.5432 90.8428C48.382 88.6845 53.1511 85.273 56.2494 81.1305H48.0687ZM48.382 80.2602H57.5374V76.3265H49.4611C49.1826 77.5797 48.8345 78.9025 48.382 80.2602ZM59.5912 75.4562H68.2592V71.4181H59.5912V75.4562ZM49.0434 64.2122H55.0658C56.2493 62.8197 56.4582 62.6805 56.6671 62.6805C56.8411 62.6805 57.1196 62.8545 58.4424 63.8989C59.0342 64.3862 59.1387 64.5603 59.1387 64.7343C59.1387 64.978 59.0343 65.0825 58.6861 65.0825H51.9327C53.5689 66.0572 54.474 67.1363 54.474 68.2155C54.474 69.0509 53.8822 69.4687 53.2208 69.4687C52.6986 69.4687 52.4549 69.1554 52.3157 68.2155C52.1416 66.8578 51.7587 65.9527 50.9928 65.0825H48.4864C47.1288 67.1363 45.4926 68.8421 43.3343 70.339C43.1603 70.4782 42.8122 70.1301 42.9514 69.9908C44.8312 68.0066 46.5022 65.3958 47.4769 63.1678C47.9643 62.0539 48.3124 61.0792 48.4864 60.2089C51.1669 61.0095 51.515 61.2184 51.515 61.5665C51.515 61.8798 51.2017 62.0887 50.1574 62.2279C49.8092 62.9242 49.4263 63.5856 49.0434 64.2122ZM62.0628 64.2122H69.8954C71.079 62.7153 71.3575 62.5412 71.5315 62.5412C71.7056 62.5412 71.9841 62.7153 73.4113 63.8292C74.1075 64.3862 74.212 64.5603 74.212 64.7343C74.212 64.978 74.0727 65.0825 73.7246 65.0825H64.9174C66.5535 66.0224 67.5282 67.0667 67.5282 67.9718C67.5282 68.9813 67.006 69.3991 66.4142 69.3991C65.8225 69.3991 65.5091 69.1902 65.3699 68.3547C65.161 66.7882 64.7433 65.8831 64.0123 65.0825H61.5058C60.4615 66.649 59.1735 68.0414 57.4677 69.3642C57.2937 69.5035 56.9804 69.225 57.1196 69.0509C58.5817 67.1711 59.8001 65.2217 60.5659 63.3071C60.9837 62.2627 61.2622 61.2184 61.4014 60.2785C63.8034 60.9747 64.3952 61.2532 64.3952 61.6361C64.3952 61.9494 64.1515 62.1235 63.0724 62.2975C62.7591 62.959 62.4458 63.5856 62.0628 64.2122ZM78.5982 76.6398L78.2501 75.317C79.3989 75.5258 80.3388 75.5607 81.5224 75.5607H103.593C105.438 73.472 105.716 73.2631 105.89 73.2631C106.099 73.2631 106.343 73.472 108.257 75.0037C109.197 75.7695 109.267 75.9436 109.267 76.1176C109.267 76.3265 109.163 76.4309 108.814 76.4309H81.5572C80.3388 76.4309 79.5729 76.5006 78.5982 76.6398ZM127.926 67.5541H134.993C134.958 66.5793 134.923 65.5698 134.888 64.4558C134.853 62.3324 134.818 61.8102 134.679 60.8355C137.638 61.1836 137.986 61.288 137.986 61.7406C137.986 61.9842 137.812 62.1931 136.942 62.576C136.942 64.421 136.977 66.0572 137.046 67.5541H140.98C142.094 66.1964 142.268 66.092 142.477 66.092C142.686 66.092 142.825 66.1964 144.078 67.2059C144.635 67.6933 144.74 67.9022 144.74 68.111C144.74 68.3199 144.6 68.4243 144.252 68.4243H137.081C137.255 72.3928 137.603 75.2822 138.126 77.9974C138.683 80.7823 139.866 83.9502 141.189 86.004C141.85 87.0484 142.164 87.3617 142.407 87.3617C142.651 87.3617 143.173 86.3522 144.322 83.3932C144.392 83.2191 144.705 83.3236 144.67 83.4976C144.252 86.2129 144.043 87.9883 144.043 88.232C144.043 88.5801 144.183 88.8934 144.392 89.2067C144.566 89.4852 144.705 89.7985 144.705 90.1118C144.705 90.808 144.322 91.2606 143.661 91.2606C142.964 91.2606 141.85 90.4947 140.806 89.1719C138.996 86.9091 137.151 83.254 136.211 78.6937C135.55 75.317 135.201 72.4624 135.027 68.4243H127.926C127.16 68.4243 126.603 68.4591 125.663 68.6332L125.35 67.2756C126.394 67.5192 126.986 67.5541 127.926 67.5541ZM128.761 85.3426V75.5607H127.16C126.464 75.5607 125.976 75.5955 125.071 75.7695L124.723 74.4815C125.733 74.6556 126.255 74.6904 127.16 74.6904H131.546C132.591 73.3675 132.765 73.2979 132.939 73.2979C133.148 73.2979 133.356 73.3675 134.575 74.4119C135.062 74.8296 135.167 75.0385 135.167 75.2474C135.167 75.4562 135.027 75.5607 134.679 75.5607H130.815V84.7508C132.625 84.1939 134.401 83.5324 135.828 82.9407C136.037 82.871 136.211 83.254 136.037 83.3584C133.078 85.3078 130.015 86.7003 126.255 88.0927C126.15 89.0674 125.976 89.2763 125.663 89.3111C125.35 89.3111 125.071 88.8238 124.236 86.2477C124.932 86.1781 125.559 86.0737 126.429 85.8996C127.16 85.7604 127.961 85.5515 128.761 85.3426ZM120.824 89.6592H116.334V90.9124C116.334 91.5042 115.951 91.7479 115.15 91.7479C114.558 91.7479 114.28 91.6087 114.28 91.0517C114.28 90.5295 114.384 89.1719 114.384 85.3078C114.384 82.7666 114.384 81.7571 114.21 80.2254C115.15 80.6083 115.742 80.8868 116.612 81.409H120.65C121.486 80.4342 121.625 80.3646 121.834 80.3646C121.973 80.3646 122.182 80.4342 123.052 81.1653C123.574 81.6178 123.679 81.7919 123.679 81.9659C123.679 82.2096 123.505 82.3837 122.774 82.871V84.8901C122.774 88.4756 122.878 90.0422 122.878 90.4251C122.878 91.0865 122.46 91.3302 121.695 91.3302C121.068 91.3302 120.824 91.1561 120.824 90.634V89.6592ZM120.824 88.789V82.2792H116.334V88.789H120.824ZM138.613 62.3672C138.474 62.2627 138.648 62.0191 138.822 62.0539C140.806 62.4368 142.442 63.6204 142.442 64.804C142.442 65.4654 141.99 65.9875 141.433 65.9875C141.085 65.9875 140.736 65.7091 140.528 65.1173C140.214 64.2818 139.797 63.4115 138.613 62.3672ZM114.419 64.0729L114.071 62.7501C115.046 62.959 115.603 62.9938 116.473 62.9938H120.267C121.416 61.5665 121.625 61.4621 121.799 61.4621C122.008 61.4621 122.217 61.5665 123.54 62.6805C124.097 63.1678 124.201 63.3419 124.201 63.5159C124.201 63.7248 124.062 63.8641 123.748 63.8641H116.473C115.777 63.8641 115.324 63.8989 114.419 64.0729ZM112.922 68.7028L112.574 67.3452C113.584 67.5541 114.106 67.6237 115.046 67.6237H120.824C121.973 66.1616 122.147 66.0572 122.356 66.0572C122.53 66.0572 122.739 66.1616 124.097 67.2756C124.654 67.7629 124.758 67.937 124.758 68.1458C124.758 68.3547 124.619 68.494 124.271 68.494H115.046C114.315 68.494 113.792 68.5288 112.922 68.7028ZM114.384 73.3327L114.036 72.0447C114.941 72.2188 115.498 72.2536 116.334 72.2536H120.546C121.625 70.9307 121.799 70.8263 122.008 70.8263C122.182 70.8263 122.426 70.9308 123.679 71.9751C124.201 72.3928 124.271 72.6365 124.271 72.8106C124.271 73.0194 124.166 73.1239 123.818 73.1239H116.334C115.707 73.1239 115.22 73.1935 114.384 73.3327ZM114.384 77.8582L114.001 76.5354C114.941 76.7094 115.463 76.7791 116.334 76.7791H120.407C121.486 75.4562 121.695 75.3518 121.869 75.3518C122.043 75.3518 122.286 75.4562 123.505 76.4657C124.062 76.9183 124.131 77.1272 124.131 77.336C124.131 77.5449 124.027 77.6493 123.714 77.6493H116.299C115.672 77.6493 115.255 77.6841 114.384 77.8582ZM169.804 62.5412C167.541 66.4401 164.93 69.0509 160.474 71.4529C160.3 71.5574 160.022 71.2441 160.196 71.1048C162.807 69.1206 165.313 66.2312 166.949 63.5159C167.611 62.4368 168.028 61.3576 168.272 60.3481C171.022 61.2532 171.301 61.4273 171.301 61.7406C171.301 61.9842 171.127 62.1235 170.43 62.2975C171.858 64.4558 173.32 65.7787 175.026 66.7882C176.697 67.7977 178.472 68.4591 180.073 68.8421C180.247 68.8769 180.178 69.1554 180.004 69.1902C179.377 69.3294 179.029 69.6775 178.716 70.513C178.611 70.7915 178.542 70.9656 178.333 70.9656C178.193 70.9656 177.95 70.8959 177.497 70.6174C176.174 69.8516 174.991 69.0161 173.807 67.9718C172.45 66.7534 171.266 65.2565 169.804 62.5412ZM169.63 81.9659L169.421 82.697C168.237 87.0832 164.652 90.251 159.186 91.9568C158.978 92.0264 158.803 91.6087 159.012 91.539C161.554 90.3206 163.399 88.9978 164.861 87.2921C166.392 85.6211 167.263 83.7761 167.75 81.6178H164.025V82.2444C164.025 82.871 163.642 83.1147 162.876 83.1147C162.215 83.1147 162.006 82.9407 162.006 82.4185C162.006 82.0007 162.111 80.9564 162.111 77.6841C162.111 75.7695 162.076 74.9689 161.937 73.5068C162.842 73.8549 163.468 74.1682 164.269 74.6904H168.342C168.342 73.4024 168.377 72.1491 168.377 70.8611H166.009C165.348 70.8611 164.756 70.8959 163.99 71.1048L163.642 69.782C164.513 69.956 165.104 69.9908 165.94 69.9908H171.823C172.798 68.7725 172.937 68.5984 173.146 68.5984C173.32 68.5984 173.494 68.7028 174.712 69.7124C175.2 70.1301 175.304 70.339 175.304 70.5478C175.304 70.7567 175.165 70.8611 174.851 70.8611H170.326C170.326 72.1491 170.326 73.4024 170.291 74.6904H174.643C175.583 73.6808 175.687 73.5764 175.896 73.5764C176.07 73.5764 176.279 73.646 177.184 74.4815C177.636 74.8992 177.706 75.0733 177.706 75.2822C177.706 75.491 177.636 75.6303 176.905 76.1176V77.5797C176.905 80.7127 177.045 81.7919 177.045 82.1748C177.045 82.8362 176.592 83.0451 175.757 83.0451C175.13 83.0451 174.956 82.871 174.956 82.314V81.6178H170.256C171.37 84.0198 172.589 85.4819 174.364 86.8047C176.07 88.0927 177.915 88.8238 179.76 89.3111C179.969 89.3807 179.934 89.6244 179.725 89.694C178.994 89.9029 178.681 90.1814 178.298 91.2257C178.193 91.539 178.054 91.6087 177.845 91.6087C177.671 91.6087 177.462 91.539 177.253 91.3998C175.687 90.4599 174.155 89.2415 172.902 87.8142C171.649 86.4218 170.5 84.6464 169.63 81.9659ZM169.873 80.7475H174.956V75.5607H170.291C170.256 77.3012 170.187 79.0418 169.873 80.7475ZM164.025 80.7475H167.924C167.994 80.3646 168.063 79.9817 168.098 79.564C168.237 78.4152 168.307 77.1968 168.342 75.5607H164.025V80.7475ZM151.11 78.8677V79.2158C151.11 79.8076 150.727 80.0165 149.961 80.0165C149.37 80.0165 149.126 79.8773 149.126 79.3551C149.126 78.6937 149.265 76.3961 149.265 69.1554C149.265 64.5951 149.265 63.2375 149.091 61.4621C149.961 61.8102 150.553 62.1235 151.389 62.6108H158.038C159.047 61.3228 159.221 61.2184 159.395 61.2184C159.604 61.2184 159.778 61.3576 161.101 62.4716C161.519 62.8197 161.588 62.9938 161.588 63.1678C161.588 63.3767 161.449 63.4811 161.101 63.4811H156.158V67.7281H157.515C158.421 66.649 158.595 66.5445 158.769 66.5445C158.943 66.5445 159.152 66.649 160.266 67.5889C160.614 67.8674 160.718 68.111 160.718 68.2851C160.718 68.494 160.579 68.5984 160.266 68.5984H156.158V72.7061H157.585C158.455 71.6618 158.629 71.5225 158.803 71.5225C158.978 71.5225 159.221 71.6618 160.3 72.5669C160.648 72.8454 160.753 73.0891 160.753 73.2631C160.753 73.472 160.614 73.5764 160.3 73.5764H156.158V77.9974H158.072C158.873 77.0924 159.012 76.9879 159.186 76.9879C159.36 76.9879 159.604 77.0924 160.474 77.893C160.962 78.3107 160.997 78.5196 160.997 78.6937C160.997 78.8677 160.857 79.0418 160.231 79.3899C159.952 83.6021 159.465 86.4218 158.838 88.4408C158.455 89.6592 158.003 90.4947 157.341 91.0517C156.715 91.6087 156.088 91.7827 155.462 91.7827C155.044 91.7827 154.939 91.7827 154.87 91.365C154.696 90.5295 154.278 90.077 152.05 89.4504C151.841 89.3807 151.876 88.963 152.085 88.9978C154.104 89.2763 154.8 89.3459 155.566 89.3459C156.297 89.3459 156.68 88.7541 157.098 87.4313C157.585 85.83 158.072 83.1147 158.316 78.8677H151.11ZM151.11 67.7281H154.313V63.4811H151.11V67.7281ZM151.11 68.5984V72.7061H154.313V68.5984H151.11ZM151.11 73.5764V77.9974H154.313V73.5764H151.11ZM154.487 80.6431C154.348 80.5039 154.557 80.3298 154.731 80.3994C156.227 80.9564 157.341 81.8963 157.341 82.8362C157.341 83.5324 157.063 83.9154 156.645 83.9154C156.297 83.9154 156.193 83.7065 156.019 83.1147C155.67 82.0704 155.253 81.4438 154.487 80.6431ZM149.126 81.8615C149.126 81.6526 149.544 81.6526 149.578 81.8615C149.718 82.6273 149.753 83.3236 149.753 83.985C149.753 86.561 148.847 88.2668 147.768 88.2668C147.176 88.2668 146.759 87.8142 146.759 87.1876C146.759 86.8047 146.933 86.4914 147.316 86.1085C148.43 85.1338 149.022 83.8109 149.126 81.8615ZM150.797 81.7919C150.762 81.6178 150.971 81.4786 151.11 81.6178C152.224 82.7666 152.746 84.3679 152.746 85.5167C152.746 86.561 152.398 87.0484 151.737 87.0484C151.319 87.0484 151.11 86.7351 151.11 86.3522C151.11 86.004 151.18 85.3078 151.18 84.3331C151.18 83.6021 151.11 82.7666 150.797 81.7919ZM152.712 81.3741C152.642 81.2349 152.886 81.0608 153.025 81.1653C154.487 82.2792 155.288 83.5324 155.288 84.5072C155.288 85.3774 154.905 85.7952 154.417 85.7952C154.034 85.7952 153.86 85.5515 153.791 84.8205C153.651 83.5324 153.443 82.5925 152.712 81.3741ZM202.77 67.38C202.77 66.823 202.352 66.4749 201.099 65.8831C200.716 65.7091 200.542 65.6046 200.542 65.3609C200.542 65.0825 201.169 64.804 201.621 64.804C202.492 64.804 203.571 65.3261 204.337 65.8135C205.137 66.3705 206.112 67.2408 206.112 67.9718C206.112 68.3895 205.868 68.7028 205.485 68.8769C205.172 69.0161 204.754 69.4339 204.615 69.7124C202.735 73.6808 201.03 76.4657 198.836 79.3551C195.982 83.1147 192.048 86.561 187.871 88.789C187.488 88.9978 187.314 89.0674 187.14 89.0674C186.931 89.0674 186.722 88.8586 186.722 88.6845C186.722 88.4756 186.861 88.2668 187.244 87.9883C191.317 85.1338 194.798 81.6874 197.409 77.9974C199.393 75.2125 201.099 72.1143 202.387 68.9117C202.596 68.3547 202.77 67.8674 202.77 67.38ZM233.926 72.6713C230.236 76.605 225.92 80.3298 222.578 82.314C222.23 82.5229 222.021 82.5925 221.777 82.5925C221.499 82.5925 221.325 82.3489 221.325 82.14C221.325 82.0007 221.464 81.7571 221.847 81.4786C224.771 79.3899 228.252 76.1524 231.141 72.9846C233.3 70.6174 235.632 67.6585 236.885 65.7439C237.199 65.2913 237.268 64.8736 237.268 64.5603C237.268 64.247 236.92 63.9337 235.98 63.4115C235.702 63.2375 235.458 63.133 235.458 62.9241C235.458 62.6457 235.841 62.4368 236.537 62.4368C237.199 62.4368 238.278 62.959 239.113 63.5508C240.123 64.247 240.436 64.7343 240.436 65.1521C240.436 65.6046 240.262 65.8831 239.67 66.1616C239.496 66.2312 239.183 66.5445 238.695 67.1015C237.268 68.8073 236.398 69.8168 235.04 71.3833C236.398 72.8802 236.537 73.4024 236.537 73.8549C236.537 74.0986 236.502 74.2726 236.398 74.4815C236.293 74.7252 236.224 75.0037 236.224 75.317C236.189 77.162 236.189 78.7285 236.189 81.0608C236.189 84.1939 236.293 86.6306 236.293 88.5453C236.293 89.52 236.05 90.1466 235.423 90.1466C234.797 90.1466 234.448 89.694 234.205 89.1371C233.891 88.4408 233.717 87.7446 233.717 87.1876C233.717 86.8743 233.787 86.6655 233.891 86.4566C234.066 86.0389 234.135 85.5515 234.17 84.716C234.24 81.5482 234.274 78.9025 234.274 74.5511C234.274 73.5068 234.205 72.9846 233.926 72.6713ZM278.137 60.9747C278.241 60.9747 278.45 61.0095 278.694 61.0792C279.494 61.288 280.504 61.7754 281.165 62.2279C281.966 62.7849 282.732 63.6552 282.732 64.4558C282.732 65.0476 282.314 65.3958 281.931 65.3958C281.513 65.3958 281.27 65.2565 280.782 64.4558C280.225 63.4811 279.077 62.3672 277.928 61.6709C277.823 61.6013 277.789 61.4273 277.789 61.3228C277.789 61.1488 277.928 60.9747 278.137 60.9747ZM275.213 63.133C275.317 63.133 275.456 63.133 275.561 63.1678C276.64 63.5508 277.51 64.0381 278.137 64.5603C278.868 65.1521 279.634 66.0572 279.634 66.823C279.634 67.4496 279.285 67.8325 278.763 67.8325C278.276 67.8325 278.067 67.5541 277.615 66.6838C277.197 65.8831 276.083 64.6299 275.038 63.8641C274.899 63.7596 274.83 63.6204 274.83 63.5159C274.83 63.3071 275.004 63.133 275.213 63.133ZM269.016 77.3012C272.184 78.5892 275.526 80.469 277.719 82.697C278.52 83.5324 279.355 84.6812 279.355 85.4471C279.355 86.3522 278.833 86.7351 278.346 86.7351C277.754 86.7351 277.371 86.4914 276.883 85.7952C274.586 82.6273 271.801 79.8424 268.215 78.1367C264.421 82.2096 260 85.3078 255.057 87.3965C254.674 87.5706 254.361 87.675 254.117 87.675C253.908 87.675 253.699 87.5357 253.699 87.3269C253.699 87.118 253.734 87.0136 253.978 86.8743C257.981 84.6812 262.263 81.7223 265.57 78.2063C268.041 75.5955 270.026 72.9846 271.871 69.6775C272.01 69.4339 272.045 69.3642 272.045 69.2946C272.045 69.225 271.94 69.225 271.871 69.225C270.687 69.225 266.266 69.8168 262.298 70.5478C261.741 70.6523 261.392 70.7567 261.114 70.9308C260.801 71.1048 260.627 71.1744 260.244 71.1744C259.617 71.1744 258.886 70.7915 257.842 69.7124C257.285 69.1554 256.971 68.3547 256.971 67.8674C256.971 67.5192 257.145 67.3452 257.285 67.3452C257.459 67.3452 257.598 67.4844 257.737 67.6237C258.503 68.3895 259.478 68.9465 260.348 68.9465C260.731 68.9465 262.193 68.8073 262.994 68.7376C265.639 68.4591 268.668 68.1458 270.966 67.9022C271.523 67.8325 272.045 67.5889 272.323 67.3104C272.532 67.1015 272.776 66.9275 272.985 66.9275C273.437 66.9275 273.89 67.1711 274.69 67.7281C275.317 68.1807 275.665 68.5288 275.665 69.0509C275.665 69.3991 275.317 69.6079 274.795 69.8168C274.238 70.0257 274.064 70.1649 273.716 70.7567C272.602 72.6017 270.722 75.2125 269.016 77.3012ZM291.504 64.2122H289.241C288.476 64.2122 287.988 64.2818 287.083 64.421L286.735 63.133C287.779 63.3071 288.336 63.3419 289.276 63.3419H295.299C296.517 61.845 296.691 61.7406 296.865 61.7406C297.074 61.7406 297.248 61.845 298.641 62.959C299.267 63.4811 299.372 63.69 299.372 63.8989C299.372 64.1077 299.267 64.2122 298.919 64.2122H293.558C293.175 67.1363 292.549 70.0257 291.365 72.7409C291.504 72.8106 291.609 72.8802 291.748 72.9498H295.612C296.517 72.0447 296.622 71.9403 296.83 71.9403C297.004 71.9403 297.144 72.0447 298.014 72.7758C298.501 73.1935 298.606 73.4024 298.606 73.5764C298.606 73.7853 298.501 73.9245 297.735 74.4119V78.2411C297.735 84.0894 297.875 86.5958 297.875 87.3269C297.875 87.9535 297.492 88.232 296.691 88.232C296.065 88.232 295.786 88.0579 295.786 87.5009V86.3173H291.574V89.4504C291.574 90.1118 291.156 90.3555 290.321 90.3555C289.624 90.3555 289.45 90.2162 289.45 89.5896C289.45 88.5453 289.624 84.9945 289.624 79.6336C289.624 78.3456 289.659 77.0924 289.694 75.9436C288.754 77.3708 287.64 78.6937 286.387 79.8773C286.248 80.0165 285.865 79.7032 286.004 79.5291C288.998 75.5607 290.808 70.513 291.504 64.2122ZM295.786 85.4471V73.8201H291.574V85.4471H295.786ZM313.261 63.5856V74.1682H314.619C315.942 72.5321 316.151 72.3928 316.36 72.3928C316.568 72.3928 316.847 72.5321 318.239 73.7505C318.866 74.3074 318.97 74.4815 318.97 74.7252C318.97 74.9341 318.831 75.0385 318.483 75.0385H313.261V78.5892C313.261 85.83 313.401 89.694 313.401 90.8776C313.401 91.5739 312.948 91.922 311.973 91.922C311.277 91.922 311.033 91.6435 311.033 91.0169C311.033 90.3903 311.207 88.1972 311.207 81.5482V75.0385H305.638C305.464 79.4595 305.011 82.4881 303.862 84.9597C302.539 87.9187 300.52 90.077 297.318 92.0264C297.144 92.1308 296.83 91.8175 296.97 91.6783C299.58 89.3459 301.147 87.2224 302.156 84.3679C302.992 82.0007 303.375 79.1114 303.514 75.0385H301.982C301.008 75.0385 300.416 75.0733 299.406 75.2125L299.058 73.9245C300.207 74.1334 300.903 74.1682 301.948 74.1682H303.549C303.584 73.0194 303.584 71.7662 303.584 70.4434V63.5856H302.783C301.878 63.5856 301.251 63.6204 300.242 63.7596L299.929 62.4716C301.077 62.6457 301.739 62.7153 302.818 62.7153H314.097C315.42 61.1488 315.594 61.0443 315.803 61.0443C316.011 61.0443 316.185 61.114 317.578 62.2975C318.239 62.8545 318.344 63.0634 318.344 63.2723C318.344 63.4811 318.205 63.5856 317.856 63.5856H313.261ZM311.207 74.1682V63.5856H305.707V70.513C305.707 71.8358 305.707 73.0542 305.672 74.1682H311.207ZM326.49 65.0128H335.854V62.959C335.854 62.3672 335.784 61.6709 335.645 60.6614C338.778 60.9747 339.231 61.2184 339.231 61.6013C339.231 61.845 339.057 62.0539 338.012 62.5064V65.0128H347.899C349.013 63.7596 349.152 63.6552 349.361 63.6552C349.569 63.6552 349.813 63.7944 351.206 65.0476C351.832 65.6394 351.937 65.8135 351.937 66.0224C351.937 66.4401 351.623 66.6141 350.579 66.6141C350.126 66.6141 349.813 66.7882 349.465 67.1015C348.838 67.6585 348.038 68.4243 347.063 69.0858C346.889 69.225 346.611 69.0509 346.715 68.8769C347.237 67.8674 347.62 66.9275 348.003 65.8831H341.145V70.3738C341.145 71.6966 341.354 72.0447 344.905 72.0447C347.202 72.0447 348.282 71.9403 348.769 71.5922C349.326 71.2092 349.639 70.6174 350.231 68.8073C350.301 68.5984 350.649 68.668 350.649 68.8769C350.614 69.5035 350.579 70.339 350.579 70.7567C350.579 71.2441 350.683 71.3833 351.171 71.4877C351.519 71.5922 351.693 71.9055 351.693 72.2884C351.693 72.915 350.927 73.3327 349.883 73.5764C348.943 73.7505 347.446 73.8549 344.243 73.8549C339.927 73.8549 339.091 73.0542 339.091 70.8263C339.091 70.3738 339.161 69.9212 339.161 68.668V65.8831H334.809C334.113 71.7662 330.911 74.5859 323.496 75.6999C323.287 75.7347 323.148 75.2474 323.357 75.1777C329.727 73.2979 331.99 70.7915 332.616 65.8831H326.49C326.35 68.494 325.202 70.2345 323.635 70.2345C322.904 70.2345 322.347 69.6427 322.347 68.9813C322.347 68.3199 322.626 67.9718 323.322 67.6237C324.888 66.8578 325.793 65.4654 325.898 63.5508C325.898 63.3419 326.316 63.3419 326.35 63.5508C326.42 64.0729 326.49 64.5603 326.49 65.0128ZM341.493 79.5988L335.401 79.6684C335.018 81.8963 334.287 83.8109 333.139 85.4819C330.98 88.5801 327.29 90.6339 322.103 91.8523C321.895 91.8872 321.72 91.3998 321.929 91.3302C325.759 89.9725 328.543 88.1275 330.423 85.7952C331.816 84.159 332.721 82.2096 333.173 79.7032L327.186 79.7728C325.967 79.7728 325.445 79.8424 324.61 80.0165L324.262 78.6589C325.376 78.8329 325.967 78.8677 327.325 78.8677L333.278 78.7981C333.417 77.8234 333.452 77.1968 333.452 76.3265C333.452 75.4562 333.382 74.5859 333.278 73.8897C336.306 74.2378 336.898 74.3771 336.898 74.8992C336.898 75.2474 336.62 75.4562 335.68 75.8391C335.68 76.8835 335.61 77.8582 335.506 78.7981L341.18 78.7285C342.05 77.6841 342.294 77.5449 342.503 77.5449C342.747 77.5449 343.025 77.6841 344.104 78.6589C344.452 78.9722 344.522 79.181 344.522 79.3551C344.522 79.5988 344.417 79.7728 343.547 80.2602C343.478 81.5134 343.408 86.8395 343.408 87.7098C343.408 88.6845 343.652 88.9282 346.123 88.9282C348.386 88.9282 349.152 88.8586 349.674 88.3016C349.987 87.9535 350.614 86.6655 351.275 84.2983C351.345 84.0894 351.693 84.159 351.693 84.3679C351.623 85.4123 351.484 87.0136 351.484 87.675C351.484 88.1275 351.623 88.2668 351.937 88.406C352.32 88.5801 352.459 88.789 352.459 89.2067C352.459 89.7985 351.867 90.251 350.892 90.4947C349.987 90.7384 348.456 90.8776 346.123 90.8776C341.737 90.8776 341.284 90.1466 341.284 88.232C341.284 87.6054 341.458 81.4786 341.493 79.5988ZM382.884 72.9498V82.0356C382.884 86.5958 383.023 89.5896 383.023 90.4947C383.023 91.2257 382.605 91.5739 381.631 91.5739C380.9 91.5739 380.621 91.2954 380.621 90.7036C380.621 90.077 380.76 87.8839 380.76 83.1147V72.9498H375.748C375.608 77.4753 375.086 80.4342 374.181 82.9755C372.963 86.2825 370.944 88.8586 367.045 91.7131C366.871 91.8175 366.523 91.4694 366.662 91.3302C369.795 88.232 371.396 85.6907 372.371 82.4533C373.241 79.564 373.624 76.1524 373.624 70.339C373.624 67.38 373.624 66.5445 373.415 64.6647C374.39 65.0476 375.086 65.4306 375.957 65.9527C378.289 65.1521 380.9 63.7248 382.536 62.6108C383.406 62.0191 383.998 61.5317 384.485 60.9399C386.713 62.7153 386.992 63.0286 386.992 63.3419C386.992 63.6204 386.469 63.7944 385.251 63.4811C382.431 64.9432 379.472 65.9875 375.782 66.7534V69.8864C375.782 70.6523 375.782 71.3833 375.748 72.0795H384.242C385.599 70.4434 385.773 70.339 385.947 70.339C386.156 70.339 386.365 70.4434 387.862 71.6618C388.558 72.2188 388.663 72.3928 388.663 72.6017C388.663 72.8106 388.523 72.9498 388.175 72.9498H382.884ZM367.985 77.6841H361.022C360.883 80.3646 360.535 82.3837 360.048 84.1939C359.247 87.0136 358.063 89.1023 355.905 91.6783C355.766 91.8175 355.418 91.5739 355.522 91.3998C357.019 88.8238 357.715 86.7003 358.342 83.7065C358.864 81.2001 359.073 78.4152 359.073 72.9498C359.073 69.5731 359.038 68.7028 358.864 67.2059C359.839 67.6237 360.465 67.9718 361.44 68.5288H367.706C368.681 67.5192 368.82 67.4148 368.994 67.4148C369.168 67.4148 369.377 67.4844 370.317 68.3547C370.839 68.8421 370.909 68.9813 370.909 69.1554C370.909 69.3642 370.77 69.5731 370.004 70.0605V72.6017C370.004 76.6398 370.108 78.2063 370.108 78.7285C370.108 79.3899 369.69 79.6684 368.89 79.6684C368.228 79.6684 367.985 79.4595 367.985 78.9025V77.6841ZM367.985 76.8139V69.3991H361.162V72.7409C361.162 74.2726 361.127 75.5955 361.092 76.8139H367.985ZM357.437 64.0381L357.089 62.7153C358.168 62.8893 358.76 62.9241 359.769 62.9241H368.681C370.004 61.3925 370.178 61.288 370.387 61.288C370.561 61.288 370.77 61.3925 372.232 62.5412C372.928 63.0634 372.998 63.2723 372.998 63.4811C372.998 63.6552 372.893 63.7944 372.545 63.7944H359.769C358.934 63.7944 358.377 63.8292 357.437 64.0381Z" fill="black"/>
</svg>
