<svg width="625" height="90" viewBox="0 0 625 90" fill="none" xmlns="http://www.w3.org/2000/svg">
<path d="M252.632 51.355L251.344 50.8328L264.676 18.9805L265.965 19.5026L252.632 51.355ZM282.412 40.1109L281.995 41.2597C281.751 41.7471 281.577 41.8863 280.881 41.8863C280.184 41.8863 279.732 41.6774 279.732 41.3641C279.732 41.1901 279.767 41.016 279.871 40.7723C280.602 39.0666 281.124 37.4653 281.542 35.7943C281.786 34.8196 281.96 33.9841 282.029 33.2183C282.9 33.6012 283.387 33.9145 284.223 34.4367H291.881V30.3986H283.666C282.656 30.3986 282.064 30.4334 281.124 30.6423L280.776 29.2846C281.96 29.4587 282.621 29.5283 283.666 29.5283H302.325C303.299 28.5188 303.438 28.4143 303.647 28.4143C303.787 28.4143 303.995 28.484 304.97 29.2846C305.492 29.6675 305.562 29.8764 305.562 30.0853C305.562 30.329 305.458 30.4682 304.657 31.0252V32.2088C304.657 34.75 304.761 35.6551 304.761 35.864C304.761 36.5602 304.344 36.769 303.473 36.769C302.847 36.769 302.603 36.595 302.603 36.0032V35.307H293.935L293.97 39.2406H304.03C304.901 38.2311 305.04 38.1615 305.214 38.1615C305.388 38.1615 305.562 38.2311 306.606 39.1362C307.198 39.6584 307.337 39.8324 307.337 40.0065C307.337 40.1457 307.198 40.3546 306.432 40.7375C306.084 43.0351 305.736 44.5668 305.388 45.5763C305.04 46.6206 304.657 47.2472 304.1 47.665C303.508 48.1175 302.638 48.3264 302.011 48.3264C301.733 48.3264 301.663 48.2916 301.628 47.839C301.489 47.0732 301.036 46.5858 298.147 45.9244C297.938 45.8896 297.973 45.4022 298.182 45.4371C300.549 45.7156 301.454 45.82 302.22 45.82C302.847 45.82 303.09 45.6807 303.473 44.532C303.752 43.7313 304.135 42.0952 304.378 40.1109H293.97V43.0351C293.97 47.3865 294.109 49.6492 294.109 50.3106C294.109 51.0069 293.622 51.2854 292.682 51.2854C292.02 51.2854 291.811 51.0765 291.811 50.4847C291.811 49.8929 291.916 45.1238 292.02 41.7819C288.296 45.9244 283.526 48.6397 278.131 50.3106C277.922 50.3803 277.678 49.8929 277.887 49.8233C282.726 47.665 287.495 44.2535 290.593 40.1109H282.412ZM282.726 39.2406H291.881V35.307H283.805C283.526 36.5602 283.178 37.883 282.726 39.2406ZM293.935 34.4367H302.603V30.3986H293.935V34.4367ZM283.387 23.1926H289.41C290.593 21.8002 290.802 21.6609 291.011 21.6609C291.185 21.6609 291.463 21.835 292.786 22.8793C293.378 23.3667 293.482 23.5408 293.482 23.7148C293.482 23.9585 293.378 24.0629 293.03 24.0629H286.276C287.913 25.0376 288.818 26.1168 288.818 27.1959C288.818 28.0314 288.226 28.4491 287.565 28.4491C287.042 28.4491 286.799 28.1358 286.659 27.1959C286.485 25.8383 286.102 24.9332 285.337 24.0629H282.83C281.473 26.1168 279.836 27.8225 277.678 29.3194C277.504 29.4587 277.156 29.1106 277.295 28.9713C279.175 26.9871 280.846 24.3762 281.821 22.1483C282.308 21.0343 282.656 20.0596 282.83 19.1893C285.511 19.99 285.859 20.1989 285.859 20.547C285.859 20.8603 285.545 21.0691 284.501 21.2084C284.153 21.9046 283.77 22.566 283.387 23.1926ZM296.407 23.1926H304.239C305.423 21.6958 305.701 21.5217 305.875 21.5217C306.049 21.5217 306.328 21.6958 307.755 22.8097C308.451 23.3667 308.556 23.5408 308.556 23.7148C308.556 23.9585 308.416 24.0629 308.068 24.0629H299.261C300.897 25.0028 301.872 26.0472 301.872 26.9523C301.872 27.9618 301.35 28.3795 300.758 28.3795C300.166 28.3795 299.853 28.1707 299.714 27.3352C299.505 25.7687 299.087 24.8636 298.356 24.0629H295.85C294.805 25.6294 293.517 27.0219 291.811 28.3447C291.637 28.484 291.324 28.2055 291.463 28.0314C292.925 26.1516 294.144 24.2022 294.91 22.2875C295.327 21.2432 295.606 20.1989 295.745 19.259C298.147 19.9552 298.739 20.2337 298.739 20.6166C298.739 20.9299 298.495 21.104 297.416 21.278C297.103 21.9394 296.79 22.566 296.407 23.1926ZM312.942 35.6203L312.594 34.2974C313.743 34.5063 314.683 34.5411 315.866 34.5411H337.936C339.781 32.4524 340.06 32.2436 340.234 32.2436C340.443 32.2436 340.687 32.4524 342.601 33.9841C343.541 34.75 343.611 34.924 343.611 35.0981C343.611 35.307 343.506 35.4114 343.158 35.4114H315.901C314.683 35.4114 313.917 35.481 312.942 35.6203ZM362.27 26.5345H369.336C369.301 25.5598 369.267 24.5503 369.232 23.4363C369.197 21.3128 369.162 20.7907 369.023 19.8159C371.982 20.1641 372.33 20.2685 372.33 20.721C372.33 20.9647 372.156 21.1736 371.286 21.5565C371.286 23.4015 371.321 25.0376 371.39 26.5345H375.324C376.438 25.1769 376.612 25.0724 376.821 25.0724C377.03 25.0724 377.169 25.1769 378.422 26.1864C378.979 26.6738 379.083 26.8826 379.083 27.0915C379.083 27.3004 378.944 27.4048 378.596 27.4048H371.425C371.599 31.3733 371.947 34.2626 372.469 36.9779C373.026 39.7628 374.21 42.9306 375.533 44.9845C376.194 46.0289 376.507 46.3422 376.751 46.3422C376.995 46.3422 377.517 45.3326 378.666 42.3737C378.735 42.1996 379.049 42.304 379.014 42.4781C378.596 45.1934 378.387 46.9688 378.387 47.2124C378.387 47.5606 378.526 47.8739 378.735 48.1872C378.909 48.4656 379.049 48.7789 379.049 49.0922C379.049 49.7885 378.666 50.241 378.004 50.241C377.308 50.241 376.194 49.4752 375.15 48.1523C373.34 45.8896 371.495 42.2344 370.555 37.6741C369.893 34.2974 369.545 31.4429 369.371 27.4048H362.27C361.504 27.4048 360.947 27.4396 360.007 27.6137L359.694 26.256C360.738 26.4997 361.33 26.5345 362.27 26.5345ZM363.105 44.3231V34.5411H361.504C360.808 34.5411 360.32 34.5759 359.415 34.75L359.067 33.462C360.076 33.636 360.599 33.6708 361.504 33.6708H365.89C366.934 32.348 367.108 32.2784 367.282 32.2784C367.491 32.2784 367.7 32.348 368.919 33.3923C369.406 33.8101 369.51 34.019 369.51 34.2278C369.51 34.4367 369.371 34.5411 369.023 34.5411H365.159V43.7313C366.969 43.1743 368.744 42.5129 370.172 41.9211C370.381 41.8515 370.555 42.2344 370.381 42.3389C367.422 44.2883 364.358 45.6807 360.599 47.0732C360.494 48.0479 360.32 48.2568 360.007 48.2916C359.694 48.2916 359.415 47.8042 358.58 45.2282C359.276 45.1586 359.902 45.0541 360.773 44.8801C361.504 44.7408 362.304 44.532 363.105 44.3231ZM355.168 48.6397H350.677V49.8929C350.677 50.4847 350.294 50.7284 349.494 50.7284C348.902 50.7284 348.624 50.5891 348.624 50.0322C348.624 49.51 348.728 48.1523 348.728 44.2883C348.728 41.7471 348.728 40.7375 348.554 39.2058C349.494 39.5888 350.086 39.8673 350.956 40.3894H354.994C355.829 39.4147 355.969 39.3451 356.178 39.3451C356.317 39.3451 356.526 39.4147 357.396 40.1457C357.918 40.5983 358.023 40.7723 358.023 40.9464C358.023 41.1901 357.849 41.3641 357.118 41.8515V43.8706C357.118 47.4561 357.222 49.0226 357.222 49.4055C357.222 50.067 356.804 50.3106 356.038 50.3106C355.412 50.3106 355.168 50.1366 355.168 49.6144V48.6397ZM355.168 47.7694V41.2597H350.677V47.7694H355.168ZM372.957 21.3476C372.817 21.2432 372.991 20.9995 373.166 21.0343C375.15 21.4173 376.786 22.6008 376.786 23.7844C376.786 24.4458 376.333 24.968 375.776 24.968C375.428 24.968 375.08 24.6895 374.871 24.0977C374.558 23.2623 374.14 22.392 372.957 21.3476ZM348.763 23.0534L348.415 21.7306C349.389 21.9394 349.946 21.9742 350.817 21.9742H354.611C355.76 20.547 355.969 20.4425 356.143 20.4425C356.352 20.4425 356.561 20.547 357.883 21.6609C358.44 22.1483 358.545 22.3224 358.545 22.4964C358.545 22.7053 358.406 22.8445 358.092 22.8445H350.817C350.12 22.8445 349.668 22.8793 348.763 23.0534ZM347.266 27.6833L346.918 26.3257C347.927 26.5345 348.45 26.6041 349.389 26.6041H355.168C356.317 25.1421 356.491 25.0376 356.7 25.0376C356.874 25.0376 357.083 25.1421 358.44 26.256C358.997 26.7434 359.102 26.9174 359.102 27.1263C359.102 27.3352 358.963 27.4744 358.614 27.4744H349.389C348.658 27.4744 348.136 27.5092 347.266 27.6833ZM348.728 32.3132L348.38 31.0252C349.285 31.1992 349.842 31.234 350.677 31.234H354.89C355.969 29.9112 356.143 29.8068 356.352 29.8068C356.526 29.8068 356.769 29.9112 358.023 30.9556C358.545 31.3733 358.614 31.617 358.614 31.791C358.614 31.9999 358.51 32.1043 358.162 32.1043H350.677C350.051 32.1043 349.563 32.174 348.728 32.3132ZM348.728 36.8387L348.345 35.5158C349.285 35.6899 349.807 35.7595 350.677 35.7595H354.75C355.83 34.4367 356.038 34.3323 356.212 34.3323C356.386 34.3323 356.63 34.4367 357.849 35.4462C358.406 35.8988 358.475 36.1076 358.475 36.3165C358.475 36.5254 358.371 36.6298 358.057 36.6298H350.643C350.016 36.6298 349.598 36.6646 348.728 36.8387ZM404.148 21.5217C401.885 25.4206 399.274 28.0314 394.818 30.4334C394.644 30.5378 394.366 30.2245 394.54 30.0853C397.151 28.101 399.657 25.2117 401.293 22.4964C401.954 21.4173 402.372 20.3381 402.616 19.3286C405.366 20.2337 405.644 20.4077 405.644 20.721C405.644 20.9647 405.47 21.104 404.774 21.278C406.201 23.4363 407.664 24.7591 409.369 25.7687C411.04 26.7782 412.816 27.4396 414.417 27.8225C414.591 27.8574 414.521 28.1358 414.347 28.1707C413.721 28.3099 413.373 28.658 413.059 29.4935C412.955 29.772 412.885 29.946 412.676 29.946C412.537 29.946 412.293 29.8764 411.841 29.5979C410.518 28.8321 409.335 27.9966 408.151 26.9523C406.793 25.7339 405.61 24.237 404.148 21.5217ZM403.974 40.9464L403.765 41.6774C402.581 46.0637 398.996 49.2315 393.53 50.9372C393.321 51.0069 393.147 50.5891 393.356 50.5195C395.897 49.3011 397.742 47.9783 399.204 46.2725C400.736 44.6016 401.606 42.7566 402.094 40.5983H398.369V41.2249C398.369 41.8515 397.986 42.0952 397.22 42.0952C396.559 42.0952 396.35 41.9211 396.35 41.3989C396.35 40.9812 396.454 39.9369 396.454 36.6646C396.454 34.75 396.419 33.9493 396.28 32.4873C397.185 32.8354 397.812 33.1487 398.613 33.6708H402.686C402.686 32.3828 402.72 31.1296 402.72 29.8416H400.353C399.692 29.8416 399.1 29.8764 398.334 30.0853L397.986 28.7624C398.856 28.9365 399.448 28.9713 400.284 28.9713H406.167C407.141 27.7529 407.281 27.5789 407.489 27.5789C407.664 27.5789 407.838 27.6833 409.056 28.6928C409.543 29.1106 409.648 29.3194 409.648 29.5283C409.648 29.7372 409.509 29.8416 409.195 29.8416H404.67C404.67 31.1296 404.67 32.3828 404.635 33.6708H408.986C409.926 32.6613 410.031 32.5569 410.24 32.5569C410.414 32.5569 410.623 32.6265 411.528 33.462C411.98 33.8797 412.05 34.0538 412.05 34.2626C412.05 34.4715 411.98 34.6107 411.249 35.0981V36.5602C411.249 39.6932 411.388 40.7723 411.388 41.1553C411.388 41.8167 410.936 42.0256 410.1 42.0256C409.474 42.0256 409.3 41.8515 409.3 41.2945V40.5983H404.6C405.714 43.0003 406.933 44.4623 408.708 45.7852C410.414 47.0732 412.259 47.8042 414.104 48.2916C414.313 48.3612 414.278 48.6049 414.069 48.6745C413.338 48.8834 413.024 49.1619 412.642 50.2062C412.537 50.5195 412.398 50.5891 412.189 50.5891C412.015 50.5891 411.806 50.5195 411.597 50.3803C410.031 49.4404 408.499 48.222 407.246 46.7947C405.993 45.4022 404.844 43.6269 403.974 40.9464ZM404.217 39.728H409.3V34.5411H404.635C404.6 36.2817 404.531 38.0223 404.217 39.728ZM398.369 39.728H402.268C402.337 39.3451 402.407 38.9622 402.442 38.5444C402.581 37.3956 402.651 36.1773 402.686 34.5411H398.369V39.728ZM385.454 37.8482V38.1963C385.454 38.7881 385.071 38.997 384.305 38.997C383.713 38.997 383.47 38.8577 383.47 38.3356C383.47 37.6741 383.609 35.3766 383.609 28.1358C383.609 23.5756 383.609 22.2179 383.435 20.4425C384.305 20.7907 384.897 21.104 385.732 21.5913H392.381C393.391 20.3033 393.565 20.1989 393.739 20.1989C393.948 20.1989 394.122 20.3381 395.445 21.4521C395.863 21.8002 395.932 21.9742 395.932 22.1483C395.932 22.3572 395.793 22.4616 395.445 22.4616H390.502V26.7086H391.859C392.764 25.6294 392.938 25.525 393.112 25.525C393.286 25.525 393.495 25.6294 394.609 26.5693C394.957 26.8478 395.062 27.0915 395.062 27.2656C395.062 27.4744 394.923 27.5789 394.609 27.5789H390.502V31.6866H391.929C392.799 30.6423 392.973 30.503 393.147 30.503C393.321 30.503 393.565 30.6423 394.644 31.5473C394.992 31.8258 395.097 32.0695 395.097 32.2436C395.097 32.4524 394.957 32.5569 394.644 32.5569H390.502V36.9779H392.416C393.217 36.0728 393.356 35.9684 393.53 35.9684C393.704 35.9684 393.948 36.0728 394.818 36.8735C395.306 37.2912 395.34 37.5001 395.34 37.6741C395.34 37.8482 395.201 38.0223 394.574 38.3704C394.296 42.5825 393.809 45.4023 393.182 47.4213C392.799 48.6397 392.347 49.4752 391.685 50.0322C391.059 50.5891 390.432 50.7632 389.805 50.7632C389.388 50.7632 389.283 50.7632 389.214 50.3455C389.039 49.51 388.622 49.0574 386.394 48.4308C386.185 48.3612 386.22 47.9435 386.429 47.9783C388.448 48.2568 389.144 48.3264 389.91 48.3264C390.641 48.3264 391.024 47.7346 391.441 46.4118C391.929 44.8105 392.416 42.0952 392.66 37.8482H385.454ZM385.454 26.7086H388.657V22.4616H385.454V26.7086ZM385.454 27.5789V31.6866H388.657V27.5789H385.454ZM385.454 32.5569V36.9779H388.657V32.5569H385.454ZM388.831 39.6236C388.691 39.4843 388.9 39.3103 389.074 39.3799C390.571 39.9369 391.685 40.8768 391.685 41.8167C391.685 42.5129 391.407 42.8958 390.989 42.8958C390.641 42.8958 390.536 42.687 390.362 42.0952C390.014 41.0508 389.596 40.4242 388.831 39.6236ZM383.47 40.842C383.47 40.6331 383.887 40.6331 383.922 40.842C384.061 41.6078 384.096 42.304 384.096 42.9655C384.096 45.5415 383.191 47.2472 382.112 47.2472C381.52 47.2472 381.103 46.7947 381.103 46.1681C381.103 45.7852 381.277 45.4719 381.659 45.0889C382.773 44.1142 383.365 42.7914 383.47 40.842ZM385.141 40.7723C385.106 40.5983 385.315 40.459 385.454 40.5983C386.568 41.7471 387.09 43.3484 387.09 44.4972C387.09 45.5415 386.742 46.0289 386.081 46.0289C385.663 46.0289 385.454 45.7156 385.454 45.3326C385.454 44.9845 385.524 44.2883 385.524 43.3136C385.524 42.5825 385.454 41.7471 385.141 40.7723ZM387.055 40.3546C386.986 40.2154 387.229 40.0413 387.369 40.1457C388.831 41.2597 389.631 42.5129 389.631 43.4876C389.631 44.3579 389.248 44.7756 388.761 44.7756C388.378 44.7756 388.204 44.532 388.134 43.8009C387.995 42.5129 387.786 41.573 387.055 40.3546ZM437.114 26.3605C437.114 25.8035 436.696 25.4554 435.443 24.8636C435.06 24.6895 434.886 24.5851 434.886 24.3414C434.886 24.0629 435.513 23.7844 435.965 23.7844C436.835 23.7844 437.915 24.3066 438.68 24.794C439.481 25.3509 440.456 26.2212 440.456 26.9523C440.456 27.37 440.212 27.6833 439.829 27.8574C439.516 27.9966 439.098 28.4143 438.959 28.6928C437.079 32.6613 435.373 35.4462 433.18 38.3356C430.326 42.0952 426.392 45.5415 422.215 47.7694C421.832 47.9783 421.658 48.0479 421.484 48.0479C421.275 48.0479 421.066 47.839 421.066 47.665C421.066 47.4561 421.205 47.2472 421.588 46.9688C425.661 44.1142 429.142 40.6679 431.753 36.9779C433.737 34.193 435.443 31.0948 436.731 27.8922C436.94 27.3352 437.114 26.8478 437.114 26.3605ZM468.27 31.6518C464.58 35.5855 460.263 39.3103 456.922 41.2945C456.573 41.5034 456.365 41.573 456.121 41.573C455.842 41.573 455.668 41.3293 455.668 41.1205C455.668 40.9812 455.808 40.7375 456.191 40.459C459.115 38.3704 462.596 35.1329 465.485 31.9651C467.643 29.5979 469.976 26.639 471.229 24.7243C471.542 24.2718 471.612 23.8541 471.612 23.5408C471.612 23.2274 471.264 22.9141 470.324 22.392C470.045 22.2179 469.802 22.1135 469.802 21.9046C469.802 21.6261 470.185 21.4173 470.881 21.4173C471.542 21.4173 472.621 21.9394 473.457 22.5312C474.466 23.2274 474.78 23.7148 474.78 24.1325C474.78 24.5851 474.606 24.8636 474.014 25.1421C473.84 25.2117 473.527 25.525 473.039 26.082C471.612 27.7877 470.742 28.7973 469.384 30.3638C470.742 31.8607 470.881 32.3828 470.881 32.8354C470.881 33.079 470.846 33.2531 470.742 33.462C470.637 33.7057 470.568 33.9841 470.568 34.2974C470.533 36.1424 470.533 37.709 470.533 40.0413C470.533 43.1743 470.637 45.6111 470.637 47.5257C470.637 48.5005 470.394 49.1271 469.767 49.1271C469.14 49.1271 468.792 48.6745 468.549 48.1175C468.235 47.4213 468.061 46.7251 468.061 46.1681C468.061 45.8548 468.131 45.6459 468.235 45.4371C468.409 45.0193 468.479 44.532 468.514 43.6965C468.583 40.5287 468.618 37.883 468.618 33.5316C468.618 32.4873 468.549 31.9651 468.27 31.6518ZM512.48 19.9552C512.585 19.9552 512.794 19.99 513.037 20.0596C513.838 20.2685 514.848 20.7558 515.509 21.2084C516.31 21.7654 517.076 22.6357 517.076 23.4363C517.076 24.0281 516.658 24.3762 516.275 24.3762C515.857 24.3762 515.613 24.237 515.126 23.4363C514.569 22.4616 513.42 21.3476 512.272 20.6514C512.167 20.5818 512.132 20.4077 512.132 20.3033C512.132 20.1292 512.272 19.9552 512.48 19.9552ZM509.556 22.1135C509.661 22.1135 509.8 22.1135 509.904 22.1483C510.984 22.5312 511.854 23.0186 512.48 23.5408C513.211 24.1325 513.977 25.0376 513.977 25.8035C513.977 26.4301 513.629 26.813 513.107 26.813C512.62 26.813 512.411 26.5345 511.958 25.6642C511.541 24.8636 510.427 23.6104 509.382 22.8445C509.243 22.7401 509.173 22.6008 509.173 22.4964C509.173 22.2875 509.347 22.1135 509.556 22.1135ZM503.36 36.2817C506.528 37.5697 509.87 39.4495 512.063 41.6774C512.863 42.5129 513.699 43.6617 513.699 44.4275C513.699 45.3326 513.177 45.7156 512.689 45.7156C512.097 45.7156 511.715 45.4719 511.227 44.7756C508.93 41.6078 506.145 38.8229 502.559 37.1172C498.765 41.1901 494.344 44.2883 489.401 46.377C489.018 46.551 488.704 46.6555 488.461 46.6555C488.252 46.6555 488.043 46.5162 488.043 46.3073C488.043 46.0985 488.078 45.994 488.321 45.8548C492.325 43.6617 496.606 40.7027 499.914 37.1868C502.385 34.5759 504.369 31.9651 506.214 28.658C506.354 28.4143 506.388 28.3447 506.388 28.2751C506.388 28.2055 506.284 28.2055 506.214 28.2055C505.031 28.2055 500.61 28.7973 496.641 29.5283C496.084 29.6327 495.736 29.7372 495.458 29.9112C495.144 30.0853 494.97 30.1549 494.587 30.1549C493.961 30.1549 493.23 29.772 492.185 28.6928C491.628 28.1358 491.315 27.3352 491.315 26.8478C491.315 26.4997 491.489 26.3257 491.628 26.3257C491.802 26.3257 491.942 26.4649 492.081 26.6041C492.847 27.37 493.822 27.927 494.692 27.927C495.075 27.927 496.537 27.7877 497.337 27.7181C499.983 27.4396 503.012 27.1263 505.309 26.8826C505.866 26.813 506.388 26.5693 506.667 26.2908C506.876 26.082 507.119 25.9079 507.328 25.9079C507.781 25.9079 508.233 26.1516 509.034 26.7086C509.661 27.1611 510.009 27.5092 510.009 28.0314C510.009 28.3795 509.661 28.5884 509.139 28.7973C508.582 29.0061 508.408 29.1454 508.059 29.7372C506.945 31.5822 505.066 34.193 503.36 36.2817ZM525.848 23.1926H523.585C522.819 23.1926 522.332 23.2623 521.427 23.4015L521.079 22.1135C522.123 22.2875 522.68 22.3224 523.62 22.3224H529.642C530.861 20.8255 531.035 20.721 531.209 20.721C531.418 20.721 531.592 20.8255 532.984 21.9394C533.611 22.4616 533.715 22.6705 533.715 22.8793C533.715 23.0882 533.611 23.1926 533.263 23.1926H527.902C527.519 26.1168 526.892 29.0061 525.709 31.7214C525.848 31.791 525.952 31.8607 526.092 31.9303H529.956C530.861 31.0252 530.965 30.9207 531.174 30.9207C531.348 30.9207 531.487 31.0252 532.358 31.7562C532.845 32.174 532.949 32.3828 532.949 32.5569C532.949 32.7657 532.845 32.905 532.079 33.3923V37.2216C532.079 43.0699 532.218 45.5763 532.218 46.3073C532.218 46.9339 531.836 47.2124 531.035 47.2124C530.408 47.2124 530.13 47.0384 530.13 46.4814V45.2978H525.918V48.4308C525.918 49.0922 525.5 49.3359 524.664 49.3359C523.968 49.3359 523.794 49.1967 523.794 48.5701C523.794 47.5257 523.968 43.975 523.968 38.614C523.968 37.326 524.003 36.0728 524.038 34.924C523.098 36.3513 521.984 37.6741 520.731 38.8577C520.591 38.997 520.209 38.6837 520.348 38.5096C523.342 34.5411 525.152 29.4935 525.848 23.1926ZM530.13 44.4275V32.8006H525.918V44.4275H530.13ZM547.605 22.566V33.1487H548.963C550.286 31.5125 550.494 31.3733 550.703 31.3733C550.912 31.3733 551.191 31.5125 552.583 32.7309C553.21 33.2879 553.314 33.462 553.314 33.7057C553.314 33.9145 553.175 34.019 552.827 34.019H547.605V37.5697C547.605 44.8105 547.744 48.6745 547.744 49.8581C547.744 50.5543 547.292 50.9024 546.317 50.9024C545.621 50.9024 545.377 50.6239 545.377 49.9973C545.377 49.3707 545.551 47.1776 545.551 40.5287V34.019H539.981C539.807 38.44 539.355 41.4686 538.206 43.9402C536.883 46.8991 534.864 49.0574 531.661 51.0069C531.487 51.1113 531.174 50.798 531.313 50.6588C533.924 48.3264 535.491 46.2029 536.5 43.3484C537.336 40.9812 537.719 38.0919 537.858 34.019H536.326C535.351 34.019 534.76 34.0538 533.75 34.193L533.402 32.905C534.551 33.1139 535.247 33.1487 536.291 33.1487H537.893C537.928 31.9999 537.928 30.7467 537.928 29.4239V22.566H537.127C536.222 22.566 535.595 22.6008 534.586 22.7401L534.272 21.4521C535.421 21.6261 536.083 21.6958 537.162 21.6958H548.441C549.763 20.1292 549.937 20.0248 550.146 20.0248C550.355 20.0248 550.529 20.0944 551.922 21.278C552.583 21.835 552.687 22.0439 552.687 22.2527C552.687 22.4616 552.548 22.566 552.2 22.566H547.605ZM545.551 33.1487V22.566H540.051V29.4935C540.051 30.8163 540.051 32.0347 540.016 33.1487H545.551ZM560.833 23.9933H570.198V21.9394C570.198 21.3476 570.128 20.6514 569.989 19.6419C573.122 19.9552 573.574 20.1989 573.574 20.5818C573.574 20.8255 573.4 21.0343 572.356 21.4869V23.9933H582.242C583.356 22.7401 583.496 22.6357 583.704 22.6357C583.913 22.6357 584.157 22.7749 585.549 24.0281C586.176 24.6199 586.28 24.794 586.28 25.0028C586.28 25.4206 585.967 25.5946 584.923 25.5946C584.47 25.5946 584.157 25.7687 583.809 26.082C583.182 26.639 582.382 27.4048 581.407 28.0662C581.233 28.2055 580.954 28.0314 581.059 27.8574C581.581 26.8478 581.964 25.9079 582.347 24.8636H575.489V29.3542C575.489 30.6771 575.698 31.0252 579.249 31.0252C581.546 31.0252 582.625 30.9207 583.113 30.5726C583.67 30.1897 583.983 29.5979 584.575 27.7877C584.644 27.5789 584.992 27.6485 584.992 27.8574C584.958 28.484 584.923 29.3194 584.923 29.7372C584.923 30.2245 585.027 30.3638 585.515 30.4682C585.863 30.5726 586.037 30.8859 586.037 31.2689C586.037 31.8955 585.271 32.3132 584.227 32.5569C583.287 32.7309 581.79 32.8354 578.587 32.8354C574.271 32.8354 573.435 32.0347 573.435 29.8068C573.435 29.3542 573.505 28.9017 573.505 27.6485V24.8636H569.153C568.457 30.7467 565.254 33.5664 557.84 34.6804C557.631 34.7152 557.491 34.2278 557.7 34.1582C564.071 32.2784 566.334 29.772 566.96 24.8636H560.833C560.694 27.4744 559.545 29.215 557.979 29.215C557.248 29.215 556.691 28.6232 556.691 27.9618C556.691 27.3004 556.969 26.9523 557.666 26.6041C559.232 25.8383 560.137 24.4458 560.242 22.5312C560.242 22.3224 560.659 22.3224 560.694 22.5312C560.764 23.0534 560.833 23.5408 560.833 23.9933ZM575.837 38.5792L569.745 38.6489C569.362 40.8768 568.631 42.7914 567.482 44.4623C565.324 47.5606 561.634 49.6144 556.447 50.8328C556.238 50.8676 556.064 50.3803 556.273 50.3106C560.102 48.953 562.887 47.108 564.767 44.7756C566.16 43.1395 567.065 41.1901 567.517 38.6837L561.53 38.7533C560.311 38.7533 559.789 38.8229 558.954 38.997L558.605 37.6393C559.719 37.8134 560.311 37.8482 561.669 37.8482L567.622 37.7786C567.761 36.8039 567.796 36.1773 567.796 35.307C567.796 34.4367 567.726 33.5664 567.622 32.8702C570.65 33.2183 571.242 33.3575 571.242 33.8797C571.242 34.2278 570.963 34.4367 570.024 34.8196C570.024 35.864 569.954 36.8387 569.849 37.7786L575.524 37.709C576.394 36.6646 576.638 36.5254 576.847 36.5254C577.09 36.5254 577.369 36.6646 578.448 37.6393C578.796 37.9526 578.866 38.1615 578.866 38.3356C578.866 38.5792 578.761 38.7533 577.891 39.2406C577.821 40.4939 577.752 45.82 577.752 46.6903C577.752 47.665 577.995 47.9087 580.467 47.9087C582.73 47.9087 583.496 47.839 584.018 47.2821C584.331 46.9339 584.958 45.6459 585.619 43.2788C585.689 43.0699 586.037 43.1395 586.037 43.3484C585.967 44.3927 585.828 45.994 585.828 46.6555C585.828 47.108 585.967 47.2473 586.28 47.3865C586.663 47.5606 586.803 47.7694 586.803 48.1872C586.803 48.7789 586.211 49.2315 585.236 49.4752C584.331 49.7189 582.799 49.8581 580.467 49.8581C576.081 49.8581 575.628 49.1271 575.628 47.2124C575.628 46.5858 575.802 40.459 575.837 38.5792ZM617.228 31.9303V41.016C617.228 45.5763 617.367 48.5701 617.367 49.4752C617.367 50.2062 616.949 50.5543 615.974 50.5543C615.243 50.5543 614.965 50.2758 614.965 49.684C614.965 49.0574 615.104 46.8643 615.104 42.0952V31.9303H610.091C609.952 36.4557 609.43 39.4147 608.525 41.9559C607.306 45.263 605.287 47.839 601.389 50.6936C601.214 50.798 600.866 50.4499 601.006 50.3106C604.139 47.2124 605.74 44.6712 606.715 41.4338C607.585 38.5444 607.968 35.1329 607.968 29.3194C607.968 26.3605 607.968 25.525 607.759 23.6452C608.734 24.0281 609.43 24.411 610.3 24.9332C612.633 24.1325 615.243 22.7053 616.88 21.5913C617.75 20.9995 618.342 20.5122 618.829 19.9204C621.057 21.6958 621.335 22.0091 621.335 22.3224C621.335 22.6008 620.813 22.7749 619.595 22.4616C616.775 23.9237 613.816 24.968 610.126 25.7339V28.8669C610.126 29.6327 610.126 30.3638 610.091 31.06H618.585C619.943 29.4239 620.117 29.3194 620.291 29.3194C620.5 29.3194 620.709 29.4239 622.206 30.6423C622.902 31.1992 623.006 31.3733 623.006 31.5822C623.006 31.791 622.867 31.9303 622.519 31.9303H617.228ZM602.328 36.6646H595.366C595.227 39.3451 594.879 41.3641 594.391 43.1743C593.591 45.994 592.407 48.0827 590.249 50.6588C590.11 50.798 589.762 50.5543 589.866 50.3803C591.363 47.8042 592.059 45.6807 592.686 42.687C593.208 40.1806 593.417 37.3956 593.417 31.9303C593.417 28.5536 593.382 27.6833 593.208 26.1864C594.183 26.6041 594.809 26.9523 595.784 27.5092H602.05C603.025 26.4997 603.164 26.3953 603.338 26.3953C603.512 26.3953 603.721 26.4649 604.661 27.3352C605.183 27.8225 605.253 27.9618 605.253 28.1358C605.253 28.3447 605.113 28.5536 604.347 29.0409V31.5822C604.347 35.6203 604.452 37.1868 604.452 37.709C604.452 38.3704 604.034 38.6489 603.234 38.6489C602.572 38.6489 602.328 38.44 602.328 37.883V36.6646ZM602.328 35.7943V28.3795H595.505V31.7214C595.505 33.2531 595.471 34.5759 595.436 35.7943H602.328ZM591.781 23.0186L591.432 21.6958C592.512 21.8698 593.103 21.9046 594.113 21.9046H603.025C604.347 20.3729 604.522 20.2685 604.73 20.2685C604.905 20.2685 605.113 20.3729 606.575 21.5217C607.272 22.0439 607.341 22.2527 607.341 22.4616C607.341 22.6357 607.237 22.7749 606.889 22.7749H594.113C593.278 22.7749 592.721 22.8097 591.781 23.0186Z" fill="black"/>
<path d="M104.159 75.9234V72.8224H105.709V75.9234H104.159ZM104.159 77.4922H102.59V75.9234H104.159V77.4922ZM97.9202 79.0428H101.04V77.4922H102.59V86.8322H101.04V80.5932H97.9202V79.0428ZM97.9202 82.162H94.8008V80.5932H97.9202V82.162ZM113.48 74.3729H116.599V75.9234H113.48V74.3729ZM119.719 75.9234V77.4922H116.599V75.9234H119.719ZM124.389 79.0428V75.9234H125.958V79.0428H124.389ZM124.389 82.162H122.838V79.0428H124.389V82.162ZM122.838 83.7126H121.269V82.162H122.838V83.7126ZM121.269 85.2809H118.169V83.7126H121.269V85.2809ZM118.169 86.8322H115.049V85.2809H118.169V86.8322ZM136.848 72.8224V74.3729H143.068V80.5932H141.518V75.9234H136.848V77.4922H135.279V72.8224H136.848ZM135.279 79.0428H133.728V77.4922H135.279V79.0428ZM136.848 79.0428V77.4922H138.398V79.0428H136.848ZM133.728 80.5932H132.159V79.0428H133.728V80.5932ZM138.398 80.5932V79.0428H139.949V80.5932H138.398ZM141.518 83.7126H139.949V80.5932H141.518V83.7126ZM139.949 85.2809H136.848V83.7126H139.949V85.2809ZM136.848 86.8322H132.159V85.2809H136.848V86.8322ZM150.839 79.0428V77.4922H152.408V79.0428H150.839ZM152.408 80.5932V79.0428H163.316V80.5932H152.408ZM180.426 77.4922H178.876V79.0428H177.307V77.4922H169.518V75.9234H174.206V72.8224H175.757V75.9234H180.426V77.4922ZM175.757 80.5932V79.0428H177.307V80.5932H175.757ZM174.206 82.162H172.637V80.5932H175.757V86.8322H174.206V82.162ZM177.307 82.162V80.5932H178.876V82.162H177.307ZM172.637 83.7126H167.967V82.162H172.637V83.7126ZM178.876 83.7126V82.162H180.426V83.7126H178.876ZM180.426 85.2809V83.7126H181.996V85.2809H180.426ZM189.766 77.4922H191.316V82.162H189.766V77.4922ZM192.886 77.4922H194.436V82.162H192.886V77.4922ZM197.555 83.7126V77.4922H199.106V83.7126H197.555ZM197.555 85.2809H195.986V83.7126H197.555V85.2809ZM195.986 86.8322H191.316V85.2809H195.986V86.8322ZM209.996 72.8224V77.4922H211.565V79.0428H209.996V86.8322H208.445V72.8224H209.996ZM211.565 80.5932V79.0428H214.666V80.5932H211.565ZM214.666 82.162V80.5932H217.785V82.162H214.666ZM228.675 75.9234V74.3729H234.914V75.9234H231.794V80.5932H230.244V75.9234H228.675ZM227.125 75.9234H228.675V77.4922H227.125V75.9234ZM234.914 77.4922V75.9234H236.464V77.4922H234.914ZM225.556 77.4922H227.125V79.0428H225.556V77.4922ZM236.464 83.7126V77.4922H238.033V83.7126H236.464ZM224.005 83.7126V79.0428H225.556V83.7126H224.005ZM230.244 83.7126H228.675V80.5932H230.244V83.7126ZM228.675 85.2809H225.556V83.7126H228.675V85.2809ZM236.464 85.2809H234.914V83.7126H236.464V85.2809ZM234.914 86.8322H231.794V85.2809H234.914V86.8322ZM258.263 71.2536V74.3729H256.694V72.8224H255.143V77.4922H253.593V72.8224H252.024V75.9234H250.474V72.8224H247.354V75.9234H245.804V71.2536H258.263ZM241.134 74.3729V72.8224H242.684V74.3729H241.134ZM244.253 75.9234H242.684V74.3729H244.253V75.9234ZM250.474 77.4922H248.923V75.9234H250.474V77.4922ZM241.134 79.0428V77.4922H242.684V79.0428H241.134ZM248.923 79.0428H245.804V77.4922H248.923V79.0428ZM258.263 77.4922V79.0428H255.143V77.4922H258.263ZM244.253 80.5932H242.684V79.0428H244.253V80.5932ZM252.024 79.0428H253.593V80.5932H258.263V82.162H253.593V88.3825H252.024V83.7126H250.474V82.162H245.804V80.5932H252.024V79.0428ZM244.253 85.2631H242.684V82.162H244.253V85.2631ZM250.474 85.2631H248.923V83.7126H250.474V85.2631ZM255.143 85.2631V83.7126H256.694V85.2631H255.143ZM242.684 88.3825H241.134V85.2631H242.684V88.3825ZM248.923 86.8322H245.804V85.2631H248.923V86.8322ZM258.263 86.8322H256.694V85.2631H258.263V86.8322ZM261.364 83.7126V71.2536H276.942V82.162H275.373V88.3825H266.033V82.162H264.483V75.9234H262.933V83.7126H261.364ZM262.933 74.3729H275.373V72.8224H262.933V74.3729ZM266.033 75.9234V77.4922H270.703V75.9234H266.033ZM272.272 77.4922H275.373V75.9234H272.272V77.4922ZM270.703 80.5932V79.0428H266.033V80.5932H270.703ZM272.272 80.5932H275.373V79.0428H272.272V80.5932ZM267.603 83.7126H273.823V82.162H267.603V83.7126ZM261.364 86.8322H259.813V83.7126H261.364V86.8322ZM267.603 86.8322H273.823V85.2631H267.603V86.8322ZM280.043 75.9234V74.3547L294.071 74.3729V75.9234H289.382V77.4922H287.832V75.9234H280.043ZM287.832 79.0428H286.282V77.4922H287.832V79.0428ZM290.952 79.0428V77.4922H292.502V79.0428H290.952ZM286.282 83.7126H284.713V79.0428H286.282V83.7126ZM289.382 79.0428V80.5932H287.832V79.0428H289.382ZM294.071 80.5932H292.502V79.0428H294.071V80.5932ZM290.952 80.5932V82.162H289.382V80.5932H290.952ZM287.832 83.7126V85.2809H286.282V83.7126H287.832ZM290.952 85.2809V86.8322H287.832V85.2809H290.952ZM300.273 85.2809V83.7126H301.842V85.2809H300.273ZM301.842 86.8322V85.2809H303.392V86.8322H301.842ZM328.31 79.0428V74.3729H329.86V79.0428H328.31ZM328.31 82.162H326.741V79.0428H328.31V82.162ZM326.741 83.7126H325.191V82.162H326.741V83.7126ZM325.191 85.2809H322.071V83.7126H325.191V85.2809ZM322.071 86.8322H318.952V85.2809H322.071V86.8322ZM346.989 75.9234V72.8224H348.54V75.9234H346.989ZM346.989 77.4922H345.42V75.9234H346.989V77.4922ZM340.75 79.0428H343.87V77.4922H345.42V86.8322H343.87V80.5932H340.75V79.0428ZM340.75 82.162H337.631V80.5932H340.75V82.162ZM360.999 72.8224V71.2718H362.549V72.8224H360.999ZM365.669 72.8224V71.2718H367.219V72.8224H365.669ZM364.099 74.3729H365.669V79.0428H364.099V75.9234H356.31V74.3729H362.549V72.8224H364.099V74.3729ZM367.219 74.3729V72.8224H368.788V74.3729H367.219ZM362.549 82.162V79.0428H364.099V82.162H362.549ZM362.549 83.7126H360.999V82.162H362.549V83.7126ZM364.099 83.7126V82.162H365.669V83.7126H364.099ZM360.999 85.2809H357.879V83.7126H360.999V85.2809ZM367.219 86.8322H365.669V83.7126H367.219V86.8322ZM357.879 86.8322H354.76V85.2809H357.879V86.8322ZM379.678 75.9234V77.4922H381.228V79.0428H378.109V75.9234H374.989V74.3729H379.678V72.8224H381.228V74.3729H385.898V75.9234H379.678ZM384.348 77.4922H387.467V79.0428H384.348V77.4922ZM378.109 80.5932H376.559V79.0428H378.109V80.5932ZM384.348 79.0428V83.7126H382.779V80.5932H381.228V79.0428H384.348ZM376.559 82.162H374.989V80.5932H376.559V82.162ZM381.228 82.162H379.678V80.5932H381.228V82.162ZM379.678 85.2809H378.109V82.162H379.678V85.2809ZM385.898 85.2809V86.8322H379.678V85.2809H385.898ZM407.697 72.8224V74.3729H403.027V75.9234H401.458V74.3729H398.357V75.9234H396.788V74.3729H390.568V72.8224H398.357V69.7031H399.908V72.8224H407.697ZM396.788 75.9234V77.4922H403.027V75.9234H404.577V77.4922H406.128V79.0428H404.577V88.3825H401.458V86.8322H403.027V85.2631H395.238V88.3825H393.687V79.0428H390.568V77.4922H395.238V75.9234H396.788ZM395.238 80.5932H403.027V79.0428H395.238V80.5932ZM407.697 79.0428V80.5932H406.128V79.0428H407.697ZM395.238 83.7126H403.027V82.162H395.238V83.7126ZM424.826 74.3729V75.9234H420.137V77.4922H418.587V75.9234H410.798V74.3547L424.826 74.3729ZM417.036 79.0428V77.4922H418.587V79.0428H417.036ZM417.036 83.7126H415.467V79.0428H417.036V83.7126ZM417.036 83.7126H418.587V85.2809H417.036V83.7126ZM418.587 85.2809H421.706V86.8322H418.587V85.2809ZM440.386 74.3729H438.816V75.9234H437.266V74.3729H432.596V72.8224H440.386V74.3729ZM437.266 75.9234V77.4922H438.816V79.0428H434.147V77.4922H435.716V75.9234H437.266ZM434.147 80.5932H431.027V79.0428H434.147V80.5932ZM438.816 80.5932V79.0428H440.386V80.5932H438.816ZM440.386 83.7126V80.5932H441.936V83.7126H440.386ZM434.147 82.162H437.266V83.7126H434.147V82.162ZM432.596 85.2809V83.7126H434.147V85.2809H432.596ZM434.147 85.2809H437.266V83.7126H440.386V85.2809H438.816V86.8322H434.147V85.2809ZM463.735 72.8224V75.9234H462.166V74.3729H455.945V75.9234H460.615V77.4922H455.945V79.0428H460.615V80.5932H455.945V82.162H463.735V83.7126H457.496V85.2631H455.945V83.7126H454.395V85.2631H452.826V83.7126H446.606V82.162H454.395V80.5932H449.725V79.0428H454.395V77.4922H449.725V75.9234H454.395V74.3729H448.156V75.9234H446.606V72.8224H454.395V69.7031H455.945V72.8224H463.735ZM452.826 86.8322H449.725V85.2631H452.826V86.8322ZM460.615 85.2631V86.8322H457.496V85.2631H460.615ZM449.725 88.3825H446.606V86.8322H449.725V88.3825ZM463.735 86.8322V88.3825H460.615V86.8322H463.735ZM482.414 72.8224V75.9234H477.744V77.4922H482.414V83.7126H477.744V85.2631H476.175V83.7126H473.074V77.4922H476.175V75.9234H469.955V77.4922H471.505V79.0428H469.955V80.5932H471.505V86.8322H469.955V82.162H465.285V71.2536H471.505V72.8224H469.955V74.3729H473.074V72.8224H474.625V74.3729H480.845V72.8224H482.414ZM474.625 71.2536H480.845V72.8224H474.625V71.2536ZM466.835 74.3729H468.404V72.8224H466.835V74.3729ZM466.835 77.4922H468.404V75.9234H466.835V77.4922ZM466.835 80.5932H468.404V79.0428H466.835V80.5932ZM474.625 82.162H476.175V79.0428H474.625V82.162ZM480.845 82.162V79.0428H477.744V82.162H480.845ZM465.285 83.7126H468.404V85.2631H465.285V83.7126ZM476.175 86.8322H474.625V85.2631H476.175V86.8322ZM479.294 85.2631V86.8322H477.744V85.2631H479.294ZM469.955 88.3825H466.835V86.8322H469.955V88.3825ZM474.625 88.3825H471.505V86.8322H474.625V88.3825ZM482.414 86.8322V88.3825H479.294V86.8322H482.414ZM488.634 77.4922H487.084V85.2631H490.184V86.8322H483.964V85.2631H485.515V77.4922H483.964V75.9234H485.515V71.2536H487.084V75.9234H488.634V77.4922ZM501.093 77.4922V79.0428H493.304V80.5932H501.093V86.8322H499.524V82.162H497.974V83.7126H496.423V82.162H493.304V83.7126H491.753V82.162H488.634V80.5932H491.753V79.0428H490.184V71.2536H499.524V77.4922H501.093ZM497.974 72.8224H491.753V74.3729H497.974V72.8224ZM491.753 75.9234V77.4922H497.974V75.9234H491.753ZM491.753 85.2631H490.184V83.7126H491.753V85.2631ZM496.423 85.2631H494.854V83.7126H496.423V85.2631ZM494.854 86.8322H493.304V85.2631H494.854V86.8322ZM493.304 88.3825H491.753V86.8322H493.304V88.3825ZM499.524 88.3825H496.423V86.8322H499.524V88.3825Z" fill="black"/>
<path d="M28 45.959V37.459H13.8223V34.6035H25.1777V28.959H13.8223V26.1035H25.1777V20.459H28V26.1035H36.5V28.959H28V34.6035H39.3555V37.459H30.8223V45.959H28ZM67.6777 31.7812V23.2812H70.5V31.7812H67.6777ZM67.6777 37.459H64.8223V31.7812H67.6777V37.459ZM64.8223 40.2812H62V37.459H64.8223V40.2812ZM62 43.1367H56.3223V40.2812H62V43.1367ZM56.3223 45.959H50.6445V43.1367H56.3223V45.959ZM104.5 45.959H84.6445V43.1035H101.678V26.1035H84.6445V23.2812H104.5V45.959ZM127.178 20.459V23.2812H138.5V34.6035H135.678V26.1035H127.178V28.959H124.322V20.459H127.178ZM124.322 31.7812H121.5V28.959H124.322V31.7812ZM127.178 31.7812V28.959H130V31.7812H127.178ZM121.5 34.6035H118.645V31.7812H121.5V34.6035ZM130 34.6035V31.7812H132.822V34.6035H130ZM135.678 40.2812H132.822V34.6035H135.678V40.2812ZM132.822 43.1367H127.178V40.2812H132.822V43.1367ZM127.178 45.959H118.645V43.1367H127.178V45.959ZM158.322 20.459V26.1035H175.355V28.959H166.822V40.2812H164V28.959H155.5V20.459H158.322ZM155.5 34.6035H152.645V28.959H155.5V34.6035ZM164 43.1367H161.178V40.2812H164V43.1367ZM161.178 45.959H155.5V43.1367H161.178V45.959ZM203.678 31.7812V23.2812H206.5V31.7812H203.678ZM203.678 37.459H200.822V31.7812H203.678V37.459ZM200.822 40.2812H198V37.459H200.822V40.2812ZM198 43.1367H192.322V40.2812H198V43.1367ZM192.322 45.959H186.645V43.1367H192.322V45.959ZM240.5 45.959H220.645V43.1035H237.678V26.1035H220.645V23.2812H240.5V45.959Z" fill="black"/>
</svg>
