<svg width="561" height="119" viewBox="0 0 561 119" fill="none" xmlns="http://www.w3.org/2000/svg">
<path d="M65.3574 98.7707H69.1887V97.0464C69.1887 95.2633 69.1561 94.0448 69.0907 93.3915C69.9597 93.4829 70.5178 93.5679 70.7661 93.6463C70.9751 93.7116 71.0797 93.8063 71.0797 93.9305C71.0797 94.0807 70.851 94.2571 70.3937 94.4597V98.7707H71.7167C72.3635 98.0068 72.7321 97.6246 72.8236 97.6246C72.9216 97.6246 73.3299 97.9121 74.0486 98.4865C74.3818 98.7609 74.5484 98.9569 74.5484 99.0745C74.5484 99.2052 74.4537 99.2705 74.2642 99.2705H70.3937C70.4133 102.217 70.4394 104.317 70.4721 105.571C70.4721 105.93 70.2238 106.11 69.7277 106.11C69.3684 106.11 69.1887 105.963 69.1887 105.669V104.767H65.3574V105.63C65.3574 105.995 65.0961 106.178 64.5739 106.178C64.2276 106.178 64.0545 106.038 64.0545 105.757C64.1067 104.255 64.1329 102.092 64.1329 99.2705H60.2329V109.049H70.5701C71.2561 108.246 71.6513 107.844 71.7559 107.844C71.8539 107.844 72.2557 108.145 72.9608 108.745C73.3332 109.072 73.5194 109.281 73.5194 109.372C73.5194 109.49 73.4345 109.549 73.2646 109.549H60.2329V110.47C60.2329 110.862 59.9716 111.058 59.4494 111.058C59.077 111.058 58.8908 110.898 58.8908 110.578C58.9692 108.076 59.0084 104.774 59.0084 100.672V99.2705H57.705C57.1109 99.2705 56.5817 99.3097 56.1179 99.3881L55.9219 98.6335C56.5948 98.725 57.1893 98.7707 57.705 98.7707H59.0084C59.0084 96.0076 58.9692 94.2898 58.8908 93.6169C59.8577 93.7279 60.4453 93.8194 60.6543 93.8913C60.8307 93.9435 60.9189 94.0383 60.9189 94.1755C60.9189 94.3388 60.6903 94.5119 60.2329 94.6949V98.7707H64.1329V98.6335C64.1329 95.7794 64.1067 94.0317 64.0545 93.3915C64.9365 93.496 65.4913 93.5842 65.72 93.6561C65.9225 93.7214 66.0238 93.8129 66.0238 93.9305C66.0238 94.0807 65.8017 94.2506 65.3574 94.4401V98.7707ZM65.3574 99.2705V104.268H69.1887V99.2705H65.3574ZM80.0742 101.093V101.436C80.0742 101.795 79.8264 101.975 79.3299 101.975C78.9836 101.975 78.8105 101.828 78.8105 101.534L78.8693 97.066C78.8693 95.2894 78.8431 94.0775 78.7909 93.4307C79.2547 93.6201 79.7415 93.8749 80.2506 94.1951H90.1859C90.5975 93.7508 90.8425 93.5287 90.9209 93.5287C91.032 93.5287 91.2999 93.7018 91.7245 94.0481C91.9532 94.231 92.0675 94.378 92.0675 94.4891C92.0675 94.6524 91.8944 94.8484 91.5482 95.0771V96.9288L91.6266 101.377C91.6266 101.776 91.3717 101.975 90.8622 101.975C90.5028 101.975 90.3232 101.815 90.3232 101.495V101.093H86.4923C87.4984 102.321 88.6478 103.239 89.9414 103.846C91.1627 104.447 92.7008 104.856 94.5563 105.071C94.6086 105.078 94.6347 105.114 94.6347 105.179C94.6347 105.257 94.602 105.3 94.5367 105.306C94.112 105.385 93.8115 105.653 93.6351 106.11C93.5632 106.312 93.4685 106.413 93.3509 106.413C93.1745 106.413 92.9262 106.361 92.6061 106.257C91.607 105.943 90.5779 105.44 89.52 104.748C89.3436 104.637 89.1313 104.49 88.883 104.307C88.8961 104.333 88.9026 104.366 88.9026 104.405C88.9026 104.542 88.7001 104.689 88.295 104.846V106.57L88.3734 110.627C88.3734 111.025 88.1121 111.224 87.5894 111.224C87.2175 111.224 87.0313 111.051 87.0313 110.705L87.0901 107.05C87.0901 105.502 87.0574 104.447 86.9921 103.885C87.952 104.016 88.5269 104.114 88.7164 104.179C87.7168 103.402 86.8092 102.373 85.9925 101.093H84.4249C84.2224 101.42 83.9807 101.766 83.6997 102.132C83.2228 102.739 82.6217 103.331 81.897 103.905C82.7001 103.983 83.2163 104.062 83.445 104.14C83.6279 104.199 83.7193 104.287 83.7193 104.405C83.7193 104.542 83.5201 104.696 83.1215 104.865L83.0823 105.453C82.9321 107.047 82.436 108.305 81.5932 109.225C80.6981 110.219 79.2809 110.927 77.3409 111.352C77.2364 111.371 77.1841 111.312 77.1841 111.175C77.1841 111.129 77.2037 111.1 77.2429 111.087C79.0195 110.375 80.2702 109.425 80.9954 108.236C81.5573 107.295 81.8382 106.185 81.8382 104.905C81.8382 104.591 81.8121 104.29 81.7598 104.003C80.2049 105.172 78.3695 106.002 76.2531 106.492C76.1486 106.511 76.0963 106.436 76.0963 106.266C76.0963 106.214 76.1159 106.181 76.1551 106.168C77.7553 105.64 79.1927 104.875 80.4662 103.876C81.5573 103.02 82.4033 102.092 83.0039 101.093H80.0742ZM80.0742 100.594H84.5229V97.85H80.0742V100.594ZM90.3232 100.594V97.85H85.7083V100.594H90.3232ZM80.0742 97.3502H84.5229V94.6949H80.0742V97.3502ZM85.7083 94.6949V97.3502H90.3232V94.6949H85.7083ZM102.816 98.2616C101.895 98.3727 101.252 98.4277 100.886 98.4277C100.324 98.4277 99.88 98.34 99.5534 98.1636C99.2593 98.0003 98.9817 97.7259 98.7203 97.3404C98.655 97.2293 98.6224 97.1379 98.6224 97.066C98.6224 96.8896 98.6811 96.8014 98.7987 96.8014C98.8967 96.8014 99.0046 96.8635 99.1222 96.9876C99.3835 97.2359 99.6514 97.3992 99.9258 97.4776C100.134 97.5364 100.428 97.5658 100.807 97.5658C101.532 97.5658 102.362 97.458 103.296 97.2424C103.518 96.772 103.721 96.2624 103.904 95.7141C103.995 95.407 104.041 95.162 104.041 94.9791C104.041 94.6132 103.626 94.4303 102.796 94.4303C102.646 94.4303 102.571 94.3976 102.571 94.3323C102.571 94.2277 102.646 94.1265 102.796 94.0285C102.992 93.9109 103.237 93.8521 103.531 93.8521C103.871 93.8521 104.269 93.9599 104.727 94.1755C105.314 94.4499 105.608 94.7504 105.608 95.0771C105.608 95.2731 105.527 95.4201 105.363 95.5181C105.161 95.6487 104.988 95.8611 104.844 96.1546C104.766 96.3049 104.612 96.5923 104.384 97.017C105.102 96.7949 105.716 96.5433 106.226 96.2624C106.657 96.0207 107 95.8998 107.255 95.8998C107.457 95.8998 107.623 95.9553 107.754 96.0664C107.859 96.1644 107.911 96.2755 107.911 96.3996C107.911 96.5564 107.859 96.6773 107.754 96.7622C107.669 96.8406 107.51 96.9255 107.274 97.017C106.124 97.4678 104.972 97.8239 103.815 98.0852C103.025 99.4698 102.365 100.541 101.836 101.299L101.875 101.338C102.731 100.665 103.548 100.329 104.325 100.329C105.455 100.329 106.049 100.926 106.108 102.122C106.134 102.442 106.147 102.716 106.147 102.945C108.068 101.795 109.453 100.936 110.302 100.368C110.445 100.27 110.517 100.156 110.517 100.025C110.517 99.9337 110.458 99.8487 110.341 99.7703C110.158 99.6462 109.923 99.5645 109.636 99.5253C109.518 99.5057 109.459 99.4665 109.459 99.4077C109.459 99.3097 109.551 99.2281 109.734 99.1627C109.884 99.1105 110.06 99.0843 110.262 99.0843C110.726 99.0843 111.22 99.2444 111.742 99.5645C112.291 99.9043 112.565 100.221 112.565 100.515C112.565 100.77 112.431 100.91 112.164 100.936C111.935 100.969 111.736 101.021 111.566 101.093C110.514 101.531 109.296 102.119 107.911 102.857C107.702 102.974 107.395 103.151 106.99 103.386C106.572 103.621 106.291 103.781 106.147 103.866L106.167 106.756C106.167 107.266 105.984 107.521 105.618 107.521C105.461 107.521 105.327 107.465 105.216 107.354C105.112 107.25 105.06 107.125 105.06 106.982C105.06 106.76 105.07 106.374 105.089 105.826C105.109 105.27 105.122 104.816 105.128 104.464C104.22 104.973 103.574 105.408 103.188 105.767C102.62 106.309 102.336 106.877 102.336 107.472C102.336 108.464 103.11 108.961 104.658 108.961C105.781 108.961 106.794 108.909 107.695 108.804C108.048 108.758 108.414 108.69 108.793 108.598C109.146 108.52 109.4 108.481 109.557 108.481C109.93 108.481 110.236 108.575 110.478 108.765C110.681 108.915 110.782 109.088 110.782 109.284C110.782 109.644 110.393 109.859 109.616 109.931C108.636 110.009 107.372 110.049 105.824 110.049C103.041 110.049 101.65 109.232 101.65 107.599C101.65 106.717 102.039 105.907 102.816 105.169C103.28 104.731 104.057 104.183 105.148 103.523C105.148 103.118 105.148 102.837 105.148 102.68C105.161 101.981 105.067 101.498 104.864 101.23C104.707 101.028 104.475 100.926 104.168 100.926C103.397 100.926 102.545 101.367 101.611 102.249C101.016 102.831 100.415 103.549 99.8082 104.405C99.671 104.607 99.5011 104.709 99.2986 104.709C99.1483 104.709 99.0176 104.643 98.9066 104.513C98.8085 104.395 98.7595 104.255 98.7595 104.091C98.7595 103.836 98.9523 103.506 99.3378 103.102C100.121 102.298 100.797 101.488 101.366 100.672C101.823 100.025 102.307 99.2215 102.816 98.2616ZM132.22 92.4609C132.299 92.4609 132.407 92.4805 132.544 92.5197C133.04 92.6504 133.517 92.8725 133.974 93.1861C134.575 93.6038 134.876 94.035 134.876 94.4793C134.876 94.6491 134.82 94.7863 134.709 94.8909C134.624 94.9758 134.526 95.0183 134.415 95.0183C134.193 95.0183 133.971 94.8386 133.749 94.4793C133.396 93.8521 132.847 93.3135 132.103 92.8627C132.051 92.8301 132.024 92.7647 132.024 92.6667C132.024 92.5295 132.09 92.4609 132.22 92.4609ZM130.545 93.7149C130.636 93.7149 130.701 93.7214 130.741 93.7345C131.348 93.9501 131.845 94.2179 132.23 94.5381C132.805 95.0019 133.092 95.4364 133.092 95.8415C133.092 96.2265 132.926 96.4192 132.593 96.4192C132.377 96.4192 132.155 96.2003 131.926 95.7631C131.626 95.1816 131.129 94.6393 130.437 94.1363C130.358 94.0775 130.319 94.0121 130.319 93.9403C130.319 93.79 130.394 93.7149 130.545 93.7149ZM122.422 96.1644C122.677 96.1644 123.232 96.1383 124.088 96.086C125.101 95.988 126.015 95.8737 126.831 95.7435C127.374 95.6585 127.749 95.5703 127.958 95.4789C128.245 95.3613 128.487 95.3025 128.683 95.3025C129.062 95.3025 129.356 95.3678 129.565 95.4985C129.859 95.6945 130.006 95.8965 130.006 96.1056C130.006 96.3669 129.804 96.5205 129.399 96.5662C128.046 96.6903 126.155 96.8439 123.725 97.0268C123.163 97.0791 122.735 97.1052 122.442 97.1052C121.958 97.1052 121.524 96.9517 121.139 96.6446C120.655 96.2526 120.413 95.9325 120.413 95.6847C120.413 95.4952 120.488 95.4005 120.639 95.4005C120.678 95.4005 120.763 95.4527 120.894 95.5573C121.41 95.9619 121.919 96.1644 122.422 96.1644ZM125.009 100.731C123.533 100.842 122.207 101.001 121.031 101.21C120.475 101.315 120.13 101.41 119.992 101.495C119.849 101.586 119.679 101.632 119.483 101.632C119.13 101.632 118.745 101.433 118.326 101.034C117.882 100.636 117.66 100.303 117.66 100.035C117.66 99.8063 117.712 99.6919 117.817 99.6919C117.869 99.6919 117.931 99.7181 118.003 99.7703C118.526 100.208 118.98 100.427 119.365 100.427C119.659 100.427 119.986 100.407 120.345 100.368C121.455 100.244 123.095 100.09 125.263 99.9075L129.781 99.5253C130.198 99.4861 130.486 99.4175 130.643 99.3195C130.845 99.1889 131.028 99.1235 131.191 99.1235C131.59 99.1235 132.038 99.264 132.534 99.5449C132.854 99.7344 133.014 99.95 133.014 100.192C133.014 100.473 132.86 100.613 132.554 100.613C132.39 100.613 132.145 100.597 131.819 100.564C131.518 100.538 131.28 100.522 131.103 100.515C130.79 100.502 130.443 100.496 130.065 100.496C129.679 100.496 129.33 100.502 129.016 100.515C128.18 100.528 127.171 100.574 125.989 100.652C126.59 101.011 126.89 101.312 126.89 101.553C126.89 101.658 126.851 101.766 126.773 101.877C126.642 102.04 126.56 102.181 126.528 102.298C126.168 103.807 125.479 105.264 124.46 106.668C123.369 108.132 122.079 109.304 120.59 110.186C120.453 110.264 120.328 110.303 120.217 110.303C120.068 110.303 119.992 110.222 119.992 110.058C119.992 109.96 120.058 109.862 120.188 109.764C121.593 108.673 122.716 107.449 123.559 106.09C124.362 104.829 124.931 103.506 125.263 102.122C125.316 101.893 125.342 101.691 125.342 101.514C125.342 101.194 125.231 100.933 125.009 100.731ZM151.631 93.5091C151.709 93.5091 151.817 93.5287 151.954 93.5679C152.45 93.6985 152.927 93.9207 153.384 94.2343C153.985 94.6524 154.286 95.0803 154.286 95.5181C154.286 95.6879 154.23 95.8251 154.119 95.9292C154.034 96.0141 153.936 96.0566 153.825 96.0566C153.603 96.0566 153.381 95.8769 153.159 95.5181C152.806 94.8974 152.258 94.3617 151.513 93.9109C151.461 93.8717 151.435 93.8031 151.435 93.7051C151.435 93.5744 151.5 93.5091 151.631 93.5091ZM149.955 94.7537C150.047 94.7537 150.112 94.7602 150.151 94.7733C150.758 94.9889 151.255 95.2567 151.64 95.5769C152.215 96.0403 152.503 96.4747 152.503 96.8798C152.503 97.2653 152.336 97.458 152.003 97.458C151.787 97.458 151.565 97.2391 151.337 96.8014C151.036 96.2199 150.539 95.6781 149.847 95.1751C149.769 95.1163 149.73 95.0477 149.73 94.9693C149.73 94.8255 149.805 94.7537 149.955 94.7537ZM141.078 96.5074C140.973 96.4225 140.921 96.3408 140.921 96.2624C140.921 96.1252 141.022 96.0566 141.225 96.0566C141.774 96.0566 142.42 96.2722 143.165 96.7034C143.968 97.1542 144.37 97.6344 144.37 98.144C144.37 98.3918 144.285 98.5878 144.115 98.7315C143.985 98.8491 143.831 98.9079 143.655 98.9079C143.433 98.9079 143.224 98.7675 143.028 98.4865C142.551 97.7422 141.901 97.0823 141.078 96.5074ZM141.244 107.315C141.421 107.315 141.695 107.214 142.068 107.011C144.008 105.979 145.974 104.689 147.966 103.141C149.553 101.9 150.945 100.652 152.14 99.3979C152.369 99.1431 152.509 99.0157 152.562 99.0157C152.633 99.0157 152.702 99.0451 152.767 99.1039C152.832 99.1562 152.865 99.215 152.865 99.2803C152.865 99.3522 152.79 99.4927 152.64 99.7017C151.764 100.962 150.36 102.419 148.426 104.072C146.767 105.476 144.841 106.864 142.646 108.236C142.482 108.334 142.349 108.461 142.244 108.618C142.081 108.886 141.881 109.02 141.646 109.02C141.352 109.02 140.957 108.758 140.46 108.236C139.951 107.707 139.696 107.207 139.696 106.737C139.696 106.39 139.765 106.217 139.902 106.217C140.007 106.217 140.118 106.319 140.235 106.521C140.359 106.711 140.529 106.894 140.745 107.07C140.947 107.233 141.114 107.315 141.244 107.315ZM138.609 100.633C138.478 100.567 138.413 100.473 138.413 100.349C138.413 100.218 138.514 100.153 138.716 100.153C139.278 100.153 139.909 100.306 140.607 100.613C141.555 101.031 142.028 101.504 142.028 102.034C142.028 102.569 141.793 102.837 141.323 102.837C141.075 102.837 140.813 102.645 140.539 102.259C140.049 101.599 139.406 101.057 138.609 100.633ZM165.446 97.3012C166.38 97.2685 167.497 97.1281 168.797 96.8798C169.13 96.8275 169.362 96.7426 169.493 96.625C169.656 96.4878 169.819 96.4192 169.983 96.4192C170.179 96.4192 170.459 96.5793 170.825 96.8994C171.197 97.2261 171.384 97.4939 171.384 97.703C171.384 97.8206 171.243 97.9676 170.962 98.144C170.792 98.2355 170.619 98.4179 170.443 98.6923C169.418 100.384 168.607 101.655 168.013 102.504C169.32 103.393 169.973 104.127 169.973 104.709C169.973 105.166 169.793 105.395 169.434 105.395C169.166 105.395 168.865 105.186 168.532 104.767C168.199 104.317 167.778 103.869 167.269 103.425C166.289 104.718 164.979 105.969 163.339 107.178C161.981 108.177 160.579 109.013 159.136 109.686C159.031 109.738 158.933 109.764 158.842 109.764C158.639 109.764 158.538 109.683 158.538 109.519C158.538 109.395 158.603 109.297 158.734 109.225C161.994 107.338 164.571 105.163 166.465 102.7C165.779 102.177 164.937 101.704 163.937 101.279C163.8 101.227 163.731 101.161 163.731 101.083C163.731 100.92 163.806 100.839 163.957 100.839C164.009 100.839 164.127 100.852 164.309 100.878C165.015 101.008 165.939 101.354 167.082 101.916C167.912 100.793 168.705 99.4763 169.463 97.9676C169.502 97.9023 169.522 97.8271 169.522 97.7422C169.522 97.6638 169.47 97.6246 169.365 97.6246C169.274 97.6246 168.588 97.7324 167.308 97.948C166.641 98.0656 166.246 98.1244 166.122 98.1244C165.789 98.1244 165.449 98.0525 165.103 97.9088C163.398 100.254 161.657 102.079 159.881 103.386C159.783 103.451 159.685 103.484 159.587 103.484C159.41 103.484 159.322 103.408 159.322 103.259C159.322 103.141 159.368 103.043 159.459 102.965C161.641 100.913 163.418 98.6662 164.79 96.2232C164.953 95.9161 165.035 95.6814 165.035 95.5181C165.035 95.211 164.754 94.9562 164.192 94.7537C164.048 94.7014 163.976 94.6361 163.976 94.5577C163.976 94.3943 164.192 94.3127 164.623 94.3127C165.002 94.3127 165.361 94.4401 165.701 94.6949C166.289 95.1195 166.583 95.4887 166.583 95.8023C166.583 95.9847 166.504 96.1383 166.347 96.2624C166.145 96.4127 166.004 96.5401 165.926 96.6446C165.835 96.7557 165.674 96.9745 165.446 97.3012ZM185.434 99.0549C185.434 98.4277 185.395 98.0068 185.317 97.7912C185.219 97.5495 184.889 97.3143 184.327 97.0856C184.21 97.0399 184.151 96.9811 184.151 96.9092C184.151 96.8177 184.216 96.7328 184.347 96.6544C184.464 96.5825 184.598 96.5466 184.749 96.5466C185.101 96.5466 185.581 96.7263 186.189 97.0856C186.698 97.3861 186.953 97.6736 186.953 97.948C186.953 98.1113 186.881 98.2681 186.737 98.4179C186.613 98.5551 186.551 98.7936 186.551 99.1333C186.473 101.733 186.434 103.823 186.434 105.404C186.434 105.509 186.466 105.561 186.532 105.561C186.584 105.561 186.672 105.535 186.796 105.483C189.187 104.444 191.568 102.942 193.939 100.975C194.057 100.884 194.142 100.839 194.194 100.839C194.37 100.839 194.458 100.92 194.458 101.083C194.458 101.161 194.426 101.233 194.36 101.299C192.839 103.069 190.503 104.869 187.355 106.698C187.198 106.789 187.058 106.929 186.933 107.119C186.835 107.295 186.702 107.384 186.532 107.384C186.336 107.384 186.061 107.191 185.708 106.805C185.388 106.433 185.229 106.142 185.229 105.933C185.229 105.894 185.261 105.79 185.327 105.62C185.385 105.457 185.414 105.274 185.414 105.071C185.428 103.765 185.434 101.759 185.434 99.0549ZM181.878 99.9565C181.878 99.6952 181.796 99.4927 181.633 99.3489C181.397 99.1595 181.172 99.019 180.956 98.9275C180.78 98.8491 180.692 98.7707 180.692 98.6923C180.692 98.6139 180.741 98.5421 180.839 98.4767C180.93 98.4179 181.035 98.3885 181.152 98.3885C181.603 98.3885 182.139 98.5976 182.76 99.0157C183.282 99.362 183.543 99.7017 183.543 100.035C183.543 100.185 183.461 100.332 183.298 100.476C183.154 100.594 183.037 100.835 182.945 101.201C182.56 102.533 181.91 103.849 180.996 105.15C180.101 106.384 179.023 107.423 177.762 108.266C177.632 108.344 177.527 108.383 177.449 108.383C177.286 108.383 177.204 108.331 177.204 108.226C177.204 108.115 177.25 108.021 177.341 107.942C178.406 107.021 179.324 105.936 180.094 104.689C180.878 103.389 181.407 102.194 181.682 101.103C181.812 100.567 181.878 100.185 181.878 99.9565ZM204.776 105.473V105.414C204.776 104.741 204.75 104.147 204.698 103.631C205.54 103.716 206.079 103.797 206.314 103.876C206.484 103.928 206.569 104.006 206.569 104.111C206.569 104.255 206.366 104.415 205.961 104.591V105.473H211.762C212.317 104.846 212.657 104.532 212.781 104.532C212.931 104.532 213.307 104.78 213.908 105.277C214.202 105.519 214.349 105.692 214.349 105.796C214.349 105.914 214.26 105.972 214.084 105.972H206.197C207.288 106.998 208.45 107.766 209.685 108.275C211.037 108.837 212.647 109.206 214.515 109.382C214.568 109.382 214.594 109.412 214.594 109.47C214.594 109.536 214.568 109.572 214.515 109.578C214.123 109.683 213.823 109.983 213.614 110.48C213.555 110.669 213.457 110.764 213.32 110.764C213.124 110.764 212.814 110.695 212.389 110.558C211.285 110.219 210.152 109.693 208.989 108.98C207.833 108.243 206.798 107.308 205.883 106.178C205.903 106.603 205.929 107.423 205.961 108.637C205.974 109.108 205.994 109.601 206.02 110.117C206.04 110.503 206.05 110.722 206.05 110.774C206.05 111.159 205.788 111.352 205.266 111.352C204.887 111.352 204.698 111.192 204.698 110.872C204.698 110.78 204.707 110.545 204.727 110.166C204.747 109.735 204.763 109.34 204.776 108.98C204.802 107.949 204.835 107.145 204.874 106.57C203.868 107.72 202.565 108.68 200.964 109.451C199.671 110.085 198.273 110.552 196.771 110.852C196.666 110.872 196.614 110.807 196.614 110.656C196.614 110.611 196.634 110.581 196.673 110.568C199.926 109.425 202.333 107.893 203.894 105.972H198.593C198.097 105.972 197.617 106.012 197.153 106.09L196.967 105.355C197.483 105.434 198.018 105.473 198.574 105.473H204.776ZM204.472 98.193C204.577 97.8925 204.658 97.5919 204.717 97.2914C204.776 96.919 204.815 96.576 204.835 96.2624C205.912 96.576 206.451 96.8047 206.451 96.9484C206.451 97.1313 206.213 97.2457 205.736 97.2914C205.475 97.6311 205.214 97.9317 204.952 98.193H207.206C207.552 97.8206 207.765 97.6344 207.843 97.6344C207.934 97.6344 208.156 97.7879 208.509 98.095C208.738 98.291 208.852 98.4375 208.852 98.5355C208.852 98.6531 208.692 98.8197 208.372 99.0353V100.241L208.43 103.425C208.43 103.732 208.202 103.885 207.745 103.885C207.438 103.885 207.284 103.758 207.284 103.503V103.18H203.492V103.523C203.492 103.83 203.267 103.983 202.816 103.983C202.509 103.983 202.356 103.856 202.356 103.601L202.434 100.437C202.434 99.1823 202.392 98.2126 202.307 97.5266C202.718 97.6899 203.146 97.9121 203.59 98.193H204.472ZM207.284 102.68V100.878H203.492V102.68H207.284ZM207.284 100.378V98.6923H203.492V100.378H207.284ZM208.568 94.9791H211.899C212.468 94.3257 212.811 93.9991 212.928 93.9991C213.052 93.9991 213.428 94.2539 214.055 94.7635C214.362 95.0052 214.515 95.1849 214.515 95.3025C214.515 95.4201 214.427 95.4789 214.251 95.4789H208.568C208.574 95.6749 208.587 95.8933 208.607 96.135C208.613 96.2853 208.617 96.3767 208.617 96.4094C208.617 96.7818 208.368 96.968 207.872 96.968C207.513 96.968 207.333 96.8079 207.333 96.4878C207.333 96.4813 207.337 96.3767 207.343 96.1742C207.35 95.9586 207.356 95.7271 207.363 95.4789H203.394C203.401 95.6749 203.411 95.8933 203.424 96.135C203.43 96.2853 203.433 96.3767 203.433 96.4094C203.433 96.7687 203.172 96.9484 202.65 96.9484C202.317 96.9484 202.15 96.8014 202.15 96.5074C202.15 96.4878 202.153 96.3767 202.16 96.1742C202.173 95.9521 202.183 95.7206 202.189 95.4789H198.25C197.806 95.4789 197.365 95.5181 196.928 95.5965L196.732 94.8615C197.209 94.9399 197.715 94.9791 198.25 94.9791H202.189V94.8223C202.189 94.0448 202.15 93.4078 202.072 92.9117C202.973 93.0032 203.541 93.0849 203.776 93.1567C203.966 93.209 204.061 93.2874 204.061 93.3915C204.061 93.5613 203.838 93.7214 203.394 93.8717V94.9791H207.363V94.8223C207.363 94.0709 207.324 93.4405 207.245 92.9313C208.14 93.0228 208.702 93.1045 208.93 93.1763C209.12 93.2351 209.214 93.3201 209.214 93.4307C209.214 93.5875 208.999 93.741 208.568 93.8913V94.9791ZM209.254 101.416C209.214 101.403 209.195 101.374 209.195 101.328C209.195 101.217 209.241 101.168 209.332 101.181C210.677 101.299 211.723 101.56 212.468 101.965C213.094 102.318 213.408 102.723 213.408 103.18C213.408 103.383 213.352 103.552 213.241 103.689C213.137 103.82 213.003 103.885 212.84 103.885C212.644 103.885 212.419 103.738 212.164 103.444C211.439 102.615 210.468 101.939 209.254 101.416ZM197.829 97.3012C197.796 97.2751 197.78 97.2457 197.78 97.213C197.78 97.1281 197.829 97.0921 197.927 97.1052C199.018 97.3535 199.841 97.6932 200.396 98.1244C200.847 98.4767 201.072 98.8491 201.072 99.2411C201.072 99.7377 200.856 99.9859 200.425 99.9859C200.191 99.9859 199.981 99.8063 199.799 99.4469C199.4 98.6237 198.743 97.9088 197.829 97.3012ZM209.489 100.476C209.476 100.489 209.463 100.496 209.45 100.496C209.358 100.496 209.312 100.443 209.312 100.339C209.312 100.313 209.319 100.293 209.332 100.28C209.94 99.7442 210.553 99.0811 211.174 98.291C211.566 97.7879 211.834 97.3567 211.978 96.9974C212.97 97.6246 213.467 98.0199 213.467 98.1832C213.467 98.3335 213.32 98.4081 213.026 98.4081C212.915 98.4081 212.788 98.4016 212.644 98.3885C211.677 99.2379 210.625 99.9337 209.489 100.476ZM201.787 101.142C201.801 101.142 201.81 101.142 201.817 101.142C201.908 101.142 201.954 101.194 201.954 101.299C201.954 101.338 201.941 101.367 201.915 101.387C200.791 102.302 199.557 103.076 198.211 103.709C198.165 104.16 198.051 104.385 197.868 104.385C197.718 104.385 197.405 103.83 196.928 102.72C197.215 102.687 197.61 102.609 198.113 102.484C199.374 102.151 200.598 101.704 201.787 101.142ZM221.815 98.7903C220.887 98.0003 220.064 97.0431 219.346 95.9194H218.317C217.951 95.9194 217.497 95.9586 216.955 96.037L216.759 95.3025C217.262 95.3809 217.768 95.4201 218.278 95.4201H221.815V94.2931C221.815 93.9403 221.782 93.4862 221.717 92.9313C222.586 93.0163 223.147 93.1012 223.402 93.1861C223.585 93.2515 223.676 93.3397 223.676 93.4503C223.676 93.6071 223.458 93.7737 223.02 93.9501V95.4201H226.008C226.544 94.7341 226.871 94.3911 226.988 94.3911C227.086 94.3911 227.433 94.6524 228.027 95.1751C228.308 95.4299 228.448 95.6193 228.448 95.7435C228.448 95.8611 228.363 95.9194 228.193 95.9194H226.028C225.29 97.0758 224.434 98.046 223.461 98.8295L223.882 99.0059C225.287 99.607 226.838 99.9304 228.536 99.9761C228.582 99.9761 228.605 100.002 228.605 100.055C228.605 100.113 228.582 100.153 228.536 100.172C228.19 100.296 227.942 100.564 227.792 100.975C227.74 101.178 227.638 101.279 227.488 101.279C227.331 101.279 227.047 101.22 226.636 101.103C225.395 100.77 224.215 100.286 223.098 99.6527L222.658 99.3881C221.149 100.335 219.068 101.011 216.416 101.416C216.331 101.429 216.289 101.374 216.289 101.25C216.289 101.184 216.312 101.145 216.357 101.132C218.63 100.499 220.45 99.7181 221.815 98.7903ZM222.452 98.3106C223.32 97.6246 224.059 96.8275 224.666 95.9194H219.865C220.596 96.8733 221.459 97.6703 222.452 98.3106ZM220.081 103.004H224.833C224.813 102.011 224.787 101.403 224.754 101.181C225.558 101.273 226.067 101.351 226.283 101.416C226.453 101.462 226.538 101.531 226.538 101.622C226.538 101.72 226.358 101.854 225.999 102.024V104.767L226.057 110.49C226.057 110.849 225.803 111.028 225.293 111.028C224.921 111.028 224.735 110.882 224.735 110.588C224.735 110.529 224.741 110.317 224.754 109.951C224.8 108.847 224.826 107.635 224.833 106.315H219.895C219.764 107.047 219.578 107.664 219.336 108.168C218.866 109.212 217.987 110.215 216.7 111.175C216.687 111.188 216.668 111.195 216.641 111.195C216.537 111.195 216.485 111.146 216.485 111.048C216.485 111.028 216.491 111.012 216.504 110.999C217.491 109.934 218.14 108.837 218.454 107.707C218.761 106.616 218.915 105.189 218.915 103.425C218.915 102.36 218.882 101.606 218.817 101.161C219.64 101.259 220.166 101.341 220.394 101.406C220.557 101.452 220.639 101.518 220.639 101.602C220.639 101.746 220.453 101.9 220.081 102.063V103.004ZM224.833 103.503H220.081V103.885C220.055 104.767 220.012 105.411 219.953 105.816H224.833V103.503ZM230.173 95.6553V98.9667L230.271 105.777C230.271 106.162 230.01 106.355 229.487 106.355C229.101 106.355 228.909 106.194 228.909 105.875L229.007 99.8683C229.007 96.968 228.974 95.2175 228.909 94.6165C229.791 94.7079 230.343 94.7896 230.564 94.8615C230.747 94.9203 230.839 95.0117 230.839 95.1359C230.839 95.2927 230.617 95.4658 230.173 95.6553ZM233.651 94.2735V101.142L233.749 109.402C233.749 109.99 233.514 110.418 233.043 110.686C232.756 110.875 232.404 110.969 231.985 110.969C231.822 110.969 231.721 110.875 231.682 110.686C231.616 110.405 231.433 110.189 231.133 110.039C230.826 109.882 230.287 109.719 229.516 109.549C229.464 109.536 229.438 109.49 229.438 109.412C229.438 109.301 229.471 109.252 229.536 109.265C230.711 109.369 231.567 109.421 232.103 109.421C232.332 109.421 232.446 109.31 232.446 109.088V97.4482C232.446 95.1293 232.413 93.7116 232.348 93.1959C233.236 93.307 233.791 93.398 234.014 93.4699C234.203 93.5287 234.298 93.6169 234.298 93.7345C234.298 93.9043 234.082 94.084 233.651 94.2735ZM251.807 98.9863C251.886 98.9863 251.993 99.0059 252.131 99.0451C252.621 99.1758 253.094 99.3979 253.551 99.7115C254.152 100.13 254.453 100.561 254.453 101.005C254.453 101.155 254.407 101.282 254.315 101.387C254.231 101.491 254.123 101.544 253.992 101.544C253.77 101.544 253.551 101.364 253.335 101.005C252.983 100.378 252.434 99.8389 251.69 99.3881C251.637 99.3555 251.611 99.2901 251.611 99.1921C251.611 99.0549 251.676 98.9863 251.807 98.9863ZM250.122 100.231C250.22 100.231 250.289 100.237 250.328 100.251C250.928 100.466 251.422 100.734 251.807 101.054C252.382 101.518 252.67 101.952 252.67 102.357C252.67 102.743 252.503 102.935 252.17 102.935C251.961 102.935 251.742 102.716 251.513 102.279C251.206 101.697 250.71 101.155 250.024 100.652C249.946 100.594 249.906 100.525 249.906 100.447C249.906 100.303 249.978 100.231 250.122 100.231ZM251.366 95.7533C251.712 95.7533 252.095 95.8415 252.513 96.0174C252.872 96.1415 253.052 96.3408 253.052 96.6152C253.052 96.9549 252.833 97.1346 252.395 97.1542C250.892 97.1999 249.593 97.4221 248.495 97.8206C247.378 98.2061 246.408 98.9569 245.585 100.074C244.828 101.106 244.449 102.155 244.449 103.219C244.449 104.663 244.903 105.747 245.81 106.472C246.294 106.884 246.895 107.204 247.614 107.433C248.188 107.615 248.75 107.71 249.299 107.717C249.952 107.749 250.462 107.864 250.827 108.06C251.147 108.23 251.307 108.471 251.307 108.784C251.307 109.131 251 109.304 250.387 109.304C249.524 109.304 248.616 109.15 247.663 108.843C246.709 108.536 245.944 108.135 245.37 107.638C244.207 106.671 243.626 105.395 243.626 103.807C243.626 102.462 244.018 101.204 244.802 100.035C245.468 99.0288 246.34 98.2257 247.418 97.6246L247.378 97.5658C245.203 98.2061 243.41 98.7805 241.999 99.2901C241.437 99.4927 240.941 99.7181 240.51 99.9663C240.288 100.117 240.059 100.192 239.824 100.192C239.412 100.192 238.971 99.9173 238.501 99.3685C238.142 98.9047 237.963 98.5225 237.963 98.2224C237.963 97.9676 238.028 97.8402 238.158 97.8402C238.217 97.8402 238.305 97.899 238.423 98.0166C238.684 98.3041 238.906 98.4931 239.089 98.5845C239.285 98.6825 239.51 98.7283 239.765 98.7217C240.033 98.7217 240.461 98.6466 241.049 98.4963C241.957 98.2681 243.449 97.8892 245.527 97.36C247.362 96.8896 248.773 96.527 249.759 96.2722C250.164 96.1873 250.478 96.0827 250.7 95.9586C250.902 95.8219 251.124 95.7533 251.366 95.7533ZM267.308 103.866C267.138 105.016 266.857 105.979 266.465 106.756C265.577 108.435 264.133 109.869 262.134 111.058C262.121 111.064 262.108 111.067 262.095 111.067C261.984 111.067 261.929 111.002 261.929 110.872C261.929 110.852 261.935 110.833 261.948 110.813C263.607 109.408 264.767 107.923 265.427 106.355C265.799 105.473 266.057 104.339 266.201 102.955C266.325 101.733 266.387 100.077 266.387 97.9872C266.387 95.9096 266.341 94.4107 266.25 93.4895C266.707 93.6724 267.213 93.9403 267.769 94.2931H272.344C272.769 93.8357 273.027 93.6071 273.118 93.6071C273.222 93.6071 273.503 93.8031 273.961 94.1951C274.163 94.3649 274.265 94.5119 274.265 94.6361C274.265 94.7471 274.091 94.9203 273.745 95.1555V99.7899L273.843 109.421C273.843 109.996 273.601 110.431 273.118 110.725C272.851 110.914 272.524 111.009 272.138 111.009C271.969 111.009 271.867 110.914 271.835 110.725C271.789 110.444 271.616 110.225 271.315 110.068C271.015 109.918 270.466 109.758 269.669 109.588C269.617 109.575 269.591 109.533 269.591 109.461C269.591 109.369 269.624 109.323 269.689 109.323C270.675 109.402 271.498 109.441 272.158 109.441C272.4 109.441 272.521 109.317 272.521 109.069V103.866H267.308ZM272.521 98.8491V94.7929H267.631V98.8491H272.521ZM267.612 99.3489C267.586 101.014 267.51 102.354 267.386 103.366H272.521V99.3489H267.612ZM262.615 104.924H259.058V106.11C259.058 106.456 258.796 106.629 258.274 106.629C257.941 106.629 257.774 106.488 257.774 106.208L257.853 99.5253C257.853 96.8275 257.814 95.0019 257.735 94.0481C258.44 94.3617 258.934 94.6099 259.215 94.7929H262.438C262.837 94.3617 263.082 94.1461 263.173 94.1461C263.271 94.1461 263.532 94.3127 263.957 94.6459C264.185 94.8419 264.3 94.9889 264.3 95.0869C264.3 95.2241 264.133 95.407 263.8 95.6357V98.7805L263.859 105.826C263.859 106.172 263.617 106.345 263.134 106.345C262.788 106.345 262.615 106.204 262.615 105.923V104.924ZM262.615 104.424V99.9075H259.058V104.424H262.615ZM262.615 99.4077V95.2927H259.058V99.4077H262.615ZM287.688 108.745C288.544 108.484 289.236 107.975 289.765 107.217C290.203 106.59 290.422 105.949 290.422 105.297C290.422 104.134 290.043 103.262 289.285 102.68C288.73 102.256 288.057 102.043 287.267 102.043C285.634 102.043 284.05 102.733 282.515 104.111C282.129 104.464 281.662 104.99 281.113 105.689C281.002 105.839 280.842 105.914 280.634 105.914C280.457 105.914 280.3 105.845 280.163 105.708C280.033 105.584 279.967 105.437 279.967 105.267C279.967 105.052 280.101 104.797 280.369 104.503C283.19 101.511 285.618 98.6727 287.649 95.988C287.695 95.9227 287.718 95.8737 287.718 95.8415C287.718 95.7957 287.685 95.7729 287.62 95.7729C287.58 95.7729 287.531 95.7827 287.473 95.8023C286.375 96.1677 285.297 96.5531 284.239 96.9582C283.984 97.0562 283.811 97.1444 283.72 97.2228C283.517 97.3992 283.351 97.4874 283.22 97.4874C282.854 97.4874 282.479 97.2522 282.093 96.7818C281.734 96.3375 281.554 95.9357 281.554 95.5769C281.554 95.3613 281.613 95.2535 281.731 95.2535C281.829 95.2535 281.943 95.3417 282.074 95.5181C282.394 95.9357 282.717 96.1448 283.044 96.1448C283.305 96.1448 283.684 96.0925 284.18 95.988C284.755 95.8578 285.654 95.6128 286.875 95.2535C287.045 95.2012 287.211 95.0934 287.375 94.9301C287.492 94.8125 287.633 94.7537 287.796 94.7537C288.051 94.7537 288.377 94.9007 288.776 95.1947C289.233 95.5017 289.462 95.7892 289.462 96.0566C289.462 96.2722 289.334 96.4127 289.079 96.478C288.805 96.5499 288.472 96.7851 288.08 97.1836C287.976 97.2881 286.254 99.2019 282.917 102.925L282.956 102.945C284.451 101.913 285.856 101.397 287.169 101.397C288.789 101.397 289.997 101.877 290.794 102.837C291.375 103.536 291.666 104.375 291.666 105.355C291.666 106.845 291.032 108.027 289.765 108.902C288.753 109.601 287.574 109.951 286.228 109.951C284.994 109.951 284.027 109.715 283.328 109.245C282.747 108.847 282.456 108.354 282.456 107.766C282.456 107.256 282.655 106.854 283.054 106.56C283.393 106.306 283.821 106.178 284.337 106.178C285.258 106.178 286.068 106.534 286.767 107.246C287.237 107.73 287.544 108.23 287.688 108.745ZM286.591 108.941C286.408 108.321 286.045 107.785 285.503 107.335C285.046 106.949 284.605 106.756 284.18 106.756C283.801 106.756 283.517 106.861 283.328 107.07C283.178 107.227 283.103 107.423 283.103 107.658C283.103 108.03 283.341 108.35 283.818 108.618C284.314 108.892 284.984 109.029 285.826 109.029C286.172 109.029 286.427 109 286.591 108.941ZM306.373 93.8717C306.824 93.8717 307.317 94.1265 307.853 94.6361C308.349 95.1065 308.597 95.4887 308.597 95.7827C308.597 96.0566 308.444 96.2493 308.137 96.3604C307.967 96.4323 307.761 96.5727 307.52 96.7818C305.939 98.1473 304.407 99.705 302.924 101.455C302.748 101.671 302.66 101.854 302.66 102.004C302.66 102.2 302.787 102.406 303.042 102.622C305.367 104.562 307.121 106.296 308.303 107.825C308.943 108.667 309.264 109.281 309.264 109.666C309.264 109.915 309.182 110.111 309.019 110.254C308.888 110.372 308.734 110.431 308.558 110.431C308.297 110.431 308.049 110.196 307.814 109.725C306.866 107.857 305.077 105.725 302.444 103.327C301.987 102.916 301.758 102.52 301.758 102.141C301.758 101.789 301.918 101.413 302.238 101.014C303.669 99.2771 305.054 97.6736 306.393 96.2036C306.739 95.8121 306.912 95.5083 306.912 95.2927C306.912 94.9921 306.664 94.6655 306.167 94.3127C306.037 94.2147 305.971 94.1395 305.971 94.0873C305.971 93.9435 306.105 93.8717 306.373 93.8717ZM328.125 94.6165H326.283C325.708 94.6165 325.219 94.6622 324.813 94.7537L324.637 93.9991C325.147 94.0775 325.695 94.1167 326.283 94.1167H332.701C333.1 93.6855 333.341 93.4699 333.426 93.4699C333.537 93.4699 333.821 93.6789 334.278 94.0971C334.481 94.2669 334.582 94.4139 334.582 94.5381C334.582 94.6491 334.409 94.8092 334.063 95.0183C333.88 96.6119 333.694 97.6899 333.504 98.2518C333.328 98.7283 333.08 99.0811 332.76 99.3097C332.44 99.5253 332.057 99.6331 331.613 99.6331C331.456 99.6331 331.368 99.5678 331.349 99.4371C331.316 99.1758 331.175 98.9733 330.927 98.8295C330.712 98.6989 330.323 98.5584 329.761 98.4081C329.716 98.3951 329.693 98.3563 329.693 98.291C329.693 98.1799 329.732 98.1309 329.81 98.144C330.64 98.2551 331.273 98.3106 331.711 98.3106C331.94 98.3106 332.11 98.242 332.221 98.1048C332.306 98.0003 332.391 97.801 332.476 97.507C332.659 96.919 332.806 95.9553 332.917 94.6165H329.37C329.147 96.2232 328.569 97.4874 327.635 98.4081C326.838 99.1856 325.702 99.7965 324.225 100.241C324.219 100.247 324.209 100.251 324.196 100.251C324.098 100.251 324.049 100.192 324.049 100.074C324.049 100.041 324.062 100.019 324.088 100.006C325.382 99.3783 326.342 98.6237 326.969 97.7422C327.557 96.919 327.942 95.8769 328.125 94.6165ZM322.383 104.65H319.493V105.375C319.493 105.708 319.258 105.875 318.787 105.875C318.441 105.875 318.268 105.741 318.268 105.473L318.366 98.6825C318.366 95.9717 318.327 94.2539 318.249 93.5287C318.764 93.7312 319.232 93.9599 319.65 94.2147H322.227C322.612 93.8031 322.838 93.5973 322.903 93.5973C323.021 93.5973 323.269 93.7639 323.647 94.0971C323.876 94.3061 323.99 94.4531 323.99 94.5381C323.99 94.6491 323.837 94.8223 323.53 95.0575V98.144L323.608 104.934C323.608 105.359 323.366 105.571 322.883 105.571C322.55 105.571 322.383 105.431 322.383 105.15V104.65ZM322.383 104.15V99.4273H319.493V104.15H322.383ZM322.383 98.9275V94.7145H319.493V98.9275H322.383ZM326.704 105.355V105.816C326.704 106.149 326.482 106.315 326.038 106.315C325.666 106.315 325.48 106.188 325.48 105.933L325.539 103.327C325.539 101.785 325.506 100.688 325.441 100.035C325.995 100.251 326.482 100.486 326.9 100.741H332.201C332.587 100.335 332.832 100.133 332.936 100.133C333.041 100.133 333.296 100.303 333.7 100.643C333.916 100.819 334.024 100.959 334.024 101.063C334.024 101.188 333.863 101.361 333.543 101.583V102.827L333.602 105.64C333.602 105.985 333.354 106.159 332.858 106.159C332.649 106.159 332.512 106.126 332.446 106.061C332.387 106.002 332.358 105.894 332.358 105.738V105.355H326.704ZM332.358 104.856V101.24H326.704V104.856H332.358ZM320.297 106.815C320.303 106.763 320.342 106.737 320.414 106.737C320.519 106.737 320.571 106.776 320.571 106.854C320.577 106.933 320.581 107.024 320.581 107.129C320.581 108.239 320.323 109.154 319.807 109.872C319.388 110.46 318.911 110.754 318.376 110.754C318.161 110.754 317.984 110.679 317.847 110.529C317.729 110.398 317.671 110.238 317.671 110.049C317.671 109.696 317.945 109.402 318.493 109.167C319.46 108.742 320.061 107.958 320.297 106.815ZM327.204 106.913C327.191 106.9 327.185 106.887 327.185 106.874C327.185 106.782 327.237 106.737 327.341 106.737C327.361 106.737 327.381 106.743 327.4 106.756C328.08 107.142 328.621 107.648 329.026 108.275C329.36 108.798 329.526 109.294 329.526 109.764C329.526 110.379 329.288 110.686 328.811 110.686C328.432 110.686 328.21 110.392 328.145 109.804C328.008 108.569 327.694 107.606 327.204 106.913ZM331.211 106.913C331.185 106.9 331.172 106.88 331.172 106.854C331.172 106.763 331.224 106.717 331.329 106.717C331.342 106.717 331.355 106.72 331.368 106.727C332.322 107.099 333.077 107.593 333.632 108.207C334.108 108.742 334.347 109.274 334.347 109.804C334.347 110.392 334.118 110.686 333.661 110.686C333.458 110.686 333.309 110.617 333.211 110.48C333.119 110.362 333.038 110.15 332.966 109.843C332.802 109.255 332.554 108.686 332.221 108.138C331.914 107.622 331.577 107.214 331.211 106.913ZM323.285 106.815C323.285 106.802 323.285 106.789 323.285 106.776C323.285 106.711 323.324 106.678 323.402 106.678C323.435 106.678 323.464 106.691 323.49 106.717C323.948 107.096 324.301 107.563 324.549 108.119C324.764 108.588 324.872 109.049 324.872 109.5C324.872 109.859 324.787 110.15 324.617 110.372C324.461 110.581 324.258 110.686 324.01 110.686C323.677 110.686 323.51 110.464 323.51 110.019L323.569 108.98C323.569 108.863 323.569 108.752 323.569 108.647C323.569 108.027 323.474 107.416 323.285 106.815ZM344.655 96.7034V96.6446C344.125 96.3245 343.727 95.9945 343.459 95.6553C342.976 95.0673 342.715 94.5087 342.676 93.9795C342.676 93.9599 342.676 93.9435 342.676 93.9305C342.676 93.7867 342.738 93.7149 342.862 93.7149C342.953 93.7149 343.032 93.7802 343.097 93.9109C343.384 94.4597 343.753 94.8909 344.204 95.2045C344.524 95.4266 344.952 95.6324 345.488 95.8219C345.938 95.9847 346.297 96.1905 346.565 96.4388C346.846 96.7197 346.987 96.9615 346.987 97.164C346.987 97.5364 346.807 97.7226 346.448 97.7226C346.265 97.7226 346.069 97.6899 345.86 97.6246C345.638 97.5593 345.399 97.5266 345.145 97.5266C344.753 97.5266 344.279 97.5919 343.724 97.7226C343.188 97.8467 342.731 98.0035 342.352 98.193C342.097 98.3106 341.97 98.4343 341.97 98.5649C341.97 98.7283 342.009 98.8916 342.088 99.0549C342.199 99.2967 342.254 99.5351 342.254 99.7703C342.254 99.9206 342.186 100.417 342.048 101.259C341.911 102.07 341.816 103.138 341.764 104.464C341.764 104.627 341.784 104.709 341.823 104.709C341.862 104.709 341.924 104.682 342.009 104.63C343.472 103.5 344.684 102.7 345.645 102.23C346.683 101.714 347.65 101.455 348.544 101.455C349.727 101.455 350.694 101.769 351.445 102.396C352.15 102.991 352.503 103.761 352.503 104.709C352.503 106.341 351.468 107.651 349.397 108.637C347.777 109.428 345.684 109.898 343.117 110.049C343.09 110.049 343.074 110.049 343.068 110.049C342.872 110.049 342.774 109.96 342.774 109.784C342.774 109.621 342.875 109.526 343.077 109.5C345.331 109.212 347.209 108.637 348.711 107.776C349.613 107.259 350.25 106.733 350.622 106.198C350.981 105.682 351.16 105.071 351.16 104.366C351.16 103.627 350.877 103.04 350.308 102.602C349.831 102.236 349.26 102.053 348.593 102.053C347.627 102.053 346.598 102.396 345.507 103.082C344.664 103.604 343.894 104.261 343.195 105.052C342.594 105.711 342.251 106.145 342.166 106.355C342.042 106.662 341.836 106.815 341.549 106.815C341.366 106.815 341.186 106.662 341.01 106.355C340.834 106.087 340.745 105.711 340.745 105.228C340.745 104.163 340.915 102.667 341.255 100.741C341.333 100.322 341.372 99.9467 341.372 99.6135L341.304 98.7707C341.304 98.3787 341.552 98.0362 342.048 97.7422C342.734 97.3567 343.603 97.0105 344.655 96.7034ZM367.798 98.5257C367.785 99.5449 367.779 100.388 367.779 101.054C367.779 101.563 367.779 101.952 367.779 102.22C367.975 102.801 368.073 103.422 368.073 104.081C368.073 105.787 367.445 107.21 366.191 108.354C365.251 109.216 363.999 109.882 362.438 110.352C362.086 110.444 361.899 110.49 361.88 110.49C361.703 110.49 361.615 110.415 361.615 110.264C361.615 110.14 361.681 110.055 361.811 110.009C363.196 109.474 364.329 108.801 365.211 107.991C366.139 107.135 366.72 106.175 366.955 105.11C366.583 105.496 366.073 105.689 365.427 105.689C364.826 105.689 364.326 105.483 363.928 105.071C363.522 104.66 363.32 104.098 363.32 103.386C363.32 102.641 363.555 102.024 364.026 101.534C364.431 101.116 364.911 100.903 365.466 100.897C366.112 100.897 366.596 101.037 366.916 101.318L366.848 98.6041C365.228 98.774 363.572 99.0615 361.88 99.4665C361.161 99.6233 360.678 99.7932 360.43 99.9761C360.267 100.094 360.1 100.153 359.93 100.153C359.538 100.153 359.117 99.9533 358.666 99.5547C358.157 99.0909 357.902 98.676 357.902 98.3106C357.902 98.1081 357.961 98.0068 358.078 98.0068C358.124 98.0068 358.199 98.0591 358.304 98.1636C358.774 98.6205 359.27 98.8491 359.793 98.8491C360.009 98.8491 360.348 98.8099 360.812 98.7315C362.517 98.4245 364.522 98.1277 366.828 97.8402C366.828 97.4286 366.815 96.7949 366.789 95.939C366.789 95.4691 366.749 95.162 366.671 95.0183C366.495 94.6916 366.126 94.5381 365.564 94.5577C365.434 94.5577 365.368 94.5021 365.368 94.3911C365.368 94.2931 365.427 94.2016 365.545 94.1167C365.799 93.9272 366.122 93.8325 366.514 93.8325C366.789 93.8325 367.158 93.986 367.622 94.2931C368.046 94.5675 368.259 94.8092 368.259 95.0183C368.259 95.2208 368.206 95.3939 368.102 95.5377C367.958 95.7141 367.876 95.9553 367.857 96.2624C367.831 96.8765 367.818 97.3698 367.818 97.7422C368.738 97.6442 369.895 97.5723 371.286 97.5266C371.841 97.5266 372.217 97.4711 372.413 97.36C372.602 97.2555 372.789 97.2032 372.972 97.2032C373.357 97.2032 373.827 97.3567 374.382 97.6638C374.716 97.8729 374.882 98.095 374.882 98.3302C374.882 98.6368 374.702 98.7903 374.343 98.7903C374.167 98.7903 373.784 98.7381 373.197 98.6335C372.308 98.4833 371.498 98.4081 370.767 98.4081C369.761 98.4081 368.771 98.4473 367.798 98.5257ZM365.427 101.475C365.009 101.475 364.676 101.648 364.427 101.994C364.199 102.315 364.084 102.752 364.084 103.308C364.084 103.771 364.254 104.134 364.594 104.395C364.855 104.604 365.166 104.709 365.525 104.709C365.943 104.709 366.282 104.568 366.544 104.287C366.792 104.019 366.926 103.657 366.945 103.2C366.932 102.684 366.782 102.262 366.495 101.936C366.22 101.629 365.865 101.475 365.427 101.475ZM374.431 106.59C374.431 106.472 374.529 106.413 374.725 106.413C374.771 106.413 374.814 106.417 374.853 106.423C376.165 106.724 377.263 107.227 378.145 107.932C379.027 108.651 379.468 109.363 379.468 110.068C379.468 110.375 379.373 110.627 379.183 110.823C379.027 110.986 378.834 111.067 378.605 111.067C378.207 111.067 377.9 110.826 377.684 110.343C377.012 108.794 375.98 107.629 374.588 106.845C374.484 106.779 374.431 106.694 374.431 106.59ZM400.504 95.939C400.759 95.939 401.314 95.9129 402.17 95.8611C403.183 95.7631 404.097 95.6487 404.914 95.5181C405.456 95.4331 405.831 95.3449 406.041 95.2535C406.328 95.1359 406.569 95.0771 406.765 95.0771C407.144 95.0771 407.438 95.1424 407.647 95.2731C407.941 95.4691 408.088 95.6716 408.088 95.8802C408.088 96.1415 407.886 96.2951 407.481 96.3408C406.167 96.4649 404.277 96.6185 401.807 96.8014C401.246 96.8537 400.818 96.8798 400.524 96.8798C400.041 96.8798 399.606 96.7263 399.221 96.4192C398.737 96.0272 398.496 95.7075 398.496 95.4593C398.496 95.2698 398.571 95.1751 398.721 95.1751C398.76 95.1751 398.845 95.2273 398.976 95.3319C399.492 95.7369 400.001 95.939 400.504 95.939ZM403.091 100.515C401.608 100.626 400.282 100.786 399.113 100.995C398.551 101.099 398.205 101.194 398.074 101.279C397.931 101.371 397.761 101.416 397.565 101.416C397.212 101.416 396.827 101.214 396.409 100.809C395.965 100.417 395.743 100.084 395.743 99.8095C395.743 99.5809 395.795 99.4665 395.899 99.4665C395.952 99.4665 396.014 99.4927 396.085 99.5449C396.608 99.9892 397.062 100.211 397.447 100.211C397.741 100.211 398.068 100.192 398.427 100.153C399.577 100.028 401.216 99.8749 403.346 99.6919C403.77 99.6527 404.574 99.5841 405.756 99.4861C406.592 99.4208 407.294 99.362 407.863 99.3097C408.281 99.2705 408.568 99.2019 408.725 99.1039C408.927 98.9733 409.11 98.9079 409.274 98.9079C409.672 98.9079 410.12 99.0484 410.616 99.3293C410.936 99.5188 411.096 99.7311 411.096 99.9663C411.096 100.247 410.943 100.388 410.636 100.388C410.472 100.388 410.227 100.371 409.901 100.339C409.607 100.313 409.368 100.296 409.185 100.29C408.846 100.277 408.5 100.27 408.147 100.27C407.794 100.27 407.445 100.277 407.098 100.29C406.282 100.303 405.273 100.352 404.071 100.437C404.672 100.79 404.972 101.09 404.972 101.338C404.972 101.436 404.933 101.54 404.855 101.651C404.724 101.815 404.642 101.955 404.61 102.073C404.25 103.588 403.562 105.048 402.542 106.453C401.451 107.923 400.161 109.095 398.672 109.97C398.535 110.049 398.411 110.088 398.3 110.088C398.15 110.088 398.074 110.006 398.074 109.843C398.074 109.745 398.14 109.647 398.271 109.549C399.675 108.458 400.798 107.233 401.641 105.875C402.444 104.607 403.013 103.282 403.346 101.896C403.398 101.668 403.424 101.469 403.424 101.299C403.424 100.979 403.313 100.718 403.091 100.515ZM421.11 95.7239C421.515 95.7239 421.936 95.7043 422.374 95.6651C423.674 95.5213 424.931 95.2861 426.146 94.9595C426.61 94.8092 426.949 94.7341 427.165 94.7341C427.766 94.7341 428.067 94.9627 428.067 95.4201C428.067 95.6553 427.946 95.8219 427.704 95.9194C427.528 95.9913 427.093 96.0729 426.401 96.1644C424.689 96.3931 423.354 96.5466 422.393 96.625C421.551 96.7034 421.117 96.7426 421.091 96.7426C420.633 96.7426 420.179 96.5466 419.728 96.1546C419.284 95.7761 419.062 95.4429 419.062 95.1555C419.062 94.966 419.114 94.8713 419.219 94.8713C419.297 94.8713 419.392 94.9203 419.503 95.0183C419.849 95.2927 420.124 95.4756 420.326 95.5671C420.555 95.6716 420.816 95.7239 421.11 95.7239ZM419.317 99.5155C419.617 99.5155 420.14 99.4763 420.885 99.3979C421.557 99.3195 423.605 99.0843 427.028 98.6923C427.289 98.6531 427.502 98.5519 427.665 98.3885C427.822 98.2257 427.956 98.144 428.067 98.144C428.269 98.144 428.609 98.3367 429.085 98.7217C429.517 99.0615 429.732 99.3457 429.732 99.5743C429.732 99.7573 429.611 99.8912 429.37 99.9761C429.128 100.041 428.929 100.234 428.772 100.554C427.72 102.749 426.277 104.754 424.441 106.57C422.828 108.164 421.149 109.366 419.405 110.176C419.183 110.268 419.055 110.313 419.023 110.313C418.833 110.313 418.739 110.219 418.739 110.029C418.739 109.944 418.791 109.866 418.895 109.794C420.901 108.494 422.691 106.939 424.265 105.13C425.728 103.444 426.855 101.7 427.645 99.8977C427.711 99.7409 427.743 99.6397 427.743 99.5939C427.743 99.5417 427.711 99.5155 427.645 99.5155C427.443 99.5155 427.266 99.5221 427.116 99.5351C425.091 99.705 422.945 99.9925 420.679 100.398C420.222 100.476 419.921 100.551 419.777 100.623C419.614 100.714 419.441 100.76 419.258 100.76C419.082 100.76 418.866 100.675 418.612 100.505C418.402 100.368 418.223 100.211 418.073 100.035C417.687 99.5515 417.494 99.1856 417.494 98.9373C417.494 98.7348 417.553 98.6335 417.671 98.6335C417.756 98.6335 417.844 98.6793 417.935 98.7707C418.478 99.2673 418.938 99.5155 419.317 99.5155ZM439.481 96.135C440.376 96.0631 441.683 95.9586 443.401 95.8219L446.673 95.5573C447.013 95.5246 447.274 95.4168 447.457 95.2339C447.601 95.0901 447.735 95.0183 447.859 95.0183C448.088 95.0183 448.408 95.1653 448.819 95.4593C449.355 95.8382 449.623 96.1383 449.623 96.3604C449.623 96.5237 449.521 96.6642 449.319 96.7818C449.064 96.9255 448.878 97.1803 448.76 97.5462C447.996 100.087 447.039 102.272 445.89 104.101C444.367 106.577 442.702 108.445 440.893 109.706C440.71 109.81 440.582 109.862 440.51 109.862C440.334 109.862 440.246 109.797 440.246 109.666C440.246 109.562 440.314 109.454 440.452 109.343C442.228 107.73 443.786 105.682 445.125 103.2C446.19 101.22 447.006 99.068 447.575 96.7426C447.588 96.6838 447.594 96.6152 447.594 96.5368C447.594 96.4715 447.549 96.4388 447.457 96.4388H447.173C445.899 96.4649 443.378 96.6511 439.609 96.9974C439.628 97.5331 439.674 98.5649 439.746 100.094C439.785 100.995 439.805 101.518 439.805 101.661C439.805 102.197 439.612 102.465 439.227 102.465C439.044 102.465 438.897 102.4 438.786 102.269C438.636 102.092 438.561 101.864 438.561 101.583C438.561 100.048 438.502 98.6074 438.384 97.262C438.352 96.8569 438.26 96.5368 438.11 96.3016C437.966 96.0729 437.737 95.8578 437.424 95.6553C437.274 95.5573 437.198 95.4789 437.198 95.4201C437.198 95.3678 437.241 95.3155 437.326 95.2633C437.398 95.2175 437.47 95.1947 437.541 95.1947C438.038 95.1947 438.685 95.5083 439.481 96.135ZM459.783 98.4669C462.233 98.2714 464.418 98.1179 466.338 98.0068C466.706 97.9937 466.976 97.9153 467.163 97.7716C467.424 97.5691 467.602 97.4678 467.7 97.4678C467.975 97.4678 468.274 97.5952 468.6 97.85C469.044 98.1963 469.268 98.4506 469.268 98.6139C469.268 98.7642 469.165 98.9112 468.964 99.0549C468.764 99.1856 468.619 99.4175 468.544 99.7507C468.348 100.678 467.956 102.393 467.368 104.895C467.714 104.947 467.994 105.032 468.208 105.15C468.367 105.241 468.446 105.375 468.446 105.551C468.446 105.78 468.348 105.92 468.162 105.972C468.068 105.998 467.807 106.012 467.378 106.012C464.601 106.012 462.181 106.106 460.116 106.296C460.116 106.537 460.116 106.698 460.116 106.776C460.116 107.299 459.956 107.56 459.636 107.56C459.218 107.56 458.996 107.253 458.97 106.639C458.813 103.353 458.673 100.998 458.549 99.5743C458.516 99.1693 458.441 98.8622 458.324 98.6531C458.193 98.431 457.974 98.2224 457.667 98.0264C457.536 97.9349 457.471 97.8565 457.471 97.7912C457.471 97.6279 457.624 97.5462 457.932 97.5462C458.114 97.5462 458.402 97.6475 458.793 97.85C459.153 98.0264 459.483 98.2322 459.783 98.4669ZM466.358 105.071C466.748 102.661 467.032 100.734 467.2 99.2901C467.228 99.0745 467.238 98.9471 467.238 98.9079C467.238 98.8426 467.196 98.8099 467.102 98.8099H466.738C465.127 98.8491 462.808 99.0092 459.783 99.2901C459.842 100.943 459.934 102.997 460.058 105.453C461.449 105.362 463.549 105.235 466.358 105.071ZM484.78 102.582C486.945 103.464 488.62 104.5 489.796 105.689C490.422 106.348 490.734 106.877 490.734 107.276C490.734 107.772 490.543 108.021 490.156 108.021C489.843 108.021 489.563 107.841 489.316 107.482C487.804 105.404 486.142 103.931 484.318 103.063C482.138 105.408 479.609 107.188 476.734 108.403C476.501 108.507 476.319 108.559 476.193 108.559C476.03 108.559 475.95 108.49 475.95 108.354C475.95 108.243 476.002 108.158 476.109 108.099C478.839 106.603 481.065 104.937 482.787 103.102C484.234 101.573 485.442 99.9369 486.422 98.193C486.488 98.0754 486.52 98.0003 486.52 97.9676C486.52 97.9415 486.488 97.9284 486.422 97.9284C485.503 97.9284 483.664 98.1832 480.906 98.6923C480.594 98.7511 480.365 98.8263 480.22 98.9177C480.057 99.0092 479.894 99.0549 479.721 99.0549C479.343 99.0549 478.881 98.774 478.34 98.2126C478.008 97.8729 477.84 97.5168 477.84 97.1444C477.84 96.9419 477.901 96.8406 478.018 96.8406C478.088 96.8406 478.176 96.8961 478.284 97.0072C478.792 97.5168 479.296 97.7716 479.791 97.7716C479.884 97.7716 480.388 97.7324 481.308 97.654L485.904 97.1738C486.24 97.1281 486.502 97.0137 486.688 96.8308C486.833 96.6805 486.959 96.6054 487.062 96.6054C487.276 96.6054 487.608 96.7589 488.051 97.066C488.424 97.3404 488.611 97.5952 488.611 97.8304C488.611 97.9872 488.443 98.1342 488.112 98.2714C487.85 98.3694 487.64 98.5486 487.482 98.8099C486.782 99.9663 485.881 101.224 484.78 102.582Z" fill="black"/>
<path d="M256.876 65.7322L254.867 64.9132L275.59 15.3789L277.599 16.1983L256.876 65.7322ZM317.38 44.3487C314.842 44.2077 312.781 44.1372 311.195 44.1372C308.798 44.1372 306.543 44.2077 304.428 44.3487L302.208 50.4017C301.379 52.6044 300.965 54.2694 300.965 55.3974C300.965 56.3139 301.282 56.9481 301.917 57.3004C302.551 57.6355 303.75 57.8642 305.512 57.9878C305.829 58.0228 305.987 58.252 305.987 58.6748C305.987 59.1508 305.829 59.3888 305.512 59.3888C301.582 59.2828 299.415 59.2301 299.009 59.2301C297.053 59.2301 295.23 59.2828 293.538 59.3888C293.221 59.3888 293.062 59.1508 293.062 58.6748C293.062 58.252 293.221 58.0228 293.538 57.9878C294.983 57.7937 296.014 57.362 296.631 56.6924C297.441 55.8113 298.507 53.6441 299.829 50.1903L306.225 33.2471C308.357 27.5378 309.723 23.6963 310.323 21.7226L313.415 20.1896C313.662 20.1896 313.82 20.3393 313.891 20.6389C315.001 24.3571 316.411 28.6479 318.12 33.5114L324.199 50.6131C325.327 53.785 326.208 55.8113 326.843 56.6924C327.336 57.4152 328.631 57.8469 330.728 57.9878C331.134 58.0228 331.336 58.252 331.336 58.6748C331.336 59.1508 331.142 59.3888 330.755 59.3888C326.719 59.2828 324.367 59.2301 323.697 59.2301C323.116 59.2301 320.807 59.2828 316.772 59.3888C316.455 59.3888 316.296 59.1508 316.296 58.6748C316.296 58.252 316.455 58.0228 316.772 57.9878C318.64 57.8469 319.838 57.5912 320.367 57.2211C320.755 56.9392 320.948 56.4371 320.948 55.7147C320.948 55.045 320.534 53.512 319.706 51.1152L317.38 44.3487ZM311.036 25.9783C310.772 26.7712 310.34 27.9607 309.741 29.5466C309.089 31.3088 308.595 32.648 308.261 33.5643L305.194 42.1812C306.481 42.2517 308.481 42.2869 311.195 42.2869C313.679 42.2869 315.503 42.2517 316.666 42.1812L313.573 33.5643C312.781 31.2206 311.935 28.692 311.036 25.9783ZM336.861 51.5912V27.8814C336.861 25.6258 336.72 24.1456 336.437 23.4408C336.155 22.7183 335.592 22.357 334.746 22.357L332.843 22.4628C332.561 22.4628 332.42 22.2513 332.42 21.8284C332.42 21.4054 332.622 21.1499 333.028 21.0618C335.09 20.6389 337.539 19.9164 340.376 18.8944C340.728 18.8944 340.905 19.0442 340.905 19.3438C340.764 22.6742 340.693 26.9651 340.693 32.2163V51.5912C340.693 54.8336 340.834 56.6924 341.116 57.1684C341.416 57.6439 342.447 57.9701 344.209 58.1465C344.543 58.1992 344.711 58.4195 344.711 58.8073C344.711 59.1946 344.552 59.3888 344.235 59.3888C342.068 59.3183 340.349 59.2828 339.081 59.2828C337.636 59.2828 335.759 59.3183 333.451 59.3888C333.169 59.3888 333.028 59.1946 333.028 58.8073C333.028 58.4195 333.169 58.1992 333.451 58.1465C335.107 58.0228 336.067 57.6971 336.332 57.1684C336.684 56.5164 336.861 54.6572 336.861 51.5912ZM351.372 37.8463L348.015 37.8992C347.663 37.8992 347.486 37.6613 347.486 37.1855C347.486 36.7274 347.663 36.463 348.015 36.3926C349.636 36.0225 350.923 35.3 351.874 34.2251C352.79 33.1855 353.513 31.952 354.041 30.5246C354.147 30.2074 354.411 30.0488 354.834 30.0488C355.31 30.0488 355.548 30.2338 355.548 30.6039C355.442 33.2471 355.39 34.974 355.39 35.7846C357.416 35.7846 359.874 35.7494 362.764 35.6789C362.976 35.6789 363.081 35.7846 363.081 35.9961L362.579 37.5291C362.491 37.7759 362.315 37.8992 362.05 37.8992C360.746 37.7935 358.491 37.7406 355.284 37.7406L355.178 51.0098C355.178 53.6352 355.539 55.4412 356.262 56.4282C356.966 57.362 357.918 57.8292 359.116 57.8292C360.42 57.8292 361.557 57.3359 362.526 56.3489C362.632 56.243 362.738 56.1902 362.843 56.1902C363.037 56.1902 363.231 56.305 363.425 56.5342C363.583 56.7278 363.663 56.9042 363.663 57.0624C363.663 57.1684 363.61 57.2738 363.504 57.3798C361.76 59.3006 359.865 60.261 357.821 60.261C355.583 60.261 353.9 59.644 352.773 58.4106C351.698 57.1772 351.16 55.2476 351.16 52.6221L351.266 45.2738L351.372 37.8463ZM372.068 45.2738C371.962 46.1196 371.91 46.8508 371.91 47.4678C371.91 50.6747 372.852 53.3002 374.738 55.3446C376.289 57.0008 378.033 57.8292 379.972 57.8292C383.09 57.8292 385.549 56.5603 387.346 54.023C387.434 53.8821 387.557 53.8116 387.716 53.8116C387.927 53.8116 388.139 53.9082 388.351 54.1024C388.544 54.2433 388.641 54.3842 388.641 54.5252C388.641 54.7188 388.536 54.948 388.324 55.2121C386.086 58.5782 383.055 60.261 379.232 60.261C375.584 60.261 372.659 58.9832 370.456 56.4282C368.5 54.1374 367.522 51.2473 367.522 47.7585C367.522 43.8289 368.773 40.6129 371.275 38.1107C373.425 35.9432 376.033 34.8595 379.099 34.8595C381.971 34.8595 384.342 35.8903 386.21 37.9521C387.795 39.7142 388.676 41.8816 388.853 44.4544C388.853 44.7187 388.765 44.939 388.588 45.1152C388.412 45.2914 388.227 45.3795 388.033 45.3795C384.386 45.2738 380.835 45.2209 377.381 45.2209C374.967 45.2209 373.196 45.2386 372.068 45.2738ZM372.386 43.3707C373.443 43.4059 374.923 43.4236 376.826 43.4236C379.275 43.4236 381.61 43.353 383.831 43.2121C384.183 43.2121 384.359 42.9742 384.359 42.4984C384.183 40.56 383.566 39.027 382.509 37.8992C381.557 36.9124 380.421 36.419 379.099 36.419C377.478 36.419 376.051 37.0974 374.817 38.4543C373.689 39.6702 372.879 41.3089 372.386 43.3707ZM401.567 40.6481C403.928 36.8243 406.219 34.9124 408.439 34.9124C409.355 34.9124 410.096 35.0797 410.659 35.4146C411.135 35.7141 411.373 36.0577 411.373 36.4454C411.373 37.3089 411.029 38.1283 410.342 38.9036C409.778 39.538 409.241 39.8552 408.73 39.8552C408.36 39.8552 407.849 39.6966 407.197 39.3794C406.545 39.0446 406.078 38.8772 405.796 38.8772C405.021 38.8772 404.131 39.5468 403.126 40.8861C402.087 42.2605 401.567 43.776 401.567 45.4324V51.6967C401.567 54.9214 401.69 56.7628 401.937 57.2211C402.236 57.7498 403.311 58.076 405.161 58.1992C405.443 58.252 405.584 58.4545 405.584 58.8073C405.584 59.1946 405.443 59.3888 405.161 59.3888C402.994 59.3183 401.206 59.2828 399.796 59.2828C398.28 59.2828 396.439 59.3183 394.271 59.3888C393.954 59.3888 393.796 59.1946 393.796 58.8073C393.796 58.4545 393.954 58.252 394.271 58.1992C395.347 58.111 396.069 57.9967 396.439 57.8558C396.721 57.7321 396.959 57.5207 397.153 57.2211C397.505 56.7101 397.681 54.8686 397.681 51.6967V44.1372C397.681 41.8993 397.523 40.4367 397.205 39.7494C396.818 38.9917 396.324 38.6129 395.725 38.6129L393.796 38.7186C393.461 38.7186 393.293 38.4983 393.293 38.0578C393.293 37.6878 393.513 37.4322 393.954 37.2913C396.474 36.7802 398.835 36.0489 401.038 35.0974C401.461 35.0974 401.673 35.256 401.673 35.5732C401.602 37.6701 401.567 39.3618 401.567 40.6481ZM422.395 39.9081C424.528 36.5776 427.276 34.9124 430.642 34.9124C433.021 34.9124 434.924 35.6437 436.352 37.1062C437.673 38.4631 438.334 40.2076 438.334 42.3398L438.255 48.2872V51.6967C438.255 54.9041 438.404 56.7456 438.704 57.2211C438.986 57.6971 439.946 58.0228 441.585 58.1992C441.903 58.252 442.061 58.4545 442.061 58.8073C442.061 59.1946 441.903 59.3888 441.585 59.3888C439.488 59.3183 437.788 59.2828 436.484 59.2828C435.109 59.2828 433.303 59.3183 431.065 59.3888C430.748 59.3888 430.589 59.1946 430.589 58.8073C430.589 58.4545 430.748 58.252 431.065 58.1992C432.546 58.111 433.47 57.7853 433.84 57.2211C434.158 56.7456 434.316 54.9041 434.316 51.6967V43.4236C434.316 42.1548 434.113 41.1239 433.708 40.331C432.792 38.4807 431.241 37.5556 429.056 37.5556C426.906 37.5556 425.083 38.5688 423.585 40.5953C422.792 41.6702 422.395 43.0623 422.395 44.7716V51.6967C422.395 54.9746 422.519 56.816 422.766 57.2211C422.977 57.5384 423.277 57.7587 423.664 57.8819C424.052 57.9878 424.774 58.0933 425.832 58.1992C426.113 58.252 426.254 58.4545 426.254 58.8073C426.254 59.1946 426.113 59.3888 425.832 59.3888C423.664 59.3183 421.964 59.2828 420.73 59.2828C419.285 59.2828 417.479 59.3183 415.311 59.3888C415.03 59.3888 414.889 59.1946 414.889 58.8073C414.889 58.4545 415.03 58.252 415.311 58.1992C416.792 58.076 417.717 57.7498 418.087 57.2211C418.404 56.7278 418.563 54.8864 418.563 51.6967V44.1372C418.563 41.8816 418.422 40.4191 418.14 39.7494C417.787 38.9917 417.276 38.6129 416.606 38.6129L414.73 38.7186C414.395 38.7186 414.228 38.4455 414.228 37.8992C414.228 37.582 414.466 37.3794 414.941 37.2913C417.18 36.8155 419.505 36.0842 421.919 35.0974C422.307 35.0974 422.501 35.256 422.501 35.5732C422.43 37.5115 422.395 38.9565 422.395 39.9081ZM460.616 57.2738C459.33 58.4195 458.079 59.2124 456.863 59.6529C455.735 60.0584 454.413 60.261 452.898 60.261C450.925 60.261 449.347 59.6884 448.167 58.5427C447.162 57.5562 446.66 56.305 446.66 54.7893C446.66 52.7808 447.277 51.1946 448.511 50.0316C449.409 49.1328 451.55 48.1724 454.933 47.1504C456.978 46.5337 458.405 45.9258 459.215 45.3267C460.008 44.7099 460.405 44.0227 460.405 43.2649V41.864C460.405 38.1635 459.251 36.3133 456.942 36.3133C455.427 36.3133 454.202 36.745 453.268 37.6084C452.616 38.2605 452.29 39.1503 452.29 40.2781C452.29 40.9653 451.929 41.538 451.207 41.9962C450.555 42.4015 449.762 42.6041 448.828 42.6041C447.859 42.6041 447.374 42.1196 447.374 41.1504C447.374 39.5116 448.475 38.0137 450.678 36.6569C452.634 35.4586 454.775 34.8595 457.101 34.8595C459.956 34.8595 461.92 35.4586 462.996 36.6569C463.929 37.6965 464.388 39.4058 464.37 41.7848L464.264 53.4943C464.211 56.5603 464.89 58.0933 466.3 58.0933C466.792 58.0933 467.235 57.9524 467.623 57.6705C467.833 57.5473 467.991 57.4857 468.099 57.4857C468.257 57.4857 468.397 57.5823 468.518 57.7764C468.645 57.9524 468.705 58.1288 468.705 58.3047C468.705 58.4284 468.635 58.5338 468.495 58.622C467.226 59.5386 465.885 59.9964 464.476 59.9964C462.555 59.9964 461.268 59.0892 460.616 57.2738ZM460.405 46.1725C459.876 46.8597 458.22 47.7142 455.436 48.7366C453.744 49.3708 452.555 50.1287 451.867 51.0098C451.25 51.8026 450.942 52.8069 450.942 54.023C450.942 55.3092 451.383 56.3578 452.264 57.1684C453.021 57.8558 453.894 58.1992 454.881 58.1992C456.59 58.1992 457.973 57.6971 459.031 56.6924C459.912 55.8468 460.352 54.8336 460.352 53.653L460.405 46.1725ZM477.059 53.8116C478.011 53.8116 478.795 54.1551 479.411 54.8425C479.975 55.459 480.255 56.2168 480.255 57.1156C480.255 58.0494 479.905 58.8246 479.201 59.4415C478.58 59.988 477.866 60.261 477.059 60.261C476.069 60.261 475.262 59.9175 474.627 59.2301C474.081 58.6309 473.806 57.9262 473.806 57.1156C473.806 56.0759 474.161 55.2476 474.865 54.6306C475.463 54.0846 476.195 53.8116 477.059 53.8116ZM487.26 57.9878C489.481 57.8114 490.792 57.3798 491.199 56.6924C491.516 56.1814 491.712 55.4856 491.782 54.6045C491.87 53.688 491.913 52.014 491.913 49.5822V30.6039C491.913 27.7844 491.87 25.9958 491.782 25.2381C491.712 24.6566 491.535 24.1632 491.25 23.7579C490.83 23.1059 489.402 22.6742 486.971 22.4628C486.686 22.4275 486.546 22.216 486.546 21.8284C486.546 21.2469 486.686 20.9561 486.971 20.9561C490.531 21.1323 492.883 21.2204 494.027 21.2204C495.296 21.2204 497.606 21.1323 500.952 20.9561C501.321 20.9561 501.507 21.2469 501.507 21.8284C501.507 22.216 501.321 22.4275 500.952 22.4628C498.731 22.6918 497.419 23.1236 497.013 23.7579C496.537 24.498 496.299 26.78 496.299 30.6039V51.644C496.299 54.3754 496.519 56.0582 496.962 56.6924C497.223 57.0802 497.648 57.362 498.231 57.5384C498.829 57.7144 499.832 57.8642 501.241 57.9878C501.596 58.0228 501.773 58.252 501.773 58.6748C501.773 59.1508 501.596 59.3888 501.241 59.3888C498.39 59.2478 495.982 59.1774 494.027 59.1774C492.071 59.1774 489.808 59.2478 487.232 59.3888C486.952 59.3888 486.812 59.1508 486.812 58.6748C486.812 58.2697 486.961 58.0406 487.26 57.9878ZM514.009 39.9081C516.142 36.5776 518.891 34.9124 522.255 34.9124C524.635 34.9124 526.539 35.6437 527.967 37.1062C529.288 38.4631 529.951 40.2076 529.951 42.3398L529.871 48.2872V51.6967C529.871 54.9041 530.021 56.7456 530.319 57.2211C530.599 57.6971 531.561 58.0228 533.199 58.1992C533.516 58.252 533.675 58.4545 533.675 58.8073C533.675 59.1946 533.516 59.3888 533.199 59.3888C531.103 59.3183 529.4 59.2828 528.098 59.2828C526.726 59.2828 524.915 59.3183 522.68 59.3888C522.363 59.3888 522.204 59.1946 522.204 58.8073C522.204 58.4545 522.363 58.252 522.68 58.1992C524.159 58.111 525.083 57.7853 525.457 57.2211C525.774 56.7456 525.933 54.9041 525.933 51.6967V43.4236C525.933 42.1548 525.727 41.1239 525.321 40.331C524.407 38.4807 522.857 37.5556 520.669 37.5556C518.522 37.5556 516.697 38.5688 515.199 40.5953C514.406 41.6702 514.009 43.0623 514.009 44.7716V51.6967C514.009 54.9746 514.135 56.816 514.378 57.2211C514.593 57.5384 514.891 57.7587 515.279 57.8819C515.666 57.9878 516.389 58.0933 517.444 58.1992C517.729 58.252 517.869 58.4545 517.869 58.8073C517.869 59.1946 517.729 59.3888 517.444 59.3888C515.279 59.3183 513.58 59.2828 512.343 59.2828C510.901 59.2828 509.095 59.3183 506.925 59.3888C506.645 59.3888 506.505 59.1946 506.505 58.8073C506.505 58.4545 506.645 58.252 506.925 58.1992C508.405 58.076 509.333 57.7498 509.702 57.2211C510.019 56.7278 510.178 54.8864 510.178 51.6967V44.1372C510.178 41.8816 510.038 40.4191 509.753 39.7494C509.403 38.9917 508.89 38.6129 508.223 38.6129L506.347 38.7186C506.011 38.7186 505.843 38.4455 505.843 37.8992C505.843 37.582 506.081 37.3794 506.557 37.2913C508.792 36.8155 511.121 36.0842 513.533 35.0974C513.921 35.0974 514.117 35.256 514.117 35.5732C514.047 37.5115 514.009 38.9565 514.009 39.9081ZM549.695 34.8595C551.879 34.8595 553.914 35.256 555.799 36.0489C557.139 36.6304 557.806 37.3882 557.806 38.3221C557.806 39.4323 557.596 40.2781 557.176 40.8596C556.859 41.3354 556.462 41.5733 555.986 41.5733C555.365 41.5733 554.521 40.7803 553.447 39.1944L553.102 38.7186C552.117 37.256 550.909 36.5247 549.481 36.5247C547.367 36.5247 545.687 37.6084 544.431 39.7759C543.288 41.7495 542.714 44.3134 542.714 47.4678C542.714 50.6747 543.615 53.2829 545.411 55.2914C546.858 56.9126 548.505 57.7232 550.353 57.7232C552.22 57.7232 553.727 57.3975 554.875 56.7456C555.809 56.1991 556.733 55.3092 557.647 54.0758C557.792 53.8994 557.913 53.8116 558.021 53.8116C558.268 53.8116 558.497 53.8994 558.707 54.0758C558.903 54.2167 558.996 54.3665 558.996 54.5252C558.996 54.5779 558.963 54.6838 558.893 54.8425C556.653 58.4545 553.555 60.261 549.588 60.261C546.097 60.261 543.26 58.9744 541.076 56.4016C539.139 54.0935 538.169 51.2123 538.169 47.7585C538.169 43.7407 539.438 40.4896 541.977 38.0049C544.123 35.908 546.699 34.8595 549.695 34.8595Z" fill="black"/>
<path d="M174.18 40.3316V25.9355H222.31C224.368 37.128 220.228 44.6572 217.901 47.0227C219.371 52.3758 228.801 54.1193 233.332 54.3223V59.9993C220.4 59.9993 211.288 56.2146 208.349 54.3223C195.49 59.5938 184.467 59.9993 174.18 59.9993V54.3223C193.579 54.4842 196.959 45.0627 196.224 40.3316H174.18Z" fill="black"/>
<path d="M66.3125 59.6587V24.9863H88.7241V34.7189C89.8264 40.8017 106.36 42.6266 111.504 42.8293V50.1289C99.0113 50.1289 91.4187 48.98 88.7241 47.4927V59.6587H66.3125Z" fill="black"/>
<path d="M0 39.1501V26.9844L60.6223 27.1871C61.7246 32.6617 61.7246 39.4721 59.52 42.1915C54.5234 48.3552 41.7619 48.9502 36.0059 48.477C34.8302 54.1545 31.3521 58.277 29.76 59.629H15.7985C18.4438 50.221 16.1659 43.5432 14.6963 41.3804H35.2711C35.8589 42.0292 36.0059 43.5432 36.0059 44.2191C41.8844 43.7324 42.6193 40.7721 41.8844 39.1501H0Z" fill="black"/>
<path d="M124.18 31.3069V23.334H158.349V31.3069H124.18Z" fill="black"/>
<path d="M116.465 45.6366V34.6875H169.004C169.004 44.8021 170.967 49.7728 162.758 55.369C156.512 59.6269 137.406 59.8299 122.711 59.8299V55.369C141.816 54.8823 146.225 49.692 146.225 45.6366H116.465Z" fill="black"/>
</svg>
