<svg width="246" height="93" viewBox="0 0 246 93" fill="none" xmlns="http://www.w3.org/2000/svg">
<path d="M1.79963 92.9035L0.175781 92.2416L16.9261 52.2109L18.5496 52.8731L1.79963 92.9035ZM50.7041 75.6226C48.6528 75.5087 46.9864 75.4517 45.7047 75.4517C43.7673 75.4517 41.9443 75.5087 40.2352 75.6226L38.4405 80.5143C37.771 82.2944 37.4364 83.64 37.4364 84.5515C37.4364 85.2922 37.6925 85.8047 38.2055 86.0895C38.7181 86.3603 39.6868 86.545 41.1111 86.645C41.3676 86.6733 41.4955 86.8584 41.4955 87.2001C41.4955 87.5848 41.3676 87.7771 41.1111 87.7771C37.9347 87.6915 36.183 87.6489 35.8552 87.6489C34.2743 87.6489 32.8002 87.6915 31.4329 87.7771C31.1764 87.7771 31.0481 87.5848 31.0481 87.2001C31.0481 86.8584 31.1764 86.6733 31.4329 86.645C32.6007 86.4881 33.4339 86.1393 33.9326 85.5981C34.5878 84.886 35.4493 83.1346 36.5175 80.3435L41.6878 66.651C43.4113 62.037 44.5153 58.9325 44.9997 57.3376L47.499 56.0986C47.6985 56.0986 47.8268 56.2197 47.8837 56.4618C48.7811 59.4666 49.9206 62.9342 51.3023 66.8646L56.2161 80.6852C57.1278 83.2485 57.8399 84.886 58.3526 85.5981C58.7513 86.1822 59.7984 86.5311 61.4931 86.645C61.8209 86.6733 61.9846 86.8584 61.9846 87.2001C61.9846 87.5848 61.8277 87.7771 61.5146 87.7771C58.253 87.6915 56.3515 87.6489 55.8102 87.6489C55.3402 87.6489 53.4742 87.6915 50.2126 87.7771C49.9561 87.7771 49.8278 87.5848 49.8278 87.2001C49.8278 86.8584 49.9561 86.6733 50.2126 86.645C51.7221 86.5311 52.6908 86.3244 53.1181 86.0254C53.4316 85.7976 53.5881 85.3918 53.5881 84.808C53.5881 84.2668 53.2536 83.0279 52.584 81.091L50.7041 75.6226ZM45.5764 60.7767C45.3625 61.4175 45.0136 62.3788 44.5293 63.6605C44.0023 65.0845 43.6036 66.1668 43.3332 66.9073L40.8546 73.871C41.8945 73.928 43.5112 73.9564 45.7047 73.9564C47.7129 73.9564 49.187 73.928 50.127 73.871L47.6272 66.9073C46.9864 65.0133 46.3029 62.9698 45.5764 60.7767ZM66.4499 81.4756V62.3147C66.4499 60.4919 66.336 59.2957 66.1078 58.7261C65.88 58.1422 65.4243 57.8502 64.7405 57.8502L63.2022 57.9357C62.9744 57.9357 62.8605 57.7648 62.8605 57.423C62.8605 57.0812 63.0242 56.8747 63.352 56.8035C65.0184 56.4618 66.998 55.8779 69.2914 55.052C69.5762 55.052 69.7187 55.173 69.7187 55.4151C69.6048 58.1066 69.5479 61.5742 69.5479 65.8179V81.4756C69.5479 84.0959 69.6618 85.5981 69.8896 85.9827C70.1318 86.367 70.965 86.6307 72.3893 86.7732C72.6598 86.8158 72.7952 86.9938 72.7952 87.3072C72.7952 87.6202 72.6669 87.7771 72.4104 87.7771C70.6587 87.7202 69.2699 87.6915 68.2446 87.6915C67.0764 87.6915 65.5597 87.7202 63.6937 87.7771C63.4659 87.7771 63.352 87.6202 63.352 87.3072C63.352 86.9938 63.4659 86.8158 63.6937 86.7732C65.0328 86.6733 65.8087 86.41 66.0226 85.9827C66.3073 85.4559 66.4499 83.9534 66.4499 81.4756ZM78.179 70.3678L75.4658 70.4105C75.181 70.4105 75.0384 70.2183 75.0384 69.8338C75.0384 69.4635 75.181 69.2499 75.4658 69.193C76.7762 68.8939 77.8161 68.31 78.5852 67.4413C79.3257 66.6011 79.9096 65.6043 80.3369 64.4508C80.4226 64.1945 80.6361 64.0663 80.9778 64.0663C81.3626 64.0663 81.5549 64.2158 81.5549 64.5149C81.4693 66.651 81.4267 68.0466 81.4267 68.7016C83.0645 68.7016 85.0516 68.6731 87.3876 68.6162C87.5584 68.6162 87.6437 68.7016 87.6437 68.8725L87.2378 70.1115C87.1665 70.3108 87.0243 70.4105 86.8104 70.4105C85.7565 70.3251 83.9335 70.2823 81.341 70.2823L81.2558 81.0057C81.2558 83.1275 81.5477 84.587 82.1316 85.3846C82.7012 86.1393 83.4703 86.5168 84.439 86.5168C85.4929 86.5168 86.4117 86.1181 87.1952 85.3205C87.2804 85.2349 87.3661 85.1923 87.4513 85.1923C87.6082 85.1923 87.7648 85.285 87.9217 85.4702C88.0496 85.6267 88.1137 85.7693 88.1137 85.8971C88.1137 85.9827 88.0711 86.068 87.9854 86.1536C86.5755 87.7059 85.0444 88.482 83.3923 88.482C81.5832 88.482 80.223 87.9834 79.3113 86.9867C78.4426 85.9899 78.0081 84.4305 78.0081 82.3087L78.0937 76.3702L78.179 70.3678ZM94.9078 76.3702C94.8222 77.0538 94.7796 77.6447 94.7796 78.1433C94.7796 80.7349 95.5415 82.8567 97.0658 84.5089C98.3192 85.8474 99.7292 86.5168 101.296 86.5168C103.817 86.5168 105.804 85.4913 107.257 83.4409C107.328 83.327 107.427 83.27 107.556 83.27C107.727 83.27 107.898 83.3481 108.069 83.505C108.225 83.6189 108.304 83.7328 108.304 83.8467C108.304 84.0032 108.218 84.1883 108.047 84.4018C106.238 87.1221 103.789 88.482 100.698 88.482C97.7493 88.482 95.385 87.4494 93.6046 85.3846C92.0237 83.5333 91.2331 81.1977 91.2331 78.3782C91.2331 75.2025 92.2444 72.6036 94.2669 70.5814C96.0047 68.8298 98.1125 67.954 100.591 67.954C102.912 67.954 104.828 68.7871 106.338 70.4533C107.62 71.8773 108.332 73.6289 108.475 75.7081C108.475 75.9217 108.403 76.0997 108.261 76.2421C108.119 76.3845 107.969 76.4557 107.812 76.4557C104.864 76.3702 101.994 76.3275 99.2023 76.3275C97.251 76.3275 95.8195 76.3418 94.9078 76.3702ZM95.1643 74.8323C96.0187 74.8607 97.2152 74.875 98.7534 74.875C100.733 74.875 102.62 74.818 104.415 74.7041C104.7 74.7041 104.843 74.5118 104.843 74.1274C104.7 72.5609 104.202 71.3219 103.347 70.4105C102.578 69.613 101.659 69.2143 100.591 69.2143C99.2803 69.2143 98.1268 69.7626 97.1299 70.8591C96.2182 71.8417 95.563 73.1661 95.1643 74.8323ZM118.751 72.6321C120.66 69.5418 122.511 67.9967 124.306 67.9967C125.047 67.9967 125.645 68.132 126.1 68.4026C126.485 68.6447 126.678 68.9224 126.678 69.2357C126.678 69.9335 126.4 70.5957 125.844 71.2222C125.388 71.7349 124.954 71.9912 124.541 71.9912C124.242 71.9912 123.829 71.8631 123.302 71.6068C122.775 71.3362 122.397 71.2009 122.169 71.2009C121.543 71.2009 120.823 71.742 120.012 72.8243C119.171 73.9351 118.751 75.1598 118.751 76.4984V81.5609C118.751 84.1668 118.851 85.655 119.05 86.0254C119.292 86.4526 120.161 86.7163 121.657 86.8158C121.884 86.8584 121.998 87.0221 121.998 87.3072C121.998 87.6202 121.884 87.7771 121.657 87.7771C119.905 87.7202 118.459 87.6915 117.32 87.6915C116.095 87.6915 114.606 87.7202 112.854 87.7771C112.598 87.7771 112.47 87.6202 112.47 87.3072C112.47 87.0221 112.598 86.8584 112.854 86.8158C113.723 86.7445 114.307 86.6522 114.606 86.5383C114.834 86.4383 115.027 86.2675 115.183 86.0254C115.468 85.6124 115.61 84.1242 115.61 81.5609V75.4517C115.61 73.6432 115.482 72.4612 115.226 71.9058C114.913 71.2934 114.514 70.9873 114.029 70.9873L112.47 71.0727C112.199 71.0727 112.064 70.8947 112.064 70.5387C112.064 70.2396 112.242 70.0331 112.598 69.9192C114.635 69.5062 116.543 68.9152 118.324 68.1463C118.665 68.1463 118.837 68.2744 118.837 68.5307C118.779 70.2254 118.751 71.5925 118.751 72.6321ZM135.587 72.034C137.31 69.3425 139.532 67.9967 142.253 67.9967C144.175 67.9967 145.713 68.5877 146.867 69.7697C147.935 70.8662 148.47 72.276 148.47 73.9992L148.405 78.8055V81.5609C148.405 84.1529 148.526 85.6411 148.769 86.0254C148.996 86.41 149.773 86.6733 151.097 86.8158C151.354 86.8584 151.482 87.0221 151.482 87.3072C151.482 87.6202 151.354 87.7771 151.097 87.7771C149.402 87.7202 148.028 87.6915 146.974 87.6915C145.863 87.6915 144.403 87.7202 142.594 87.7771C142.338 87.7771 142.21 87.6202 142.21 87.3072C142.21 87.0221 142.338 86.8584 142.594 86.8158C143.791 86.7445 144.538 86.4813 144.837 86.0254C145.094 85.6411 145.222 84.1529 145.222 81.5609V74.875C145.222 73.8496 145.058 73.0165 144.731 72.3757C143.99 70.8805 142.736 70.1328 140.97 70.1328C139.233 70.1328 137.759 70.9517 136.548 72.5893C135.907 73.458 135.587 74.583 135.587 75.9644V81.5609C135.587 84.2098 135.686 85.698 135.886 86.0254C136.057 86.2818 136.299 86.4598 136.612 86.5594C136.925 86.645 137.509 86.7302 138.364 86.8158C138.592 86.8584 138.706 87.0221 138.706 87.3072C138.706 87.6202 138.592 87.7771 138.364 87.7771C136.612 87.7202 135.238 87.6915 134.24 87.6915C133.073 87.6915 131.613 87.7202 129.861 87.7771C129.633 87.7771 129.519 87.6202 129.519 87.3072C129.519 87.0221 129.633 86.8584 129.861 86.8158C131.057 86.7163 131.805 86.4526 132.104 86.0254C132.36 85.6267 132.489 84.1386 132.489 81.5609V75.4517C132.489 73.6289 132.375 72.4469 132.147 71.9058C131.862 71.2934 131.449 70.9873 130.907 70.9873L129.391 71.0727C129.12 71.0727 128.985 70.852 128.985 70.4105C128.985 70.1542 129.177 69.9904 129.562 69.9192C131.371 69.5347 133.251 68.9437 135.202 68.1463C135.515 68.1463 135.672 68.2744 135.672 68.5307C135.615 70.0972 135.587 71.265 135.587 72.034ZM166.48 86.068C165.441 86.9938 164.429 87.6346 163.446 87.9906C162.535 88.3183 161.466 88.482 160.242 88.482C158.646 88.482 157.371 88.0193 156.417 87.0934C155.605 86.2961 155.2 85.285 155.2 84.0601C155.2 82.4369 155.698 81.1551 156.695 80.2153C157.421 79.4889 159.152 78.7128 161.887 77.8868C163.539 77.3885 164.693 76.8972 165.348 76.413C165.989 75.9145 166.309 75.3591 166.309 74.7468V73.6147C166.309 70.6241 165.376 69.1289 163.51 69.1289C162.286 69.1289 161.295 69.4778 160.541 70.1755C160.014 70.7025 159.75 71.4216 159.75 72.333C159.75 72.8884 159.458 73.3512 158.874 73.7215C158.347 74.049 157.706 74.2128 156.951 74.2128C156.168 74.2128 155.776 73.8212 155.776 73.0379C155.776 71.7136 156.666 70.5031 158.447 69.4066C160.028 68.4382 161.759 67.954 163.639 67.954C165.946 67.954 167.534 68.4382 168.403 69.4066C169.158 70.2467 169.528 71.6281 169.514 73.5506L169.429 83.0136C169.386 85.4913 169.934 86.7302 171.074 86.7302C171.472 86.7302 171.83 86.6163 172.143 86.3885C172.313 86.289 172.441 86.2392 172.528 86.2392C172.656 86.2392 172.769 86.3173 172.867 86.4741C172.969 86.6163 173.018 86.7589 173.018 86.9011C173.018 87.001 172.962 87.0862 172.848 87.1575C171.822 87.8982 170.739 88.2682 169.6 88.2682C168.047 88.2682 167.007 87.535 166.48 86.068ZM166.309 77.0965C165.882 77.6519 164.543 78.3424 162.293 79.1687C160.925 79.6812 159.964 80.2937 159.408 81.0057C158.91 81.6465 158.661 82.4581 158.661 83.4409C158.661 84.4802 159.017 85.3277 159.729 85.9827C160.341 86.5383 161.047 86.8158 161.844 86.8158C163.226 86.8158 164.344 86.41 165.198 85.5981C165.911 84.9147 166.267 84.0959 166.267 83.1418L166.309 77.0965ZM179.77 83.27C180.54 83.27 181.173 83.5476 181.671 84.1031C182.128 84.6013 182.354 85.2138 182.354 85.9401C182.354 86.6948 182.071 87.3212 181.501 87.8198C181 88.2614 180.423 88.482 179.77 88.482C178.97 88.482 178.318 88.2044 177.805 87.6489C177.363 87.1647 177.141 86.5952 177.141 85.9401C177.141 85.0999 177.428 84.4305 177.997 83.9319C178.48 83.4906 179.072 83.27 179.77 83.27ZM188.016 86.645C189.811 86.5024 190.871 86.1536 191.199 85.5981C191.456 85.1851 191.614 84.6228 191.671 83.9108C191.742 83.1701 191.776 81.8173 191.776 79.8521V64.5149C191.776 62.2364 191.742 60.7909 191.671 60.1786C191.614 59.7086 191.471 59.3099 191.241 58.9824C190.901 58.4555 189.747 58.1066 187.782 57.9357C187.552 57.9072 187.438 57.7363 187.438 57.423C187.438 56.9531 187.552 56.7181 187.782 56.7181C190.66 56.8605 192.561 56.9317 193.485 56.9317C194.511 56.9317 196.378 56.8605 199.083 56.7181C199.381 56.7181 199.532 56.9531 199.532 57.423C199.532 57.7363 199.381 57.9072 199.083 57.9357C197.287 58.1208 196.227 58.4697 195.899 58.9824C195.514 59.5805 195.322 61.4247 195.322 64.5149V81.5182C195.322 83.7256 195.499 85.0855 195.858 85.5981C196.069 85.9115 196.412 86.1392 196.884 86.2818C197.366 86.424 198.177 86.545 199.317 86.645C199.603 86.6733 199.747 86.8584 199.747 87.2001C199.747 87.5848 199.603 87.7771 199.317 87.7771C197.012 87.6632 195.065 87.6063 193.485 87.6063C191.905 87.6063 190.075 87.6632 187.993 87.7771C187.767 87.7771 187.654 87.5848 187.654 87.2001C187.654 86.8728 187.774 86.6876 188.016 86.645ZM209.637 72.034C211.361 69.3425 213.582 67.9967 216.302 67.9967C218.226 67.9967 219.765 68.5877 220.919 69.7697C221.986 70.8662 222.522 72.276 222.522 73.9992L222.458 78.8055V81.5609C222.458 84.1529 222.579 85.6411 222.82 86.0254C223.046 86.41 223.823 86.6733 225.147 86.8158C225.404 86.8584 225.532 87.0221 225.532 87.3072C225.532 87.6202 225.404 87.7771 225.147 87.7771C223.454 87.7202 222.077 87.6915 221.024 87.6915C219.915 87.6915 218.452 87.7202 216.645 87.7771C216.389 87.7771 216.26 87.6202 216.26 87.3072C216.26 87.0221 216.389 86.8584 216.645 86.8158C217.841 86.7445 218.588 86.4813 218.889 86.0254C219.146 85.6411 219.274 84.1529 219.274 81.5609V74.875C219.274 73.8496 219.108 73.0165 218.78 72.3757C218.041 70.8805 216.788 70.1328 215.019 70.1328C213.284 70.1328 211.809 70.9517 210.599 72.5893C209.957 73.458 209.637 74.583 209.637 75.9644V81.5609C209.637 84.2098 209.739 85.698 209.935 86.0254C210.108 86.2818 210.35 86.4598 210.663 86.5594C210.976 86.645 211.56 86.7302 212.413 86.8158C212.643 86.8584 212.756 87.0221 212.756 87.3072C212.756 87.6202 212.643 87.7771 212.413 87.7771C210.663 87.7202 209.29 87.6915 208.29 87.6915C207.125 87.6915 205.665 87.7202 203.911 87.7771C203.685 87.7771 203.571 87.6202 203.571 87.3072C203.571 87.0221 203.685 86.8584 203.911 86.8158C205.107 86.7163 205.857 86.4526 206.155 86.0254C206.412 85.6267 206.54 84.1386 206.54 81.5609V75.4517C206.54 73.6289 206.427 72.4469 206.197 71.9058C205.914 71.2934 205.499 70.9873 204.959 70.9873L203.443 71.0727C203.172 71.0727 203.036 70.852 203.036 70.4105C203.036 70.1542 203.228 69.9904 203.613 69.9192C205.42 69.5347 207.302 68.9437 209.252 68.1463C209.565 68.1463 209.724 68.2744 209.724 68.5307C209.667 70.0972 209.637 71.265 209.637 72.034ZM238.481 67.954C240.247 67.954 241.891 68.2744 243.415 68.9152C244.498 69.3852 245.037 69.9975 245.037 70.7523C245.037 71.6494 244.867 72.333 244.528 72.8029C244.271 73.1875 243.951 73.3797 243.566 73.3797C243.064 73.3797 242.382 72.7389 241.514 71.4572L241.235 71.0727C240.439 69.8907 239.462 69.2998 238.308 69.2998C236.599 69.2998 235.241 70.1755 234.226 71.9272C233.302 73.5221 232.838 75.5941 232.838 78.1433C232.838 80.7349 233.566 82.8427 235.019 84.4659C236.188 85.7761 237.519 86.4312 239.013 86.4312C240.522 86.4312 241.74 86.1679 242.668 85.6411C243.423 85.1994 244.169 84.4802 244.909 83.4835C245.026 83.3409 245.124 83.27 245.211 83.27C245.41 83.27 245.595 83.3409 245.765 83.4835C245.923 83.5974 245.999 83.7184 245.999 83.8467C245.999 83.8893 245.972 83.9749 245.916 84.1031C244.105 87.0221 241.601 88.482 238.395 88.482C235.573 88.482 233.28 87.4422 231.514 85.3631C229.949 83.4978 229.164 81.1694 229.164 78.3782C229.164 75.1313 230.19 72.5039 232.242 70.496C233.978 68.8013 236.06 67.954 238.481 67.954Z" fill="black"/>
<path d="M171.797 13.7336V2.09961H210.7C212.363 11.1446 209.017 17.2292 207.136 19.1409C208.324 23.467 215.946 24.8759 219.609 25.04V29.6278C209.156 29.6278 201.791 26.5692 199.415 25.04C189.021 29.3 180.112 29.6278 171.797 29.6278V25.04C187.477 25.1708 190.209 17.557 189.615 13.7336H171.797Z" fill="black"/>
<path d="M84.5898 29.3599V1.33984H102.705V9.20508C103.596 14.1208 116.959 15.5956 121.117 15.7594V21.6585C111.02 21.6585 104.883 20.73 102.705 19.5281V29.3599H84.5898Z" fill="black"/>
<path d="M31 12.7925V2.96094L79.9997 3.1248C80.8907 7.54899 80.8907 13.0527 79.1088 15.2503C75.0701 20.2315 64.7553 20.7123 60.1028 20.3299C59.1525 24.9181 56.3412 28.2497 55.0544 29.3422H43.7696C45.9078 21.7393 44.0666 16.3427 42.8787 14.5949H59.5089C59.984 15.1192 60.1028 16.3427 60.1028 16.8889C64.8543 16.4957 65.4482 14.1033 64.8543 12.7925H31Z" fill="black"/>
<path d="M131.375 6.44324V0H158.993V6.44324H131.375Z" fill="black"/>
<path d="M125.121 18.0144V9.16602H167.587C167.587 17.34 169.174 21.357 162.539 25.8795C157.491 29.3204 142.047 29.4845 130.17 29.4845V25.8795C145.612 25.4862 149.176 21.2917 149.176 18.0144H125.121Z" fill="black"/>
</svg>
