<svg width="325" height="258" viewBox="0 0 325 258" fill="none" xmlns="http://www.w3.org/2000/svg">
<path d="M121.154 51.935H116.174C115.593 53.097 114.68 55.006 113.767 56.417H123.229C122.316 54.674 121.652 53.097 121.154 51.935ZM118.415 46.623H124.723C125.802 45.212 127.047 43.054 127.794 41.477C128.541 39.983 129.371 39.319 130.782 39.319C132.525 39.319 134.019 40.564 134.019 42.224C134.019 43.552 132.193 46.208 131.861 46.623H139.497C141.323 46.623 142.153 47.702 142.153 49.279C142.153 50.856 141.323 51.935 139.497 51.935H127.628C128.043 52.848 129.039 54.923 129.952 56.417H141.24C143.149 56.417 143.979 57.496 143.979 59.239C143.979 60.899 143.149 61.978 141.24 61.978H133.521C136.343 65.713 140.41 68.867 141.738 69.863C142.817 70.693 143.481 71.357 143.481 72.436C143.481 74.345 142.236 75.839 140.327 75.839C137.588 75.839 132.027 70.112 126.549 61.978H110.364C109.202 63.389 108.04 65.049 106.961 66.211H123.976C128.043 66.211 129.371 67.539 129.371 71.606V75.507C129.371 79.574 128.043 80.902 123.976 80.902H109.866C108.206 80.902 108.206 81.317 108.206 84.969C108.206 86.214 108.87 86.463 110.447 86.463H118.083C121.569 86.463 124.64 86.463 127.794 86.214C129.62 86.131 130.533 85.135 131.28 82.396C131.778 80.321 132.442 79.159 134.434 79.159C136.011 79.159 137.671 80.155 137.671 82.147C137.671 83.558 136.343 88.621 132.774 90.779C130.865 92.024 129.703 92.19 113.684 92.19C105.716 92.19 102.23 92.19 102.23 87.044V80.736C102.23 77.084 103.641 75.673 107.376 75.673H121.735C123.229 75.673 123.229 75.424 123.229 73.017C123.229 71.689 123.063 71.523 121.735 71.523H105.882C104.886 71.523 103.807 71.108 103.724 69.78C102.23 71.44 97.499 76.171 95.341 76.171C93.764 76.171 92.436 74.843 92.436 73.1C92.436 72.021 93.1 71.108 94.428 70.029C96.503 68.452 100.238 65.547 103.06 61.978H94.096C92.187 61.978 91.357 60.899 91.357 59.239C91.357 57.496 92.187 56.417 94.096 56.417H106.961C108.04 54.923 108.787 53.429 109.534 51.935H96.171C94.262 51.935 93.515 50.856 93.515 49.279C93.515 47.702 94.262 46.623 96.171 46.623H102.645C100.902 43.801 100.487 43.054 100.487 42.141C100.487 40.398 102.064 39.402 103.89 39.402C105.052 39.402 105.633 39.9 106.214 40.979C107.21 42.722 108.123 44.714 109.036 46.623H111.609C112.107 45.544 112.854 43.469 113.601 41.145C114.099 39.319 115.012 38.406 116.423 38.406C118.747 38.406 119.992 39.651 119.992 41.228C119.992 42.971 118.498 46.374 118.415 46.623ZM143.149 37.078H92.685C90.61 37.078 89.946 37.659 89.946 39.817V92.688C89.946 94.763 90.61 95.427 92.685 95.427H143.149C145.224 95.427 145.888 94.763 145.888 92.688V39.817C145.888 37.659 145.224 37.078 143.149 37.078ZM83.057 94.431V38.074C83.057 33.011 85.381 30.604 90.444 30.604H145.39C150.453 30.604 152.777 33.011 152.777 38.074V94.431C152.777 99.577 150.453 101.901 145.39 101.901H90.444C85.381 101.901 83.057 99.577 83.057 94.431ZM184.483 36.746H198.178C202.328 36.746 204.818 38.738 204.818 41.892C204.818 43.635 202.577 56.334 198.759 66.46C196.02 73.1 193.198 78.827 188.135 85.633C181.412 94.514 170.954 103.063 167.717 103.063C165.808 103.063 163.899 101.32 163.899 99.494C163.899 97.502 164.895 96.672 167.385 95.095C176.266 89.368 182.657 81.981 187.139 74.096C183.653 70.112 180.748 67.124 178.092 64.717C176.183 62.974 175.685 62.144 175.685 60.899C175.685 58.907 177.511 57.496 179.171 57.496C180.831 57.496 181.744 58.409 182.408 58.99C185.645 61.895 188.55 65.132 190.625 67.373C195.024 56.915 197.265 45.544 197.265 44.216C197.265 43.303 196.85 43.054 196.103 43.054H182.242C179.254 50.607 175.187 57.662 170.124 64.053C168.547 65.962 167.385 67.207 165.559 67.207C163.567 67.207 162.073 65.547 162.073 63.555C162.073 62.393 162.654 61.314 164.646 58.99C171.286 51.022 175.519 41.394 178.341 31.434C179.171 28.363 180.997 28.031 182.159 28.031C184.234 28.031 185.811 29.193 185.811 31.268C185.811 33.094 185.064 35.086 184.483 36.746ZM221.335 31.351V64.219C225.153 68.452 231.046 73.681 235.943 76.835C239.595 79.242 240.01 79.823 240.01 81.566C240.01 83.641 238.765 85.218 236.607 85.218C234.781 85.218 233.204 84.222 230.382 82.147C227.809 80.155 224.572 77.499 221.335 74.262V101.652C221.335 104.142 219.924 105.221 217.766 105.221C215.608 105.221 214.197 104.142 214.197 101.652V66.875C212.039 64.219 204.569 54.508 204.569 50.275C204.569 48.2 206.395 47.204 207.806 47.204C209.217 47.204 210.213 47.702 211.043 49.113C211.873 50.773 213.035 53.18 214.197 55.172V31.351C214.197 28.861 215.608 27.782 217.766 27.782C219.924 27.782 221.335 28.861 221.335 31.351ZM50.5094 152.805L49.2884 152.31L61.9274 122.115L63.1484 122.61L50.5094 152.805ZM95.1086 144.621L95.3396 144.852C97.9796 147.327 100.983 148.812 103.821 149.538C104.019 149.604 103.953 149.868 103.755 149.934C103.029 150.132 102.699 150.396 102.336 151.353C102.204 151.683 102.072 151.749 101.841 151.749C101.676 151.749 101.181 151.584 100.389 151.155C98.0456 149.835 95.8016 147.921 93.9536 145.875C91.2806 148.548 87.8486 150.594 83.5916 152.013C83.3936 152.079 83.1956 151.65 83.3606 151.551C87.1886 149.67 90.3566 147.294 92.7986 144.423C91.8746 143.202 91.1816 141.816 90.5876 140.43C89.7296 138.351 89.1686 136.173 88.6736 133.995H87.1556C86.9576 137.79 86.5286 140.529 85.8356 143.004C84.8786 146.238 83.5586 148.977 80.8526 151.914C80.7206 152.046 80.3576 151.782 80.4566 151.617C82.4696 148.548 83.5256 145.809 84.2186 142.641C84.8786 139.44 85.2086 135.744 85.2086 129.87C85.2086 126.9 85.2086 126.141 85.0106 124.326C86.0006 124.722 86.6606 125.052 87.5846 125.646H99.3326C100.653 124.029 100.818 123.93 101.016 123.93C101.214 123.93 101.412 123.996 102.864 125.151C103.557 125.745 103.689 125.943 103.689 126.141C103.689 126.339 103.524 126.471 103.227 126.471H87.2546V129.342C87.2546 130.728 87.2216 131.982 87.1886 133.17H98.0126C98.8376 132.213 99.0686 132.048 99.2336 132.048C99.3986 132.048 99.5636 132.114 100.653 133.104C101.082 133.5 101.181 133.731 101.181 133.896C101.181 134.16 100.95 134.325 100.125 134.688C99.0686 138.615 97.4186 141.915 95.1086 144.621ZM98.0786 133.995H89.4326C89.8946 135.711 90.4226 137.394 91.1816 139.011C91.8746 140.529 92.6996 141.915 93.7556 143.202C95.7686 140.496 97.2206 137.427 98.0786 133.995ZM79.5326 133.962V151.353C79.5326 152.013 79.1696 152.343 78.3116 152.343C77.6846 152.343 77.3876 152.112 77.3876 151.518C77.3876 150.891 77.4536 148.713 77.5856 139.77C77.5856 137.856 77.6186 135.942 77.6186 134.028C76.4636 135.645 75.1766 137.097 73.6916 138.45C73.5596 138.582 73.1966 138.285 73.3286 138.12C76.0016 134.82 78.1466 130.53 79.3346 126.471C79.7636 125.019 80.0936 123.666 80.2256 122.445C82.7336 123.138 83.4266 123.468 83.4266 123.897C83.4266 124.194 82.9976 124.392 82.1726 124.524C81.1826 127.56 80.0606 130.134 78.6746 132.411C80.2256 132.675 80.4896 132.84 80.4896 133.17C80.4896 133.434 80.3906 133.599 79.5326 133.962ZM113.754 136.14V137.097C114.546 137.328 115.338 137.625 116.13 137.988C116.757 137.196 117.417 136.14 117.945 135.216C118.341 134.523 118.605 133.929 118.737 133.5C120.387 134.358 121.047 134.853 121.047 135.183C121.047 135.447 120.816 135.579 119.892 135.546C118.803 136.635 117.978 137.427 116.757 138.318C118.242 139.176 119.067 140.166 119.067 141.024C119.067 141.75 118.671 142.212 118.143 142.212C117.78 142.212 117.483 141.981 117.087 141.288C116.262 139.869 115.272 138.615 113.754 137.625V144.027C113.754 148.02 113.82 150.792 113.82 151.551C113.82 152.211 113.391 152.541 112.599 152.541C111.906 152.541 111.675 152.277 111.675 151.716C111.675 151.221 111.807 148.449 111.873 142.014C111.906 140.694 111.906 139.341 111.906 138.021C110.388 139.407 108.639 140.595 106.659 141.717C106.494 141.816 106.197 141.453 106.362 141.321C110.619 137.889 113.853 133.863 115.866 129.474H109.662C108.639 129.474 108.012 129.507 107.286 129.705L106.956 128.418C107.781 128.583 108.54 128.649 109.662 128.649H111.84V125.448C111.84 124.392 111.807 123.6 111.642 122.511C114.513 122.841 114.909 123.072 114.909 123.402C114.909 123.666 114.744 123.897 113.754 124.293V128.649H115.767C116.625 127.692 116.757 127.626 116.955 127.626C117.087 127.626 117.285 127.725 118.341 128.748C118.803 129.21 118.869 129.408 118.869 129.606C118.869 129.936 118.539 130.101 117.714 130.266C116.559 132.51 115.272 134.457 113.754 136.14ZM132.96 126.999H126.591C126.525 132.84 126.03 137.361 124.941 141.024C123.423 145.974 120.75 149.439 116.328 152.31C116.163 152.409 115.833 152.013 115.998 151.881C119.76 148.482 121.971 144.951 123.192 140.067C124.05 136.602 124.446 132.378 124.446 126.999H122.037C120.948 126.999 120.255 127.065 119.43 127.23L119.1 125.943C120.09 126.141 120.915 126.174 122.004 126.174H132.663C133.62 125.118 133.752 125.052 133.917 125.052C134.082 125.052 134.28 125.118 135.435 126.141C135.93 126.603 135.963 126.768 135.963 126.933C135.963 127.131 135.831 127.296 135.072 127.791C135.006 135.414 134.808 140.133 134.28 144.027C133.785 147.591 133.224 149.571 132.399 150.66C131.805 151.419 130.617 151.914 129.627 151.914C129.264 151.914 129.165 151.881 129.099 151.452C128.934 150.528 128.439 149.967 125.667 149.208C125.469 149.142 125.502 148.713 125.7 148.746C128.175 149.076 129.198 149.175 130.089 149.175C131.046 149.175 131.574 147.987 132.036 144.951C132.531 141.783 132.96 135.414 132.96 126.999ZM157.809 131.454C159.921 131.553 161.967 131.982 163.947 133.467C165.993 134.985 166.95 136.965 166.95 139.242C166.95 145.71 159.756 148.746 154.014 149.571C153.684 149.604 153.354 149.505 153.354 149.175C153.354 148.911 153.453 148.746 153.849 148.647C158.469 147.492 164.805 144.687 164.805 139.143C164.805 136.701 163.947 135.381 162.726 134.424C161.109 133.137 159.393 132.51 157.149 132.51C155.499 135.513 153.816 138.351 151.737 141.123C151.935 141.387 152.496 141.915 152.793 142.146C153.288 142.542 153.684 142.905 153.684 143.268C153.684 143.928 153.42 144.225 152.826 144.225C152.529 144.225 152.133 144.093 151.869 143.862C151.374 143.433 151.044 143.136 150.615 142.641C149.955 143.466 149.196 144.357 148.47 145.083C147.48 146.04 146.49 146.403 145.566 146.403C143.883 146.403 142.827 145.05 142.827 142.74C142.827 140.331 144.543 137.13 147.282 135.018C147.216 134.589 147.15 134.193 147.084 133.764C146.886 132.51 146.721 131.685 146.358 130.959C146.028 130.299 145.335 129.639 144.345 129.144C144.18 129.045 144.015 128.913 144.015 128.715C144.015 128.583 144.213 128.352 144.411 128.352C144.51 128.352 144.609 128.352 144.741 128.385C145.995 128.748 147.084 129.309 147.612 129.936C148.14 130.596 148.338 131.355 148.47 132.543C148.536 133.038 148.569 133.566 148.635 134.094C150.846 132.675 153.321 131.817 155.961 131.52C156.192 130.992 156.39 130.497 156.621 129.936C156.918 129.177 157.05 128.517 157.05 128.121C157.05 127.263 156.192 126.834 155.202 126.801C155.004 126.801 154.773 126.735 154.773 126.57C154.773 126.405 154.872 126.273 155.103 126.075C155.367 125.91 155.631 125.778 155.928 125.778C156.72 125.778 157.743 126.141 158.403 126.504C158.997 126.867 159.591 127.23 159.591 127.956C159.591 128.352 159.393 128.583 159.294 128.748C159.096 129.045 158.931 129.309 158.667 129.804C158.337 130.431 158.139 130.827 157.809 131.454ZM148.833 135.282C149.196 137.031 149.757 138.45 150.813 140.067C152.661 137.691 154.08 135.249 155.499 132.609C153.288 132.939 150.945 133.797 148.833 135.282ZM147.612 136.206C145.5 138.054 144.378 140.694 144.378 142.113C144.378 143.532 144.873 144.423 145.83 144.423C146.424 144.423 147.183 144.126 147.744 143.664C148.503 143.07 149.196 142.278 149.823 141.486C148.833 139.935 148.107 138.219 147.612 136.206ZM187.575 129.144C188.037 129.87 188.235 130.761 188.235 131.586C188.235 132.543 187.938 133.764 187.608 134.82C186.618 137.658 184.737 141.189 182.856 143.565C181.8 144.852 180.678 145.776 179.589 145.776C178.566 145.776 177.609 145.05 176.949 144.06C176.223 142.905 175.794 141.453 175.794 139.704C175.794 136.47 177.18 133.599 179.391 131.52C181.536 129.507 184.737 127.956 188.961 127.956C195.594 127.956 200.247 132.279 200.247 138.252C200.247 145.182 193.02 148.647 186.255 149.01C185.892 149.043 185.694 148.845 185.694 148.647C185.694 148.383 185.793 148.218 186.255 148.119C191.766 147.162 198.069 144.126 198.069 137.691C198.069 132.675 194.406 129.408 189.357 129.144C188.829 129.111 188.136 129.111 187.575 129.144ZM186.552 129.276C183.384 129.804 181.437 131.091 179.952 132.609C178.236 134.358 177.279 136.635 177.279 139.143C177.279 140.562 177.576 141.519 178.071 142.476C178.434 143.136 179.061 143.598 179.622 143.598C180.216 143.598 180.909 143.037 181.932 141.684C183.879 139.11 185.496 136.041 186.486 133.038C186.849 131.982 186.948 131.355 186.948 130.662C186.948 130.002 186.783 129.507 186.552 129.276ZM212.457 135.909V136.47C212.457 137.163 212.094 137.361 211.236 137.361C210.576 137.361 210.378 137.196 210.378 136.635C210.378 135.909 210.477 134.358 210.477 129.276C210.477 126.108 210.477 124.887 210.345 123.303C211.302 123.699 211.896 124.029 212.754 124.557H229.089C230.013 123.567 230.145 123.468 230.31 123.468C230.475 123.468 230.706 123.567 231.63 124.326C232.125 124.722 232.191 124.887 232.191 125.052C232.191 125.316 232.125 125.481 231.333 126.009V129.045C231.333 133.896 231.465 135.81 231.465 136.371C231.465 137.097 231.102 137.361 230.211 137.361C229.584 137.361 229.32 137.163 229.32 136.569V135.909H223.017C224.832 138.12 226.647 139.473 228.693 140.43C230.508 141.321 233.148 142.08 236.283 142.443C236.481 142.476 236.448 142.806 236.25 142.839C235.491 142.971 235.128 143.235 234.765 144.159C234.633 144.555 234.534 144.654 234.303 144.654C233.973 144.654 233.577 144.555 233.082 144.39C231.498 143.895 229.617 142.971 228 141.915C227.637 141.684 227.307 141.453 226.944 141.189C226.977 141.255 226.977 141.288 226.977 141.354C226.977 141.552 226.845 141.75 225.987 142.08V144.918C225.987 149.208 226.119 151.089 226.119 151.584C226.119 152.244 225.789 152.574 224.832 152.574C224.106 152.574 223.908 152.31 223.908 151.716C223.908 151.287 224.007 149.67 224.007 145.71C224.007 142.74 224.007 141.882 223.842 140.496C225.525 140.727 226.317 140.859 226.68 140.991C224.898 139.605 223.413 137.823 222.192 135.909H219.618C219.255 136.503 218.859 137.064 218.43 137.625C217.572 138.714 216.549 139.671 215.46 140.529C218.034 140.793 218.463 140.958 218.463 141.354C218.463 141.585 218.331 141.75 217.473 142.113C217.44 142.443 217.44 142.74 217.407 143.07C217.143 145.842 216.351 147.756 214.965 149.274C213.48 150.924 211.137 152.079 207.969 152.772C207.771 152.805 207.606 152.409 207.804 152.343C210.774 151.155 212.787 149.604 213.975 147.657C214.899 146.106 215.361 144.225 215.361 142.179C215.361 141.651 215.328 141.222 215.229 140.694C212.82 142.509 209.751 143.961 206.187 144.786C205.989 144.819 205.824 144.324 206.022 144.258C211.005 142.608 215.196 139.407 217.275 135.909H212.457ZM212.457 135.084H219.783V130.563H212.457V135.084ZM229.32 135.084V130.563H221.73V135.084H229.32ZM212.457 129.738H219.783V125.382H212.457V129.738ZM221.73 125.382V129.738H229.32V125.382H221.73ZM252.882 135.414V135.909C252.882 136.503 252.519 136.734 251.727 136.734C251.133 136.734 250.902 136.602 250.902 136.074C250.902 135.546 251.034 133.929 251.034 129.342C251.034 126.108 251.034 125.217 250.869 123.369C251.727 123.765 252.321 124.029 253.113 124.491H264.234C265.026 123.6 265.158 123.501 265.356 123.501C265.521 123.501 265.686 123.6 266.544 124.326C267.039 124.722 267.138 124.92 267.138 125.085C267.138 125.283 267.006 125.448 266.28 125.91V128.814C266.28 133.434 266.412 135.183 266.412 135.711C266.412 136.371 266.016 136.569 265.191 136.569C264.63 136.569 264.432 136.404 264.432 135.876V135.414H252.882ZM252.882 129.474H257.667V125.316H252.882V129.474ZM252.882 130.299V134.589H257.667V130.299H252.882ZM264.432 134.589V130.299H259.482V134.589H264.432ZM264.432 129.474V125.316H259.482V129.474H264.432ZM251.562 149.175V139.704H251.199C250.506 139.704 249.978 139.77 249.186 139.902L248.922 138.681C249.747 138.813 250.341 138.879 251.166 138.879H265.29C266.478 137.427 266.676 137.295 266.841 137.295C267.006 137.295 267.237 137.427 268.623 138.516C269.217 138.978 269.283 139.176 269.283 139.374C269.283 139.605 269.184 139.704 268.854 139.704H257.799C258.426 141.552 259.284 143.334 260.538 144.852C261.66 143.928 262.584 143.037 263.343 142.113C263.805 141.519 264.201 140.958 264.465 140.43C266.445 141.783 266.742 142.113 266.742 142.476C266.742 142.773 266.313 142.872 265.389 142.74C264.036 143.73 262.716 144.522 260.967 145.347C261.396 145.776 261.825 146.205 262.32 146.601C264.036 148.086 266.478 149.208 269.349 149.934C269.514 149.967 269.415 150.231 269.25 150.264C268.557 150.429 268.26 150.66 267.963 151.65C267.864 151.98 267.666 152.079 267.468 152.079C267.27 152.079 266.907 151.947 266.28 151.65C264.267 150.726 262.419 149.34 260.868 147.657C259.317 145.941 257.931 143.433 256.974 139.704H253.476V148.845C255.324 148.482 257.139 148.02 259.35 147.393C259.548 147.327 259.68 147.789 259.482 147.855C255.885 149.571 253.641 150.33 249.78 151.386C249.582 152.277 249.417 152.508 249.12 152.508C248.889 152.508 248.691 152.409 247.899 149.505C248.526 149.505 249.021 149.505 249.747 149.406C250.374 149.34 250.968 149.241 251.562 149.175ZM242.685 125.217V142.047C242.685 148.152 242.751 150.627 242.751 151.485C242.751 152.145 242.388 152.442 241.53 152.442C240.87 152.442 240.672 152.211 240.672 151.683C240.672 150.297 240.771 141.255 240.771 135.117C240.771 126.471 240.771 124.821 240.606 123.237C241.53 123.633 242.124 123.897 243.015 124.392H247.041C247.833 123.501 247.965 123.402 248.13 123.402C248.295 123.402 248.493 123.501 249.351 124.425C249.78 124.887 249.846 125.085 249.846 125.25C249.846 125.448 249.681 125.58 248.988 125.778C247.767 128.748 246.513 131.157 245.028 133.5C247.47 135.777 248.658 138.219 248.658 140.859C248.658 142.377 248.361 143.433 247.866 144.06C247.305 144.753 246.612 145.149 245.721 145.149C245.424 145.149 245.358 145.116 245.292 144.72C245.16 143.961 244.863 143.598 243.279 143.202C243.081 143.169 243.114 142.839 243.312 142.839C244.5 142.938 245.028 142.938 245.556 142.938C245.886 142.938 246.117 142.806 246.381 142.542C246.678 142.212 246.843 141.255 246.843 140.199C246.843 137.856 246.117 135.645 244.269 133.599C245.49 130.794 246.315 128.385 247.008 125.217H242.685Z" fill="#222222"/>
<path d="M19.0059 206.025H20.5V209.031H19.0059V206.025ZM32.5059 206.025V207.537H23.5059V210.525H30.9941V216.537H29.5V212.037H23.5059V216.537H21.9941V206.025H32.5059ZM16 212.037H17.4941V209.031H19.0059V222.531H17.4941V213.531H16V212.037ZM25 215.025V213.531H26.4941V215.025H25ZM26.4941 216.537V215.025H28.0059V216.537H26.4941ZM21.9941 219.525H20.5V216.537H21.9941V219.525ZM29.5 219.525H28.0059V216.537H29.5V219.525ZM28.0059 221.037H25V219.525H28.0059V221.037ZM30.9941 219.525V221.037H29.5V219.525H30.9941ZM25 222.531H21.9941V221.037H25V222.531ZM32.5059 221.037V222.531H30.9941V221.037H32.5059ZM37.0059 209.031H39.9941V213.531H38.5V210.525H34V209.031H35.4941V206.025H37.0059V209.031ZM39.9941 207.537V206.025H50.5059V219.525H48.9941V207.537H44.4941V215.025H43V207.537H39.9941ZM38.5 215.025H37.0059V213.531H38.5V215.025ZM34 216.537H35.4941V215.025H37.0059V216.537H38.5V218.031H37.0059V222.531H35.4941V218.031H34V216.537ZM43 218.031H41.5059V215.025H43V218.031ZM41.5059 221.037H39.9941V218.031H41.5059V221.037ZM48.9941 221.037H47.5V219.525H48.9941V221.037ZM47.5 222.531H44.4941V221.037H47.5V222.531ZM62.4941 207.537V210.525H64.0059V212.037H62.4941V213.531H61V212.037H57.9941V216.537H56.5V213.531H54.9883V212.037H56.5V209.031H57.9941V210.525H61V207.537H62.4941ZM64.0059 213.531V212.037H65.5V213.531H64.0059ZM53.4941 218.031V213.531H54.9883V218.031H53.4941ZM61 216.537H59.5059V213.531H61V216.537ZM65.5 218.031V213.531H67.0117V218.031H65.5ZM59.5059 218.031H57.9941V216.537H59.5059V218.031ZM57.9941 219.543H54.9883V218.031H57.9941V219.543ZM65.5 219.543H64.0059V218.031H65.5V219.543ZM64.0059 221.037H61V219.543H64.0059V221.037ZM75.9941 210.525V209.031H82.0059V210.525H79V215.025H77.5059V210.525H75.9941ZM74.5 210.525H75.9941V212.037H74.5V210.525ZM82.0059 212.037V210.525H83.5V212.037H82.0059ZM72.9883 212.037H74.5V213.531H72.9883V212.037ZM83.5 218.031V212.037H85.0117V218.031H83.5ZM71.4941 218.031V213.531H72.9883V218.031H71.4941ZM77.5059 218.031H75.9941V215.025H77.5059V218.031ZM75.9941 219.543H72.9883V218.031H75.9941V219.543ZM83.5 219.543H82.0059V218.031H83.5V219.543ZM82.0059 221.037H79V219.543H82.0059V221.037ZM93.9941 212.037V209.031H88V207.537H95.5059V204.531H97V207.537H104.506V209.031H95.5059V212.037H102.994V222.531H100.006V221.037H101.5V219.525H93.9941V222.531H92.5V215.025H91.0059V213.531H92.5V212.037H93.9941ZM101.5 213.531H93.9941V215.025H101.5V213.531ZM91.0059 215.025V216.537H88V215.025H91.0059ZM101.5 216.537H93.9941V218.031H101.5V216.537ZM118.006 212.037H119.5V210.525H120.994V212.037H122.506V213.531H118.006V215.025H122.506V216.537H119.5V219.525H118.006V216.537H115V218.031H116.494V219.525H113.506V216.537H111.994V215.025H116.494V213.531H111.994V210.525H113.506V212.037H116.494V204.531H118.006V209.031H119.5V210.525H118.006V212.037ZM110.5 206.025V209.031H111.994V210.525H110.5V222.531H109.006V216.537H107.494V213.531H109.006V210.525H106V209.031H109.006V206.025H110.5ZM113.506 206.025H115V207.537H113.506V206.025ZM120.994 206.025H122.506V207.537H120.994V206.025ZM111.994 207.537H113.506V209.031H111.994V207.537ZM119.5 209.031V207.537H120.994V209.031H119.5ZM115 209.031V210.525H113.506V209.031H115ZM122.506 209.031V210.525H120.994V209.031H122.506ZM107.494 219.525H106V216.537H107.494V219.525ZM120.994 218.031H122.506V219.525H120.994V218.031ZM113.506 222.531H111.994V219.525H113.506V222.531ZM120.994 219.525V221.037H119.5V219.525H120.994ZM119.5 222.531H116.494V221.037H119.5V222.531ZM122.506 221.037V222.531H120.994V221.037H122.506ZM133 204.531V207.537H140.506V209.031H136.006V210.525H134.494V209.031H129.994V210.525H128.5V209.031H124V207.537H131.506V204.531H133ZM128.5 212.037H127.006V210.525H128.5V212.037ZM137.5 210.525V212.037H136.006V210.525H137.5ZM127.006 213.531H125.494V212.037H127.006V213.531ZM138.994 212.037V213.531H137.5V212.037H138.994ZM128.5 215.025V213.531H129.994V215.025H128.5ZM134.494 213.531H136.006V215.025H134.494V213.531ZM129.994 216.537V215.025H131.506V216.537H129.994ZM133 215.025H134.494V216.537H133V215.025ZM131.506 218.031V216.537H133V218.031H131.506ZM131.506 219.525H129.994V218.031H131.506V219.525ZM133 219.525V218.031H134.494V219.525H133ZM129.994 221.037H127.006V219.525H129.994V221.037ZM134.494 221.037V219.525H137.5V221.037H134.494ZM127.006 222.531H124V221.037H127.006V222.531ZM140.506 222.531H137.5V221.037H140.506V222.531ZM158.506 207.537V209.031H156.994V212.037H155.5V209.031H152.494V210.525H151V209.031H146.5V207.537H152.494V204.531H154.006V207.537H158.506ZM142 207.537H143.494V209.031H142V207.537ZM145.006 209.031V210.525H143.494V209.031H145.006ZM149.506 210.525H151V212.037H155.5V213.531H147.994V212.037H149.506V210.525ZM142 212.037H143.494V213.531H142V212.037ZM158.506 212.037V215.025H156.994V212.037H158.506ZM145.006 213.531V215.025H143.494V213.531H145.006ZM151 219.525H149.506V215.025H151V219.525ZM154.006 222.531H152.494V215.025H154.006V222.531ZM158.506 222.531H155.5V215.025H156.994V221.037H158.506V222.531ZM146.5 219.525H145.006V218.031H146.5V219.525ZM145.006 221.037H143.494V219.525H145.006V221.037ZM149.506 222.531H147.994V219.525H149.506V222.531ZM143.494 222.531H142V221.037H143.494V222.531ZM172.006 210.525V212.037H174.994V219.525H169V221.037H174.994V219.525H176.506V222.531H167.506V219.525H161.494V212.037H164.5V210.525H161.494V212.037H160V209.031H167.506V207.537H161.494V206.025H174.994V207.537H169V209.031H176.506V212.037H174.994V210.525H172.006ZM165.994 212.037H167.506V210.525H165.994V212.037ZM170.494 210.525H169V212.037H170.494V210.525ZM163.006 215.025H167.506V213.531H163.006V215.025ZM169 215.025H173.5V213.531H169V215.025ZM163.006 218.031H167.506V216.537H163.006V218.031ZM169 218.031H173.5V216.537H169V218.031ZM181.006 216.537V206.025H182.5V216.537H181.006ZM183.994 206.025H190.006V209.031H188.494V207.537H183.994V206.025ZM192.994 206.025H194.506V207.537H192.994V206.025ZM191.5 209.031V207.537H192.994V209.031H191.5ZM178 209.031H179.494V213.531H178V209.031ZM183.994 210.525V209.031H185.506V210.525H183.994ZM187 209.031H188.494V210.525H187V209.031ZM191.5 209.031V210.525H190.006V209.031H191.5ZM194.506 209.031V210.525H192.994V209.031H194.506ZM187 212.037H191.5V210.525H192.994V212.037H194.506V213.531H185.506V210.525H187V212.037ZM185.506 215.025H183.994V213.531H185.506V215.025ZM187 221.037V219.525H185.506V215.025H194.506V219.525H192.994V221.037H194.506V222.531H183.994V221.037H187ZM181.006 219.525H179.494V216.537H181.006V219.525ZM183.994 216.537V219.525H182.5V216.537H183.994ZM192.994 216.537H187V218.031H192.994V216.537ZM179.494 222.531H178V219.525H179.494V222.531ZM188.494 221.037H191.5V219.525H188.494V221.037ZM201.994 210.525V209.031H208.006V210.525H205V215.025H203.506V210.525H201.994ZM200.5 210.525H201.994V212.037H200.5V210.525ZM208.006 212.037V210.525H209.5V212.037H208.006ZM198.988 212.037H200.5V213.531H198.988V212.037ZM209.5 218.031V212.037H211.012V218.031H209.5ZM197.494 218.031V213.531H198.988V218.031H197.494ZM203.506 218.031H201.994V215.025H203.506V218.031ZM201.994 219.543H198.988V218.031H201.994V219.543ZM209.5 219.543H208.006V218.031H209.5V219.543ZM208.006 221.037H205V219.543H208.006V221.037ZM224.494 204.531V206.025H223V204.531H224.494ZM228.994 207.537V222.531H217.006V207.537H221.506V206.025H223V207.537H228.994ZM227.5 209.031H218.5V212.037H227.5V209.031ZM227.5 213.531H218.5V216.537H227.5V213.531ZM227.5 218.031H218.5V221.037H227.5V218.031ZM246.994 204.531V207.537H248.506V209.031H246.994V218.031H244.006V216.537H245.5V209.031H239.506V210.525H233.494V212.037H239.506V213.531H236.5V218.031H235.006V213.531H232V206.025H239.506V207.537H245.5V204.531H246.994ZM233.494 209.031H237.994V207.537H233.494V209.031ZM241 212.037V210.525H242.494V212.037H241ZM244.006 212.037V213.531H242.494V212.037H244.006ZM232 215.025H233.494V218.031H232V215.025ZM237.994 216.537V215.025H239.506V216.537H237.994ZM241 216.537V218.031H239.506V216.537H241ZM237.994 218.031V221.037H236.5V218.031H237.994ZM235.006 221.037H233.494V219.525H235.006V221.037ZM245.5 221.037V219.525H246.994V221.037H245.5ZM233.494 222.531H232V221.037H233.494V222.531ZM244.006 221.037V222.531H237.994V221.037H244.006ZM248.506 222.531H246.994V221.037H248.506V222.531ZM251.494 210.525V209.014L265.012 209.031V210.525H260.494V212.037H259V210.525H251.494ZM259 213.531H257.506V212.037H259V213.531ZM262.006 213.531V212.037H263.5V213.531H262.006ZM257.506 218.031H255.994V213.531H257.506V218.031ZM260.494 213.531V215.025H259V213.531H260.494ZM265.012 215.025H263.5V213.531H265.012V215.025ZM262.006 215.025V216.537H260.494V215.025H262.006ZM259 218.031V219.543H257.506V218.031H259ZM262.006 219.543V221.037H259V219.543H262.006ZM274.012 210.525V212.037H280.006V213.531H278.494V215.025H277V213.531H273.994V218.031H275.506V219.543H270.988V218.031H272.5V215.025H270.988V213.531H272.5V210.525H269.494V209.031H272.5V207.537H274.012V209.031H281.5V210.525H274.012ZM280.006 215.025V213.531H281.5V215.025H280.006ZM269.494 218.031V215.025H270.988V218.031H269.494ZM277 218.031H275.506V215.025H277V218.031ZM281.5 218.031V215.025H283.012V218.031H281.5ZM281.5 219.543H280.006V218.031H281.5V219.543ZM280.006 221.037H277V219.543H280.006V221.037ZM298.006 209.031H296.494V210.525H295V209.031H290.5V207.537H298.006V209.031ZM295 210.525V212.037H296.494V213.531H291.994V212.037H293.506V210.525H295ZM291.994 215.025H288.988V213.531H291.994V215.025ZM296.494 215.025V213.531H298.006V215.025H296.494ZM298.006 218.031V215.025H299.5V218.031H298.006ZM291.994 216.537H295V218.031H291.994V216.537ZM290.5 219.543V218.031H291.994V219.543H290.5ZM291.994 219.543H295V218.031H298.006V219.543H296.494V221.037H291.994V219.543Z" fill="black"/>
</svg>
