<svg width="163" height="164" viewBox="0 0 163 164" fill="none" xmlns="http://www.w3.org/2000/svg">
<path d="M154.416 14.576H91.12C90.2 17.152 88.176 21.384 86.52 24.144H130.864C137.304 24.144 142.456 29.112 142.456 35.552V84.864C142.456 91.304 137.304 96.272 130.864 96.272H70.88C68.672 99.032 64.992 102.528 62.968 104.184H124.608C127.736 104.184 136.384 104.184 136.384 111.728C136.384 115.592 134.544 117.984 125.344 124.608C117.432 130.312 109.152 135.464 100.872 139.88C112.096 143.56 137.672 146.32 154.048 147.056C159.384 147.424 162.144 150 162.144 154.6C162.144 159.384 159.2 162.328 154.6 162.328C153.496 162.328 148.344 162.144 140.984 161.224C124.056 159.384 104.368 156.624 82.656 148.344C57.632 158.648 21.384 163.616 9.056 163.616C5.192 163.616 2.064 160.304 2.064 156.256C2.064 152.208 5.008 149.448 9.24 149.264C26.168 148.528 52.296 143.928 65.176 139.512C58.736 135.832 50.824 130.68 40.888 121.296C27.456 129.76 11.816 136.752 7.4 136.752C3.904 136.752 0.592 133.256 0.592 129.392C0.592 125.344 2.248 123.872 8.872 121.664C17.152 119.088 37.944 109.888 52.848 96.272H33.344C26.904 96.272 21.936 91.304 21.936 84.864V35.552C21.936 29.112 26.904 24.144 33.344 24.144H68.856C70.696 21.384 72.352 18.072 73.824 14.576H10.344C5.376 14.576 3.168 11.632 3.168 7.39999C3.168 3.16799 5.376 0.223998 10.344 0.223998H154.416C159.384 0.223998 161.408 3.16799 161.408 7.39999C161.408 11.632 159.384 14.576 154.416 14.576ZM128.472 55.792H36.288V64.072H128.472V55.792ZM125.896 36.472H38.864C36.288 36.472 36.288 37.392 36.288 44.752H128.472C128.472 37.392 128.472 36.472 125.896 36.472ZM128.472 75.296H36.288V81.184C36.288 82.84 37.208 83.76 38.864 83.76H125.896C127.552 83.76 128.472 82.84 128.472 81.184V75.296ZM112.096 117.432H56.528C63.336 123.32 72.168 128.84 82.656 133.256C87.072 131.784 103.632 123.872 112.096 117.432Z" fill="black"/>
</svg>
