<svg width="281" height="33" viewBox="0 0 281 33" fill="none" xmlns="http://www.w3.org/2000/svg">
<path d="M18 32.4199V21.9199H0.486328V18.3926H14.5137V11.4199H0.486328V7.89258H14.5137V0.919922H18V7.89258H28.5V11.4199H18V18.3926H32.0273V21.9199H21.4863V32.4199H18ZM67.0137 14.9062V4.40625H70.5V14.9062H67.0137ZM67.0137 21.9199H63.4863V14.9062H67.0137V21.9199ZM63.4863 25.4062H60V21.9199H63.4863V25.4062ZM60 28.9336H52.9863V25.4062H60V28.9336ZM52.9863 32.4199H45.9727V28.9336H52.9863V32.4199ZM112.5 32.4199H87.9727V28.8926H109.014V7.89258H87.9727V4.40625H112.5V32.4199ZM140.514 0.919922V4.40625H154.5V18.3926H151.014V7.89258H140.514V11.4199H136.986V0.919922H140.514ZM136.986 14.9062H133.5V11.4199H136.986V14.9062ZM140.514 14.9062V11.4199H144V14.9062H140.514ZM133.5 18.3926H129.973V14.9062H133.5V18.3926ZM144 18.3926V14.9062H147.486V18.3926H144ZM151.014 25.4062H147.486V18.3926H151.014V25.4062ZM147.486 28.9336H140.514V25.4062H147.486V28.9336ZM140.514 32.4199H129.973V28.9336H140.514V32.4199ZM178.986 0.919922V7.89258H200.027V11.4199H189.486V25.4062H186V11.4199H175.5V0.919922H178.986ZM175.5 18.3926H171.973V11.4199H175.5V18.3926ZM186 28.9336H182.514V25.4062H186V28.9336ZM182.514 32.4199H175.5V28.9336H182.514V32.4199ZM235.014 14.9062V4.40625H238.5V14.9062H235.014ZM235.014 21.9199H231.486V14.9062H235.014V21.9199ZM231.486 25.4062H228V21.9199H231.486V25.4062ZM228 28.9336H220.986V25.4062H228V28.9336ZM220.986 32.4199H213.973V28.9336H220.986V32.4199ZM280.5 32.4199H255.973V28.8926H277.014V7.89258H255.973V4.40625H280.5V32.4199Z" fill="black"/>
</svg>
