<svg width="73" height="36" viewBox="0 0 73 36" fill="none" xmlns="http://www.w3.org/2000/svg">
<path d="M11.642 18.32H21.636C22.89 18.32 23.574 19.004 23.574 20.296V22.88C23.574 24.172 22.928 24.856 21.636 24.856H12.554C12.022 24.856 11.756 25.122 11.756 25.654V26.946C11.756 27.478 11.87 27.706 12.174 27.858C12.478 28.01 14.416 28.086 17.228 28.086C20.914 28.086 22.966 27.972 23.46 27.706C23.916 27.44 24.106 26.946 24.182 25.654C24.22 24.97 24.676 24.552 25.436 24.552C26.31 24.552 26.804 25.008 26.804 25.806C26.804 27.402 26.386 28.846 25.74 29.454C25.36 29.796 24.79 29.986 23.992 30.062C21.598 30.214 19.242 30.29 16.696 30.29C9.742 30.29 9.172 30.1 9.172 27.744V24.97C9.172 23.602 9.818 22.918 11.148 22.918H20.23C20.724 22.918 20.952 22.69 20.952 22.196V20.98C20.952 20.524 20.724 20.296 20.23 20.296H9.932C7.614 22.69 5.942 23.944 5.106 23.944C4.46 23.944 3.89 23.336 3.89 22.652C3.89 22.044 4.004 21.93 5.068 21.132C6.892 19.802 8.678 18.092 10.274 16.078H5.448C4.916 16.078 4.536 15.622 4.536 14.976C4.536 14.33 4.916 13.836 5.448 13.836H11.908C12.402 13 12.896 12.05 13.276 11.176H6.36C5.828 11.176 5.486 10.758 5.486 10.074C5.486 9.39 5.828 8.972 6.36 8.972H9.514C9.4 8.744 9.4 8.744 9.096 8.25C9.02 8.136 8.374 7.11 8.146 6.806C7.956 6.502 7.88 6.274 7.88 6.008C7.88 5.438 8.526 4.906 9.248 4.906C9.704 4.906 10.084 5.172 10.388 5.704C11.186 6.996 11.604 7.832 12.098 8.972H14.15C14.454 8.136 14.834 6.806 15.214 5.476C15.442 4.602 15.784 4.26 16.43 4.26C17.19 4.26 17.722 4.754 17.722 5.476C17.722 5.97 17.304 7.68 16.848 8.972H20.914C21.484 8.136 22.092 6.92 22.624 5.704C22.852 5.172 23.232 4.868 23.726 4.868C24.486 4.868 25.132 5.438 25.132 6.046C25.132 6.578 24.638 7.566 23.65 8.972H27.526C28.058 8.972 28.438 9.428 28.438 10.074C28.438 10.72 28.058 11.176 27.526 11.176H20.8C21.218 12.05 21.674 12.81 22.32 13.836H28.552C29.084 13.836 29.464 14.33 29.464 14.976C29.464 15.622 29.084 16.078 28.552 16.078H24.03C25.322 17.56 27.146 19.156 29.198 20.524C29.806 20.904 30.072 21.284 30.072 21.816C30.072 22.5 29.464 23.146 28.78 23.146C28.362 23.146 28.134 23.032 27.336 22.424C24.866 20.524 22.89 18.51 21.18 16.078H13.276C12.82 16.8 12.44 17.332 11.794 18.13L11.642 18.32ZM14.644 13.836H19.736C19.28 13.076 18.71 11.898 18.406 11.176H15.86C15.442 12.24 15.138 12.924 14.644 13.836ZM30.642 34.584H3.32C1.306 34.584 0.318 33.596 0.318 31.582V3.994C0.318 2.056 1.344 1.03 3.32 1.03H30.642C32.618 1.03 33.644 2.018 33.644 3.994V31.582C33.644 33.596 32.656 34.584 30.642 34.584ZM30.794 31.088V4.45C30.794 3.804 30.452 3.462 29.806 3.462H4.156C3.472 3.462 3.13 3.804 3.13 4.45V31.088C3.13 31.81 3.472 32.152 4.156 32.152H29.806C30.452 32.152 30.794 31.81 30.794 31.088ZM60.244 17.712L60.054 17.522C58.762 16.42 56.71 14.444 55.57 13.152C54.012 19.46 51.656 24.134 47.514 29.112C45.69 31.316 43.258 33.672 41.358 35.078C40.978 35.382 40.56 35.534 40.218 35.534C39.42 35.534 38.698 34.774 38.698 33.976C38.698 33.292 38.774 33.178 40.18 32.038C43.904 29.036 47.324 25.008 49.452 21.17C47.628 19.346 45.272 17.294 43.22 15.774C40.75 19.84 39.42 21.398 38.432 21.398C37.71 21.398 36.988 20.638 36.988 19.84C36.988 19.384 37.102 19.232 37.786 18.358C41.282 14.14 44.36 7.49 45.614 1.562C45.804 0.725999 46.298 0.269999 46.982 0.269999C47.932 0.269999 48.54 0.839998 48.54 1.676C48.54 2.094 48.312 3.158 47.932 4.564H54.012C55.76 4.564 56.558 5.324 56.558 6.996C56.558 7.566 56.482 8.212 56.178 10.112C57.432 11.556 58.496 12.62 60.244 14.178V1.6C60.244 0.877998 60.814 0.383999 61.726 0.383999C62.6 0.383999 63.208 0.877998 63.208 1.6V16.61C65.906 18.662 69.098 20.638 71.606 21.854C72.442 22.272 72.822 22.766 72.822 23.45C72.822 24.362 72.176 25.122 71.416 25.122C70.884 25.122 70.618 25.008 69.44 24.286C67.312 23.032 64.804 21.322 63.208 20.106V34.318C63.208 35.04 62.6 35.534 61.726 35.534C60.814 35.534 60.244 35.078 60.244 34.318V17.712ZM52.606 7.224H47.134C46.412 9.352 45.5 11.48 44.474 13.57C47.058 15.356 49.186 17.066 50.782 18.51C51.96 15.888 52.834 13.266 53.328 10.568C53.556 9.542 53.708 8.364 53.708 8.06C53.708 7.452 53.404 7.224 52.606 7.224Z" fill="black"/>
</svg>
