<svg width="506" height="177" viewBox="0 0 506 177" fill="none" xmlns="http://www.w3.org/2000/svg">
<path d="M22.344 68.882V51.193C16.66 55.358 10.682 58.592 8.232 58.592C5.978 58.592 4.165 56.73 4.165 54.231C4.165 51.83 5.194 51.389 10.143 49.086C17.983 45.264 26.656 37.669 30.919 30.76C32.683 27.869 33.173 27.085 35.133 27.085C37.534 27.085 39.739 28.996 39.739 31.054C39.739 34.337 33.271 41.54 30.625 44.039V68.882C30.625 70.989 29.155 72.165 26.509 72.165C23.814 72.165 22.344 70.989 22.344 68.882ZM55.076 31.691H89.376C91.777 31.691 92.561 31.838 93.394 32.377C94.521 33.112 95.207 34.386 95.207 35.954C95.207 40.903 85.897 51.732 78.253 57.122C81.438 60.699 83.741 63.394 83.741 65.501C83.741 67.657 81.291 69.764 78.841 69.764C77.714 69.764 76.93 69.323 75.901 67.902C70.56 60.895 66.199 56.485 62.132 53.055C59.829 51.144 59.339 50.458 59.339 49.135C59.339 46.979 61.691 44.774 63.896 44.774C65.611 44.774 67.032 46.097 72.912 51.487C78.155 48.106 84.28 40.707 84.28 39.825C84.28 39.482 84.035 39.384 83.104 39.384H55.076C53.116 39.384 51.989 38.012 51.989 35.513C51.989 33.063 53.116 31.691 55.076 31.691ZM110.789 28.31C111.867 28.31 114.023 29.143 117.306 30.76C122.402 33.357 123.627 34.435 123.627 36.395C123.627 38.747 121.912 40.805 119.903 40.805C119.119 40.805 118.433 40.56 117.11 39.825C114.072 38.061 111.279 36.591 109.221 35.611C107.604 34.827 106.967 33.896 106.967 32.475C106.967 30.27 108.78 28.31 110.789 28.31ZM132.104 29.29C133.035 29.29 133.574 29.731 135.093 31.593C136.563 33.406 137.396 34.925 137.396 35.758C137.396 37.081 136.024 38.257 134.505 38.257C133.721 38.257 133.329 37.963 132.496 36.738C132.006 35.954 130.879 34.484 130.046 33.406C129.458 32.72 129.311 32.328 129.311 31.789C129.311 30.564 130.683 29.29 132.104 29.29ZM105.889 40.266C106.82 40.266 108.878 41.001 112.553 42.716C117.649 45.068 118.776 46.048 118.776 47.91C118.776 50.262 117.012 52.418 115.003 52.418C114.121 52.418 113.337 52.173 111.524 51.193C108.927 49.723 108.388 49.527 105.252 48.204C102.851 47.175 102.067 46.244 102.067 44.578C102.067 42.226 103.782 40.266 105.889 40.266ZM137.886 26.056C138.817 26.056 139.405 26.497 140.973 28.457C142.443 30.27 143.178 31.691 143.178 32.524C143.178 33.798 141.806 35.023 140.287 35.023C139.503 35.023 139.111 34.729 138.278 33.504C137.543 32.377 137.102 31.789 135.828 30.123C135.289 29.486 135.093 29.094 135.093 28.555C135.093 27.281 136.465 26.056 137.886 26.056ZM140.385 39.237C142.541 39.237 144.648 41.001 144.648 42.863C144.648 45.068 142.492 49.037 138.621 53.839C133.28 60.405 127.547 64.815 119.952 68.245C115.493 70.205 110.74 71.626 108.535 71.626C106.232 71.626 104.566 69.764 104.566 67.216C104.566 64.815 105.497 63.933 108.682 63.198C113.288 62.12 127.4 58.788 136.367 42.128C137.592 39.923 138.523 39.237 140.385 39.237ZM152.537 38.698H168.266C168.315 36.689 168.364 34.484 168.364 32.818C168.364 29.927 168.364 27.722 172.578 27.722C175.42 27.722 176.596 28.849 176.596 31.593C176.596 33.553 176.498 36.444 176.4 38.698H190.561C192.521 38.698 193.599 40.07 193.599 42.569C193.599 45.019 192.521 46.391 190.561 46.391H176.106C175.469 54.819 173.803 59.572 169.932 64.325C167.286 67.559 161.945 72.165 158.711 72.165C156.359 72.165 154.399 70.058 154.399 67.461C154.399 65.501 155.232 65.011 157.78 63.492C166.698 58.249 167.384 51.291 167.923 46.391H152.537C150.528 46.391 149.45 45.019 149.45 42.569C149.45 40.07 150.528 38.698 152.537 38.698ZM213.101 30.662V51.536C213.101 53.643 211.631 54.819 208.985 54.819C206.339 54.819 204.869 53.643 204.869 51.536V30.662C204.869 28.555 206.339 27.379 208.985 27.379C211.631 27.379 213.101 28.555 213.101 30.662ZM228.144 42.373V30.564C228.144 28.506 229.614 27.33 232.211 27.33C234.857 27.33 236.327 28.457 236.327 30.564V45.068C236.327 54.182 235.494 63.688 222.019 70.009C219.128 71.381 216.727 72.116 215.012 72.116C212.66 72.116 210.749 70.107 210.749 67.608C210.749 65.648 211.533 64.766 213.983 63.982C219.618 62.218 225.939 59.964 227.556 51.536C227.948 49.478 228.144 46.587 228.144 42.373ZM288.365 53.349H250.635C248.577 53.349 247.45 51.928 247.45 49.38C247.45 46.783 248.577 45.362 250.635 45.362H288.365C290.423 45.362 291.55 46.783 291.55 49.38C291.55 51.928 290.423 53.349 288.365 53.349ZM327.957 38.698H301.448C299.439 38.698 298.312 37.277 298.312 34.729C298.312 32.23 299.439 30.809 301.448 30.809H332.808C336.581 30.809 338.296 32.279 338.296 35.513C338.296 36.836 337.218 57.22 315.364 69.029C312.865 70.352 311.003 71.038 309.582 71.038C307.279 71.038 305.27 68.882 305.27 66.432C305.27 64.472 306.152 63.541 309.288 62.12C317.079 58.641 322.322 54.133 325.703 48.008C327.075 45.509 328.986 41.197 328.986 39.286C328.986 38.845 328.741 38.698 327.957 38.698ZM350.644 62.12V33.014C350.644 30.858 352.114 29.731 354.76 29.731C357.406 29.731 358.876 30.858 358.876 33.014V59.082C358.876 60.699 358.974 60.895 359.611 60.895C361.375 60.895 373.037 55.75 380.191 46.832C382.494 43.99 382.984 43.304 384.797 43.304C387.296 43.304 389.354 45.313 389.354 47.714C389.354 48.89 388.766 50.017 387.051 52.075C378.084 62.953 362.257 70.205 355.642 70.205C354.956 70.205 351.379 69.96 350.791 66.089C350.693 65.501 350.644 64.227 350.644 62.12ZM433.307 38.894C435.757 38.894 438.158 41.05 438.158 43.255C438.158 44.235 437.521 45.509 436.002 47.812C424.536 64.668 405.083 70.744 401.31 70.744C398.958 70.744 397.243 68.784 397.243 66.089C397.243 62.953 399.252 62.414 402.535 61.483C410.228 59.18 417.088 55.407 422.233 50.605C425.124 47.91 427.084 45.509 429.73 41.344C430.857 39.531 431.788 38.894 433.307 38.894ZM413.462 40.168C413.462 42.422 411.208 44.823 409.15 44.823C408.023 44.823 407.092 44.382 405.573 43.206C403.172 41.246 400.82 39.335 397.88 37.228C396.606 36.297 396.116 35.562 396.116 34.337C396.116 32.034 398.272 29.829 400.477 29.829C401.849 29.829 402.927 30.368 406.21 32.72C411.845 36.738 413.462 38.404 413.462 40.168ZM463.344 30.368V39.58C464.373 39.923 471.037 42.324 476.084 44.921C480.249 47.077 481.082 47.91 481.082 50.017C481.082 52.614 479.269 54.672 477.064 54.672C476.231 54.672 475.398 54.378 474.271 53.79C469.42 51.095 469.077 50.899 463.344 48.449V68.539C463.344 70.695 461.874 71.871 459.179 71.871C456.533 71.871 455.014 70.695 455.014 68.539V30.368C455.014 28.212 456.484 27.036 459.179 27.036C461.874 27.036 463.344 28.212 463.344 30.368ZM469.126 33.357C469.126 32.034 470.547 30.809 472.115 30.809C473.144 30.809 473.732 31.348 475.545 33.896C477.064 36.101 477.456 36.885 477.456 37.718C477.456 39.041 476.084 40.168 474.516 40.168C473.634 40.168 473.095 39.825 472.458 38.845C471.38 37.228 470.939 36.591 469.91 35.219C469.371 34.533 469.126 33.896 469.126 33.357ZM475.153 29.878C475.153 28.555 476.574 27.281 478.093 27.281C479.122 27.281 479.857 27.918 481.768 30.613C483.091 32.426 483.581 33.308 483.581 34.092C483.581 35.415 482.209 36.591 480.592 36.591C479.808 36.591 479.22 36.248 478.681 35.464C477.75 34.092 477.26 33.308 475.986 31.74C475.349 30.956 475.153 30.417 475.153 29.878Z" fill="#282828"/>
<path d="M33.418 118.433H8.918C6.958 118.433 5.831 117.012 5.831 114.562C5.831 112.112 6.958 110.691 8.918 110.691H36.652C40.67 110.691 42.385 112.259 42.385 116.032V140.875C42.385 144.648 40.67 146.216 36.652 146.216H8.232C6.223 146.216 5.096 144.795 5.096 142.247C5.096 139.748 6.223 138.327 8.232 138.327H33.32C34.006 138.327 34.202 138.082 34.202 137.396V119.217C34.202 118.629 34.006 118.433 33.418 118.433ZM90.307 117.894C92.757 117.894 95.158 120.05 95.158 122.255C95.158 123.235 94.521 124.509 93.002 126.812C81.536 143.668 62.083 149.744 58.31 149.744C55.958 149.744 54.243 147.784 54.243 145.089C54.243 141.953 56.252 141.414 59.535 140.483C67.228 138.18 74.088 134.407 79.233 129.605C82.124 126.91 84.084 124.509 86.73 120.344C87.857 118.531 88.788 117.894 90.307 117.894ZM70.462 119.168C70.462 121.422 68.208 123.823 66.15 123.823C65.023 123.823 64.092 123.382 62.573 122.206C60.172 120.246 57.82 118.335 54.88 116.228C53.606 115.297 53.116 114.562 53.116 113.337C53.116 111.034 55.272 108.829 57.477 108.829C58.849 108.829 59.927 109.368 63.21 111.72C68.845 115.738 70.462 117.404 70.462 119.168ZM140.581 107.996C139.356 107.996 138.376 108.976 138.376 110.25C138.376 111.475 139.356 112.455 140.581 112.455C141.855 112.455 142.835 111.475 142.835 110.201C142.835 108.976 141.855 107.996 140.581 107.996ZM103.537 110.642H133.574C133.966 110.642 134.113 110.642 134.358 110.691C134.015 107.114 136.955 103.929 140.63 103.929C144.158 103.929 146.951 106.722 146.951 110.25C146.951 113.043 144.795 116.816 140.042 116.522C140.091 116.767 140.091 116.914 140.091 117.159C140.091 118.923 138.082 137.788 117.453 148.862C114.954 150.185 113.092 150.871 111.671 150.871C109.368 150.871 107.359 148.715 107.359 146.265C107.359 144.305 108.29 143.374 111.377 141.953C119.119 138.474 124.411 133.917 127.792 127.841C129.164 125.342 131.075 121.03 131.075 119.119C131.075 118.678 130.83 118.531 130.046 118.531H103.537C101.528 118.531 100.401 117.11 100.401 114.562C100.401 112.063 101.528 110.642 103.537 110.642ZM154.644 141.12V112.014C154.644 109.858 156.114 108.731 158.76 108.731C161.406 108.731 162.876 109.858 162.876 112.014V138.082C162.876 139.699 162.974 139.895 163.611 139.895C165.375 139.895 177.037 134.75 184.191 125.832C186.494 122.99 186.984 122.304 188.797 122.304C191.296 122.304 193.354 124.313 193.354 126.714C193.354 127.89 192.766 129.017 191.051 131.075C182.084 141.953 166.257 149.205 159.642 149.205C158.956 149.205 155.379 148.96 154.791 145.089C154.693 144.501 154.644 143.227 154.644 141.12ZM213.983 131.369C213.983 133.231 212.072 134.799 209.867 134.799C208.005 134.799 207.319 134.064 206.486 131.369C206.094 130.095 204.967 127.302 204.526 126.469C203.154 123.725 203.007 123.431 203.007 122.598C203.007 120.785 204.918 119.168 207.123 119.168C209.034 119.168 209.769 119.903 211.435 123.431C212.954 126.714 213.983 129.948 213.983 131.369ZM224.322 129.066C224.322 131.32 222.754 132.741 220.353 132.741C218.491 132.741 217.413 131.761 217.07 129.899C216.237 124.803 215.747 123.333 215.257 121.863C215.012 121.03 214.865 120.393 214.865 119.903C214.865 118.188 216.678 116.767 218.883 116.767C220.941 116.767 221.872 117.698 222.754 120.687C223.489 123.186 224.322 127.645 224.322 129.066ZM237.895 120.687C237.895 122.01 237.209 125.832 236.376 128.723C234.269 136.367 230.594 142.149 224.91 146.706C221.333 149.597 217.952 151.312 215.894 151.312C213.836 151.312 212.072 149.401 212.072 147.098C212.072 145.481 212.66 144.795 214.718 143.815C221.333 140.679 228.242 136.024 230.104 120.491C230.3 118.433 231.574 117.306 233.73 117.306C236.327 117.306 237.895 118.58 237.895 120.687ZM277.585 120.148H265.629C263.473 123.578 260.827 126.812 258.132 129.409C256.662 130.83 255.437 131.467 254.114 131.467C251.958 131.467 250.047 129.458 250.047 127.253C250.047 125.636 250.635 125.048 253.477 122.451C258.279 118.041 260.386 113.533 262.983 107.996C263.669 106.526 264.551 105.938 265.972 105.938C268.471 105.938 270.627 107.506 270.627 109.417C270.627 110.005 270.578 110.74 269.647 112.749H282.632C286.013 112.749 287.679 114.219 287.679 117.208C287.679 119.658 286.454 125.048 284.984 128.723C282.24 135.877 277.585 141.512 270.774 146.167C266.168 149.303 261.366 151.41 258.818 151.41C256.466 151.41 254.702 149.401 254.702 146.902C254.702 145.089 255.535 144.109 257.691 143.374C264.257 141.022 274.645 136.416 278.369 123.039C278.712 121.814 278.81 121.177 278.81 120.834C278.81 120.295 278.565 120.148 277.585 120.148ZM304.143 110.299H327.761C330.799 110.299 332.661 111.916 332.661 114.464C332.661 119.56 326.095 129.164 325.556 129.899C339.08 140.973 339.619 142.149 339.619 144.207C339.619 146.314 337.267 148.519 334.964 148.519C333.886 148.519 333.102 148.127 331.975 146.951C327.565 142.247 324.87 139.552 320.607 136.073C317.226 139.797 312.718 143.619 308.406 146.314C304.976 148.519 303.702 149.058 302.232 149.058C299.88 149.058 298.018 147 298.018 144.452C298.018 142.247 299.047 141.757 302.281 140.091C316.932 132.643 322.861 119.511 322.861 118.384C322.861 118.041 322.665 117.894 322.175 117.894H304.143C302.183 117.894 301.105 116.522 301.105 114.121C301.105 111.671 302.183 110.299 304.143 110.299ZM364.658 116.62C354.319 118.776 352.408 128.576 352.408 132.3C352.408 135.632 353.682 138.082 355.397 138.082C358.288 138.082 361.963 128.037 364.658 116.62ZM372.106 116.424C370.734 124.46 368.823 130.879 366.226 136.563C362.894 143.717 359.954 146.412 355.348 146.412C349.125 146.412 345.107 140.973 345.107 132.594C345.107 119.021 355.299 109.319 369.607 109.319C382.053 109.319 389.697 116.424 389.697 128.086C389.697 133.868 388.227 138.67 385.287 142.443C382.102 146.51 376.369 149.989 372.792 149.989C370.44 149.989 368.627 148.029 368.627 145.481C368.627 143.227 369.803 142.737 372.351 141.708C375.291 140.532 381.563 137.935 381.563 128.282C381.563 124.558 380.387 121.324 378.133 119.119C376.516 117.502 375.046 116.816 372.106 116.424ZM428.064 114.611H421.743C422.576 115.738 423.948 117.061 425.32 117.943C426.447 116.963 427.28 115.934 428.064 114.611ZM424.487 108.486H436.541C438.109 108.486 438.991 109.564 438.991 111.524C438.991 114.611 437.374 114.611 435.12 114.611C434.287 116.669 432.67 119.168 431.151 120.834C431.984 121.177 434.336 121.814 435.512 122.059C438.305 122.598 439.138 123.284 439.138 124.95C439.138 127.155 437.815 128.919 436.149 128.919C434.532 128.919 428.75 127.008 425.565 125.391C421.351 127.89 416.941 129.164 415.814 129.164C414.295 129.164 413.021 127.498 413.021 125.538C413.021 124.264 413.609 123.382 414.736 123.137C416.843 122.696 418.264 122.304 419.734 121.52C418.852 120.638 418.068 119.707 417.578 119.021C416.647 119.854 416.255 120.05 415.618 120.05C414.148 120.05 412.433 118.58 412.188 117.012V142.002C412.188 143.57 411.159 144.403 409.199 144.403C407.288 144.403 406.21 143.521 406.21 142.002V115.934C406.21 115.787 406.21 115.689 406.259 115.395C405.965 116.62 405.475 118.188 404.691 120.295V148.617C404.691 150.43 403.417 151.41 401.163 151.41C398.909 151.41 397.635 150.381 397.635 148.617V131.124C395.136 131.173 393.323 128.968 393.323 127.302C393.323 126.371 393.617 125.783 394.94 123.676C397.096 120.197 398.762 116.032 399.84 111.426C400.918 106.771 400.967 106.624 401.555 106.036C401.996 105.595 403.025 105.252 404.005 105.252C406.308 105.252 407.827 106.575 407.827 108.584C407.827 109.809 407.68 110.299 406.406 115.003C406.798 114.023 407.68 113.533 409.199 113.533C411.061 113.533 412.09 114.317 412.188 115.787C412.384 114.905 412.482 114.758 414.099 113.239C415.226 112.161 416.99 109.466 417.921 107.457C418.705 105.791 419.195 105.448 420.665 105.448C422.576 105.448 424.193 106.722 424.487 108.486ZM426.349 126.518C427.721 126.518 428.799 127.645 428.799 129.066C428.799 130.193 428.113 130.977 426.3 131.957C420.714 134.946 416.549 135.828 415.618 135.828C414.491 135.828 413.511 134.456 413.511 132.839C413.511 131.516 414.197 131.026 416.696 130.536C419.048 130.095 421.841 128.968 423.605 127.743C425.124 126.714 425.516 126.518 426.349 126.518ZM431.445 130.242C432.964 130.242 434.287 131.467 434.287 132.937C434.287 134.211 433.258 135.289 430.122 137.298C422.527 142.002 417.284 142.59 416.843 142.59C415.471 142.59 414.442 141.267 414.442 139.552C414.442 137.935 415.079 137.445 417.725 136.906C421.841 136.024 426.251 133.868 428.995 131.467C430.122 130.487 430.612 130.242 431.445 130.242ZM439.432 138.229C439.432 139.601 438.795 140.434 436.296 142.394C432.572 145.334 428.652 147.392 422.919 149.401C419.685 150.528 417.823 150.969 416.647 150.969C414.785 150.969 413.511 149.499 413.511 147.392C413.511 145.824 414.295 145.089 416.353 144.648C423.164 143.178 429.632 140.14 432.964 136.759C434.434 135.24 435.022 134.897 436.051 134.897C437.913 134.897 439.432 136.367 439.432 138.229ZM471.233 133.427H481.523C483.287 133.427 484.806 134.701 484.806 136.122C484.806 137.788 482.111 141.12 478.73 143.57C479.906 144.011 482.748 144.697 485.1 145.089C487.795 145.481 488.432 145.971 488.432 147.588C488.432 149.989 487.305 151.508 485.492 151.508C484.414 151.508 482.16 151.018 479.563 150.332C476.525 149.45 474.32 148.323 472.164 147.49C469.469 148.568 465.402 150.479 460.208 151.214C459.62 151.312 459.13 151.361 458.836 151.361C457.072 151.361 455.896 149.989 455.896 148.029C455.896 146.167 456.778 145.53 459.718 145.187C461.825 144.942 464.667 144.305 466.186 143.668C465.01 142.737 464.226 141.904 463.491 141.169C462.903 141.561 462.266 142.149 461.041 142.737C460.355 143.031 459.816 143.178 459.326 143.178C457.807 143.178 456.19 141.316 456.19 139.503C456.19 138.376 456.533 137.886 457.758 137.249C460.6 135.73 463.148 133.77 464.765 131.712C461.923 131.761 460.796 130.487 460.796 127.302V120.148C460.404 120.295 460.11 120.344 459.669 120.344C458.787 120.344 458.15 120.148 457.268 119.511C457.366 119.854 457.415 120.05 457.415 120.344C457.415 121.618 456.778 122.892 454.524 126.028V148.617C454.524 150.381 453.299 151.41 450.996 151.41C448.791 151.41 447.517 150.381 447.517 148.617V133.574C447.076 133.721 446.684 133.77 446.194 133.77C444.185 133.77 442.47 131.908 442.47 129.752C442.47 128.576 442.813 127.988 444.136 126.91C446.096 125.244 448.154 122.794 449.869 120.099C451.731 117.208 452.025 116.963 453.446 116.963C454.426 116.963 455.308 117.257 455.994 117.796C455.847 117.257 455.798 116.963 455.798 116.62C455.798 116.228 455.994 115.64 456.484 115.052C458.444 112.7 460.159 110.103 461.923 106.771C462.462 105.595 463.148 105.154 464.569 105.154C466.676 105.154 468.734 106.722 468.587 108.437H485.786C487.207 108.437 488.04 109.466 488.04 111.23C488.04 112.994 487.207 114.023 485.786 114.023H465.892C465.598 114.464 465.108 115.15 464.765 115.591H480.788C484.365 115.591 485.394 116.62 485.394 120.197V127.204C485.394 130.732 484.365 131.761 480.788 131.761H472.311C471.968 132.3 471.527 132.937 471.233 133.427ZM477.505 120.197H468.587C467.509 120.197 467.509 120.491 467.509 121.667H478.534C478.534 121.079 478.534 120.687 478.387 120.491C478.289 120.246 478.044 120.197 477.505 120.197ZM468.587 127.106H477.505C478.534 127.106 478.534 126.861 478.534 125.538H467.509C467.509 126.861 467.509 127.106 468.587 127.106ZM475.153 138.327H468.832C469.763 139.16 470.743 139.846 472.458 140.826C473.34 140.385 475.349 138.817 475.349 138.523C475.349 138.425 475.349 138.327 475.153 138.327ZM451.976 105.742C454.279 105.742 456.239 107.408 456.239 109.319C456.239 110.593 455.161 112.161 452.27 115.101C449.477 117.992 447.811 119.119 446.292 119.119C444.43 119.119 442.715 117.11 442.715 114.954C442.715 113.729 443.107 113.141 444.724 111.916C445.949 110.985 447.762 109.221 448.791 107.947C450.359 105.938 450.653 105.742 451.976 105.742Z" fill="white"/>
</svg>
