<svg width="453" height="177" viewBox="0 0 453 177" fill="none" xmlns="http://www.w3.org/2000/svg">
<path d="M44.884 58.494H41.454C42.679 58.837 43.708 60.111 43.708 61.189C43.708 62.512 42.336 63.541 40.67 64.668C41.748 65.011 42.483 65.256 42.973 65.403C46.403 66.285 46.991 66.775 46.991 68.343C46.991 70.303 45.766 71.969 44.247 71.969C42.679 71.969 30.037 69.47 24.598 58.494C23.814 59.229 21.364 60.552 19.012 61.63V65.207C20.139 65.011 25.039 63.59 26.068 63.59C27.342 63.59 28.371 65.109 28.371 67.069C28.371 68.343 27.685 68.931 25.872 69.372C21.805 70.352 14.896 71.92 11.858 71.92C10.241 71.92 9.31 70.793 9.31 68.784C9.31 66.677 10.143 66.579 12.348 66.236V64.227C10.339 64.913 5.831 66.138 4.263 66.138C2.793 66.138 1.813 64.717 1.813 62.659C1.813 60.797 2.94 60.65 6.615 60.209C8.428 59.964 10.535 59.523 13.573 58.494H4.263C3.038 58.494 2.352 57.661 2.352 56.093C2.352 54.574 3.038 53.741 4.263 53.741H21.07V52.418H7.154C6.174 52.418 5.635 51.683 5.635 50.458C5.635 49.233 6.174 48.498 7.154 48.498H21.07V47.273H11.662C8.379 47.273 7.497 46.391 7.497 43.157V39.727C7.497 36.444 8.379 35.562 11.662 35.562H37.485C40.719 35.562 41.601 36.444 41.601 39.727V43.157C41.601 46.391 40.719 47.273 37.485 47.273H27.734V48.498H42.287C43.316 48.498 43.855 49.233 43.855 50.458C43.855 51.683 43.316 52.418 42.287 52.418H27.734V53.741H44.884C46.109 53.741 46.795 54.574 46.795 56.093C46.795 57.612 46.109 58.494 44.884 58.494ZM27.734 38.845V40.217H34.888C34.888 39.286 34.888 38.894 33.81 38.845H27.734ZM14.161 40.217H21.07V38.845H15.239C14.161 38.845 14.161 39.237 14.161 40.217ZM34.888 42.814H27.734V44.186H33.81C34.888 44.186 34.888 43.794 34.888 42.814ZM21.07 44.186V42.814H14.161C14.161 43.255 14.161 43.598 14.308 43.843C14.455 44.088 14.7 44.186 15.239 44.186H21.07ZM39.837 58.494H31.752C33.026 59.915 34.006 60.797 35.574 61.924C36.407 61.385 37.583 60.503 38.367 59.719C39.347 58.69 39.543 58.592 39.837 58.494ZM3.969 29.045H20.923C20.923 27.134 22.246 26.056 24.598 26.056C26.999 26.056 28.322 27.134 28.322 29.045H45.031C46.354 29.045 47.089 29.976 47.089 31.642C47.089 33.357 46.354 34.288 45.031 34.288H3.969C2.646 34.288 1.911 33.357 1.911 31.642C1.911 29.976 2.646 29.045 3.969 29.045ZM86.534 56.191H80.997C80.164 56.191 79.968 56.387 79.968 57.22V63.247C79.968 64.08 80.164 64.276 80.997 64.276H86.534C87.367 64.276 87.563 64.08 87.563 63.247V57.22C87.563 56.387 87.367 56.191 86.534 56.191ZM61.936 43.941V53.937C62.671 53.594 63.014 53.496 63.455 53.496C64.876 53.496 65.954 54.476 66.493 56.289C67.228 52.859 67.767 47.42 67.767 43.794V34.68C67.767 29.976 69.139 28.8 74.431 28.8C75.46 28.8 77.322 28.751 79.968 28.604C84.476 28.359 86.583 28.065 90.062 27.183C90.895 26.987 91.777 26.889 92.316 26.889C93.933 26.889 95.011 28.408 95.011 30.662C95.011 32.377 94.129 33.406 92.218 33.847C89.376 34.582 85.848 35.023 80.801 35.268C79.429 35.366 77.959 35.366 77.028 35.464C74.48 35.66 74.48 35.66 74.48 37.277V39.139H93.688C95.354 39.139 96.285 40.315 96.285 42.422C96.285 44.48 95.354 45.656 93.688 45.656H74.48C74.48 47.665 74.284 50.899 74.235 51.144C75.019 50.213 75.95 49.919 78.155 49.919H89.67C93.198 49.919 94.227 50.948 94.227 54.476V65.991C94.227 69.519 93.198 70.548 89.67 70.548H78.008C74.48 70.548 73.451 69.519 73.451 65.991V58.004C72.373 62.61 71.589 64.815 69.727 67.853C68.355 70.107 67.522 70.744 65.611 70.744C63.455 70.744 61.691 69.225 61.691 67.412C61.691 66.432 61.789 66.236 63.749 63.1C64.239 62.267 64.778 61.287 65.317 60.062C63.798 61.14 56.105 65.403 53.41 65.403C51.646 65.403 50.274 63.492 50.274 61.091C50.274 59.033 51.107 58.69 53.802 57.759C54.292 57.563 54.684 57.416 54.978 57.269V43.941H53.067C51.352 43.941 50.421 42.765 50.421 40.609C50.421 38.502 51.401 37.326 53.067 37.326H54.978V30.074C54.978 28.261 56.203 27.281 58.457 27.281C60.711 27.281 61.936 28.261 61.936 30.074V37.326H63.994C65.66 37.326 66.64 38.551 66.64 40.609C66.64 42.716 65.66 43.941 63.994 43.941H61.936ZM130.046 43.157H119.511C118.188 45.901 116.424 48.939 115.983 49.478C115.787 49.772 115.689 50.066 115.689 50.262C115.689 50.556 115.836 50.654 117.502 51.242C118.727 51.634 123.088 53.545 124.117 54.084C126.665 51.34 128.919 47.42 130.046 43.157ZM142.639 43.157H138.033C137.2 48.008 134.309 54.084 131.271 57.612C136.367 60.405 139.993 62.659 142.1 64.178C143.619 65.207 144.305 66.236 144.305 67.265C144.305 69.519 142.394 71.822 140.581 71.822C139.307 71.822 138.376 71.332 135.534 69.274C134.211 68.294 127.645 64.08 125.636 63.1C122.108 65.305 117.11 68.49 105.889 70.891C105.154 71.038 104.419 71.087 103.782 71.087C101.822 71.087 100.597 69.47 100.597 66.775C100.597 63.688 102.361 63.443 106.134 62.904C109.613 62.365 113.974 61.14 117.796 59.082C114.954 57.808 112.455 56.779 110.887 56.24C107.751 55.211 106.379 54.77 106.379 52.026C106.379 50.801 106.673 50.066 108.094 48.008C108.878 46.832 110.446 44.235 110.985 43.157H102.263C100.548 43.157 99.568 41.932 99.568 39.776C99.568 37.571 100.548 36.346 102.263 36.346H114.268C114.905 35.023 115.542 33.455 116.179 31.446C117.698 26.693 117.894 26.448 119.952 26.448C122.745 26.448 124.705 27.771 124.705 29.633C124.705 30.907 124.019 32.916 122.647 36.346H142.639C144.403 36.346 145.334 37.571 145.334 39.776C145.334 41.932 144.403 43.157 142.639 43.157ZM151.704 45.607H169.05V42.128C169.05 40.119 170.373 39.139 173.019 39.139C173.117 39.09 176.204 37.228 178.311 35.121H157.241C155.526 35.121 154.546 33.896 154.546 31.74C154.546 29.535 155.526 28.31 157.241 28.31H184.289C187.474 28.31 189.189 29.633 189.189 32.132C189.189 33.994 188.356 35.366 185.563 38.012C183.407 40.07 180.565 42.177 176.498 44.774V45.607H191.394C193.109 45.607 194.236 46.734 194.236 49.135C194.236 51.487 193.109 52.614 191.394 52.614H176.498V63.737C176.498 69.813 174.636 71.724 168.413 71.724H165.473C161.798 71.724 160.475 70.695 160.475 67.902C160.475 65.697 161.455 64.374 163.072 64.374C163.709 64.374 166.453 64.57 166.992 64.57C168.756 64.57 169.05 64.276 169.05 62.512V52.614H151.704C149.891 52.614 148.911 51.34 148.911 49.086C148.911 46.881 149.891 45.607 151.704 45.607ZM238.581 28.996C237.356 28.996 236.376 29.976 236.376 31.25C236.376 32.475 237.356 33.455 238.581 33.455C239.855 33.455 240.835 32.475 240.835 31.201C240.835 29.976 239.855 28.996 238.581 28.996ZM201.537 31.642H231.574C231.966 31.642 232.113 31.642 232.358 31.691C232.015 28.114 234.955 24.929 238.63 24.929C242.158 24.929 244.951 27.722 244.951 31.25C244.951 34.043 242.795 37.816 238.042 37.522C238.091 37.767 238.091 37.914 238.091 38.159C238.091 39.923 236.082 58.788 215.453 69.862C212.954 71.185 211.092 71.871 209.671 71.871C207.368 71.871 205.359 69.715 205.359 67.265C205.359 65.305 206.29 64.374 209.377 62.953C217.119 59.474 222.411 54.917 225.792 48.841C227.164 46.342 229.075 42.03 229.075 40.119C229.075 39.678 228.83 39.531 228.046 39.531H201.537C199.528 39.531 198.401 38.11 198.401 35.562C198.401 33.063 199.528 31.642 201.537 31.642ZM280.672 59.425V39.531C280.672 38.355 280.476 38.159 279.3 38.159H259.651C258.475 38.159 258.279 38.355 258.279 39.531V59.425C258.279 60.601 258.475 60.797 259.651 60.797H279.3C280.476 60.797 280.672 60.601 280.672 59.425ZM250.194 62.904V36.052C250.194 32.034 251.762 30.466 255.829 30.466H283.171C287.189 30.466 288.757 32.034 288.757 36.052V62.904C288.757 66.922 287.189 68.49 283.171 68.49H255.829C251.762 68.49 250.194 66.922 250.194 62.904ZM316.344 30.368V39.58C317.373 39.923 324.037 42.324 329.084 44.921C333.249 47.077 334.082 47.91 334.082 50.017C334.082 52.614 332.269 54.672 330.064 54.672C328.888 54.672 328.447 54.427 324.527 52.271C322.812 51.291 319.431 49.821 316.344 48.449V68.539C316.344 70.695 314.874 71.871 312.179 71.871C309.533 71.871 308.014 70.695 308.014 68.539V30.368C308.014 28.212 309.484 27.036 312.179 27.036C314.874 27.036 316.344 28.212 316.344 30.368ZM376.418 39.433H351.918C349.958 39.433 348.831 38.012 348.831 35.562C348.831 33.112 349.958 31.691 351.918 31.691H379.652C383.67 31.691 385.385 33.259 385.385 37.032V61.875C385.385 65.648 383.67 67.216 379.652 67.216H351.232C349.223 67.216 348.096 65.795 348.096 63.247C348.096 60.748 349.223 59.327 351.232 59.327H376.32C377.006 59.327 377.202 59.082 377.202 58.396V40.217C377.202 39.629 377.006 39.433 376.418 39.433ZM400.869 40.56V33.357C400.869 31.348 402.29 30.172 404.838 30.172C407.386 30.172 408.807 31.348 408.807 33.357V38.698C408.807 46.881 408.807 55.211 404.397 63.394C402.339 67.314 400.428 70.009 397.831 70.009C395.283 70.009 393.127 68.049 393.127 65.746C393.127 64.521 393.372 64.178 395.675 61.287C399.399 56.779 400.869 50.801 400.869 40.56ZM421.939 32.181V59.719C428.358 54.427 430.416 49.184 431.837 45.558C432.572 43.696 433.503 42.912 435.071 42.912C437.717 42.912 439.873 44.578 439.873 46.685C439.873 50.017 434.091 62.463 423.507 68.441C421.89 69.372 420.518 69.764 419.048 69.764C415.373 69.764 413.903 67.853 413.903 63.051V32.181C413.903 30.123 415.324 28.996 417.921 28.996C420.518 28.996 421.939 30.123 421.939 32.181Z" fill="#282828"/>
<path d="M6.00902 111.882C5.98517 113.016 5.97325 114.921 5.97325 117.597V124.703C5.97325 127.222 6.06863 128.702 6.25939 129.143C6.43824 129.568 7.22513 129.859 8.62008 130.016C8.83471 130.064 8.94199 130.276 8.94199 130.654C8.94199 131.001 8.83471 131.174 8.62008 131.174C7.04629 131.11 5.7348 131.079 4.6856 131.079C3.61257 131.079 2.28915 131.11 0.715363 131.174C0.500749 131.174 0.39345 131.001 0.39345 130.654C0.39345 130.276 0.500749 130.064 0.715363 130.016C2.01492 129.891 2.74817 129.599 2.91509 129.143C3.16547 128.545 3.29065 126.9 3.29065 124.208V117.549C3.29065 115.928 3.26681 114.055 3.21912 111.93C2.44415 111.93 1.44264 111.977 0.214607 112.071C0.0715362 112.071 0 112.008 0 111.882L0.250379 110.419C0.321914 110.23 0.447103 110.135 0.625938 110.135C1.25784 110.167 2.12223 110.182 3.21912 110.182L3.18335 107.632C3.18335 103.886 4.0537 100.738 5.79441 98.1876C7.2132 96.0626 9.03143 95 11.249 95C12.5128 95 13.1447 95.4486 13.1447 96.3458C13.1447 97.2431 12.9837 98.0065 12.6618 98.6362C12.3996 99.1557 12.1075 99.4154 11.7856 99.4154C11.4756 99.4154 11.0523 99.1242 10.5158 98.5418L10.337 98.3292C9.81231 97.7783 9.22214 97.5028 8.56644 97.5028C7.398 97.5028 6.64092 99.1321 6.29516 102.39C6.12825 104.059 6.04479 106.641 6.04479 110.135C7.55897 110.135 9.04926 110.088 10.5158 109.994C10.6827 109.994 10.7661 110.072 10.7661 110.23L10.3727 111.694C10.3012 111.882 10.1998 111.977 10.0687 111.977C9.19829 111.914 7.84515 111.882 6.00902 111.882ZM21.2462 109.262C23.6069 109.262 25.5443 110.395 27.0585 112.662C28.4415 114.724 29.133 117.329 29.133 120.477C29.133 124.035 28.2806 126.915 26.5756 129.119C25.121 131.008 23.3445 131.953 21.2462 131.953C18.8616 131.953 16.9182 130.795 15.416 128.482C14.0807 126.42 13.413 123.853 13.413 120.784C13.413 117.242 14.2893 114.346 16.042 112.095C17.5204 110.206 19.2551 109.262 21.2462 109.262ZM21.2462 110.702C19.7201 110.702 18.5338 111.639 17.6872 113.512C16.9123 115.243 16.5248 117.612 16.5248 120.619C16.5248 124.161 17.0196 126.766 18.0091 128.434C18.808 129.804 19.887 130.489 21.2462 130.489C22.7842 130.489 23.9884 129.552 24.8588 127.679C25.6575 125.948 26.0569 123.594 26.0569 120.619C26.0569 117.03 25.5443 114.393 24.5189 112.709C23.6962 111.371 22.6053 110.702 21.2462 110.702ZM38.0928 114.433C39.6905 111.017 41.2404 109.309 42.7427 109.309C43.3627 109.309 43.8635 109.458 44.2449 109.757C44.5668 110.025 44.7278 110.332 44.7278 110.678C44.7278 111.45 44.4953 112.182 44.0304 112.874C43.6488 113.441 43.2852 113.724 42.9394 113.724C42.6891 113.724 42.3433 113.583 41.9022 113.299C41.461 113 41.1451 112.851 40.9543 112.851C40.4297 112.851 39.8276 113.449 39.148 114.645C38.4446 115.873 38.0928 117.227 38.0928 118.706V124.303C38.0928 127.183 38.1764 128.828 38.3433 129.237C38.546 129.71 39.2732 130 40.5251 130.111C40.7159 130.158 40.8113 130.339 40.8113 130.654C40.8113 131.001 40.7159 131.174 40.5251 131.174C39.0586 131.11 37.8484 131.079 36.8947 131.079C35.8693 131.079 34.6234 131.11 33.1569 131.174C32.9423 131.174 32.835 131.001 32.835 130.654C32.835 130.339 32.9423 130.158 33.1569 130.111C33.8842 130.032 34.373 129.93 34.6234 129.804C34.8141 129.694 34.9751 129.505 35.1063 129.237C35.3447 128.78 35.464 127.135 35.464 124.303V117.549C35.464 115.55 35.3566 114.244 35.142 113.63C34.8797 112.953 34.5459 112.614 34.1405 112.614L32.835 112.709C32.6085 112.709 32.4952 112.512 32.4952 112.119C32.4952 111.788 32.6442 111.56 32.9423 111.434C34.6472 110.977 36.2448 110.324 37.7352 109.474C38.0213 109.474 38.1644 109.616 38.1644 109.899C38.1167 111.772 38.0928 113.284 38.0928 114.433ZM79.5122 96.8418C79.6314 98.8094 79.84 101.391 80.1382 104.586V104.775C80.1382 105.059 79.9295 105.2 79.5122 105.2C79.3691 105.2 79.2677 105.106 79.2082 104.917C78.6121 102.619 77.8311 100.958 76.8654 99.9349C76.0188 99.0376 74.5702 98.589 72.5195 98.589C71.6373 98.589 71.0292 98.6677 70.6954 98.8252C70.4212 98.9511 70.1947 99.195 70.0158 99.5571C69.8012 100.014 69.6641 100.604 69.6045 101.328C69.5448 102.084 69.515 103.461 69.515 105.46V123.145C69.515 125.333 69.5448 126.742 69.6045 127.372C69.6641 127.907 69.7892 128.356 69.98 128.718C70.1827 129.08 70.4987 129.339 70.9278 129.497C71.3333 129.639 72.0307 129.765 73.0203 129.874C73.2469 129.907 73.3601 130.111 73.3601 130.489C73.3601 130.945 73.2469 131.174 73.0203 131.174C71.053 131.048 69.3958 130.985 68.0485 130.985C66.6655 130.985 65.0858 131.048 63.3093 131.174C63.0947 131.174 62.9874 130.945 62.9874 130.489C62.9874 130.111 63.0947 129.907 63.3093 129.874C64.8593 129.701 65.7773 129.316 66.0635 128.718C66.3854 128.056 66.5463 126.089 66.5463 122.814V104.327C66.5463 101.666 66.3972 100.045 66.0992 99.4626C65.8131 98.8802 64.9844 98.589 63.6133 98.589C61.6819 98.589 60.275 99.0376 59.3927 99.9349C58.4269 100.958 57.6222 102.619 56.9784 104.917C56.9187 105.106 56.8353 105.2 56.728 105.2C56.3107 105.2 56.102 105.059 56.102 104.775V104.634C56.4121 101.533 56.6326 98.9353 56.7638 96.8418C60.0306 96.9991 63.8041 97.0778 68.0843 97.0778C72.4361 97.0778 76.2453 96.9991 79.5122 96.8418ZM96.1265 126.924C96.3772 126.01 96.7345 124.625 97.1992 122.768L98.845 116.676C99.3333 114.818 99.5783 113.496 99.5783 112.709C99.5783 112.111 99.4351 111.701 99.1486 111.481C98.8743 111.276 98.3794 111.151 97.6648 111.103C97.4499 111.072 97.3425 110.883 97.3425 110.537C97.3425 110.175 97.4377 109.994 97.629 109.994C98.9524 110.056 100.007 110.088 100.794 110.088C101.379 110.088 102.332 110.056 103.655 109.994C103.87 109.994 103.978 110.175 103.978 110.537C103.978 110.883 103.87 111.072 103.655 111.103C102.785 111.229 102.159 111.568 101.778 112.119C101.48 112.544 100.967 114.063 100.24 116.676L97.7356 125.412C97.152 127.553 96.6392 129.489 96.1981 131.221C95.4949 131.678 95.0952 131.905 95 131.905C94.8926 131.905 94.8209 131.827 94.7851 131.669C94.6305 130.992 94.1177 128.922 93.2468 125.459L91.781 120.099C91.2202 117.833 90.9101 116.589 90.8506 116.369C90.5405 117.471 90.2125 118.651 89.8666 119.91L88.1501 125.459C87.4346 127.899 86.8982 129.82 86.5409 131.221C85.8255 131.678 85.4202 131.905 85.3241 131.905C85.2175 131.905 85.1337 131.827 85.0743 131.669C84.5379 129.292 84.0365 127.222 83.5718 125.459L81.2293 116.676C80.5614 114.094 80.0487 112.528 79.691 111.977C79.3811 111.473 78.7789 111.182 77.8847 111.103C77.6701 111.072 77.5628 110.867 77.5628 110.489C77.5628 110.159 77.6701 109.994 77.8847 109.994C79.4585 110.056 80.6329 110.088 81.4075 110.088C82.2784 110.088 83.4765 110.056 85.0026 109.994C85.1931 109.994 85.2883 110.175 85.2883 110.537C85.2883 110.883 85.1695 111.072 84.931 111.103C84.1562 111.151 83.6556 111.276 83.4285 111.481C83.2503 111.639 83.1607 111.93 83.1607 112.355C83.1607 113 83.4529 114.44 84.0365 116.676L85.736 123.193C85.9744 124.09 86.2667 125.333 86.6118 126.924C86.7078 126.609 86.8266 126.192 86.9699 125.672C87.28 124.633 87.5364 123.775 87.739 123.098L89.2049 118.069C89.7421 116.29 90.1116 115.078 90.3143 114.433C89.9684 113 89.6526 112.119 89.3661 111.788C89.0201 111.426 88.4186 111.198 87.56 111.103C87.3451 111.072 87.2377 110.883 87.2377 110.537C87.2377 110.175 87.3337 109.994 87.5242 109.994C89.0983 110.056 90.237 110.088 90.9402 110.088C91.7867 110.088 92.9432 110.056 94.4099 109.994C94.6004 109.994 94.6956 110.175 94.6956 110.537C94.6956 110.883 94.5882 111.072 94.3741 111.103C93.5984 111.151 93.0979 111.276 92.8716 111.481C92.6812 111.654 92.5851 111.945 92.5851 112.355C92.5851 112.937 92.8895 114.377 93.4975 116.676L95.1424 122.909C95.4289 124.168 95.757 125.506 96.1265 126.924ZM108.216 117.479C108.216 115.464 108.12 114.149 107.93 113.535C107.715 112.89 107.358 112.567 106.857 112.567L105.498 112.662C105.307 112.662 105.211 112.449 105.211 112.024C105.211 111.725 105.36 111.513 105.658 111.387C107.494 110.804 109.116 110.143 110.523 109.403C110.809 109.403 110.952 109.553 110.952 109.852C110.857 112.921 110.809 115.692 110.809 118.163V124.208C110.809 127.183 110.88 128.844 111.024 129.19C111.203 129.615 111.93 129.891 113.206 130.016C113.396 130.064 113.491 130.237 113.491 130.536C113.491 130.961 113.396 131.174 113.206 131.174C111.739 131.11 110.553 131.079 109.646 131.079C108.574 131.079 107.328 131.11 105.909 131.174C105.719 131.174 105.622 130.961 105.622 130.536C105.622 130.237 105.719 130.064 105.909 130.016C107.018 129.859 107.691 129.583 107.93 129.19C108.12 128.844 108.216 127.183 108.216 124.208V117.479ZM109.307 96.1334C109.856 96.1334 110.344 96.4482 110.774 97.0778C111.143 97.6288 111.328 98.2112 111.328 98.8252C111.328 99.6279 111.095 100.305 110.631 100.856C110.225 101.312 109.784 101.54 109.307 101.54C108.735 101.54 108.234 101.241 107.805 100.643C107.423 100.124 107.232 99.5177 107.232 98.8252C107.232 98.101 107.477 97.4557 107.966 96.8889C108.371 96.3853 108.818 96.1334 109.307 96.1334ZM118.231 111.93L115.96 111.977C115.722 111.977 115.602 111.764 115.602 111.339C115.602 110.93 115.722 110.694 115.96 110.631C117.056 110.301 117.927 109.655 118.571 108.695C119.191 107.766 119.68 106.664 120.037 105.389C120.109 105.106 120.288 104.964 120.574 104.964C120.896 104.964 121.057 105.13 121.057 105.46C120.985 107.821 120.949 109.364 120.949 110.088C122.321 110.088 123.984 110.056 125.939 109.994C126.082 109.994 126.154 110.088 126.154 110.277L125.814 111.646C125.754 111.867 125.635 111.977 125.456 111.977C124.574 111.882 123.048 111.835 120.878 111.835L120.806 123.688C120.806 126.034 121.05 127.648 121.539 128.529C122.016 129.363 122.66 129.78 123.471 129.78C124.353 129.78 125.122 129.339 125.778 128.458C125.849 128.364 125.921 128.316 125.992 128.316C126.123 128.316 126.255 128.418 126.386 128.624C126.493 128.797 126.547 128.953 126.547 129.095C126.547 129.19 126.511 129.284 126.44 129.379C125.259 131.095 123.978 131.953 122.594 131.953C121.08 131.953 119.942 131.401 119.179 130.3C118.451 129.197 118.088 127.474 118.088 125.129L118.159 118.565L118.231 111.93ZM130.929 111.93L128.657 111.977C128.419 111.977 128.3 111.764 128.3 111.339C128.3 110.93 128.419 110.694 128.657 110.631C129.754 110.301 130.624 109.655 131.268 108.695C131.888 107.766 132.377 106.664 132.735 105.389C132.807 105.106 132.986 104.964 133.271 104.964C133.594 104.964 133.754 105.13 133.754 105.46C133.682 107.821 133.647 109.364 133.647 110.088C135.018 110.088 136.682 110.056 138.637 109.994C138.78 109.994 138.852 110.088 138.852 110.277L138.511 111.646C138.452 111.867 138.332 111.977 138.154 111.977C137.272 111.882 135.746 111.835 133.576 111.835L133.504 123.688C133.504 126.034 133.748 127.648 134.237 128.529C134.714 129.363 135.358 129.78 136.169 129.78C137.051 129.78 137.82 129.339 138.476 128.458C138.547 128.364 138.619 128.316 138.69 128.316C138.821 128.316 138.952 128.418 139.084 128.624C139.191 128.797 139.245 128.953 139.245 129.095C139.245 129.19 139.209 129.284 139.137 129.379C137.957 131.095 136.675 131.953 135.292 131.953C133.778 131.953 132.64 131.401 131.876 130.3C131.149 129.197 130.786 127.474 130.786 125.129L130.857 118.565L130.929 111.93ZM144.932 118.565C144.86 119.32 144.824 119.973 144.824 120.524C144.824 123.389 145.462 125.735 146.738 127.561C147.788 129.041 148.968 129.78 150.279 129.78C152.389 129.78 154.052 128.647 155.268 126.38C155.329 126.254 155.412 126.192 155.519 126.192C155.662 126.192 155.806 126.278 155.948 126.451C156.08 126.576 156.145 126.703 156.145 126.829C156.145 127.002 156.073 127.206 155.93 127.443C154.416 130.449 152.366 131.953 149.778 131.953C147.311 131.953 145.331 130.811 143.841 128.529C142.517 126.483 141.856 123.901 141.856 120.784C141.856 117.274 142.702 114.401 144.395 112.166C145.85 110.23 147.614 109.262 149.689 109.262C151.633 109.262 153.236 110.182 154.5 112.024C155.573 113.598 156.169 115.534 156.288 117.833C156.288 118.069 156.229 118.266 156.109 118.423C155.99 118.58 155.865 118.659 155.734 118.659C153.266 118.565 150.863 118.517 148.527 118.517C146.893 118.517 145.695 118.533 144.932 118.565ZM145.146 116.865C145.862 116.896 146.863 116.912 148.151 116.912C149.808 116.912 151.388 116.849 152.89 116.723C153.129 116.723 153.248 116.51 153.248 116.085C153.129 114.354 152.711 112.984 151.996 111.977C151.352 111.095 150.583 110.655 149.689 110.655C148.592 110.655 147.626 111.261 146.791 112.473C146.029 113.559 145.48 115.023 145.146 116.865ZM164.89 114.433C166.488 111.017 168.038 109.309 169.54 109.309C170.16 109.309 170.661 109.458 171.042 109.757C171.364 110.025 171.526 110.332 171.526 110.678C171.526 111.45 171.293 112.182 170.828 112.874C170.446 113.441 170.082 113.724 169.737 113.724C169.487 113.724 169.141 113.583 168.7 113.299C168.258 113 167.943 112.851 167.751 112.851C167.227 112.851 166.625 113.449 165.945 114.645C165.242 115.873 164.89 117.227 164.89 118.706V124.303C164.89 127.183 164.974 128.828 165.14 129.237C165.343 129.71 166.071 130 167.322 130.111C167.513 130.158 167.609 130.339 167.609 130.654C167.609 131.001 167.513 131.174 167.322 131.174C165.856 131.11 164.646 131.079 163.692 131.079C162.667 131.079 161.421 131.11 159.954 131.174C159.74 131.174 159.633 131.001 159.633 130.654C159.633 130.339 159.74 130.158 159.954 130.111C160.682 130.032 161.17 129.93 161.421 129.804C161.611 129.694 161.772 129.505 161.903 129.237C162.142 128.78 162.262 127.135 162.262 124.303V117.549C162.262 115.55 162.154 114.244 161.939 113.63C161.677 112.953 161.343 112.614 160.938 112.614L159.633 112.709C159.405 112.709 159.292 112.512 159.292 112.119C159.292 111.788 159.441 111.56 159.74 111.434C161.444 110.977 163.042 110.324 164.532 109.474C164.819 109.474 164.962 109.616 164.962 109.899C164.914 111.772 164.89 113.284 164.89 114.433ZM202.053 131.174C198.632 131.001 195.609 130.914 192.986 130.914C190.053 130.914 186.911 131.001 183.561 131.174C183.371 131.174 183.275 130.961 183.275 130.536C183.275 130.174 183.371 129.969 183.561 129.922C184.527 129.796 185.189 129.647 185.546 129.474C185.833 129.316 186.059 129.08 186.226 128.765C186.524 128.183 186.673 126.065 186.673 122.413V105.46C186.673 102.941 186.643 101.328 186.584 100.62C186.536 100.084 186.428 99.6437 186.262 99.2973C185.964 98.7149 184.998 98.345 183.365 98.1876C183.15 98.1561 183.043 97.9672 183.043 97.621C183.043 97.1015 183.15 96.8418 183.365 96.8418C185.82 96.9991 188.867 97.0778 192.504 97.0778C195.865 97.0778 198.829 96.9991 201.392 96.8418C201.702 100.903 201.91 103.453 202.017 104.492V104.634C202.017 104.917 201.82 105.059 201.427 105.059C201.296 105.059 201.201 104.964 201.141 104.775C200.604 102.65 199.824 101.052 198.798 99.9821C197.904 99.0376 196.062 98.5654 193.272 98.5654C191.532 98.5654 190.465 98.9511 190.071 99.7223C189.809 100.242 189.678 101.588 189.678 103.76V112.308C190.095 112.339 190.876 112.355 192.02 112.355C194.643 112.355 196.252 112.032 196.849 111.387C197.481 110.726 197.85 109.694 197.958 108.293C197.982 108.01 198.113 107.868 198.352 107.868C198.721 107.868 198.906 108.01 198.906 108.293C198.858 110.497 198.834 112.079 198.834 113.039C198.834 114.393 198.858 116.203 198.906 118.47C198.906 118.754 198.721 118.895 198.352 118.895C198.113 118.895 197.982 118.738 197.958 118.423C197.85 116.644 197.457 115.448 196.777 114.834C196.134 114.22 194.548 113.913 192.02 113.913C191.257 113.913 190.476 113.945 189.678 114.008V122.413C189.678 125.577 189.85 127.497 190.196 128.174C190.458 128.678 190.852 129.024 191.376 129.214C191.901 129.387 192.724 129.474 193.844 129.474C195.633 129.474 197.028 129.308 198.029 128.977C198.876 128.71 199.633 128.261 200.301 127.632C201.278 126.687 202.19 125.074 203.036 122.792C203.108 122.57 203.198 122.461 203.305 122.461C203.77 122.461 204.003 122.641 204.003 123.003L203.967 123.24C203.526 125.774 202.888 128.418 202.053 131.174ZM219.472 111.646V103.028C219.472 100.887 219.389 99.5649 219.222 99.0612C218.995 98.4158 218.638 98.0931 218.149 98.0931L216.843 98.1876C216.665 98.1876 216.575 98.0302 216.575 97.7154C216.575 97.2746 216.701 97.0149 216.95 96.9362C218.358 96.5899 220.021 95.9445 221.941 95C222.179 95 222.298 95.1101 222.298 95.3305C222.203 99.9742 222.155 103.784 222.155 106.759V124.35C222.155 127.23 222.226 128.844 222.37 129.19C222.549 129.663 223.013 129.922 223.765 129.969L224.426 130.016C224.64 130.016 224.748 130.189 224.748 130.536C224.748 130.914 224.64 131.126 224.426 131.174C222.864 131.331 221.285 131.591 219.687 131.953C219.496 131.953 219.4 131.803 219.4 131.504C219.448 129.71 219.472 128.631 219.472 128.269C218.888 129.481 218.119 130.418 217.165 131.079C216.342 131.661 215.514 131.953 214.68 131.953C212.2 131.953 210.268 130.804 208.885 128.505C207.668 126.507 207.061 123.917 207.061 120.737C207.061 117.006 207.907 114.071 209.6 111.93C211.043 110.119 212.843 109.214 215.001 109.214C216.766 109.214 218.256 110.025 219.472 111.646ZM215.109 110.702C213.534 110.702 212.283 111.694 211.353 113.677C210.518 115.44 210.101 117.738 210.101 120.572C210.101 123.578 210.643 125.932 211.728 127.632C212.646 129.033 213.773 129.733 215.109 129.733C216.611 129.733 217.833 128.922 218.774 127.301C219.24 126.53 219.472 125.515 219.472 124.255V116.369C219.472 115.267 219.24 114.299 218.774 113.464C217.75 111.623 216.527 110.702 215.109 110.702ZM229.898 117.479C229.898 115.464 229.803 114.149 229.613 113.535C229.398 112.89 229.04 112.567 228.539 112.567L227.181 112.662C226.989 112.662 226.894 112.449 226.894 112.024C226.894 111.725 227.043 111.513 227.341 111.387C229.177 110.804 230.798 110.143 232.206 109.403C232.491 109.403 232.635 109.553 232.635 109.852C232.539 112.921 232.491 115.692 232.491 118.163V124.208C232.491 127.183 232.563 128.844 232.706 129.19C232.885 129.615 233.612 129.891 234.888 130.016C235.079 130.064 235.174 130.237 235.174 130.536C235.174 130.961 235.079 131.174 234.888 131.174C233.422 131.11 232.235 131.079 231.329 131.079C230.256 131.079 229.01 131.11 227.592 131.174C227.401 131.174 227.305 130.961 227.305 130.536C227.305 130.237 227.401 130.064 227.592 130.016C228.7 129.859 229.374 129.583 229.613 129.19C229.803 128.844 229.898 127.183 229.898 124.208V117.479ZM230.99 96.1334C231.538 96.1334 232.027 96.4482 232.456 97.0778C232.826 97.6288 233.011 98.2112 233.011 98.8252C233.011 99.6279 232.778 100.305 232.313 100.856C231.908 101.312 231.467 101.54 230.99 101.54C230.418 101.54 229.916 101.241 229.487 100.643C229.106 100.124 228.915 99.5177 228.915 98.8252C228.915 98.101 229.159 97.4557 229.648 96.8889C230.054 96.3853 230.501 96.1334 230.99 96.1334ZM239.914 111.93L237.643 111.977C237.404 111.977 237.285 111.764 237.285 111.339C237.285 110.93 237.404 110.694 237.643 110.631C238.739 110.301 239.61 109.655 240.254 108.695C240.873 107.766 241.362 106.664 241.72 105.389C241.791 105.106 241.97 104.964 242.256 104.964C242.578 104.964 242.739 105.13 242.739 105.46C242.668 107.821 242.632 109.364 242.632 110.088C244.003 110.088 245.666 110.056 247.621 109.994C247.765 109.994 247.836 110.088 247.836 110.277L247.496 111.646C247.437 111.867 247.318 111.977 247.139 111.977C246.256 111.882 244.73 111.835 242.56 111.835L242.489 123.688C242.489 126.034 242.733 127.648 243.222 128.529C243.699 129.363 244.343 129.78 245.154 129.78C246.036 129.78 246.805 129.339 247.461 128.458C247.532 128.364 247.603 128.316 247.675 128.316C247.806 128.316 247.937 128.418 248.069 128.624C248.176 128.797 248.229 128.953 248.229 129.095C248.229 129.19 248.194 129.284 248.123 129.379C246.942 131.095 245.661 131.953 244.277 131.953C242.763 131.953 241.624 131.401 240.862 130.3C240.134 129.197 239.77 127.474 239.77 125.129L239.842 118.565L239.914 111.93ZM253.112 117.479C253.112 115.464 253.017 114.149 252.826 113.535C252.612 112.89 252.253 112.567 251.753 112.567L250.394 112.662C250.203 112.662 250.107 112.449 250.107 112.024C250.107 111.725 250.257 111.513 250.555 111.387C252.391 110.804 254.012 110.143 255.419 109.403C255.705 109.403 255.848 109.553 255.848 109.852C255.753 112.921 255.705 115.692 255.705 118.163V124.208C255.705 127.183 255.777 128.844 255.92 129.19C256.098 129.615 256.826 129.891 258.101 130.016C258.293 130.064 258.388 130.237 258.388 130.536C258.388 130.961 258.293 131.174 258.101 131.174C256.635 131.11 255.449 131.079 254.543 131.079C253.469 131.079 252.224 131.11 250.805 131.174C250.614 131.174 250.519 130.961 250.519 130.536C250.519 130.237 250.614 130.064 250.805 130.016C251.914 129.859 252.587 129.583 252.826 129.19C253.017 128.844 253.112 127.183 253.112 124.208V117.479ZM254.203 96.1334C254.751 96.1334 255.24 96.4482 255.669 97.0778C256.039 97.6288 256.224 98.2112 256.224 98.8252C256.224 99.6279 255.991 100.305 255.526 100.856C255.121 101.312 254.68 101.54 254.203 101.54C253.631 101.54 253.13 101.241 252.701 100.643C252.319 100.124 252.128 99.5177 252.128 98.8252C252.128 98.101 252.373 97.4557 252.861 96.8889C253.267 96.3853 253.714 96.1334 254.203 96.1334ZM269.189 109.262C271.551 109.262 273.488 110.395 275.002 112.662C276.385 114.724 277.076 117.329 277.076 120.477C277.076 124.035 276.224 126.915 274.519 129.119C273.065 131.008 271.288 131.953 269.189 131.953C266.805 131.953 264.862 130.795 263.359 128.482C262.025 126.42 261.356 123.853 261.356 120.784C261.356 117.242 262.233 114.346 263.985 112.095C265.464 110.206 267.199 109.262 269.189 109.262ZM269.189 110.702C267.663 110.702 266.477 111.639 265.631 113.512C264.856 115.243 264.469 117.612 264.469 120.619C264.469 124.161 264.963 126.766 265.952 128.434C266.752 129.804 267.83 130.489 269.189 130.489C270.728 130.489 271.932 129.552 272.802 127.679C273.601 125.948 274.001 123.594 274.001 120.619C274.001 117.03 273.488 114.393 272.462 112.709C271.64 111.371 270.549 110.702 269.189 110.702ZM285.894 113.771C287.336 110.796 289.196 109.309 291.473 109.309C293.083 109.309 294.37 109.962 295.336 111.269C296.23 112.481 296.677 114.039 296.677 115.944L296.623 121.256V124.303C296.623 127.167 296.725 128.813 296.928 129.237C297.118 129.663 297.769 129.954 298.877 130.111C299.092 130.158 299.199 130.339 299.199 130.654C299.199 131.001 299.092 131.174 298.877 131.174C297.458 131.11 296.308 131.079 295.425 131.079C294.496 131.079 293.273 131.11 291.759 131.174C291.545 131.174 291.437 131.001 291.437 130.654C291.437 130.339 291.545 130.158 291.759 130.111C292.761 130.032 293.386 129.741 293.637 129.237C293.852 128.813 293.959 127.167 293.959 124.303V116.912C293.959 115.778 293.822 114.858 293.548 114.149C292.927 112.496 291.878 111.67 290.4 111.67C288.946 111.67 287.712 112.575 286.698 114.385C286.161 115.346 285.894 116.589 285.894 118.116V124.303C285.894 127.23 285.977 128.875 286.143 129.237C286.287 129.521 286.489 129.718 286.751 129.827C287.014 129.922 287.503 130.016 288.218 130.111C288.409 130.158 288.505 130.339 288.505 130.654C288.505 131.001 288.409 131.174 288.218 131.174C286.751 131.11 285.601 131.079 284.766 131.079C283.789 131.079 282.567 131.11 281.1 131.174C280.91 131.174 280.815 131.001 280.815 130.654C280.815 130.339 280.91 130.158 281.1 130.111C282.102 130 282.728 129.71 282.978 129.237C283.193 128.797 283.3 127.151 283.3 124.303V117.549C283.3 115.534 283.205 114.228 283.014 113.63C282.775 112.953 282.429 112.614 281.977 112.614L280.707 112.709C280.48 112.709 280.367 112.465 280.367 111.977C280.367 111.694 280.528 111.513 280.85 111.434C282.364 111.009 283.938 110.356 285.571 109.474C285.834 109.474 285.965 109.616 285.965 109.899C285.917 111.631 285.894 112.921 285.894 113.771ZM320.982 113.039C323.104 113.527 324.726 114.621 325.846 116.322C326.824 117.817 327.312 119.643 327.312 121.8C327.312 125.12 326.484 127.718 324.827 129.592C323.384 131.197 321.53 132 319.265 132C317.321 132 315.587 131.37 314.061 130.111C312.523 128.868 311.753 127.577 311.753 126.239C311.753 125.64 311.986 125.137 312.451 124.727C312.868 124.381 313.369 124.208 313.953 124.208C314.513 124.208 315.074 125.129 315.634 126.971L315.813 127.537C316.445 129.474 317.596 130.442 319.265 130.442C320.863 130.442 322.097 129.599 322.967 127.915C323.742 126.388 324.129 124.294 324.129 121.634C324.129 119.163 323.605 117.219 322.556 115.802C321.638 114.574 320.463 113.96 319.032 113.96L317.101 114.102C316.803 114.102 316.654 113.921 316.654 113.559C316.654 112.599 316.91 112.119 317.423 112.119L318.675 112.26C320.165 112.26 321.351 111.505 322.233 109.994C323.008 108.64 323.396 106.932 323.396 104.87C323.396 102.635 323.008 100.942 322.233 99.7932C321.554 98.8172 320.648 98.3292 319.515 98.3292C317.942 98.3292 316.868 99.0376 316.296 100.454C316.046 101.1 315.921 101.91 315.921 102.886C315.921 103.579 315.659 104.146 315.134 104.586C314.669 104.964 314.126 105.153 313.507 105.153C312.755 105.153 312.379 104.689 312.379 103.76C312.379 101.95 313.172 100.305 314.758 98.8252C316.177 97.5029 317.763 96.8418 319.515 96.8418C321.697 96.8418 323.431 97.6524 324.719 99.2737C325.864 100.722 326.436 102.587 326.436 104.87C326.436 108.978 324.618 111.639 320.982 112.851V113.039ZM334.681 126.192C335.324 126.192 335.855 126.498 336.273 127.113C336.654 127.663 336.845 128.34 336.845 129.143C336.845 129.978 336.606 130.67 336.129 131.221C335.712 131.709 335.229 131.953 334.681 131.953C334.013 131.953 333.465 131.645 333.036 131.032C332.666 130.497 332.481 129.867 332.481 129.143C332.481 128.214 332.72 127.474 333.196 126.924C333.601 126.436 334.096 126.192 334.681 126.192ZM345.322 101.399L344.696 110.867C344.66 111.513 344.612 112.347 344.553 113.37C345.828 111.434 347.528 110.466 349.649 110.466C352.046 110.466 353.918 111.52 355.266 113.63C356.422 115.456 357 117.801 357 120.666C357 124.318 356.141 127.199 354.425 129.308C352.958 131.103 351.128 132 348.934 132C347.217 132 345.596 131.449 344.07 130.347C342.437 129.182 341.62 127.876 341.62 126.427C341.62 125.892 341.846 125.428 342.3 125.034C342.705 124.672 343.188 124.492 343.748 124.492C344.094 124.492 344.374 124.68 344.589 125.058C344.815 125.42 345.096 126.121 345.429 127.159L345.608 127.75C346.204 129.576 347.319 130.489 348.952 130.489C350.55 130.489 351.778 129.568 352.637 127.726C353.424 126.026 353.817 123.688 353.817 120.713C353.817 117.943 353.28 115.763 352.207 114.173C351.337 112.866 350.275 112.213 349.024 112.213C347.081 112.213 345.578 113.378 344.517 115.708C344.386 115.959 344.213 116.085 343.998 116.085C343.319 116.085 342.979 115.826 342.979 115.306C342.979 115.243 343.003 115.062 343.05 114.763C343.098 114.464 343.134 114.086 343.158 113.63L344.142 98.6834C344.142 98.4631 344.219 98.2506 344.374 98.046C344.517 97.857 344.648 97.7626 344.768 97.7626C345.745 97.7941 347.551 97.8098 350.186 97.8098C352.129 97.8098 354.085 97.7311 356.052 97.5737C356.267 97.5737 356.374 97.7154 356.374 97.9987L355.497 101.163C355.426 101.383 355.295 101.493 355.104 101.493C353.065 101.43 351.67 101.399 350.919 101.399H345.322Z" fill="#282828"/>
<path d="M16.5418 149.805C16.6287 149.805 16.7481 149.834 16.9002 149.891C17.4505 150.08 17.9791 150.402 18.486 150.857C19.1521 151.464 19.4852 152.084 19.4852 152.719C19.4852 152.966 19.4236 153.165 19.3005 153.316C19.2064 153.44 19.0978 153.501 18.9747 153.501C18.7285 153.501 18.4823 153.241 18.2361 152.719C17.8451 151.819 17.2369 151.042 16.4114 150.388C16.3535 150.331 16.3245 150.232 16.3245 150.09C16.3245 149.9 16.397 149.805 16.5418 149.805ZM14.6845 151.611C14.7859 151.611 14.8582 151.62 14.9017 151.639C15.5751 151.952 16.1254 152.34 16.5527 152.805C17.1898 153.487 17.5084 154.122 17.5084 154.71C17.5084 155.269 17.3238 155.548 16.9545 155.548C16.7155 155.548 16.4693 155.226 16.2159 154.582C15.8829 153.738 15.3325 152.952 14.565 152.222C14.4781 152.137 14.4346 152.042 14.4346 151.938C14.4346 151.72 14.518 151.611 14.6845 151.611ZM12.0777 156.501C11.8533 156.292 11.7411 156.107 11.7411 155.946C11.7411 155.757 11.8461 155.662 12.056 155.662C12.1067 155.662 12.2914 155.747 12.61 155.918C13.7178 156.591 14.8221 157.571 15.9227 158.86C16.4513 159.438 16.94 160.149 17.389 160.993C17.8379 161.836 18.0623 162.514 18.0623 163.025C18.0623 163.338 17.9899 163.603 17.8451 163.821C17.7075 164.03 17.5338 164.134 17.3238 164.134C17.0848 164.134 16.9075 164.063 16.7915 163.921C16.7047 163.826 16.596 163.618 16.4657 163.295C15.872 161.798 15.195 160.467 14.4346 159.301C13.7323 158.24 12.9467 157.306 12.0777 156.501ZM6.87521 158.249C6.87521 157.87 6.60005 157.444 6.04974 156.97C5.93389 156.875 5.87596 156.766 5.87596 156.643C5.87596 156.453 5.99544 156.358 6.23439 156.358C6.68332 156.358 7.07433 156.505 7.40741 156.799C7.74771 157.093 8.05182 157.472 8.31978 157.936C8.58766 158.401 8.7216 158.818 8.7216 159.187C8.7216 159.68 8.55143 159.96 8.21118 160.026C8.06636 160.054 7.93964 160.14 7.83097 160.282C6.65798 161.798 5.58271 163.016 4.60519 163.935C3.00496 165.385 1.6835 166.432 0.640817 167.077C0.510484 167.152 0.387386 167.19 0.271533 167.19C0.0905106 167.19 0 167.081 0 166.863C0 166.702 0.0724088 166.56 0.217226 166.437C1.49886 165.404 2.76239 164.172 4.00782 162.741C4.86224 161.699 5.60443 160.689 6.23439 159.713C6.6616 159.031 6.87521 158.543 6.87521 158.249ZM40.6213 160.722C40.6213 161.168 40.3678 161.391 39.861 161.391L36.7981 161.277C34.1335 161.277 31.0706 161.462 27.6094 161.831C27.0084 161.898 26.6102 162.026 26.4147 162.215C26.2482 162.367 26.0092 162.442 25.6979 162.442C25.2851 162.442 24.8253 161.954 24.3184 160.978C23.9636 160.306 23.7862 159.756 23.7862 159.329C23.7862 159.017 23.8441 158.86 23.9601 158.86C24.0831 158.86 24.2171 158.988 24.3619 159.244C24.8181 159.983 25.3068 160.353 25.8281 160.353C26.574 160.353 27.5986 160.296 28.9019 160.182C32.1965 159.908 34.8575 159.751 36.885 159.713C37.3918 159.713 37.7756 159.614 38.0363 159.415C38.2462 159.263 38.4707 159.187 38.7097 159.187C38.9124 159.187 39.1949 159.282 39.5569 159.472C40.2665 159.879 40.6213 160.296 40.6213 160.722ZM61.2794 148C61.3664 148 61.4858 148.028 61.6379 148.085C62.1882 148.275 62.7168 148.597 63.2236 149.052C63.8898 149.658 64.2229 150.279 64.2229 150.914C64.2229 151.16 64.1613 151.359 64.0382 151.511C63.9441 151.634 63.8355 151.696 63.7124 151.696C63.4662 151.696 63.22 151.435 62.9739 150.914C62.5829 150.014 61.9746 149.237 61.1492 148.583C61.0912 148.526 61.0622 148.426 61.0622 148.284C61.0622 148.095 61.1346 148 61.2794 148ZM59.4222 149.805C59.5236 149.805 59.596 149.815 59.6394 149.834C60.3128 150.146 60.8631 150.535 61.2903 150.999C61.9275 151.672 62.2461 152.302 62.2461 152.89C62.2461 153.449 62.0615 153.729 61.6922 153.729C61.4533 153.729 61.2071 153.411 60.9536 152.776C60.6205 151.933 60.0702 151.146 59.3027 150.417C59.2158 150.331 59.1724 150.232 59.1724 150.118C59.1724 149.91 59.2556 149.805 59.4222 149.805ZM49.5818 152.35C49.466 152.227 49.4081 152.108 49.4081 151.994C49.4081 151.795 49.5203 151.696 49.7448 151.696C50.353 151.696 51.0699 152.009 51.8953 152.634C52.7859 153.288 53.2313 153.985 53.2313 154.724C53.2313 155.084 53.1371 155.368 52.9488 155.577C52.804 155.747 52.6339 155.832 52.4383 155.832C52.1922 155.832 51.9605 155.629 51.7432 155.221C51.2147 154.141 50.4942 153.184 49.5818 152.35ZM49.7665 168.029C49.962 168.029 50.2661 167.882 50.6789 167.588C52.8294 166.091 55.0089 164.219 57.2174 161.973C58.9769 160.173 60.5192 158.363 61.8443 156.543C62.0977 156.174 62.2533 155.989 62.3113 155.989C62.3909 155.989 62.4669 156.032 62.5394 156.117C62.6118 156.193 62.648 156.278 62.648 156.373C62.648 156.477 62.5647 156.681 62.3982 156.984C61.4279 158.813 59.8712 160.926 57.7278 163.324C55.8886 165.361 53.7526 167.375 51.3196 169.365C51.1387 169.507 50.9902 169.692 50.8744 169.92C50.6933 170.308 50.4725 170.502 50.2118 170.502C49.8859 170.502 49.4479 170.123 48.8976 169.365C48.3328 168.598 48.0504 167.873 48.0504 167.19C48.0504 166.688 48.1264 166.437 48.2785 166.437C48.3943 166.437 48.5175 166.584 48.6477 166.878C48.7853 167.152 48.9736 167.418 49.2126 167.674C49.437 167.911 49.6217 168.029 49.7665 168.029ZM46.8448 158.334C46.7 158.24 46.6276 158.102 46.6276 157.922C46.6276 157.733 46.7398 157.638 46.9643 157.638C47.587 157.638 48.2857 157.861 49.0605 158.306C50.1104 158.912 50.6354 159.599 50.6354 160.367C50.6354 161.144 50.3747 161.533 49.8534 161.533C49.5783 161.533 49.2886 161.253 48.9845 160.694C48.4414 159.737 47.7282 158.95 46.8448 158.334ZM80.1019 163.025C80.1964 161.575 80.2616 160.452 80.2973 159.656C80.2973 159.438 80.2147 159.329 80.0479 159.329C78.7444 159.386 76.7677 159.609 74.1175 159.997C73.7265 160.045 73.4659 160.121 73.3355 160.225C73.2052 160.339 73.093 160.396 72.9988 160.396C72.7526 160.396 72.4123 160.116 71.9778 159.557C71.6086 159.074 71.424 158.609 71.424 158.164C71.424 157.87 71.4746 157.723 71.576 157.723C71.6484 157.723 71.7316 157.78 71.8258 157.894C72.2386 158.472 72.6295 158.761 72.9988 158.761C73.0785 158.761 73.2378 158.747 73.4768 158.718C73.7302 158.699 73.9148 158.685 74.0306 158.676C75.6888 158.495 77.5859 158.344 79.7221 158.221C79.8667 158.221 80.0153 158.131 80.167 157.951C80.3704 157.742 80.5253 157.638 80.6341 157.638C80.8153 157.638 81.1195 157.861 81.5469 158.306C81.9449 158.723 82.1443 159.055 82.1443 159.301C82.1443 159.462 82.0466 159.637 81.8504 159.827C81.6478 160.035 81.5398 160.239 81.5247 160.438L80.7867 168.285C81.3221 168.455 81.5898 168.768 81.5898 169.223C81.5898 169.593 81.4413 169.777 81.145 169.777C81.1378 169.777 80.855 169.759 80.2973 169.721C80.109 169.702 79.7976 169.692 79.3639 169.692C77.7054 169.692 75.9639 169.877 74.1392 170.247C73.6541 170.332 73.3573 170.427 73.2486 170.531C73.1762 170.626 73.1039 170.673 73.0314 170.673C72.7852 170.673 72.4341 170.412 71.9778 169.891C71.5361 169.379 71.3154 168.887 71.3154 168.413C71.3154 168.176 71.366 168.057 71.4674 168.057C71.5398 168.057 71.6158 168.105 71.6955 168.2C72.101 168.759 72.4992 169.038 72.8902 169.038C73.2957 169.038 73.6252 169.019 73.8786 168.981C75.9277 168.707 77.8683 168.517 79.6999 168.413C79.823 166.953 79.9287 165.546 80.0153 164.191C78.0023 164.352 76.2789 164.542 74.8452 164.76C74.3601 164.854 74.0487 164.944 73.9111 165.03C73.8822 165.049 73.8423 165.082 73.7917 165.129C73.6903 165.233 73.5998 165.286 73.5201 165.286C73.2739 165.286 72.93 165.025 72.4883 164.504C72.0756 163.992 71.8692 163.537 71.8692 163.139C71.8692 162.883 71.9199 162.755 72.0213 162.755C72.0792 162.755 72.1698 162.822 72.2928 162.954C72.6766 163.4 73.0242 163.622 73.3355 163.622C73.4876 163.622 73.8279 163.594 74.3565 163.537C76.2464 163.338 78.1616 163.168 80.1019 163.025ZM94.678 167.133C94.8663 167.133 95.1992 166.949 95.6774 166.579C97.5165 165.11 99.4493 163.158 101.478 160.722C103.294 158.543 104.956 156.174 106.463 153.615C106.571 153.444 106.672 153.359 106.767 153.359C106.991 153.359 107.104 153.468 107.104 153.686C107.104 153.828 107.06 153.999 106.973 154.198C105.771 156.794 104.167 159.386 102.162 161.973C100.713 163.878 98.8162 165.987 96.4702 168.299C96.1731 168.583 95.9888 168.844 95.9165 169.081C95.7934 169.413 95.6011 169.578 95.3406 169.578C94.964 169.578 94.4826 169.209 93.8963 168.47C93.2878 167.674 92.9835 167.034 92.9835 166.551C92.9835 166.162 93.0486 165.968 93.1789 165.968C93.2584 165.968 93.3569 166.044 93.4721 166.195C94.0155 166.821 94.4174 167.133 94.678 167.133ZM92.8643 153.7C92.7341 153.596 92.6689 153.473 92.6689 153.331C92.6689 153.113 92.7515 153.004 92.9184 153.004C93.0415 153.004 93.1646 153.023 93.2878 153.061C94.1418 153.288 94.96 153.795 95.7426 154.582C96.4957 155.359 96.8722 156.164 96.8722 156.998C96.8722 157.737 96.6363 158.107 96.166 158.107C95.8331 158.126 95.5503 157.842 95.3191 157.254C94.6891 155.7 93.8709 154.515 92.8643 153.7ZM116.857 159.585C118.145 159.879 119.13 160.538 119.811 161.561C120.405 162.461 120.702 163.561 120.702 164.859C120.702 166.859 120.198 168.422 119.192 169.55C118.316 170.517 117.19 171 115.814 171C114.634 171 113.581 170.621 112.654 169.863C111.719 169.114 111.252 168.337 111.252 167.531C111.252 167.171 111.394 166.868 111.676 166.622C111.929 166.413 112.233 166.309 112.588 166.309C112.928 166.309 113.269 166.863 113.609 167.972L113.718 168.313C114.102 169.479 114.8 170.062 115.814 170.062C116.785 170.062 117.534 169.555 118.062 168.541C118.533 167.621 118.768 166.361 118.768 164.76C118.768 163.272 118.45 162.101 117.813 161.248C117.255 160.509 116.541 160.14 115.673 160.14L114.5 160.225C114.319 160.225 114.228 160.116 114.228 159.898C114.228 159.32 114.384 159.031 114.695 159.031L115.455 159.116C116.361 159.116 117.081 158.661 117.617 157.752C118.087 156.937 118.323 155.908 118.323 154.667C118.323 153.321 118.087 152.302 117.617 151.611C117.204 151.023 116.654 150.729 115.966 150.729C115.011 150.729 114.358 151.156 114.011 152.009C113.859 152.397 113.783 152.885 113.783 153.473C113.783 153.89 113.624 154.231 113.305 154.496C113.023 154.724 112.693 154.837 112.317 154.837C111.861 154.837 111.633 154.558 111.633 153.999C111.633 152.909 112.114 151.919 113.077 151.028C113.939 150.232 114.902 149.834 115.966 149.834C117.291 149.834 118.345 150.322 119.126 151.298C119.822 152.17 120.17 153.293 120.17 154.667C120.17 157.14 119.065 158.742 116.857 159.472V159.585ZM125.177 167.503C125.568 167.503 125.889 167.688 126.143 168.057C126.375 168.389 126.491 168.797 126.491 169.28C126.491 169.782 126.346 170.199 126.056 170.531C125.803 170.825 125.51 170.972 125.177 170.972C124.771 170.972 124.438 170.787 124.177 170.417C123.953 170.095 123.841 169.716 123.841 169.28C123.841 168.721 123.985 168.275 124.275 167.944C124.521 167.65 124.822 167.503 125.177 167.503ZM131.639 152.577L131.259 158.277C131.237 158.666 131.208 159.168 131.172 159.784C131.947 158.619 132.979 158.036 134.267 158.036C135.723 158.036 136.86 158.671 137.678 159.941C138.38 161.04 138.731 162.452 138.731 164.177C138.731 166.375 138.21 168.11 137.167 169.379C136.277 170.46 135.165 171 133.833 171C132.791 171 131.806 170.668 130.878 170.005C129.887 169.304 129.391 168.517 129.391 167.645C129.391 167.323 129.528 167.043 129.804 166.807C130.05 166.589 130.343 166.48 130.683 166.48C130.894 166.48 131.064 166.593 131.194 166.821C131.331 167.039 131.501 167.46 131.704 168.086L131.813 168.441C132.175 169.541 132.852 170.09 133.844 170.09C134.814 170.09 135.56 169.536 136.081 168.427C136.559 167.404 136.798 165.996 136.798 164.205C136.798 162.537 136.472 161.225 135.821 160.268C135.292 159.481 134.647 159.088 133.887 159.088C132.707 159.088 131.794 159.789 131.15 161.192C131.071 161.343 130.966 161.419 130.836 161.419C130.422 161.419 130.216 161.263 130.216 160.95C130.216 160.912 130.231 160.803 130.26 160.623C130.288 160.443 130.31 160.216 130.325 159.941L130.922 150.943C130.922 150.81 130.969 150.682 131.064 150.559C131.15 150.445 131.23 150.388 131.303 150.388C131.896 150.407 132.993 150.417 134.593 150.417C135.774 150.417 136.961 150.369 138.155 150.274C138.286 150.274 138.352 150.36 138.352 150.53L137.819 152.435C137.776 152.568 137.696 152.634 137.58 152.634C136.342 152.596 135.495 152.577 135.039 152.577H131.639ZM143.315 167.503C143.706 167.503 144.028 167.688 144.281 168.057C144.513 168.389 144.629 168.797 144.629 169.28C144.629 169.782 144.485 170.199 144.195 170.531C143.941 170.825 143.648 170.972 143.315 170.972C142.909 170.972 142.576 170.787 142.316 170.417C142.091 170.095 141.979 169.716 141.979 169.28C141.979 168.721 142.124 168.275 142.414 167.944C142.66 167.65 142.96 167.503 143.315 167.503ZM148.3 150.218C150.111 150.255 151.548 150.274 152.612 150.274C153.612 150.274 155.016 150.255 156.826 150.218C156.942 150.218 157 150.412 157 150.8C157 151.085 156.971 151.322 156.913 151.511C154.886 156.685 153.543 160.794 152.884 163.836C152.587 165.248 152.438 166.498 152.438 167.588L152.46 169.692C152.46 170.071 152.311 170.393 152.015 170.659C151.762 170.886 151.464 171 151.124 171C150.472 171 150.146 170.621 150.146 169.863C150.146 168.792 150.266 167.721 150.505 166.65C150.722 165.693 151.12 164.338 151.7 162.585C152.222 161.021 153.579 157.619 155.773 152.378H151.146C150.154 152.378 149.488 152.573 149.147 152.961C148.807 153.35 148.547 153.989 148.365 154.88C148.329 155.051 148.249 155.136 148.126 155.136C147.887 155.136 147.768 155.06 147.768 154.909V154.852C147.993 152.994 148.17 151.45 148.3 150.218Z" fill="#222222"/>
<g clip-path="url(#clip0_131_100)">
<path d="M310.771 117.728L255.996 136.67L262.833 156.612L317.608 137.67L310.771 117.728Z" fill="#FF4747"/>
<path d="M277.602 135.153C277.353 135.239 277.152 135.325 276.999 135.41C276.855 135.492 276.75 135.577 276.684 135.664C276.614 135.742 276.576 135.82 276.571 135.897C276.565 135.975 276.577 136.057 276.607 136.143C276.601 136.156 276.614 136.211 276.647 136.307L279.707 145.231L279.304 145.371C277.742 144.285 276.198 143.209 274.675 142.142C273.151 141.075 271.617 139.995 270.074 138.903L272.565 146.167C272.677 146.494 272.831 146.694 273.027 146.766C273.233 146.835 273.571 146.788 274.041 146.625L274.199 147.088L271.252 148.107L271.093 147.645C271.534 147.492 271.827 147.315 271.973 147.114C272.086 146.914 272.092 146.664 271.989 146.366L269.41 138.842C269.328 138.601 269.18 138.453 268.968 138.397C268.762 138.328 268.429 138.374 267.969 138.533L267.801 138.042L269.627 137.41C271.112 138.426 272.582 139.43 274.037 140.424C275.499 141.404 276.973 142.402 278.458 143.418L276.096 136.53C275.997 136.241 275.843 136.074 275.634 136.027C275.403 135.978 275.081 136.025 274.669 136.167L274.515 135.72L277.449 134.705L277.602 135.153ZM288.725 139.092C288.783 139.104 288.846 139.115 288.913 139.124C288.981 139.133 289.043 139.144 289.101 139.156C289.087 139.645 289.074 140.124 289.062 140.591C289.057 141.045 289.042 141.502 289.018 141.963L281.613 144.524L281.455 144.062C281.896 143.909 282.192 143.726 282.344 143.512C282.457 143.311 282.464 143.066 282.365 142.777L279.821 135.355C279.784 135.249 279.739 135.162 279.683 135.095C279.593 134.987 279.5 134.906 279.407 134.852C279.156 134.745 278.795 134.773 278.326 134.935L278.162 134.458L285.237 132.012C285.541 132.37 285.84 132.724 286.132 133.075C286.433 133.423 286.737 133.776 287.041 134.134C287.003 134.179 286.967 134.23 286.932 134.285C286.894 134.33 286.855 134.371 286.813 134.407C286.473 134.072 286.134 133.818 285.796 133.644C285.458 133.47 285.158 133.348 284.898 133.276C284.271 133.105 283.622 133.136 282.951 133.368L281.427 133.895C281.12 134.001 280.894 134.154 280.749 134.356C280.644 134.521 280.642 134.748 280.741 135.037L281.855 138.286L284.012 137.54C284.472 137.381 284.753 137.17 284.857 136.909C284.991 136.582 284.94 136.072 284.702 135.379L285.133 135.23L286.505 139.23L286.073 139.379C285.819 138.638 285.544 138.195 285.248 138.049C285.006 137.907 284.655 137.915 284.195 138.074L282.038 138.82L283.291 142.474C283.393 142.772 283.537 142.959 283.724 143.034C283.846 143.078 283.973 143.088 284.104 143.064C284.248 143.047 284.402 143.01 284.565 142.954L286.218 142.382C286.976 142.12 287.517 141.776 287.843 141.351C288.036 141.102 288.202 140.786 288.339 140.405C288.486 140.02 288.615 139.582 288.725 139.092ZM299.785 127.498C299.315 127.66 299.009 127.863 298.867 128.106C298.76 128.294 298.723 128.544 298.754 128.856L299.283 138.607L298.938 138.726C298.174 137.623 297.414 136.534 296.66 135.46C295.906 134.385 295.145 133.292 294.377 132.179C294.445 133.533 294.506 134.869 294.561 136.186C294.625 137.499 294.689 138.828 294.754 140.173L294.394 140.297L288.701 131.993C288.571 131.801 288.42 131.692 288.25 131.665C288.022 131.625 287.678 131.685 287.218 131.844L287.06 131.382L290.668 130.134L290.827 130.596C290.491 130.712 290.222 130.816 290.017 130.908C289.823 130.997 289.702 131.082 289.654 131.163C289.613 131.231 289.604 131.315 289.628 131.414C289.658 131.501 289.697 131.584 289.746 131.664L294.045 138.012C293.982 136.859 293.917 135.714 293.848 134.575C293.788 133.432 293.727 132.285 293.665 131.133L293.215 130.432C293.15 130.336 293.076 130.26 292.992 130.202C292.908 130.145 292.826 130.109 292.746 130.094C292.559 130.05 292.217 130.115 291.718 130.287L291.56 129.825L295.198 128.567L295.356 129.029C295.001 129.152 294.727 129.258 294.532 129.347C294.337 129.436 294.216 129.521 294.169 129.601C294.128 129.669 294.106 129.747 294.104 129.834C294.108 129.908 294.151 130.001 294.232 130.113L298.584 136.474L298.15 128.968C298.139 128.842 298.12 128.725 298.093 128.616C298.063 128.497 297.997 128.412 297.894 128.362C297.726 128.28 297.316 128.352 296.665 128.577L296.506 128.115L299.626 127.036L299.785 127.498ZM303.145 127.192C303.254 127.51 303.367 127.934 303.485 128.464C303.608 128.981 303.739 129.533 303.876 130.121C304.013 130.709 304.15 131.297 304.288 131.885C304.434 132.47 304.584 132.983 304.736 133.426L304.376 133.55C304.198 133.031 303.987 132.495 303.745 131.944C303.502 131.392 303.255 130.858 303.003 130.342C302.757 129.814 302.528 129.317 302.315 128.852C302.102 128.387 301.938 127.986 301.822 127.649C301.661 127.178 301.589 126.798 301.609 126.512C301.638 126.222 301.763 126.038 301.984 125.962C302.214 125.883 302.431 125.969 302.635 126.221C302.837 126.464 303.006 126.788 303.145 127.192ZM306.04 135.495C306.109 135.697 306.097 135.895 306.002 136.089C305.918 136.28 305.784 136.407 305.602 136.47C305.401 136.54 305.208 136.525 305.025 136.427C304.841 136.329 304.715 136.179 304.645 135.977C304.576 135.775 304.585 135.583 304.673 135.402C304.758 135.211 304.901 135.081 305.102 135.012C305.294 134.945 305.482 134.961 305.665 135.059C305.846 135.147 305.971 135.293 306.04 135.495Z" fill="white"/>
</g>
<defs>
<clipPath id="clip0_131_100">
<rect width="63" height="40" fill="white" transform="translate(256 117)"/>
</clipPath>
</defs>
</svg>
